<svg width="221" height="66" viewBox="0 0 221 66" fill="none" xmlns="http://www.w3.org/2000/svg">
<path d="M212.667 1.63998C216.423 1.63998 219.527 4.74331 219.527 8.49998V57.5C219.527 61.2566 216.423 64.36 212.667 64.36H8.49998C4.74331 64.36 1.63998 61.2566 1.63998 57.5V8.49998C1.63998 4.74331 4.74331 1.63998 8.49998 1.63998H212.667ZM212.667 0.333313H8.49998C3.92665 0.333313 0.333313 4.08998 0.333313 8.49998V57.5C0.333313 62.0733 4.08998 65.6666 8.49998 65.6666H212.667C217.24 65.6666 220.833 61.91 220.833 57.5V8.49998C220.833 4.08998 217.24 0.333313 212.667 0.333313Z" fill="#575B5E"/>
<path d="M77.7532 16.9934C77.7532 18.3001 77.4265 19.4434 76.6098 20.2601C75.6298 21.2401 74.4865 21.7301 73.0165 21.7301C71.5465 21.7301 70.4032 21.2401 69.4232 20.2601C68.4432 19.2801 67.9532 18.1367 67.9532 16.6667C67.9532 15.1967 68.4432 14.0534 69.4232 13.0734C70.4032 12.0934 71.5465 11.6034 73.0165 11.6034C73.6698 11.6034 74.3232 11.7667 74.9765 12.0934C75.6298 12.4201 76.1198 12.7467 76.4465 13.2367L75.6298 14.0534C74.9765 13.2367 74.1598 12.9101 73.0165 12.9101C72.0365 12.9101 71.0565 13.2367 70.4032 14.0534C69.5865 14.7067 69.2598 15.6867 69.2598 16.8301C69.2598 17.9734 69.5865 18.9534 70.4032 19.6067C71.2198 20.2601 72.0365 20.7501 73.0165 20.7501C74.1598 20.7501 74.9765 20.4234 75.7932 19.6067C76.2832 19.1167 76.6098 18.4634 76.6098 17.6467H73.0165V16.5034H77.7532C77.7532 16.5034 77.7532 16.8301 77.7532 16.9934Z" fill="#575B5E" stroke="#575B5E" stroke-width="0.326667" stroke-miterlimit="10"/>
<path d="M85.2667 12.9101H80.8567V16.0134H84.94V17.1567H80.8567V20.2601H85.2667V21.5667H79.55V11.7667H85.2667V12.9101Z" fill="#575B5E" stroke="#575B5E" stroke-width="0.326667" stroke-miterlimit="10"/>
<path d="M90.6563 21.5667H89.3497V12.9101H86.573V11.7667H93.433V12.9101H90.6563V21.5667Z" fill="#575B5E" stroke="#575B5E" stroke-width="0.326667" stroke-miterlimit="10"/>
<path d="M98.1698 21.5667V11.7667H99.4765V21.5667H98.1698Z" fill="#575B5E" stroke="#575B5E" stroke-width="0.326667" stroke-miterlimit="10"/>
<path d="M105.03 21.5667H103.723V12.9101H100.946V11.7667H107.643V12.9101H104.866V21.5667H105.03Z" fill="#575B5E" stroke="#575B5E" stroke-width="0.326667" stroke-miterlimit="10"/>
<path d="M120.546 20.2601C119.566 21.2401 118.423 21.7301 116.953 21.7301C115.483 21.7301 114.34 21.2401 113.36 20.2601C112.38 19.2801 111.89 18.1367 111.89 16.6667C111.89 15.1967 112.38 14.0534 113.36 13.0734C114.34 12.0934 115.483 11.6034 116.953 11.6034C118.423 11.6034 119.566 12.0934 120.546 13.0734C121.526 14.0534 122.016 15.1967 122.016 16.6667C122.016 18.1367 121.526 19.2801 120.546 20.2601ZM114.34 19.4434C114.993 20.0967 115.973 20.5867 116.953 20.5867C117.933 20.5867 118.913 20.2601 119.566 19.4434C120.22 18.7901 120.71 17.8101 120.71 16.6667C120.71 15.5234 120.383 14.5434 119.566 13.8901C118.913 13.2367 117.933 12.7467 116.953 12.7467C115.973 12.7467 114.993 13.0734 114.34 13.8901C113.686 14.5434 113.196 15.5234 113.196 16.6667C113.196 17.8101 113.523 18.7901 114.34 19.4434Z" fill="#575B5E" stroke="#575B5E" stroke-width="0.326667" stroke-miterlimit="10"/>
<path d="M123.813 21.5667V11.7667H125.283L130.02 19.4434V17.4834V11.7667H131.326V21.5667H130.02L124.956 13.5634V15.5234V21.5667H123.813Z" fill="#575B5E" stroke="#575B5E" stroke-width="0.326667" stroke-miterlimit="10"/>
<path d="M111.563 35.94C107.643 35.94 104.54 38.88 104.54 42.9634C104.54 46.8834 107.643 49.9867 111.563 49.9867C115.483 49.9867 118.587 47.0467 118.587 42.9634C118.587 38.7167 115.483 35.94 111.563 35.94ZM111.563 47.0467C109.44 47.0467 107.643 45.25 107.643 42.8C107.643 40.35 109.44 38.5534 111.563 38.5534C113.687 38.5534 115.483 40.1867 115.483 42.8C115.483 45.25 113.687 47.0467 111.563 47.0467ZM96.3735 35.94C92.4535 35.94 89.3502 38.88 89.3502 42.9634C89.3502 46.8834 92.4535 49.9867 96.3735 49.9867C100.293 49.9867 103.397 47.0467 103.397 42.9634C103.397 38.7167 100.293 35.94 96.3735 35.94ZM96.3735 47.0467C94.2502 47.0467 92.4535 45.25 92.4535 42.8C92.4535 40.35 94.2502 38.5534 96.3735 38.5534C98.4968 38.5534 100.293 40.1867 100.293 42.8C100.293 45.25 98.4968 47.0467 96.3735 47.0467ZM78.2435 38.0634V41.0034H85.2668C85.1035 42.6367 84.4502 43.9434 83.6335 44.76C82.6535 45.74 81.0202 46.8834 78.2435 46.8834C73.8335 46.8834 70.5668 43.4534 70.5668 39.0434C70.5668 34.6334 73.9968 31.2034 78.2435 31.2034C80.5302 31.2034 82.3268 32.1834 83.6335 33.3267L85.7568 31.2034C83.9602 29.57 81.6735 28.2634 78.4068 28.2634C72.5268 28.2634 67.4635 33.1634 67.4635 39.0434C67.4635 44.9234 72.5268 49.8234 78.4068 49.8234C81.6735 49.8234 83.9602 48.8434 85.9202 46.72C87.8802 44.76 88.5335 41.9834 88.5335 39.86C88.5335 39.2067 88.5335 38.5534 88.3702 38.0634H78.2435ZM152.397 40.35C151.743 38.7167 150.11 35.94 146.517 35.94C142.923 35.94 139.983 38.7167 139.983 42.9634C139.983 46.8834 142.923 49.9867 146.843 49.9867C149.947 49.9867 151.907 48.0267 152.56 46.8834L150.273 45.25C149.457 46.3934 148.477 47.21 146.843 47.21C145.21 47.21 144.23 46.5567 143.413 45.0867L152.723 41.1667L152.397 40.35ZM142.923 42.6367C142.923 40.0234 145.047 38.5534 146.517 38.5534C147.66 38.5534 148.803 39.2067 149.13 40.0234L142.923 42.6367ZM135.247 49.3334H138.35V28.9167H135.247V49.3334ZM130.347 37.41C129.53 36.5934 128.223 35.7767 126.59 35.7767C123.16 35.7767 119.893 38.88 119.893 42.8C119.893 46.72 122.997 49.66 126.59 49.66C128.223 49.66 129.53 48.8434 130.183 48.0267H130.347V49.0067C130.347 51.62 128.877 53.09 126.59 53.09C124.793 53.09 123.487 51.7834 123.16 50.64L120.547 51.7834C121.363 53.58 123.323 55.8667 126.753 55.8667C130.347 55.8667 133.287 53.7434 133.287 48.68V36.2667H130.347V37.41ZM126.753 47.0467C124.63 47.0467 122.833 45.25 122.833 42.8C122.833 40.35 124.63 38.5534 126.753 38.5534C128.877 38.5534 130.51 40.35 130.51 42.8C130.51 45.25 128.877 47.0467 126.753 47.0467ZM166.607 28.9167H159.257V49.3334H162.36V41.6567H166.607C170.037 41.6567 173.303 39.2067 173.303 35.2867C173.303 31.3667 170.037 28.9167 166.607 28.9167ZM166.77 38.7167H162.36V31.6934H166.77C169.057 31.6934 170.363 33.6534 170.363 35.1234C170.2 36.92 168.893 38.7167 166.77 38.7167ZM185.553 35.7767C183.267 35.7767 180.98 36.7567 180.163 38.88L182.94 40.0234C183.593 38.88 184.573 38.5534 185.717 38.5534C187.35 38.5534 188.82 39.5334 188.983 41.1667V41.33C188.493 41.0034 187.187 40.5134 185.88 40.5134C182.94 40.5134 180 42.1467 180 45.0867C180 47.8634 182.45 49.66 185.063 49.66C187.187 49.66 188.167 48.68 188.983 47.7H189.147V49.3334H192.087V41.4934C191.76 37.9 188.983 35.7767 185.553 35.7767ZM185.227 47.0467C184.247 47.0467 182.777 46.5567 182.777 45.25C182.777 43.6167 184.573 43.1267 186.043 43.1267C187.35 43.1267 188.003 43.4534 188.82 43.78C188.493 45.74 186.86 47.0467 185.227 47.0467ZM202.377 36.2667L198.947 45.0867H198.783L195.19 36.2667H191.923L197.313 48.68L194.21 55.54H197.313L205.643 36.2667H202.377ZM174.937 49.3334H178.04V28.9167H174.937V49.3334Z" fill="#575B5E"/>
<path d="M17.3198 12.5834C16.8298 13.0734 16.5032 13.89 16.5032 14.87V50.9667C16.5032 51.9467 16.8298 52.7634 17.3198 53.2534L17.4832 53.4167L37.7365 33.1634V33V32.8367L17.3198 12.5834Z" fill="#00A0FF"/>
<path d="M44.4332 40.0233L37.7365 33.3267V33V32.8367L44.4332 26.14L44.5965 26.3033L52.5998 30.8767C54.8865 32.1834 54.8865 34.3067 52.5998 35.6133L44.4332 40.0233Z" fill="#FFE000"/>
<path d="M44.5965 39.8601L37.7365 33.0001L17.3198 53.4167C18.1365 54.2334 19.2798 54.2334 20.7498 53.5801L44.5965 39.8601Z" fill="#FF3A44"/>
<path d="M44.5965 26.14L20.7498 12.5834C19.2798 11.7667 18.1365 11.93 17.3198 12.7467L37.7365 33L44.5965 26.14Z" fill="#32A071"/>
</svg>
