<svg width="513" height="1157" viewBox="0 0 513 1157" fill="none" xmlns="http://www.w3.org/2000/svg">
<g opacity="0.05">
<path opacity="0.91" d="M294.117 173.6C-41.0647 -120.121 -159.262 44.9446 -167.528 57.525C-167.874 58.0519 -167.997 58.5989 -167.991 59.2293L-164.061 482.113C-162.901 606.932 -62.271 709.256 59.5524 682.05C198.056 651.118 360.425 579.852 416.401 416.321C470.187 259.188 320.966 197.127 294.117 173.6Z" fill="#2F80ED"/>
</g>
<g opacity="0.91" filter="url(#filter0_d)">
<path d="M336.788 724.342C215.465 618.049 133.184 594.049 80.4203 597.849C27.6922 601.646 4.16882 633.228 0.400146 638.817C0.117065 639.237 0.00494385 639.679 0.0105896 640.284L1.91794 845.465C2.61057 919.975 34.1832 989.418 82.5789 1032.72C130.946 1075.99 196.093 1093.15 264.14 1063.24C334.219 1032.43 398.206 982.347 426.059 900.993C435.852 872.39 436.387 848.171 431.423 827.665C426.457 807.152 415.972 790.29 403.625 776.432C391.274 762.571 377.076 751.733 364.711 743.273C359.866 739.958 355.312 737.015 351.257 734.394C350.136 733.669 349.052 732.968 348.011 732.292C343.232 729.185 339.31 726.551 336.788 724.342Z" stroke="#4F4F4F" stroke-width="2"/>
</g>
<mask id="mask0" style="mask-type:alpha" maskUnits="userSpaceOnUse" x="-1" y="537" width="362" height="391">
<path opacity="0.69" d="M279.682 642.787C79.4857 467.57 6.73273 561.485 -0.406982 571.916C-0.834045 572.54 -0.996277 573.221 -0.989258 573.977L0.163696 697.878C1.5553 847.426 132.604 982.65 259.673 903.783C301.152 878.038 336.283 841.596 353.955 790.031C386.623 694.708 295.99 657.06 279.682 642.787Z" fill="#25356A" fill-opacity="0.35"/>
</mask>
<g mask="url(#mask0)">
<circle cx="1.13984" cy="532.547" r="5.07203" fill="#25356A" fill-opacity="0.35"/>
<circle cx="18.0466" cy="532.547" r="5.07203" fill="#25356A" fill-opacity="0.35"/>
<circle cx="34.9534" cy="532.547" r="5.07203" fill="#25356A" fill-opacity="0.35"/>
<circle cx="51.8602" cy="532.547" r="5.07203" fill="#25356A" fill-opacity="0.35"/>
<circle cx="68.767" cy="532.547" r="5.07203" fill="#25356A" fill-opacity="0.35"/>
<circle cx="85.6737" cy="532.547" r="5.07203" fill="#25356A" fill-opacity="0.35"/>
<circle cx="102.581" cy="532.547" r="5.07203" fill="#25356A" fill-opacity="0.35"/>
<circle cx="119.487" cy="532.547" r="5.07203" fill="#25356A" fill-opacity="0.35"/>
<circle cx="136.394" cy="532.547" r="5.07203" fill="#25356A" fill-opacity="0.35"/>
<circle cx="153.301" cy="532.547" r="5.07203" fill="#25356A" fill-opacity="0.35"/>
<circle cx="170.208" cy="532.547" r="5.07203" fill="#25356A" fill-opacity="0.35"/>
<circle cx="187.114" cy="532.547" r="5.07203" fill="#25356A" fill-opacity="0.35"/>
<circle cx="204.021" cy="532.547" r="5.07203" fill="#25356A" fill-opacity="0.35"/>
<circle cx="220.928" cy="532.547" r="5.07203" fill="#25356A" fill-opacity="0.35"/>
<circle cx="237.835" cy="532.547" r="5.07203" fill="#25356A" fill-opacity="0.35"/>
<circle cx="254.742" cy="532.547" r="5.07203" fill="#25356A" fill-opacity="0.35"/>
<circle cx="271.648" cy="532.547" r="5.07203" fill="#25356A" fill-opacity="0.35"/>
<circle cx="288.555" cy="532.547" r="5.07203" fill="#25356A" fill-opacity="0.35"/>
<circle cx="305.462" cy="532.547" r="5.07203" fill="#25356A" fill-opacity="0.35"/>
<circle cx="322.369" cy="532.547" r="5.07203" fill="#25356A" fill-opacity="0.35"/>
<circle cx="339.275" cy="532.547" r="5.07203" fill="#25356A" fill-opacity="0.35"/>
<circle cx="356.182" cy="532.547" r="5.07203" fill="#25356A" fill-opacity="0.35"/>
<circle cx="1.13984" cy="549.454" r="5.07203" fill="#25356A" fill-opacity="0.35"/>
<circle cx="34.9534" cy="549.454" r="5.07203" fill="#25356A" fill-opacity="0.35"/>
<circle cx="51.8602" cy="549.454" r="5.07203" fill="#25356A" fill-opacity="0.35"/>
<circle cx="68.767" cy="549.454" r="5.07203" fill="#25356A" fill-opacity="0.35"/>
<circle cx="85.6737" cy="549.454" r="5.07203" fill="#25356A" fill-opacity="0.35"/>
<circle cx="102.581" cy="549.454" r="5.07203" fill="#25356A" fill-opacity="0.35"/>
<circle cx="153.301" cy="549.454" r="5.07203" fill="#25356A" fill-opacity="0.35"/>
<circle cx="170.208" cy="549.454" r="5.07203" fill="#25356A" fill-opacity="0.35"/>
<circle cx="187.114" cy="549.454" r="5.07203" fill="#25356A" fill-opacity="0.35"/>
<circle cx="204.021" cy="549.454" r="5.07203" fill="#25356A" fill-opacity="0.35"/>
<circle cx="220.928" cy="549.454" r="5.07203" fill="#25356A" fill-opacity="0.35"/>
<circle cx="237.835" cy="549.454" r="5.07203" fill="#25356A" fill-opacity="0.35"/>
<circle cx="254.742" cy="549.454" r="5.07203" fill="#25356A" fill-opacity="0.35"/>
<circle cx="271.648" cy="549.454" r="5.07203" fill="#25356A" fill-opacity="0.35"/>
<circle cx="288.555" cy="549.454" r="5.07203" fill="#25356A" fill-opacity="0.35"/>
<circle cx="305.462" cy="549.454" r="5.07203" fill="#25356A" fill-opacity="0.35"/>
<circle cx="322.369" cy="549.454" r="5.07203" fill="#25356A" fill-opacity="0.35"/>
<circle cx="339.275" cy="549.454" r="5.07203" fill="#25356A" fill-opacity="0.35"/>
<circle cx="356.182" cy="549.454" r="5.07203" fill="#25356A" fill-opacity="0.35"/>
<circle cx="18.0466" cy="566.361" r="5.07203" fill="#25356A" fill-opacity="0.35"/>
<circle cx="34.9534" cy="566.361" r="5.07203" fill="#25356A" fill-opacity="0.35"/>
<circle cx="51.8602" cy="566.361" r="5.07203" fill="#25356A" fill-opacity="0.35"/>
<circle cx="68.767" cy="566.361" r="5.07203" fill="#25356A" fill-opacity="0.35"/>
<circle cx="85.6737" cy="566.361" r="5.07203" fill="#25356A" fill-opacity="0.35"/>
<circle cx="102.581" cy="566.361" r="5.07203" fill="#25356A" fill-opacity="0.35"/>
<circle cx="119.487" cy="566.361" r="5.07203" fill="#25356A" fill-opacity="0.35"/>
<circle cx="136.394" cy="566.361" r="5.07203" fill="#25356A" fill-opacity="0.35"/>
<circle cx="153.301" cy="566.361" r="5.07203" fill="#25356A" fill-opacity="0.35"/>
<circle cx="187.114" cy="566.361" r="5.07203" fill="#25356A" fill-opacity="0.35"/>
<circle cx="204.021" cy="566.361" r="5.07203" fill="#25356A" fill-opacity="0.35"/>
<circle cx="220.928" cy="566.361" r="5.07203" fill="#25356A" fill-opacity="0.35"/>
<circle cx="237.835" cy="566.361" r="5.07203" fill="#25356A" fill-opacity="0.35"/>
<circle cx="254.742" cy="566.361" r="5.07203" fill="#25356A" fill-opacity="0.35"/>
<circle cx="271.648" cy="566.361" r="5.07203" fill="#25356A" fill-opacity="0.35"/>
<circle cx="288.555" cy="566.361" r="5.07203" fill="#25356A" fill-opacity="0.35"/>
<circle cx="305.462" cy="566.361" r="5.07203" fill="#25356A" fill-opacity="0.35"/>
<circle cx="322.369" cy="566.361" r="5.07203" fill="#25356A" fill-opacity="0.35"/>
<circle cx="339.275" cy="566.361" r="5.07203" fill="#25356A" fill-opacity="0.35"/>
<circle cx="356.182" cy="566.361" r="5.07203" fill="#25356A" fill-opacity="0.35"/>
<circle cx="18.0466" cy="583.267" r="5.07203" fill="#25356A" fill-opacity="0.35"/>
<circle cx="34.9534" cy="583.267" r="5.07203" fill="#25356A" fill-opacity="0.35"/>
<circle cx="51.8602" cy="583.267" r="5.07203" fill="#25356A" fill-opacity="0.35"/>
<circle cx="68.767" cy="583.267" r="5.07203" fill="#25356A" fill-opacity="0.35"/>
<circle cx="85.6737" cy="583.267" r="5.07203" fill="#25356A" fill-opacity="0.35"/>
<circle cx="102.581" cy="583.267" r="5.07203" fill="#25356A" fill-opacity="0.35"/>
<circle cx="119.487" cy="583.267" r="5.07203" fill="#25356A" fill-opacity="0.35"/>
<circle cx="136.394" cy="583.267" r="5.07203" fill="#25356A" fill-opacity="0.35"/>
<circle cx="153.301" cy="583.267" r="5.07203" fill="#25356A" fill-opacity="0.35"/>
<circle cx="170.208" cy="583.267" r="5.07203" fill="#25356A" fill-opacity="0.35"/>
<circle cx="187.114" cy="583.267" r="5.07203" fill="#25356A" fill-opacity="0.35"/>
<circle cx="220.928" cy="583.267" r="5.07203" fill="#25356A" fill-opacity="0.35"/>
<circle cx="237.835" cy="583.267" r="5.07203" fill="#25356A" fill-opacity="0.35"/>
<circle cx="254.742" cy="583.267" r="5.07203" fill="#25356A" fill-opacity="0.35"/>
<circle cx="271.648" cy="583.267" r="5.07203" fill="#25356A" fill-opacity="0.35"/>
<circle cx="288.555" cy="583.267" r="5.07203" fill="#25356A" fill-opacity="0.35"/>
<circle cx="305.462" cy="583.267" r="5.07203" fill="#25356A" fill-opacity="0.35"/>
<circle cx="322.369" cy="583.267" r="5.07203" fill="#25356A" fill-opacity="0.35"/>
<circle cx="339.275" cy="583.267" r="5.07203" fill="#25356A" fill-opacity="0.35"/>
<circle cx="356.182" cy="583.267" r="5.07203" fill="#25356A" fill-opacity="0.35"/>
<circle cx="18.0466" cy="600.174" r="5.07203" fill="#25356A" fill-opacity="0.35"/>
<circle cx="34.9534" cy="600.174" r="5.07203" fill="#25356A" fill-opacity="0.35"/>
<circle cx="51.8602" cy="600.174" r="5.07203" fill="#25356A" fill-opacity="0.35"/>
<circle cx="68.767" cy="600.174" r="5.07203" fill="#25356A" fill-opacity="0.35"/>
<circle cx="85.6737" cy="600.174" r="5.07203" fill="#25356A" fill-opacity="0.35"/>
<circle cx="102.581" cy="600.174" r="5.07203" fill="#25356A" fill-opacity="0.35"/>
<circle cx="119.487" cy="600.174" r="5.07203" fill="#25356A" fill-opacity="0.35"/>
<circle cx="136.394" cy="600.174" r="5.07203" fill="#25356A" fill-opacity="0.35"/>
<circle cx="153.301" cy="600.174" r="5.07203" fill="#25356A" fill-opacity="0.35"/>
<circle cx="170.208" cy="600.174" r="5.07203" fill="#25356A" fill-opacity="0.35"/>
<circle cx="187.114" cy="600.174" r="5.07203" fill="#25356A" fill-opacity="0.35"/>
<circle cx="204.021" cy="600.174" r="5.07203" fill="#25356A" fill-opacity="0.35"/>
<circle cx="237.835" cy="600.174" r="5.07203" fill="#25356A" fill-opacity="0.35"/>
<circle cx="254.742" cy="600.174" r="5.07203" fill="#25356A" fill-opacity="0.35"/>
<circle cx="271.648" cy="600.174" r="5.07203" fill="#25356A" fill-opacity="0.35"/>
<circle cx="288.555" cy="600.174" r="5.07203" fill="#25356A" fill-opacity="0.35"/>
<circle cx="305.462" cy="600.174" r="5.07203" fill="#25356A" fill-opacity="0.35"/>
<circle cx="322.369" cy="600.174" r="5.07203" fill="#25356A" fill-opacity="0.35"/>
<circle cx="339.275" cy="600.174" r="5.07203" fill="#25356A" fill-opacity="0.35"/>
<circle cx="356.182" cy="600.174" r="5.07203" fill="#25356A" fill-opacity="0.35"/>
<circle cx="1.13984" cy="617.081" r="5.07203" fill="#25356A" fill-opacity="0.35"/>
<circle cx="18.0466" cy="617.081" r="5.07203" fill="#25356A" fill-opacity="0.35"/>
<circle cx="34.9534" cy="617.081" r="5.07203" fill="#25356A" fill-opacity="0.35"/>
<circle cx="51.8602" cy="617.081" r="5.07203" fill="#25356A" fill-opacity="0.35"/>
<circle cx="68.767" cy="617.081" r="5.07203" fill="#25356A" fill-opacity="0.35"/>
<circle cx="85.6737" cy="617.081" r="5.07203" fill="#25356A" fill-opacity="0.35"/>
<circle cx="102.581" cy="617.081" r="5.07203" fill="#25356A" fill-opacity="0.35"/>
<circle cx="119.487" cy="617.081" r="5.07203" fill="#25356A" fill-opacity="0.35"/>
<circle cx="136.394" cy="617.081" r="5.07203" fill="#25356A" fill-opacity="0.35"/>
<circle cx="153.301" cy="617.081" r="5.07203" fill="#25356A" fill-opacity="0.35"/>
<circle cx="170.208" cy="617.081" r="5.07203" fill="#25356A" fill-opacity="0.35"/>
<circle cx="187.114" cy="617.081" r="5.07203" fill="#25356A" fill-opacity="0.35"/>
<circle cx="204.021" cy="617.081" r="5.07203" fill="#25356A" fill-opacity="0.35"/>
<circle cx="220.928" cy="617.081" r="5.07203" fill="#25356A" fill-opacity="0.35"/>
<circle cx="237.835" cy="617.081" r="5.07203" fill="#25356A" fill-opacity="0.35"/>
<circle cx="271.648" cy="617.081" r="5.07203" fill="#25356A" fill-opacity="0.35"/>
<circle cx="288.555" cy="617.081" r="5.07203" fill="#25356A" fill-opacity="0.35"/>
<circle cx="305.462" cy="617.081" r="5.07203" fill="#25356A" fill-opacity="0.35"/>
<circle cx="322.369" cy="617.081" r="5.07203" fill="#25356A" fill-opacity="0.35"/>
<circle cx="339.275" cy="617.081" r="5.07203" fill="#25356A" fill-opacity="0.35"/>
<circle cx="356.182" cy="617.081" r="5.07203" fill="#25356A" fill-opacity="0.35"/>
<circle cx="1.13984" cy="633.988" r="5.07203" fill="#25356A" fill-opacity="0.35"/>
<circle cx="18.0466" cy="633.988" r="5.07203" fill="#25356A" fill-opacity="0.35"/>
<circle cx="34.9534" cy="633.988" r="5.07203" fill="#25356A" fill-opacity="0.35"/>
<circle cx="51.8602" cy="633.988" r="5.07203" fill="#25356A" fill-opacity="0.35"/>
<circle cx="68.767" cy="633.988" r="5.07203" fill="#25356A" fill-opacity="0.35"/>
<circle cx="85.6737" cy="633.988" r="5.07203" fill="#25356A" fill-opacity="0.35"/>
<circle cx="102.581" cy="633.988" r="5.07203" fill="#25356A" fill-opacity="0.35"/>
<circle cx="119.487" cy="633.988" r="5.07203" fill="#25356A" fill-opacity="0.35"/>
<circle cx="136.394" cy="633.988" r="5.07203" fill="#25356A" fill-opacity="0.35"/>
<circle cx="153.301" cy="633.988" r="5.07203" fill="#25356A" fill-opacity="0.35"/>
<circle cx="170.208" cy="633.988" r="5.07203" fill="#25356A" fill-opacity="0.35"/>
<circle cx="187.114" cy="633.988" r="5.07203" fill="#25356A" fill-opacity="0.35"/>
<circle cx="204.021" cy="633.988" r="5.07203" fill="#25356A" fill-opacity="0.35"/>
<circle cx="220.928" cy="633.988" r="5.07203" fill="#25356A" fill-opacity="0.35"/>
<circle cx="237.835" cy="633.988" r="5.07203" fill="#25356A" fill-opacity="0.35"/>
<circle cx="254.742" cy="633.988" r="5.07203" fill="#25356A" fill-opacity="0.35"/>
<circle cx="288.555" cy="633.988" r="5.07203" fill="#25356A" fill-opacity="0.35"/>
<circle cx="305.462" cy="633.988" r="5.07203" fill="#25356A" fill-opacity="0.35"/>
<circle cx="322.369" cy="633.988" r="5.07203" fill="#25356A" fill-opacity="0.35"/>
<circle cx="339.275" cy="633.988" r="5.07203" fill="#25356A" fill-opacity="0.35"/>
<circle cx="356.182" cy="633.988" r="5.07203" fill="#25356A" fill-opacity="0.35"/>
<circle cx="1.13984" cy="650.894" r="5.07203" fill="#25356A" fill-opacity="0.35"/>
<circle cx="18.0466" cy="650.894" r="5.07203" fill="#25356A" fill-opacity="0.35"/>
<circle cx="34.9534" cy="650.894" r="5.07203" fill="#25356A" fill-opacity="0.35"/>
<circle cx="51.8602" cy="650.894" r="5.07203" fill="#25356A" fill-opacity="0.35"/>
<circle cx="68.767" cy="650.894" r="5.07203" fill="#25356A" fill-opacity="0.35"/>
<circle cx="85.6737" cy="650.894" r="5.07203" fill="#25356A" fill-opacity="0.35"/>
<circle cx="102.581" cy="650.894" r="5.07203" fill="#25356A" fill-opacity="0.35"/>
<circle cx="119.487" cy="650.894" r="5.07203" fill="#25356A" fill-opacity="0.35"/>
<circle cx="136.394" cy="650.894" r="5.07203" fill="#25356A" fill-opacity="0.35"/>
<circle cx="153.301" cy="650.894" r="5.07203" fill="#25356A" fill-opacity="0.35"/>
<circle cx="170.208" cy="650.894" r="5.07203" fill="#25356A" fill-opacity="0.35"/>
<circle cx="187.114" cy="650.894" r="5.07203" fill="#25356A" fill-opacity="0.35"/>
<circle cx="204.021" cy="650.894" r="5.07203" fill="#25356A" fill-opacity="0.35"/>
<circle cx="220.928" cy="650.894" r="5.07203" fill="#25356A" fill-opacity="0.35"/>
<circle cx="237.835" cy="650.894" r="5.07203" fill="#25356A" fill-opacity="0.35"/>
<circle cx="254.742" cy="650.894" r="5.07203" fill="#25356A" fill-opacity="0.35"/>
<circle cx="271.648" cy="650.894" r="5.07203" fill="#25356A" fill-opacity="0.35"/>
<circle cx="305.462" cy="650.894" r="5.07203" fill="#25356A" fill-opacity="0.35"/>
<circle cx="322.369" cy="650.894" r="5.07203" fill="#25356A" fill-opacity="0.35"/>
<circle cx="339.275" cy="650.894" r="5.07203" fill="#25356A" fill-opacity="0.35"/>
<circle cx="356.182" cy="650.894" r="5.07203" fill="#25356A" fill-opacity="0.35"/>
<circle cx="1.13984" cy="667.801" r="5.07203" fill="#25356A" fill-opacity="0.35"/>
<circle cx="18.0466" cy="667.801" r="5.07203" fill="#25356A" fill-opacity="0.35"/>
<circle cx="34.9534" cy="667.801" r="5.07203" fill="#25356A" fill-opacity="0.35"/>
<circle cx="51.8602" cy="667.801" r="5.07203" fill="#25356A" fill-opacity="0.35"/>
<circle cx="68.767" cy="667.801" r="5.07203" fill="#25356A" fill-opacity="0.35"/>
<circle cx="85.6737" cy="667.801" r="5.07203" fill="#25356A" fill-opacity="0.35"/>
<circle cx="102.581" cy="667.801" r="5.07203" fill="#25356A" fill-opacity="0.35"/>
<circle cx="119.487" cy="667.801" r="5.07203" fill="#25356A" fill-opacity="0.35"/>
<circle cx="136.394" cy="667.801" r="5.07203" fill="#25356A" fill-opacity="0.35"/>
<circle cx="153.301" cy="667.801" r="5.07203" fill="#25356A" fill-opacity="0.35"/>
<circle cx="170.208" cy="667.801" r="5.07203" fill="#25356A" fill-opacity="0.35"/>
<circle cx="187.114" cy="667.801" r="5.07203" fill="#25356A" fill-opacity="0.35"/>
<circle cx="204.021" cy="667.801" r="5.07203" fill="#25356A" fill-opacity="0.35"/>
<circle cx="220.928" cy="667.801" r="5.07203" fill="#25356A" fill-opacity="0.35"/>
<circle cx="237.835" cy="667.801" r="5.07203" fill="#25356A" fill-opacity="0.35"/>
<circle cx="254.742" cy="667.801" r="5.07203" fill="#25356A" fill-opacity="0.35"/>
<circle cx="271.648" cy="667.801" r="5.07203" fill="#25356A" fill-opacity="0.35"/>
<circle cx="288.555" cy="667.801" r="5.07203" fill="#25356A" fill-opacity="0.35"/>
<circle cx="305.462" cy="667.801" r="5.07203" fill="#25356A" fill-opacity="0.35"/>
<circle cx="339.275" cy="667.801" r="5.07203" fill="#25356A" fill-opacity="0.35"/>
<circle cx="356.182" cy="667.801" r="5.07203" fill="#25356A" fill-opacity="0.35"/>
<circle cx="1.13984" cy="684.708" r="5.07203" fill="#25356A" fill-opacity="0.35"/>
<circle cx="18.0466" cy="684.708" r="5.07203" fill="#25356A" fill-opacity="0.35"/>
<circle cx="34.9534" cy="684.708" r="5.07203" fill="#25356A" fill-opacity="0.35"/>
<circle cx="51.8602" cy="684.708" r="5.07203" fill="#25356A" fill-opacity="0.35"/>
<circle cx="68.767" cy="684.708" r="5.07203" fill="#25356A" fill-opacity="0.35"/>
<circle cx="85.6737" cy="684.708" r="5.07203" fill="#25356A" fill-opacity="0.35"/>
<circle cx="102.581" cy="684.708" r="5.07203" fill="#25356A" fill-opacity="0.35"/>
<circle cx="119.487" cy="684.708" r="5.07203" fill="#25356A" fill-opacity="0.35"/>
<circle cx="136.394" cy="684.708" r="5.07203" fill="#25356A" fill-opacity="0.35"/>
<circle cx="153.301" cy="684.708" r="5.07203" fill="#25356A" fill-opacity="0.35"/>
<circle cx="170.208" cy="684.708" r="5.07203" fill="#25356A" fill-opacity="0.35"/>
<circle cx="187.114" cy="684.708" r="5.07203" fill="#25356A" fill-opacity="0.35"/>
<circle cx="204.021" cy="684.708" r="5.07203" fill="#25356A" fill-opacity="0.35"/>
<circle cx="220.928" cy="684.708" r="5.07203" fill="#25356A" fill-opacity="0.35"/>
<circle cx="237.835" cy="684.708" r="5.07203" fill="#25356A" fill-opacity="0.35"/>
<circle cx="254.742" cy="684.708" r="5.07203" fill="#25356A" fill-opacity="0.35"/>
<circle cx="271.648" cy="684.708" r="5.07203" fill="#25356A" fill-opacity="0.35"/>
<circle cx="288.555" cy="684.708" r="5.07203" fill="#25356A" fill-opacity="0.35"/>
<circle cx="305.462" cy="684.708" r="5.07203" fill="#25356A" fill-opacity="0.35"/>
<circle cx="322.369" cy="684.708" r="5.07203" fill="#25356A" fill-opacity="0.35"/>
<circle cx="356.182" cy="684.708" r="5.07203" fill="#25356A" fill-opacity="0.35"/>
<circle cx="1.13984" cy="701.615" r="5.07203" fill="#25356A" fill-opacity="0.35"/>
<circle cx="18.0466" cy="701.615" r="5.07203" fill="#25356A" fill-opacity="0.35"/>
<circle cx="34.9534" cy="701.615" r="5.07203" fill="#25356A" fill-opacity="0.35"/>
<circle cx="51.8602" cy="701.615" r="5.07203" fill="#25356A" fill-opacity="0.35"/>
<circle cx="68.767" cy="701.615" r="5.07203" fill="#25356A" fill-opacity="0.35"/>
<circle cx="85.6737" cy="701.615" r="5.07203" fill="#25356A" fill-opacity="0.35"/>
<circle cx="102.581" cy="701.615" r="5.07203" fill="#25356A" fill-opacity="0.35"/>
<circle cx="119.487" cy="701.615" r="5.07203" fill="#25356A" fill-opacity="0.35"/>
<circle cx="136.394" cy="701.615" r="5.07203" fill="#25356A" fill-opacity="0.35"/>
<circle cx="153.301" cy="701.615" r="5.07203" fill="#25356A" fill-opacity="0.35"/>
<circle cx="170.208" cy="701.615" r="5.07203" fill="#25356A" fill-opacity="0.35"/>
<circle cx="187.114" cy="701.615" r="5.07203" fill="#25356A" fill-opacity="0.35"/>
<circle cx="204.021" cy="701.615" r="5.07203" fill="#25356A" fill-opacity="0.35"/>
<circle cx="220.928" cy="701.615" r="5.07203" fill="#25356A" fill-opacity="0.35"/>
<circle cx="237.835" cy="701.615" r="5.07203" fill="#25356A" fill-opacity="0.35"/>
<circle cx="254.742" cy="701.615" r="5.07203" fill="#25356A" fill-opacity="0.35"/>
<circle cx="271.648" cy="701.615" r="5.07203" fill="#25356A" fill-opacity="0.35"/>
<circle cx="288.555" cy="701.615" r="5.07203" fill="#25356A" fill-opacity="0.35"/>
<circle cx="305.462" cy="701.615" r="5.07203" fill="#25356A" fill-opacity="0.35"/>
<circle cx="322.369" cy="701.615" r="5.07203" fill="#25356A" fill-opacity="0.35"/>
<circle cx="339.275" cy="701.615" r="5.07203" fill="#25356A" fill-opacity="0.35"/>
<circle cx="356.182" cy="701.615" r="5.07203" fill="#25356A" fill-opacity="0.35"/>
<circle cx="1.13984" cy="718.522" r="5.07203" fill="#25356A" fill-opacity="0.35"/>
<circle cx="18.0466" cy="718.522" r="5.07203" fill="#25356A" fill-opacity="0.35"/>
<circle cx="34.9534" cy="718.522" r="5.07203" fill="#25356A" fill-opacity="0.35"/>
<circle cx="51.8602" cy="718.522" r="5.07203" fill="#25356A" fill-opacity="0.35"/>
<circle cx="68.767" cy="718.522" r="5.07203" fill="#25356A" fill-opacity="0.35"/>
<circle cx="85.6737" cy="718.522" r="5.07203" fill="#25356A" fill-opacity="0.35"/>
<circle cx="102.581" cy="718.522" r="5.07203" fill="#25356A" fill-opacity="0.35"/>
<circle cx="119.487" cy="718.522" r="5.07203" fill="#25356A" fill-opacity="0.35"/>
<circle cx="136.394" cy="718.522" r="5.07203" fill="#25356A" fill-opacity="0.35"/>
<circle cx="153.301" cy="718.522" r="5.07203" fill="#25356A" fill-opacity="0.35"/>
<circle cx="170.208" cy="718.522" r="5.07203" fill="#25356A" fill-opacity="0.35"/>
<circle cx="187.114" cy="718.522" r="5.07203" fill="#25356A" fill-opacity="0.35"/>
<circle cx="204.021" cy="718.522" r="5.07203" fill="#25356A" fill-opacity="0.35"/>
<circle cx="220.928" cy="718.522" r="5.07203" fill="#25356A" fill-opacity="0.35"/>
<circle cx="237.835" cy="718.522" r="5.07203" fill="#25356A" fill-opacity="0.35"/>
<circle cx="254.742" cy="718.522" r="5.07203" fill="#25356A" fill-opacity="0.35"/>
<circle cx="271.648" cy="718.522" r="5.07203" fill="#25356A" fill-opacity="0.35"/>
<circle cx="288.555" cy="718.522" r="5.07203" fill="#25356A" fill-opacity="0.35"/>
<circle cx="305.462" cy="718.522" r="5.07203" fill="#25356A" fill-opacity="0.35"/>
<circle cx="322.369" cy="718.522" r="5.07203" fill="#25356A" fill-opacity="0.35"/>
<circle cx="339.275" cy="718.522" r="5.07203" fill="#25356A" fill-opacity="0.35"/>
<circle cx="1.13984" cy="735.428" r="5.07203" fill="#25356A" fill-opacity="0.35"/>
<circle cx="18.0466" cy="735.428" r="5.07203" fill="#25356A" fill-opacity="0.35"/>
<circle cx="34.9534" cy="735.428" r="5.07203" fill="#25356A" fill-opacity="0.35"/>
<circle cx="51.8602" cy="735.428" r="5.07203" fill="#25356A" fill-opacity="0.35"/>
<circle cx="68.767" cy="735.428" r="5.07203" fill="#25356A" fill-opacity="0.35"/>
<circle cx="85.6737" cy="735.428" r="5.07203" fill="#25356A" fill-opacity="0.35"/>
<circle cx="102.581" cy="735.428" r="5.07203" fill="#25356A" fill-opacity="0.35"/>
<circle cx="119.487" cy="735.428" r="5.07203" fill="#25356A" fill-opacity="0.35"/>
<circle cx="136.394" cy="735.428" r="5.07203" fill="#25356A" fill-opacity="0.35"/>
<circle cx="153.301" cy="735.428" r="5.07203" fill="#25356A" fill-opacity="0.35"/>
<circle cx="170.208" cy="735.428" r="5.07203" fill="#25356A" fill-opacity="0.35"/>
<circle cx="187.114" cy="735.428" r="5.07203" fill="#25356A" fill-opacity="0.35"/>
<circle cx="204.021" cy="735.428" r="5.07203" fill="#25356A" fill-opacity="0.35"/>
<circle cx="220.928" cy="735.428" r="5.07203" fill="#25356A" fill-opacity="0.35"/>
<circle cx="237.835" cy="735.428" r="5.07203" fill="#25356A" fill-opacity="0.35"/>
<circle cx="254.742" cy="735.428" r="5.07203" fill="#25356A" fill-opacity="0.35"/>
<circle cx="271.648" cy="735.428" r="5.07203" fill="#25356A" fill-opacity="0.35"/>
<circle cx="288.555" cy="735.428" r="5.07203" fill="#25356A" fill-opacity="0.35"/>
<circle cx="305.462" cy="735.428" r="5.07203" fill="#25356A" fill-opacity="0.35"/>
<circle cx="322.369" cy="735.428" r="5.07203" fill="#25356A" fill-opacity="0.35"/>
<circle cx="339.275" cy="735.428" r="5.07203" fill="#25356A" fill-opacity="0.35"/>
<circle cx="1.13984" cy="752.335" r="5.07203" fill="#25356A" fill-opacity="0.35"/>
<circle cx="18.0466" cy="752.335" r="5.07203" fill="#25356A" fill-opacity="0.35"/>
<circle cx="34.9534" cy="752.335" r="5.07203" fill="#25356A" fill-opacity="0.35"/>
<circle cx="51.8602" cy="752.335" r="5.07203" fill="#25356A" fill-opacity="0.35"/>
<circle cx="68.767" cy="752.335" r="5.07203" fill="#25356A" fill-opacity="0.35"/>
<circle cx="85.6737" cy="752.335" r="5.07203" fill="#25356A" fill-opacity="0.35"/>
<circle cx="102.581" cy="752.335" r="5.07203" fill="#25356A" fill-opacity="0.35"/>
<circle cx="119.487" cy="752.335" r="5.07203" fill="#25356A" fill-opacity="0.35"/>
<circle cx="136.394" cy="752.335" r="5.07203" fill="#25356A" fill-opacity="0.35"/>
<circle cx="153.301" cy="752.335" r="5.07203" fill="#25356A" fill-opacity="0.35"/>
<circle cx="170.208" cy="752.335" r="5.07203" fill="#25356A" fill-opacity="0.35"/>
<circle cx="187.114" cy="752.335" r="5.07203" fill="#25356A" fill-opacity="0.35"/>
<circle cx="204.021" cy="752.335" r="5.07203" fill="#25356A" fill-opacity="0.35"/>
<circle cx="220.928" cy="752.335" r="5.07203" fill="#25356A" fill-opacity="0.35"/>
<circle cx="237.835" cy="752.335" r="5.07203" fill="#25356A" fill-opacity="0.35"/>
<circle cx="254.742" cy="752.335" r="5.07203" fill="#25356A" fill-opacity="0.35"/>
<circle cx="271.648" cy="752.335" r="5.07203" fill="#25356A" fill-opacity="0.35"/>
<circle cx="288.555" cy="752.335" r="5.07203" fill="#25356A" fill-opacity="0.35"/>
<circle cx="305.462" cy="752.335" r="5.07203" fill="#25356A" fill-opacity="0.35"/>
<circle cx="322.369" cy="752.335" r="5.07203" fill="#25356A" fill-opacity="0.35"/>
<circle cx="339.275" cy="752.335" r="5.07203" fill="#25356A" fill-opacity="0.35"/>
<circle cx="356.182" cy="752.335" r="5.07203" fill="#25356A" fill-opacity="0.35"/>
<circle cx="1.13984" cy="769.242" r="5.07203" fill="#25356A" fill-opacity="0.35"/>
<circle cx="18.0466" cy="769.242" r="5.07203" fill="#25356A" fill-opacity="0.35"/>
<circle cx="34.9534" cy="769.242" r="5.07203" fill="#25356A" fill-opacity="0.35"/>
<circle cx="51.8602" cy="769.242" r="5.07203" fill="#25356A" fill-opacity="0.35"/>
<circle cx="68.767" cy="769.242" r="5.07203" fill="#25356A" fill-opacity="0.35"/>
<circle cx="85.6737" cy="769.242" r="5.07203" fill="#25356A" fill-opacity="0.35"/>
<circle cx="102.581" cy="769.242" r="5.07203" fill="#25356A" fill-opacity="0.35"/>
<circle cx="119.487" cy="769.242" r="5.07203" fill="#25356A" fill-opacity="0.35"/>
<circle cx="136.394" cy="769.242" r="5.07203" fill="#25356A" fill-opacity="0.35"/>
<circle cx="153.301" cy="769.242" r="5.07203" fill="#25356A" fill-opacity="0.35"/>
<circle cx="170.208" cy="769.242" r="5.07203" fill="#25356A" fill-opacity="0.35"/>
<circle cx="187.114" cy="769.242" r="5.07203" fill="#25356A" fill-opacity="0.35"/>
<circle cx="204.021" cy="769.242" r="5.07203" fill="#25356A" fill-opacity="0.35"/>
<circle cx="220.928" cy="769.242" r="5.07203" fill="#25356A" fill-opacity="0.35"/>
<circle cx="237.835" cy="769.242" r="5.07203" fill="#25356A" fill-opacity="0.35"/>
<circle cx="254.742" cy="769.242" r="5.07203" fill="#25356A" fill-opacity="0.35"/>
<circle cx="271.648" cy="769.242" r="5.07203" fill="#25356A" fill-opacity="0.35"/>
<circle cx="288.555" cy="769.242" r="5.07203" fill="#25356A" fill-opacity="0.35"/>
<circle cx="305.462" cy="769.242" r="5.07203" fill="#25356A" fill-opacity="0.35"/>
<circle cx="322.369" cy="769.242" r="5.07203" fill="#25356A" fill-opacity="0.35"/>
<circle cx="339.275" cy="769.242" r="5.07203" fill="#25356A" fill-opacity="0.35"/>
<circle cx="1.13984" cy="786.149" r="5.07203" fill="#25356A" fill-opacity="0.35"/>
<circle cx="18.0466" cy="786.149" r="5.07203" fill="#25356A" fill-opacity="0.35"/>
<circle cx="34.9534" cy="786.149" r="5.07203" fill="#25356A" fill-opacity="0.35"/>
<circle cx="51.8602" cy="786.149" r="5.07203" fill="#25356A" fill-opacity="0.35"/>
<circle cx="68.767" cy="786.149" r="5.07203" fill="#25356A" fill-opacity="0.35"/>
<circle cx="85.6737" cy="786.149" r="5.07203" fill="#25356A" fill-opacity="0.35"/>
<circle cx="102.581" cy="786.149" r="5.07203" fill="#25356A" fill-opacity="0.35"/>
<circle cx="119.487" cy="786.149" r="5.07203" fill="#25356A" fill-opacity="0.35"/>
<circle cx="136.394" cy="786.149" r="5.07203" fill="#25356A" fill-opacity="0.35"/>
<circle cx="153.301" cy="786.149" r="5.07203" fill="#25356A" fill-opacity="0.35"/>
<circle cx="170.208" cy="786.149" r="5.07203" fill="#25356A" fill-opacity="0.35"/>
<circle cx="187.114" cy="786.149" r="5.07203" fill="#25356A" fill-opacity="0.35"/>
<circle cx="204.021" cy="786.149" r="5.07203" fill="#25356A" fill-opacity="0.35"/>
<circle cx="220.928" cy="786.149" r="5.07203" fill="#25356A" fill-opacity="0.35"/>
<circle cx="237.835" cy="786.149" r="5.07203" fill="#25356A" fill-opacity="0.35"/>
<circle cx="254.742" cy="786.149" r="5.07203" fill="#25356A" fill-opacity="0.35"/>
<circle cx="271.648" cy="786.149" r="5.07203" fill="#25356A" fill-opacity="0.35"/>
<circle cx="288.555" cy="786.149" r="5.07203" fill="#25356A" fill-opacity="0.35"/>
<circle cx="305.462" cy="786.149" r="5.07203" fill="#25356A" fill-opacity="0.35"/>
<circle cx="322.369" cy="786.149" r="5.07203" fill="#25356A" fill-opacity="0.35"/>
<circle cx="339.275" cy="786.149" r="5.07203" fill="#25356A" fill-opacity="0.35"/>
<circle cx="1.13984" cy="803.055" r="5.07203" fill="#25356A" fill-opacity="0.35"/>
<circle cx="18.0466" cy="803.055" r="5.07203" fill="#25356A" fill-opacity="0.35"/>
<circle cx="34.9534" cy="803.055" r="5.07203" fill="#25356A" fill-opacity="0.35"/>
<circle cx="51.8602" cy="803.055" r="5.07203" fill="#25356A" fill-opacity="0.35"/>
<circle cx="68.767" cy="803.055" r="5.07203" fill="#25356A" fill-opacity="0.35"/>
<circle cx="85.6737" cy="803.055" r="5.07203" fill="#25356A" fill-opacity="0.35"/>
<circle cx="102.581" cy="803.055" r="5.07203" fill="#25356A" fill-opacity="0.35"/>
<circle cx="119.487" cy="803.055" r="5.07203" fill="#25356A" fill-opacity="0.35"/>
<circle cx="136.394" cy="803.055" r="5.07203" fill="#25356A" fill-opacity="0.35"/>
<circle cx="153.301" cy="803.055" r="5.07203" fill="#25356A" fill-opacity="0.35"/>
<circle cx="170.208" cy="803.055" r="5.07203" fill="#25356A" fill-opacity="0.35"/>
<circle cx="187.114" cy="803.055" r="5.07203" fill="#25356A" fill-opacity="0.35"/>
<circle cx="204.021" cy="803.055" r="5.07203" fill="#25356A" fill-opacity="0.35"/>
<circle cx="220.928" cy="803.055" r="5.07203" fill="#25356A" fill-opacity="0.35"/>
<circle cx="237.835" cy="803.055" r="5.07203" fill="#25356A" fill-opacity="0.35"/>
<circle cx="254.742" cy="803.055" r="5.07203" fill="#25356A" fill-opacity="0.35"/>
<circle cx="271.648" cy="803.055" r="5.07203" fill="#25356A" fill-opacity="0.35"/>
<circle cx="288.555" cy="803.055" r="5.07203" fill="#25356A" fill-opacity="0.35"/>
<circle cx="305.462" cy="803.055" r="5.07203" fill="#25356A" fill-opacity="0.35"/>
<circle cx="322.369" cy="803.055" r="5.07203" fill="#25356A" fill-opacity="0.35"/>
<circle cx="339.275" cy="803.055" r="5.07203" fill="#25356A" fill-opacity="0.35"/>
<circle cx="356.182" cy="803.055" r="5.07203" fill="#25356A" fill-opacity="0.35"/>
<circle cx="1.13984" cy="819.962" r="5.07203" fill="#25356A" fill-opacity="0.35"/>
<circle cx="18.0466" cy="819.962" r="5.07203" fill="#25356A" fill-opacity="0.35"/>
<circle cx="34.9534" cy="819.962" r="5.07203" fill="#25356A" fill-opacity="0.35"/>
<circle cx="51.8602" cy="819.962" r="5.07203" fill="#25356A" fill-opacity="0.35"/>
<circle cx="68.767" cy="819.962" r="5.07203" fill="#25356A" fill-opacity="0.35"/>
<circle cx="85.6737" cy="819.962" r="5.07203" fill="#25356A" fill-opacity="0.35"/>
<circle cx="102.581" cy="819.962" r="5.07203" fill="#25356A" fill-opacity="0.35"/>
<circle cx="119.487" cy="819.962" r="5.07203" fill="#25356A" fill-opacity="0.35"/>
<circle cx="136.394" cy="819.962" r="5.07203" fill="#25356A" fill-opacity="0.35"/>
<circle cx="153.301" cy="819.962" r="5.07203" fill="#25356A" fill-opacity="0.35"/>
<circle cx="170.208" cy="819.962" r="5.07203" fill="#25356A" fill-opacity="0.35"/>
<circle cx="187.114" cy="819.962" r="5.07203" fill="#25356A" fill-opacity="0.35"/>
<circle cx="204.021" cy="819.962" r="5.07203" fill="#25356A" fill-opacity="0.35"/>
<circle cx="220.928" cy="819.962" r="5.07203" fill="#25356A" fill-opacity="0.35"/>
<circle cx="237.835" cy="819.962" r="5.07203" fill="#25356A" fill-opacity="0.35"/>
<circle cx="254.742" cy="819.962" r="5.07203" fill="#25356A" fill-opacity="0.35"/>
<circle cx="271.648" cy="819.962" r="5.07203" fill="#25356A" fill-opacity="0.35"/>
<circle cx="288.555" cy="819.962" r="5.07203" fill="#25356A" fill-opacity="0.35"/>
<circle cx="305.462" cy="819.962" r="5.07203" fill="#25356A" fill-opacity="0.35"/>
<circle cx="322.369" cy="819.962" r="5.07203" fill="#25356A" fill-opacity="0.35"/>
<circle cx="339.275" cy="819.962" r="5.07203" fill="#25356A" fill-opacity="0.35"/>
<circle cx="356.182" cy="819.962" r="5.07203" fill="#25356A" fill-opacity="0.35"/>
<circle cx="1.13984" cy="836.869" r="5.07203" fill="#25356A" fill-opacity="0.35"/>
<circle cx="18.0466" cy="836.869" r="5.07203" fill="#25356A" fill-opacity="0.35"/>
<circle cx="34.9534" cy="836.869" r="5.07203" fill="#25356A" fill-opacity="0.35"/>
<circle cx="51.8602" cy="836.869" r="5.07203" fill="#25356A" fill-opacity="0.35"/>
<circle cx="68.767" cy="836.869" r="5.07203" fill="#25356A" fill-opacity="0.35"/>
<circle cx="85.6737" cy="836.869" r="5.07203" fill="#25356A" fill-opacity="0.35"/>
<circle cx="102.581" cy="836.869" r="5.07203" fill="#25356A" fill-opacity="0.35"/>
<circle cx="119.487" cy="836.869" r="5.07203" fill="#25356A" fill-opacity="0.35"/>
<circle cx="136.394" cy="836.869" r="5.07203" fill="#25356A" fill-opacity="0.35"/>
<circle cx="153.301" cy="836.869" r="5.07203" fill="#25356A" fill-opacity="0.35"/>
<circle cx="170.208" cy="836.869" r="5.07203" fill="#25356A" fill-opacity="0.35"/>
<circle cx="187.114" cy="836.869" r="5.07203" fill="#25356A" fill-opacity="0.35"/>
<circle cx="204.021" cy="836.869" r="5.07203" fill="#25356A" fill-opacity="0.35"/>
<circle cx="220.928" cy="836.869" r="5.07203" fill="#25356A" fill-opacity="0.35"/>
<circle cx="237.835" cy="836.869" r="5.07203" fill="#25356A" fill-opacity="0.35"/>
<circle cx="254.742" cy="836.869" r="5.07203" fill="#25356A" fill-opacity="0.35"/>
<circle cx="271.648" cy="836.869" r="5.07203" fill="#25356A" fill-opacity="0.35"/>
<circle cx="288.555" cy="836.869" r="5.07203" fill="#25356A" fill-opacity="0.35"/>
<circle cx="305.462" cy="836.869" r="5.07203" fill="#25356A" fill-opacity="0.35"/>
<circle cx="322.369" cy="836.869" r="5.07203" fill="#25356A" fill-opacity="0.35"/>
<circle cx="339.275" cy="836.869" r="5.07203" fill="#25356A" fill-opacity="0.35"/>
<circle cx="356.182" cy="836.869" r="5.07203" fill="#25356A" fill-opacity="0.35"/>
<circle cx="1.13984" cy="853.776" r="5.07203" fill="#25356A" fill-opacity="0.35"/>
<circle cx="18.0466" cy="853.776" r="5.07203" fill="#25356A" fill-opacity="0.35"/>
<circle cx="34.9534" cy="853.776" r="5.07203" fill="#25356A" fill-opacity="0.35"/>
<circle cx="51.8602" cy="853.776" r="5.07203" fill="#25356A" fill-opacity="0.35"/>
<circle cx="68.767" cy="853.776" r="5.07203" fill="#25356A" fill-opacity="0.35"/>
<circle cx="85.6737" cy="853.776" r="5.07203" fill="#25356A" fill-opacity="0.35"/>
<circle cx="102.581" cy="853.776" r="5.07203" fill="#25356A" fill-opacity="0.35"/>
<circle cx="119.487" cy="853.776" r="5.07203" fill="#25356A" fill-opacity="0.35"/>
<circle cx="136.394" cy="853.776" r="5.07203" fill="#25356A" fill-opacity="0.35"/>
<circle cx="153.301" cy="853.776" r="5.07203" fill="#25356A" fill-opacity="0.35"/>
<circle cx="170.208" cy="853.776" r="5.07203" fill="#25356A" fill-opacity="0.35"/>
<circle cx="187.114" cy="853.776" r="5.07203" fill="#25356A" fill-opacity="0.35"/>
<circle cx="204.021" cy="853.776" r="5.07203" fill="#25356A" fill-opacity="0.35"/>
<circle cx="220.928" cy="853.776" r="5.07203" fill="#25356A" fill-opacity="0.35"/>
<circle cx="237.835" cy="853.776" r="5.07203" fill="#25356A" fill-opacity="0.35"/>
<circle cx="254.742" cy="853.776" r="5.07203" fill="#25356A" fill-opacity="0.35"/>
<circle cx="271.648" cy="853.776" r="5.07203" fill="#25356A" fill-opacity="0.35"/>
<circle cx="288.555" cy="853.776" r="5.07203" fill="#25356A" fill-opacity="0.35"/>
<circle cx="305.462" cy="853.776" r="5.07203" fill="#25356A" fill-opacity="0.35"/>
<circle cx="322.369" cy="853.776" r="5.07203" fill="#25356A" fill-opacity="0.35"/>
<circle cx="339.275" cy="853.776" r="5.07203" fill="#25356A" fill-opacity="0.35"/>
<circle cx="356.182" cy="853.776" r="5.07203" fill="#25356A" fill-opacity="0.35"/>
<circle cx="1.13984" cy="870.683" r="5.07203" fill="#25356A" fill-opacity="0.35"/>
<circle cx="18.0466" cy="870.683" r="5.07203" fill="#25356A" fill-opacity="0.35"/>
<circle cx="34.9534" cy="870.683" r="5.07203" fill="#25356A" fill-opacity="0.35"/>
<circle cx="51.8602" cy="870.683" r="5.07203" fill="#25356A" fill-opacity="0.35"/>
<circle cx="68.767" cy="870.683" r="5.07203" fill="#25356A" fill-opacity="0.35"/>
<circle cx="85.6737" cy="870.683" r="5.07203" fill="#25356A" fill-opacity="0.35"/>
<circle cx="102.581" cy="870.683" r="5.07203" fill="#25356A" fill-opacity="0.35"/>
<circle cx="119.487" cy="870.683" r="5.07203" fill="#25356A" fill-opacity="0.35"/>
<circle cx="136.394" cy="870.683" r="5.07203" fill="#25356A" fill-opacity="0.35"/>
<circle cx="153.301" cy="870.683" r="5.07203" fill="#25356A" fill-opacity="0.35"/>
<circle cx="170.208" cy="870.683" r="5.07203" fill="#25356A" fill-opacity="0.35"/>
<circle cx="187.114" cy="870.683" r="5.07203" fill="#25356A" fill-opacity="0.35"/>
<circle cx="204.021" cy="870.683" r="5.07203" fill="#25356A" fill-opacity="0.35"/>
<circle cx="220.928" cy="870.683" r="5.07203" fill="#25356A" fill-opacity="0.35"/>
<circle cx="237.835" cy="870.683" r="5.07203" fill="#25356A" fill-opacity="0.35"/>
<circle cx="254.742" cy="870.683" r="5.07203" fill="#25356A" fill-opacity="0.35"/>
<circle cx="271.648" cy="870.683" r="5.07203" fill="#25356A" fill-opacity="0.35"/>
<circle cx="288.555" cy="870.683" r="5.07203" fill="#25356A" fill-opacity="0.35"/>
<circle cx="305.462" cy="870.683" r="5.07203" fill="#25356A" fill-opacity="0.35"/>
<circle cx="322.369" cy="870.683" r="5.07203" fill="#25356A" fill-opacity="0.35"/>
<circle cx="339.275" cy="870.683" r="5.07203" fill="#25356A" fill-opacity="0.35"/>
<circle cx="356.182" cy="870.683" r="5.07203" fill="#25356A" fill-opacity="0.35"/>
<circle cx="1.13984" cy="887.589" r="5.07203" fill="#25356A" fill-opacity="0.35"/>
<circle cx="18.0466" cy="887.589" r="5.07203" fill="#25356A" fill-opacity="0.35"/>
<circle cx="34.9534" cy="887.589" r="5.07203" fill="#25356A" fill-opacity="0.35"/>
<circle cx="51.8602" cy="887.589" r="5.07203" fill="#25356A" fill-opacity="0.35"/>
<circle cx="68.767" cy="887.589" r="5.07203" fill="#25356A" fill-opacity="0.35"/>
<circle cx="85.6737" cy="887.589" r="5.07203" fill="#25356A" fill-opacity="0.35"/>
<circle cx="102.581" cy="887.589" r="5.07203" fill="#25356A" fill-opacity="0.35"/>
<circle cx="119.487" cy="887.589" r="5.07203" fill="#25356A" fill-opacity="0.35"/>
<circle cx="136.394" cy="887.589" r="5.07203" fill="#25356A" fill-opacity="0.35"/>
<circle cx="153.301" cy="887.589" r="5.07203" fill="#25356A" fill-opacity="0.35"/>
<circle cx="170.208" cy="887.589" r="5.07203" fill="#25356A" fill-opacity="0.35"/>
<circle cx="187.114" cy="887.589" r="5.07203" fill="#25356A" fill-opacity="0.35"/>
<circle cx="204.021" cy="887.589" r="5.07203" fill="#25356A" fill-opacity="0.35"/>
<circle cx="220.928" cy="887.589" r="5.07203" fill="#25356A" fill-opacity="0.35"/>
<circle cx="237.835" cy="887.589" r="5.07203" fill="#25356A" fill-opacity="0.35"/>
<circle cx="254.742" cy="887.589" r="5.07203" fill="#25356A" fill-opacity="0.35"/>
<circle cx="271.648" cy="887.589" r="5.07203" fill="#25356A" fill-opacity="0.35"/>
<circle cx="288.555" cy="887.589" r="5.07203" fill="#25356A" fill-opacity="0.35"/>
<circle cx="305.462" cy="887.589" r="5.07203" fill="#25356A" fill-opacity="0.35"/>
<circle cx="322.369" cy="887.589" r="5.07203" fill="#25356A" fill-opacity="0.35"/>
<circle cx="339.275" cy="887.589" r="5.07203" fill="#25356A" fill-opacity="0.35"/>
<circle cx="356.182" cy="887.589" r="5.07203" fill="#25356A" fill-opacity="0.35"/>
<circle cx="1.13984" cy="904.496" r="5.07203" fill="#25356A" fill-opacity="0.35"/>
<circle cx="18.0466" cy="904.496" r="5.07203" fill="#25356A" fill-opacity="0.35"/>
<circle cx="34.9534" cy="904.496" r="5.07203" fill="#25356A" fill-opacity="0.35"/>
<circle cx="51.8602" cy="904.496" r="5.07203" fill="#25356A" fill-opacity="0.35"/>
<circle cx="68.767" cy="904.496" r="5.07203" fill="#25356A" fill-opacity="0.35"/>
<circle cx="85.6737" cy="904.496" r="5.07203" fill="#25356A" fill-opacity="0.35"/>
<circle cx="102.581" cy="904.496" r="5.07203" fill="#25356A" fill-opacity="0.35"/>
<circle cx="119.487" cy="904.496" r="5.07203" fill="#25356A" fill-opacity="0.35"/>
<circle cx="136.394" cy="904.496" r="5.07203" fill="#25356A" fill-opacity="0.35"/>
<circle cx="153.301" cy="904.496" r="5.07203" fill="#25356A" fill-opacity="0.35"/>
<circle cx="170.208" cy="904.496" r="5.07203" fill="#25356A" fill-opacity="0.35"/>
<circle cx="187.114" cy="904.496" r="5.07203" fill="#25356A" fill-opacity="0.35"/>
<circle cx="204.021" cy="904.496" r="5.07203" fill="#25356A" fill-opacity="0.35"/>
<circle cx="220.928" cy="904.496" r="5.07203" fill="#25356A" fill-opacity="0.35"/>
<circle cx="237.835" cy="904.496" r="5.07203" fill="#25356A" fill-opacity="0.35"/>
<circle cx="254.742" cy="904.496" r="5.07203" fill="#25356A" fill-opacity="0.35"/>
<circle cx="271.648" cy="904.496" r="5.07203" fill="#25356A" fill-opacity="0.35"/>
<circle cx="288.555" cy="904.496" r="5.07203" fill="#25356A" fill-opacity="0.35"/>
<circle cx="305.462" cy="904.496" r="5.07203" fill="#25356A" fill-opacity="0.35"/>
<circle cx="322.369" cy="904.496" r="5.07203" fill="#25356A" fill-opacity="0.35"/>
<circle cx="339.275" cy="904.496" r="5.07203" fill="#25356A" fill-opacity="0.35"/>
<circle cx="356.182" cy="904.496" r="5.07203" fill="#25356A" fill-opacity="0.35"/>
<circle cx="1.13984" cy="921.403" r="5.07203" fill="#25356A" fill-opacity="0.35"/>
<circle cx="18.0466" cy="921.403" r="5.07203" fill="#25356A" fill-opacity="0.35"/>
<circle cx="34.9534" cy="921.403" r="5.07203" fill="#25356A" fill-opacity="0.35"/>
<circle cx="51.8602" cy="921.403" r="5.07203" fill="#25356A" fill-opacity="0.35"/>
<circle cx="68.767" cy="921.403" r="5.07203" fill="#25356A" fill-opacity="0.35"/>
<circle cx="85.6737" cy="921.403" r="5.07203" fill="#25356A" fill-opacity="0.35"/>
<circle cx="102.581" cy="921.403" r="5.07203" fill="#25356A" fill-opacity="0.35"/>
<circle cx="119.487" cy="921.403" r="5.07203" fill="#25356A" fill-opacity="0.35"/>
<circle cx="136.394" cy="921.403" r="5.07203" fill="#25356A" fill-opacity="0.35"/>
<circle cx="153.301" cy="921.403" r="5.07203" fill="#25356A" fill-opacity="0.35"/>
<circle cx="170.208" cy="921.403" r="5.07203" fill="#25356A" fill-opacity="0.35"/>
<circle cx="187.114" cy="921.403" r="5.07203" fill="#25356A" fill-opacity="0.35"/>
<circle cx="204.021" cy="921.403" r="5.07203" fill="#25356A" fill-opacity="0.35"/>
<circle cx="220.928" cy="921.403" r="5.07203" fill="#25356A" fill-opacity="0.35"/>
<circle cx="237.835" cy="921.403" r="5.07203" fill="#25356A" fill-opacity="0.35"/>
<circle cx="254.742" cy="921.403" r="5.07203" fill="#25356A" fill-opacity="0.35"/>
<circle cx="271.648" cy="921.403" r="5.07203" fill="#25356A" fill-opacity="0.35"/>
<circle cx="288.555" cy="921.403" r="5.07203" fill="#25356A" fill-opacity="0.35"/>
<circle cx="305.462" cy="921.403" r="5.07203" fill="#25356A" fill-opacity="0.35"/>
<circle cx="322.369" cy="921.403" r="5.07203" fill="#25356A" fill-opacity="0.35"/>
<circle cx="339.275" cy="921.403" r="5.07203" fill="#25356A" fill-opacity="0.35"/>
<circle cx="356.182" cy="921.403" r="5.07203" fill="#25356A" fill-opacity="0.35"/>
</g>
<g opacity="0.91" filter="url(#filter1_d)">
<path d="M317.447 723.59C74.6277 510.852 -12.7042 626.802 -20.429 638.258C-20.8513 638.884 -20.9964 639.538 -20.9894 640.294L-19.082 845.474C-17.6919 995.019 107.637 1124.34 244.543 1064.15C314.772 1033.28 379.03 983.027 407.005 901.317C446.397 786.26 337.11 740.817 317.447 723.59Z" fill="#2F80ED"/>
</g>
<defs>
<filter id="filter0_d" x="-36.9559" y="560.509" width="549.293" height="595.581" filterUnits="userSpaceOnUse" color-interpolation-filters="sRGB">
<feFlood flood-opacity="0" result="BackgroundImageFix"/>
<feColorMatrix in="SourceAlpha" type="matrix" values="0 0 0 0 0 0 0 0 0 0 0 0 0 0 0 0 0 0 127 0" result="hardAlpha"/>
<feOffset dx="20.4354" dy="20.4354"/>
<feGaussianBlur stdDeviation="28.2009"/>
<feColorMatrix type="matrix" values="0 0 0 0 0 0 0 0 0 0 0 0 0 0 0 0 0 0 0.04 0"/>
<feBlend mode="normal" in2="BackgroundImageFix" result="effect1_dropShadow"/>
<feBlend mode="normal" in="SourceGraphic" in2="effect1_dropShadow" result="shape"/>
</filter>
<filter id="filter1_d" x="-56.9559" y="560.509" width="549.293" height="595.581" filterUnits="userSpaceOnUse" color-interpolation-filters="sRGB">
<feFlood flood-opacity="0" result="BackgroundImageFix"/>
<feColorMatrix in="SourceAlpha" type="matrix" values="0 0 0 0 0 0 0 0 0 0 0 0 0 0 0 0 0 0 127 0" result="hardAlpha"/>
<feOffset dx="20.4354" dy="20.4354"/>
<feGaussianBlur stdDeviation="28.2009"/>
<feColorMatrix type="matrix" values="0 0 0 0 0 0 0 0 0 0 0 0 0 0 0 0 0 0 0.04 0"/>
<feBlend mode="normal" in2="BackgroundImageFix" result="effect1_dropShadow"/>
<feBlend mode="normal" in="SourceGraphic" in2="effect1_dropShadow" result="shape"/>
</filter>
</defs>
</svg>
