<svg width="223" height="77" viewBox="0 0 223 77" fill="none" xmlns="http://www.w3.org/2000/svg">
<g clip-path="url(#clip0)">
<path d="M205.242 0.00012818H17.7684C17.085 0.00012818 16.4098 0.00012818 15.7283 0.00397818C15.1577 0.00782818 14.5918 0.0190124 14.0158 0.0284257C12.7644 0.0436367 11.516 0.157355 10.2814 0.368592C9.04851 0.584429 7.85425 0.991341 6.73901 1.57557C5.62513 2.16474 4.60734 2.9303 3.72257 3.84449C2.83316 4.7561 2.09177 5.80981 1.5269 6.96509C0.960474 8.11806 0.567713 9.35359 0.362181 10.629C0.154695 11.9028 0.043045 13.1912 0.0282328 14.4828C0.010939 15.073 0.00911276 15.6652 0 16.2555V60.7504C0.00911276 61.3481 0.010939 61.9272 0.0282328 62.5251C0.0430495 63.8166 0.1547 65.105 0.362181 66.3787C0.567145 67.6549 0.95993 68.8911 1.5269 70.0445C2.09151 71.1961 2.83301 72.2455 3.72257 73.1521C4.60398 74.0703 5.62243 74.8364 6.73901 75.4211C7.85425 76.0068 9.04838 76.4162 10.2814 76.6353C11.5162 76.8449 12.7645 76.9587 14.0158 76.9757C14.5918 76.9888 15.1577 76.9963 15.7283 76.9963C16.4098 77.0001 17.085 77.0001 17.7684 77.0001H205.242C205.911 77.0001 206.592 77.0001 207.262 76.9963C207.83 76.9963 208.412 76.9888 208.98 76.9757C210.229 76.9596 211.475 76.8458 212.707 76.6353C213.944 76.4146 215.142 76.0054 216.263 75.4211C217.378 74.8361 218.396 74.07 219.277 73.1521C220.164 72.242 220.907 71.1933 221.479 70.0445C222.041 68.8903 222.43 67.6541 222.632 66.3787C222.84 65.1049 222.956 63.8167 222.978 62.5251C222.985 61.9272 222.985 61.3481 222.985 60.7504C223 60.0511 223 59.3556 223 58.6449V18.3572C223 17.6522 223 16.9529 222.985 16.2555C222.985 15.6652 222.985 15.073 222.978 14.4828C222.956 13.191 222.84 11.9029 222.632 10.6289C222.43 9.35425 222.041 8.11882 221.479 6.96501C220.328 4.64938 218.504 2.76448 216.263 1.57539C215.142 0.992595 213.944 0.585791 212.707 0.368419C211.475 0.156251 210.229 0.0424931 208.98 0.0281562C208.412 0.0187622 207.83 0.00748168 207.262 0.00372793C206.592 -0.00012207 205.911 -0.00012207 205.242 -0.00012207V0.00012818Z" fill="#575B5E"/>
<path d="M15.7374 75.3156C15.1696 75.3156 14.6155 75.3081 14.0522 75.295C12.8852 75.2793 11.7209 75.1744 10.5689 74.9811C9.49476 74.79 8.45418 74.4345 7.48151 73.9264C6.51776 73.4224 5.63874 72.7617 4.87813 71.9694C4.10651 71.1865 3.4641 70.2784 2.97636 69.2811C2.48324 68.2774 2.14198 67.2016 1.96445 66.091C1.77273 64.8978 1.66901 63.6912 1.65417 62.4817C1.64235 62.0757 1.62688 60.7239 1.62688 60.7239V16.2554C1.62688 16.2554 1.64336 14.9244 1.65426 14.5334C1.66847 13.3258 1.77159 12.1211 1.96273 10.9296C2.14059 9.81607 2.48212 8.7371 2.9755 7.7301C3.46145 6.73355 4.10029 5.82479 4.86726 5.03905C5.63337 4.24583 6.5152 3.58167 7.48059 3.07079C8.45103 2.56429 9.48964 2.21132 10.5616 2.02371C11.7174 1.82845 12.8857 1.72288 14.0567 1.70789L15.7383 1.68439H207.253L208.954 1.70883C210.115 1.72308 211.272 1.8277 212.417 2.02182C213.5 2.21179 214.55 2.56722 215.531 3.07643C217.465 4.10601 219.039 5.7349 220.032 7.7348C220.517 8.73485 220.854 9.80501 221.029 10.909C221.223 12.1102 221.331 13.3244 221.353 14.5418C221.358 15.087 221.358 15.6726 221.358 16.2554C221.373 16.9772 221.373 17.6643 221.373 18.3571V58.6447C221.373 59.3441 221.373 60.0265 221.358 60.7145C221.358 61.3405 221.358 61.914 221.351 62.5042C221.329 63.6999 221.223 64.8925 221.033 66.0722C220.859 67.1907 220.519 68.275 220.026 69.2869C219.535 70.2733 218.896 71.1735 218.134 71.9544C217.372 72.7509 216.492 73.4155 215.526 73.9227C214.547 74.4347 213.499 74.7915 212.417 74.9811C211.266 75.1754 210.101 75.2804 208.934 75.295C208.388 75.3081 207.817 75.3156 207.262 75.3156L205.242 75.3195L15.7374 75.3156Z" fill="white"/>
<path d="M46.5826 38.287C46.6035 36.6162 47.0331 34.978 47.8316 33.5248C48.63 32.0715 49.7714 30.8506 51.1494 29.9754C50.274 28.684 49.1191 27.6211 47.7765 26.8713C46.4339 26.1216 44.9405 25.7055 43.415 25.6562C40.1607 25.3033 37.006 27.6677 35.3476 27.6677C33.6573 27.6677 31.1041 25.6912 28.3547 25.7497C26.5764 25.809 24.8432 26.3432 23.3241 27.3002C21.8051 28.2572 20.5519 29.6043 19.6867 31.2103C15.9389 37.9132 18.7344 47.7641 22.3245 53.1823C24.1208 55.8354 26.2201 58.7989 28.9669 58.6938C31.6549 58.5787 32.6588 56.9233 35.9034 56.9233C39.118 56.9233 40.0598 58.6938 42.8624 58.627C45.7468 58.5787 47.564 55.9621 49.2973 53.2839C50.5879 51.3935 51.581 49.3042 52.2398 47.0933C50.5641 46.3612 49.1341 45.1357 48.1281 43.5697C47.1221 42.0037 46.5846 40.1665 46.5826 38.287Z" fill="#575B5E"/>
<path d="M41.289 22.0929C42.8617 20.1427 43.6365 17.6361 43.4489 15.1053C41.0462 15.366 38.8268 16.5522 37.2329 18.4275C36.4536 19.3437 35.8567 20.4095 35.4764 21.5641C35.0961 22.7187 34.9398 23.9394 35.0165 25.1564C36.2183 25.1692 37.4072 24.9001 38.4937 24.3694C39.5802 23.8388 40.536 23.0604 41.289 22.0929V22.0929Z" fill="#575B5E"/>
<path d="M78.8315 52.2439H70.0106L67.8923 58.7051H64.1561L72.5111 34.8004H76.3929L84.7479 58.7051H80.948L78.8315 52.2439ZM70.9242 49.2624H77.9162L74.4694 38.7764H74.3728L70.9242 49.2624Z" fill="#575B5E"/>
<path d="M102.792 49.9918C102.792 55.4077 99.9857 58.8874 95.7508 58.8874C94.6781 58.9453 93.6112 58.6901 92.6724 58.1508C91.7335 57.6116 90.9607 56.8101 90.4423 55.8382H90.3622V64.4706H86.8989V41.2766H90.2511V44.1754H90.3148C90.857 43.2082 91.643 42.4109 92.589 41.8683C93.5349 41.3257 94.6056 41.0583 95.6871 41.0943C99.9693 41.0943 102.792 44.5909 102.792 49.9918ZM99.2323 49.9918C99.2323 46.4633 97.467 44.1435 94.7736 44.1435C92.1275 44.1435 90.3476 46.5121 90.3476 49.9918C90.3476 53.5034 92.1275 55.8551 94.7736 55.8551C97.467 55.8551 99.2322 53.5523 99.2322 49.9918H99.2323Z" fill="#575B5E"/>
<path d="M121.363 49.9918C121.363 55.4077 118.556 58.8874 114.321 58.8874C113.248 58.9453 112.181 58.6901 111.242 58.1508C110.304 57.6116 109.531 56.8101 109.012 55.8382H108.932V64.4706H105.469V41.2766H108.821V44.1754H108.885C109.427 43.2082 110.213 42.4109 111.159 41.8683C112.105 41.3257 113.176 41.0583 114.257 41.0943C118.539 41.0943 121.363 44.5909 121.363 49.9918ZM117.802 49.9918C117.802 46.4633 116.037 44.1435 113.344 44.1435C110.697 44.1435 108.918 46.5121 108.918 49.9918C108.918 53.5034 110.697 55.8551 113.344 55.8551C116.037 55.8551 117.802 53.5523 117.802 49.9918V49.9918Z" fill="#575B5E"/>
<path d="M133.634 52.0446C133.891 54.4151 136.12 55.9716 139.167 55.9716C142.086 55.9716 144.186 54.4151 144.186 52.2776C144.186 50.4222 142.919 49.3112 139.92 48.5498L136.921 47.8035C132.672 46.7432 130.699 44.6904 130.699 41.3592C130.699 37.2348 134.178 34.4018 139.118 34.4018C144.009 34.4018 147.362 37.2348 147.474 41.3592H143.978C143.769 38.9737 141.86 37.5337 139.07 37.5337C136.28 37.5337 134.371 38.9906 134.371 41.1111C134.371 42.8011 135.591 43.7956 138.573 44.5569L141.123 45.2035C145.871 46.3634 147.842 48.3336 147.842 51.8301C147.842 56.3024 144.395 59.1034 138.91 59.1034C133.778 59.1034 130.313 56.3682 130.089 52.0444L133.634 52.0446Z" fill="#575B5E"/>
<path d="M155.32 37.1522V41.2766H158.528V44.1096H155.32V53.7177C155.32 55.2103 155.962 55.9059 157.373 55.9059C157.754 55.899 158.134 55.8714 158.512 55.8231V58.6392C157.878 58.7616 157.233 58.817 156.588 58.8046C153.172 58.8046 151.84 57.4793 151.84 54.0992V44.1096H149.387V41.2766H151.84V37.1522H155.32Z" fill="#575B5E"/>
<path d="M160.385 49.9918C160.385 44.5081 163.511 41.0623 168.387 41.0623C173.278 41.0623 176.39 44.5081 176.39 49.9918C176.39 55.4904 173.295 58.9212 168.387 58.9212C163.48 58.9212 160.385 55.4904 160.385 49.9918ZM172.862 49.9918C172.862 46.2301 171.193 44.01 168.387 44.01C165.58 44.01 163.912 46.247 163.912 49.9918C163.912 53.7684 165.58 55.9717 168.387 55.9717C171.193 55.9717 172.862 53.7684 172.862 49.9918H172.862Z" fill="#575B5E"/>
<path d="M179.246 41.2766H182.549V44.243H182.629C182.852 43.3165 183.378 42.4978 184.117 41.9243C184.856 41.3509 185.764 41.0578 186.687 41.0942C187.086 41.0928 187.484 41.1376 187.874 41.2277V44.5739C187.37 44.4148 186.844 44.3418 186.318 44.3577C185.815 44.3366 185.313 44.4283 184.847 44.6263C184.382 44.8244 183.963 45.1242 183.62 45.5051C183.278 45.886 183.019 46.3391 182.861 46.8332C182.704 47.3273 182.652 47.8507 182.709 48.3675V58.705H179.246L179.246 41.2766Z" fill="#575B5E"/>
<path d="M203.841 53.5861C203.375 56.7499 200.393 58.9212 196.576 58.9212C191.668 58.9212 188.622 55.5242 188.622 50.0745C188.622 44.6078 191.685 41.0623 196.431 41.0623C201.099 41.0623 204.034 44.3747 204.034 49.659V50.8847H192.118V51.1009C192.063 51.7423 192.14 52.3885 192.346 52.9964C192.551 53.6044 192.879 54.1603 193.309 54.6272C193.738 55.0942 194.258 55.4614 194.836 55.7045C195.413 55.9476 196.034 56.0611 196.657 56.0374C197.475 56.1167 198.296 55.9209 198.998 55.4792C199.7 55.0375 200.245 54.3736 200.553 53.5861L203.841 53.5861ZM192.134 48.3845H200.569C200.6 47.8077 200.516 47.2306 200.321 46.6893C200.126 46.1479 199.824 45.6541 199.436 45.2388C199.047 44.8234 198.58 44.4955 198.062 44.2756C197.545 44.0558 196.99 43.9487 196.431 43.9611C195.867 43.9576 195.308 44.0695 194.786 44.2904C194.264 44.5113 193.79 44.8368 193.39 45.248C192.991 45.6592 192.674 46.1481 192.459 46.6865C192.243 47.2248 192.133 47.8019 192.134 48.3845V48.3845Z" fill="#575B5E"/>
<path d="M70.491 16.8072C71.2171 16.7533 71.9456 16.8666 72.6242 17.1389C73.3027 17.4112 73.9143 17.8356 74.4148 18.3816C74.9154 18.9275 75.2923 19.5815 75.5186 20.2962C75.7448 21.0109 75.8147 21.7685 75.7231 22.5145C75.7231 26.184 73.8032 28.2933 70.491 28.2933H66.4745V16.8072H70.491ZM68.2016 26.6689H70.2981C70.8169 26.701 71.3361 26.6131 71.8179 26.4117C72.2997 26.2103 72.732 25.9005 73.0832 25.5048C73.4345 25.1091 73.6959 24.6374 73.8485 24.1242C74.001 23.611 74.0409 23.069 73.9651 22.5379C74.0354 22.0088 73.9915 21.4703 73.8366 20.9608C73.6817 20.4513 73.4196 19.9835 73.0692 19.591C72.7187 19.1984 72.2885 18.8908 71.8094 18.6901C71.3304 18.4895 70.8142 18.4008 70.2981 18.4303H68.2016V26.6689Z" fill="#575B5E"/>
<path d="M77.674 23.9554C77.6213 23.3857 77.6843 22.811 77.8592 22.268C78.0341 21.725 78.3169 21.2258 78.6895 20.8023C79.0621 20.3788 79.5163 20.0405 80.0229 19.809C80.5295 19.5774 81.0774 19.4578 81.6313 19.4578C82.1853 19.4578 82.7332 19.5774 83.2398 19.809C83.7464 20.0405 84.2006 20.3788 84.5732 20.8023C84.9458 21.2258 85.2286 21.725 85.4034 22.268C85.5783 22.811 85.6414 23.3857 85.5886 23.9554C85.6424 24.5256 85.5801 25.1011 85.4057 25.645C85.2312 26.1888 84.9486 26.689 84.5759 27.1133C84.2032 27.5376 83.7487 27.8766 83.2416 28.1087C82.7345 28.3407 82.186 28.4606 81.6313 28.4606C81.0767 28.4606 80.5282 28.3407 80.0211 28.1087C79.514 27.8766 79.0595 27.5376 78.6868 27.1133C78.3141 26.689 78.0314 26.1888 77.857 25.645C77.6826 25.1011 77.6203 24.5256 77.674 23.9554V23.9554ZM83.8852 23.9554C83.8852 22.0764 83.0681 20.9776 81.6341 20.9776C80.1945 20.9776 79.3848 22.0764 79.3848 23.9554C79.3848 25.8494 80.1946 26.9397 81.6341 26.9397C83.0681 26.9397 83.8852 25.8418 83.8852 23.9554H83.8852Z" fill="#575B5E"/>
<path d="M96.1093 28.2931H94.3914L92.6571 21.909H92.526L90.799 28.2931H89.0974L86.7843 19.625H88.4641L89.9673 26.2393H90.091L91.8163 19.625H93.405L95.1303 26.2393H95.2613L96.7572 19.625H98.4133L96.1093 28.2931Z" fill="#575B5E"/>
<path d="M100.359 19.625H101.953V21.002H102.077C102.287 20.5074 102.641 20.0929 103.09 19.816C103.538 19.5392 104.06 19.4139 104.581 19.4577C104.989 19.426 105.399 19.4896 105.78 19.6438C106.162 19.7979 106.505 20.0388 106.783 20.3484C107.062 20.658 107.27 21.0285 107.392 21.4324C107.513 21.8363 107.545 22.2633 107.485 22.6817V28.2931H105.829V23.1113C105.829 21.7183 105.243 21.0255 104.019 21.0255C103.741 21.0122 103.465 21.0609 103.207 21.1684C102.95 21.2759 102.718 21.4395 102.528 21.6482C102.338 21.8568 102.193 22.1055 102.105 22.3772C102.016 22.6489 101.985 22.9371 102.015 23.2222V28.2932H100.359L100.359 19.625Z" fill="#575B5E"/>
<path d="M110.124 16.2412H111.78V28.2931H110.124V16.2412Z" fill="#575B5E"/>
<path d="M114.082 23.9553C114.03 23.3857 114.093 22.8109 114.268 22.2679C114.443 21.7249 114.726 21.2256 115.098 20.8021C115.471 20.3787 115.925 20.0403 116.432 19.8088C116.938 19.5772 117.486 19.4576 118.04 19.4576C118.594 19.4576 119.142 19.5772 119.649 19.8088C120.155 20.0403 120.61 20.3787 120.982 20.8021C121.355 21.2256 121.638 21.7249 121.813 22.2679C121.988 22.8109 122.051 23.3857 121.998 23.9553C122.052 24.5256 121.989 25.1011 121.815 25.645C121.64 26.1888 121.358 26.689 120.985 27.1133C120.612 27.5376 120.158 27.8766 119.65 28.1086C119.143 28.3406 118.595 28.4605 118.04 28.4605C117.486 28.4605 116.937 28.3406 116.43 28.1086C115.923 27.8766 115.468 27.5376 115.095 27.1133C114.723 26.689 114.44 26.1888 114.266 25.645C114.091 25.1011 114.029 24.5256 114.082 23.9553V23.9553ZM120.294 23.9553C120.294 22.0764 119.476 20.9776 118.042 20.9776C116.603 20.9776 115.793 22.0764 115.793 23.9554C115.793 25.8493 116.603 26.9397 118.042 26.9397C119.477 26.9396 120.294 25.8418 120.294 23.9553H120.294Z" fill="#575B5E"/>
<path d="M123.741 25.8418C123.741 24.2815 124.866 23.382 126.862 23.2541L129.135 23.1188V22.3706C129.135 21.4551 128.549 20.9381 127.418 20.9381C126.493 20.9381 125.852 21.2887 125.669 21.9015H124.065C124.235 20.4127 125.59 19.4577 127.494 19.4577C129.598 19.4577 130.784 20.5396 130.784 22.3706V28.2931H129.19V27.075H129.059C128.793 27.5119 128.42 27.8682 127.977 28.1073C127.534 28.3464 127.038 28.4598 126.539 28.436C126.186 28.4738 125.83 28.435 125.493 28.322C125.157 28.209 124.846 28.0243 124.583 27.7799C124.319 27.5355 124.108 27.2368 123.963 26.9029C123.818 26.5691 123.743 26.2076 123.741 25.8418V25.8418ZM129.135 25.1011V24.3764L127.086 24.5118C125.931 24.5916 125.407 24.9977 125.407 25.7619C125.407 26.542 126.062 26.996 126.963 26.996C127.227 27.0236 127.493 26.9961 127.747 26.9151C128 26.834 128.235 26.7012 128.438 26.5244C128.641 26.3476 128.807 26.1305 128.927 25.886C129.047 25.6414 129.118 25.3745 129.135 25.1011V25.1011Z" fill="#575B5E"/>
<path d="M132.961 23.9553C132.961 21.2164 134.324 19.4812 136.444 19.4812C136.969 19.4563 137.489 19.586 137.945 19.8553C138.4 20.1246 138.772 20.5223 139.017 21.002H139.141V16.2412H140.797V28.2931H139.21V26.9236H139.079C138.815 27.4001 138.43 27.7928 137.966 28.0594C137.501 28.326 136.975 28.4562 136.444 28.436C134.309 28.4361 132.961 26.7009 132.961 23.9553ZM134.672 23.9553C134.672 25.7939 135.511 26.9002 136.914 26.9002C138.31 26.9002 139.172 25.7779 139.172 23.9629C139.172 22.1563 138.3 21.018 136.914 21.018C135.52 21.018 134.672 22.1318 134.672 23.9553H134.672Z" fill="#575B5E"/>
<path d="M147.649 23.9554C147.596 23.3857 147.659 22.811 147.834 22.268C148.009 21.725 148.292 21.2258 148.665 20.8023C149.037 20.3788 149.491 20.0405 149.998 19.809C150.505 19.5774 151.052 19.4578 151.606 19.4578C152.16 19.4578 152.708 19.5774 153.215 19.809C153.721 20.0405 154.176 20.3788 154.548 20.8023C154.921 21.2258 155.204 21.725 155.378 22.268C155.553 22.811 155.616 23.3857 155.564 23.9554C155.617 24.5256 155.555 25.1011 155.381 25.645C155.206 26.1888 154.924 26.689 154.551 27.1133C154.178 27.5376 153.724 27.8766 153.217 28.1087C152.709 28.3407 152.161 28.4606 151.606 28.4606C151.052 28.4606 150.503 28.3407 149.996 28.1087C149.489 27.8766 149.034 27.5376 148.662 27.1133C148.289 26.689 148.006 26.1888 147.832 25.645C147.658 25.1011 147.595 24.5256 147.649 23.9554V23.9554ZM153.86 23.9554C153.86 22.0764 153.043 20.9776 151.609 20.9776C150.17 20.9776 149.36 22.0764 149.36 23.9554C149.36 25.8494 150.17 26.9397 151.609 26.9397C153.043 26.9397 153.86 25.8418 153.86 23.9554Z" fill="#575B5E"/>
<path d="M157.786 19.625H159.38V21.002H159.504C159.714 20.5074 160.068 20.0929 160.517 19.816C160.965 19.5392 161.487 19.4139 162.008 19.4577C162.416 19.426 162.826 19.4896 163.207 19.6438C163.589 19.7979 163.932 20.0388 164.21 20.3484C164.489 20.658 164.697 21.0285 164.819 21.4324C164.94 21.8363 164.972 22.2633 164.912 22.6817V28.2931H163.256V23.1113C163.256 21.7183 162.67 21.0255 161.446 21.0255C161.168 21.0122 160.892 21.0609 160.634 21.1684C160.377 21.2759 160.145 21.4395 159.955 21.6482C159.765 21.8568 159.62 22.1055 159.532 22.3772C159.443 22.6489 159.412 22.9371 159.442 23.2222V28.2932H157.786V19.625Z" fill="#575B5E"/>
<path d="M174.27 17.4669V19.6645H176.088V21.1054H174.27V25.5626C174.27 26.4706 174.632 26.8682 175.457 26.8682C175.668 26.8675 175.879 26.8543 176.088 26.8287V28.2537C175.791 28.3086 175.489 28.3379 175.187 28.3411C173.346 28.3411 172.612 27.6718 172.612 26.0006V21.1054H171.28V19.6644H172.612V17.4669H174.27Z" fill="#575B5E"/>
<path d="M178.35 16.2412H179.992V21.018H180.123C180.343 20.5188 180.707 20.1019 181.165 19.824C181.623 19.5461 182.152 19.4208 182.682 19.4652C183.088 19.4424 183.494 19.5124 183.871 19.6704C184.248 19.8283 184.586 20.0702 184.862 20.3789C185.138 20.6875 185.345 21.0553 185.468 21.456C185.59 21.8566 185.626 22.2803 185.571 22.6967V28.2932H183.914V23.1188C183.914 21.7342 183.289 21.033 182.119 21.033C181.835 21.0089 181.548 21.0493 181.28 21.1515C181.013 21.2536 180.769 21.4149 180.568 21.6243C180.367 21.8336 180.212 22.0858 180.115 22.3633C180.018 22.6407 179.981 22.9367 180.006 23.2306V28.2931H178.35L178.35 16.2412Z" fill="#575B5E"/>
<path d="M195.228 25.9527C195.003 26.7449 194.515 27.4302 193.851 27.8886C193.186 28.3471 192.386 28.5495 191.592 28.4605C191.039 28.4755 190.489 28.3662 189.982 28.1399C189.474 27.9137 189.02 27.576 188.651 27.1503C188.282 26.7246 188.007 26.2211 187.846 25.6748C187.684 25.1284 187.64 24.5523 187.715 23.9864C187.642 23.4187 187.687 22.8413 187.848 22.2933C188.009 21.7454 188.283 21.2395 188.65 20.8101C189.016 20.3807 189.468 20.0377 189.975 19.8044C190.481 19.5711 191.03 19.4528 191.584 19.4577C193.919 19.4577 195.328 21.1055 195.328 23.8275V24.4244H189.402V24.5203C189.376 24.8384 189.415 25.1585 189.516 25.4603C189.617 25.762 189.778 26.0387 189.988 26.2725C190.199 26.5063 190.454 26.6921 190.738 26.818C191.022 26.9439 191.328 27.0071 191.637 27.0035C192.033 27.0526 192.435 26.979 192.79 26.7918C193.146 26.6047 193.439 26.3126 193.634 25.9527L195.228 25.9527ZM189.402 23.1592H193.641C193.662 22.8683 193.623 22.5761 193.528 22.3013C193.434 22.0266 193.284 21.7754 193.089 21.564C192.895 21.3525 192.66 21.1854 192.399 21.0734C192.138 20.9614 191.858 20.907 191.575 20.9137C191.289 20.91 191.005 20.9655 190.739 21.0771C190.474 21.1886 190.233 21.3539 190.03 21.5632C189.828 21.7724 189.668 22.0215 189.56 22.2956C189.452 22.5697 189.399 22.8633 189.402 23.1592H189.402Z" fill="#575B5E"/>
</g>
<defs>
<clipPath id="clip0">
<rect width="223" height="77" fill="white"/>
</clipPath>
</defs>
</svg>
