<svg width="138" height="91" viewBox="0 0 138 91" fill="none" xmlns="http://www.w3.org/2000/svg">
<path d="M18.0767 63.2809C18.0767 66.974 19.1962 69.4222 21.4765 70.5841C23.7568 71.7875 25.6225 72.3684 27.1565 72.3684V72.2854H29.3954C33.9146 72.2854 36.1949 74.5677 36.1949 79.0907V83.6138C36.1949 88.0953 33.9146 90.3361 29.3954 90.3361H27.9858C27.7785 90.3776 27.4882 90.4191 27.1565 90.4191C19.6522 90.4191 13.2673 87.7633 7.9604 82.4519C2.65347 77.1404 0 70.7501 0 63.2394V24.5239V24.3995V6.8053C0 2.28227 2.28033 0 6.79951 0H9.03837H11.3187C15.7964 0 18.0353 2.28227 18.0353 6.8053V8.92157V9.04606C18.0353 17.6772 18.0353 25.2709 18.0353 31.8272C18.0767 38.342 18.0767 48.7989 18.0767 63.2809Z" fill="#DE1300"/>
<path d="M48.3428 1.57686H52.862C57.3397 1.57686 59.5786 3.56865 59.5786 7.51073V11.4528C59.5786 15.3534 57.3397 17.3452 52.862 17.3452H48.3428C43.8237 17.3452 41.5433 15.3949 41.5433 11.4528V7.51073C41.5433 3.52715 43.7822 1.57686 48.3428 1.57686Z" fill="#FFD400"/>
<path d="M48.3428 21.4532H52.862C57.3397 21.4532 59.5786 23.7355 59.5786 28.3V83.4893C59.5786 88.0953 57.3397 90.419 52.862 90.419H48.3428C43.8237 90.419 41.5433 88.0953 41.5433 83.4893V28.3C41.5433 23.7355 43.7822 21.4532 48.3428 21.4532Z" fill="#FFD400"/>
<path d="M133.834 20.5819C137.856 22.5322 138.975 25.5613 137.151 29.6279L110.409 86.9749C109.124 89.6307 106.221 91 101.619 91C97.0173 91 94.1151 89.6722 92.8712 86.9749L66.1293 29.6279C64.2636 25.5198 65.3416 22.4907 69.3632 20.5819L71.4777 19.6275L73.5092 18.6731C77.5724 16.8472 80.599 17.9676 82.5476 21.9927L101.661 63.0734L120.774 21.9927C122.64 17.9676 125.666 16.8472 129.812 18.6731L131.844 19.6275L133.834 20.5819Z" fill="#37419B"/>
</svg>
