<svg width="304" height="227" viewBox="0 0 304 227" fill="none" xmlns="http://www.w3.org/2000/svg">
<path d="M252.539 42.6389C255.451 87.9653 200.737 136.879 161.296 149.647C123.29 161.971 47.2903 157.381 43.4051 103.968C41.9459 83.9038 53.5405 62.0158 70.7226 51.5582C98.3501 34.7592 120.007 57.1762 147.239 60.7816C168.878 63.6453 185.635 53.9963 201.868 40.821C215.39 29.8587 250.35 8.63344 252.539 42.6389Z" fill="#2F80ED"/>
<path opacity="0.8" d="M252.539 42.6389C255.451 87.9653 200.737 136.879 161.296 149.647C123.29 161.971 47.2903 157.381 43.4051 103.968C41.9459 83.9038 53.5405 62.0158 70.7226 51.5582C98.3501 34.7592 120.007 57.1762 147.239 60.7816C168.878 63.6453 185.635 53.9963 201.868 40.821C215.39 29.8587 250.35 8.63344 252.539 42.6389Z" fill="white"/>
<path d="M152 226.517C217.106 226.517 269.885 223.435 269.885 219.634C269.885 215.833 217.106 212.751 152 212.751C86.8938 212.751 34.1149 215.833 34.1149 219.634C34.1149 223.435 86.8938 226.517 152 226.517Z" fill="#F5F5F5"/>
<path d="M89.3283 128.486C102.188 115.626 102.188 94.7763 89.3283 81.9167C76.4686 69.057 55.6189 69.057 42.7592 81.9167C29.8995 94.7763 29.8995 115.626 42.7592 128.486C55.6189 141.345 76.4686 141.345 89.3283 128.486Z" fill="#2F80ED"/>
<path opacity="0.4" d="M89.3283 128.486C102.188 115.626 102.188 94.7763 89.3283 81.9167C76.4686 69.057 55.6189 69.057 42.7592 81.9167C29.8995 94.7763 29.8995 115.626 42.7592 128.486C55.6189 141.345 76.4686 141.345 89.3283 128.486Z" fill="black"/>
<path opacity="0.2" d="M93.3045 109.851C95.8724 94.7967 85.7502 80.5112 70.6959 77.9433C55.6417 75.3754 41.3561 85.4977 38.7883 100.552C36.2204 115.606 46.3426 129.892 61.3969 132.46C76.4511 135.027 90.7367 124.905 93.3045 109.851Z" fill="black"/>
<path d="M94.626 107.85C95.6523 93.1892 84.5995 80.4726 69.9389 79.4463C55.2784 78.4201 42.5617 89.4729 41.5355 104.133C40.5093 118.794 51.5621 131.511 66.2226 132.537C80.8832 133.563 93.5998 122.51 94.626 107.85Z" fill="#2F80ED"/>
<path opacity="0.4" d="M94.626 107.85C95.6523 93.1892 84.5995 80.4726 69.9389 79.4463C55.2784 78.4201 42.5617 89.4729 41.5355 104.133C40.5093 118.794 51.5621 131.511 66.2226 132.537C80.8832 133.563 93.5998 122.51 94.626 107.85Z" fill="black"/>
<path d="M76.9789 102.667L78.7117 110.176C78.7853 110.462 78.7984 110.761 78.7502 111.053C78.7021 111.345 78.5937 111.624 78.432 111.872C78.2749 112.125 78.0686 112.345 77.8252 112.517C77.5819 112.689 77.3065 112.811 77.0154 112.875L70.4125 114.401L71.6285 119.685C71.7 119.97 71.711 120.268 71.6608 120.558C71.6105 120.848 71.5001 121.124 71.3367 121.369C71.1796 121.618 70.9727 121.832 70.7289 121.998C70.4851 122.163 70.2097 122.276 69.92 122.33C69.6299 122.402 69.3281 122.416 69.0326 122.37C68.7371 122.324 68.4537 122.219 68.1994 122.062C67.946 121.913 67.7264 121.713 67.5548 121.474C67.3831 121.235 67.263 120.963 67.2023 120.676L65.9863 115.331L59.4381 116.845C59.1559 116.914 58.8628 116.924 58.5765 116.876C58.2903 116.828 58.0166 116.722 57.7722 116.566C57.5181 116.417 57.2978 116.217 57.1251 115.978C56.9524 115.739 56.8311 115.467 56.769 115.18C56.6998 114.895 56.689 114.6 56.737 114.312C56.7851 114.023 56.8911 113.748 57.0487 113.501C57.199 113.25 57.3997 113.032 57.6382 112.861C57.8768 112.691 58.148 112.571 58.4349 112.51L73.7565 108.978L73.0391 105.859L57.76 109.379C57.4772 109.451 57.1826 109.465 56.8942 109.42C56.6057 109.376 56.3294 109.273 56.0819 109.118C55.8282 108.965 55.6089 108.762 55.4383 108.52C55.2676 108.278 55.1493 108.003 55.0909 107.713L53.3642 100.235C53.2313 99.66 53.3321 99.0559 53.6445 98.5554C53.9569 98.0549 54.4553 97.6989 55.0301 97.5657L61.5479 96.064L60.3319 90.7744C60.2614 90.4947 60.2476 90.2037 60.2915 89.9186C60.3353 89.6335 60.4359 89.3601 60.5872 89.1145C60.7476 88.8485 60.9629 88.6198 61.2187 88.4437C61.4745 88.2675 61.765 88.148 62.0707 88.0931C62.3519 88.0248 62.644 88.0143 62.9294 88.0624C63.2147 88.1105 63.4873 88.2161 63.7306 88.3728C63.9803 88.5263 64.1962 88.7289 64.3655 88.9681C64.5348 89.2074 64.6539 89.4785 64.7155 89.7651L65.9315 95.0486L72.6195 93.5165C72.9089 93.4464 73.2094 93.4356 73.503 93.4847C73.7966 93.5338 74.0772 93.6418 74.328 93.8022C74.5817 93.9481 74.8024 94.1449 74.9761 94.3804C75.1498 94.6159 75.2728 94.8848 75.3373 95.1702C75.4654 95.7582 75.3584 96.373 75.0391 96.8832C74.7198 97.3933 74.2137 97.7583 73.6288 97.9001L58.3072 101.433L58.976 104.533L74.2429 101.013C74.5322 100.943 74.8327 100.932 75.1263 100.981C75.4199 101.03 75.7006 101.138 75.9514 101.299C76.2092 101.442 76.4339 101.638 76.6109 101.873C76.788 102.109 76.9134 102.379 76.9789 102.667Z" fill="#2F80ED"/>
<g opacity="0.7">
<path opacity="0.7" d="M76.9789 102.667L78.7117 110.176C78.7853 110.462 78.7984 110.761 78.7502 111.053C78.7021 111.345 78.5937 111.624 78.432 111.872C78.2749 112.125 78.0686 112.345 77.8252 112.517C77.5819 112.689 77.3065 112.811 77.0154 112.875L70.4125 114.401L71.6285 119.685C71.7 119.97 71.711 120.268 71.6608 120.558C71.6105 120.848 71.5001 121.124 71.3367 121.369C71.1796 121.618 70.9727 121.832 70.7289 121.998C70.4851 122.163 70.2097 122.276 69.92 122.33C69.6299 122.402 69.3281 122.416 69.0326 122.37C68.7371 122.324 68.4537 122.219 68.1994 122.062C67.946 121.913 67.7264 121.713 67.5548 121.474C67.3831 121.235 67.263 120.963 67.2023 120.676L65.9863 115.331L59.4381 116.845C59.1559 116.914 58.8628 116.924 58.5765 116.876C58.2903 116.828 58.0166 116.722 57.7722 116.566C57.5181 116.417 57.2978 116.217 57.1251 115.978C56.9524 115.739 56.8311 115.467 56.769 115.18C56.6998 114.895 56.689 114.6 56.737 114.312C56.7851 114.023 56.8911 113.748 57.0487 113.501C57.199 113.25 57.3997 113.032 57.6382 112.861C57.8768 112.691 58.148 112.571 58.4349 112.51L73.7565 108.978L73.0391 105.859L57.76 109.379C57.4772 109.451 57.1826 109.465 56.8942 109.42C56.6057 109.376 56.3294 109.273 56.0819 109.118C55.8282 108.965 55.6089 108.762 55.4383 108.52C55.2676 108.278 55.1493 108.003 55.0909 107.713L53.3642 100.235C53.2313 99.66 53.3321 99.0559 53.6445 98.5554C53.9569 98.0549 54.4553 97.6989 55.0301 97.5657L61.5479 96.064L60.3319 90.7744C60.2614 90.4947 60.2476 90.2037 60.2915 89.9186C60.3353 89.6335 60.4359 89.3601 60.5872 89.1145C60.7476 88.8485 60.9629 88.6198 61.2187 88.4437C61.4745 88.2675 61.765 88.148 62.0707 88.0931C62.3519 88.0248 62.644 88.0143 62.9294 88.0624C63.2147 88.1105 63.4873 88.2161 63.7306 88.3728C63.9803 88.5263 64.1962 88.7289 64.3655 88.9681C64.5348 89.2074 64.6539 89.4785 64.7155 89.7651L65.9315 95.0486L72.6195 93.5165C72.9089 93.4464 73.2094 93.4356 73.503 93.4847C73.7966 93.5338 74.0772 93.6418 74.328 93.8022C74.5817 93.9481 74.8024 94.1449 74.9761 94.3804C75.1498 94.6159 75.2728 94.8848 75.3373 95.1702C75.4654 95.7582 75.3584 96.373 75.0391 96.8832C74.7198 97.3933 74.2137 97.7583 73.6288 97.9001L58.3072 101.433L58.976 104.533L74.2429 101.013C74.5322 100.943 74.8327 100.932 75.1263 100.981C75.4199 101.03 75.7006 101.138 75.9514 101.299C76.2092 101.442 76.4339 101.638 76.6109 101.873C76.788 102.109 76.9134 102.379 76.9789 102.667Z" fill="white"/>
</g>
<path d="M136.313 79.0141C144.505 69.3194 143.288 54.8188 133.593 46.6261C123.898 38.4334 109.398 39.6511 101.205 49.3458C93.0123 59.0405 94.2299 73.5411 103.925 81.7338C113.619 89.9265 128.12 88.7089 136.313 79.0141Z" fill="#2F80ED"/>
<path opacity="0.4" d="M136.313 79.0141C144.505 69.3194 143.288 54.8188 133.593 46.6261C123.898 38.4334 109.398 39.6511 101.205 49.3458C93.0123 59.0405 94.2299 73.5411 103.925 81.7338C113.619 89.9265 128.12 88.7089 136.313 79.0141Z" fill="black"/>
<path opacity="0.2" d="M133.634 76.4587C140.425 68.2442 139.27 56.0801 131.056 49.2893C122.842 42.4985 110.677 43.6527 103.887 51.8671C97.0959 60.0816 98.25 72.2457 106.465 79.0365C114.679 85.8272 126.843 84.6731 133.634 76.4587Z" fill="black"/>
<path d="M134.216 76.6603C140.429 68.5312 138.876 56.9047 130.747 50.6917C122.618 44.4788 110.991 46.0321 104.778 54.1613C98.5652 62.2904 100.119 73.917 108.248 80.1299C116.377 86.3428 128.003 84.7895 134.216 76.6603Z" fill="#2F80ED"/>
<path opacity="0.4" d="M134.216 76.6603C140.429 68.5312 138.876 56.9047 130.747 50.6917C122.618 44.4788 110.991 46.0321 104.778 54.1613C98.5652 62.2904 100.119 73.917 108.248 80.1299C116.377 86.3428 128.003 84.7895 134.216 76.6603Z" fill="black"/>
<path d="M126.355 66.0654L125.047 71.282C125 71.4804 124.912 71.6667 124.788 71.8289C124.665 71.9912 124.508 72.1259 124.33 72.2244C124.15 72.3341 123.949 72.4063 123.74 72.4366C123.531 72.4669 123.318 72.4547 123.114 72.4007L118.56 71.2516L117.636 74.8996C117.589 75.0989 117.501 75.2862 117.377 75.4496C117.254 75.6129 117.097 75.7486 116.918 75.8481C116.746 75.9551 116.554 76.026 116.353 76.0563C116.152 76.0866 115.947 76.0758 115.751 76.0244C115.549 75.9769 115.358 75.8895 115.19 75.7673C115.022 75.6452 114.88 75.4907 114.772 75.313C114.662 75.1395 114.59 74.9452 114.558 74.7423C114.527 74.5393 114.538 74.3321 114.59 74.1335L115.52 70.4247L110.96 69.3121C110.762 69.2648 110.576 69.1779 110.413 69.0567C110.25 68.9355 110.114 68.7824 110.011 68.6068C109.902 68.4345 109.829 68.2412 109.797 68.0392C109.766 67.8372 109.777 67.6309 109.829 67.4334C109.875 67.2335 109.961 67.045 110.082 66.8798C110.203 66.7145 110.357 66.576 110.534 66.4727C110.709 66.366 110.904 66.2959 111.107 66.2667C111.309 66.2374 111.516 66.2496 111.714 66.3025L122.354 68.9716L122.901 66.8071L112.291 64.1441C112.093 64.0996 111.905 64.0145 111.741 63.8942C111.577 63.7739 111.439 63.6209 111.337 63.4449C111.227 63.2715 111.155 63.0767 111.125 62.8734C111.096 62.6701 111.11 62.4628 111.167 62.2654L112.468 57.067C112.517 56.8688 112.605 56.6824 112.726 56.5184C112.848 56.3543 113 56.216 113.176 56.1115C113.351 56.0069 113.545 55.938 113.747 55.909C113.949 55.8799 114.155 55.8912 114.353 55.9422L118.864 57.073L119.788 53.425C119.833 53.2191 119.92 53.0247 120.043 52.854C120.167 52.6833 120.324 52.5401 120.506 52.4333C120.688 52.3264 120.889 52.2584 121.099 52.2334C121.308 52.2084 121.52 52.2271 121.722 52.2881C121.918 52.3335 122.102 52.4191 122.263 52.5394C122.424 52.6598 122.559 52.8123 122.658 52.9873C122.765 53.1606 122.837 53.3541 122.867 53.5559C122.897 53.7576 122.886 53.9634 122.834 54.1607L121.91 57.8087L126.531 58.97C126.734 59.0184 126.924 59.1075 127.092 59.2319C127.259 59.3563 127.399 59.5133 127.504 59.6935C127.614 59.8643 127.689 60.0561 127.722 60.257C127.756 60.4578 127.748 60.6634 127.698 60.8609C127.647 61.0634 127.557 61.2538 127.432 61.4209C127.306 61.5879 127.149 61.7283 126.969 61.8337C126.789 61.9454 126.589 62.0192 126.379 62.0506C126.17 62.082 125.957 62.0702 125.753 62.0161L115.107 59.347L114.571 61.4993L125.175 64.1563C125.378 64.2047 125.568 64.2938 125.736 64.4181C125.903 64.5425 126.043 64.6996 126.148 64.8798C126.265 65.0512 126.344 65.2457 126.38 65.4502C126.415 65.6547 126.407 65.8645 126.355 66.0654Z" fill="#2F80ED"/>
<g opacity="0.7">
<path opacity="0.7" d="M126.355 66.0654L125.047 71.282C125 71.4804 124.912 71.6667 124.788 71.8289C124.665 71.9912 124.508 72.1259 124.33 72.2244C124.15 72.3341 123.949 72.4063 123.74 72.4366C123.531 72.4669 123.318 72.4547 123.114 72.4007L118.56 71.2516L117.636 74.8996C117.589 75.0989 117.501 75.2862 117.377 75.4496C117.254 75.6129 117.097 75.7486 116.918 75.8481C116.746 75.9551 116.554 76.026 116.353 76.0563C116.152 76.0866 115.947 76.0758 115.751 76.0244C115.549 75.9769 115.358 75.8895 115.19 75.7673C115.022 75.6452 114.88 75.4907 114.772 75.313C114.662 75.1395 114.59 74.9452 114.558 74.7423C114.527 74.5393 114.538 74.3321 114.59 74.1335L115.52 70.4247L110.96 69.3121C110.762 69.2648 110.576 69.1779 110.413 69.0567C110.25 68.9355 110.114 68.7824 110.011 68.6068C109.902 68.4345 109.829 68.2412 109.797 68.0392C109.766 67.8372 109.777 67.6309 109.829 67.4334C109.875 67.2335 109.961 67.045 110.082 66.8798C110.203 66.7145 110.357 66.576 110.534 66.4727C110.709 66.366 110.904 66.2959 111.107 66.2667C111.309 66.2374 111.516 66.2496 111.714 66.3025L122.354 68.9716L122.901 66.8071L112.291 64.1441C112.093 64.0996 111.905 64.0145 111.741 63.8942C111.577 63.7739 111.439 63.6209 111.337 63.4449C111.227 63.2715 111.155 63.0767 111.125 62.8734C111.096 62.6701 111.11 62.4628 111.167 62.2654L112.468 57.067C112.517 56.8688 112.605 56.6824 112.726 56.5184C112.848 56.3543 113 56.216 113.176 56.1115C113.351 56.0069 113.545 55.938 113.747 55.909C113.949 55.8799 114.155 55.8912 114.353 55.9422L118.864 57.073L119.788 53.425C119.833 53.2191 119.92 53.0247 120.043 52.854C120.167 52.6833 120.324 52.5401 120.506 52.4333C120.688 52.3264 120.889 52.2584 121.099 52.2334C121.308 52.2084 121.52 52.2271 121.722 52.2881C121.918 52.3335 122.102 52.4191 122.263 52.5394C122.424 52.6598 122.559 52.8123 122.658 52.9873C122.765 53.1606 122.837 53.3541 122.867 53.5559C122.897 53.7576 122.886 53.9634 122.834 54.1607L121.91 57.8087L126.531 58.97C126.734 59.0184 126.924 59.1075 127.092 59.2319C127.259 59.3563 127.399 59.5133 127.504 59.6935C127.614 59.8643 127.689 60.0561 127.722 60.257C127.756 60.4578 127.748 60.6634 127.698 60.8609C127.647 61.0634 127.557 61.2538 127.432 61.4209C127.306 61.5879 127.149 61.7283 126.969 61.8337C126.789 61.9454 126.589 62.0192 126.379 62.0506C126.17 62.082 125.957 62.0702 125.753 62.0161L115.107 59.347L114.571 61.4993L125.175 64.1563C125.378 64.2047 125.568 64.2938 125.736 64.4181C125.903 64.5425 126.043 64.6996 126.148 64.8798C126.265 65.0512 126.344 65.2457 126.38 65.4502C126.415 65.6547 126.407 65.8645 126.355 66.0654Z" fill="white"/>
</g>
<path d="M62.7821 203.053H62.1741V209.918H62.7821V203.053Z" fill="#2F80ED"/>
<path opacity="0.1" d="M62.7821 203.053H62.1741V209.918H62.7821V203.053Z" fill="black"/>
<path d="M241.826 148.674H241.218V158.08H241.826V148.674Z" fill="#2F80ED"/>
<path d="M241.826 163.011H241.218V168.112H241.826V163.011Z" fill="#2F80ED"/>
<path opacity="0.1" d="M241.826 148.674H241.218V158.08H241.826V148.674Z" fill="black"/>
<path opacity="0.1" d="M241.826 163.011H241.218V168.112H241.826V163.011Z" fill="black"/>
<path d="M230.554 107.884H73.4525C68.3988 107.884 64.3021 111.98 64.3021 117.034V208.994C64.3021 214.048 68.3988 218.144 73.4525 218.144H230.554C235.607 218.144 239.704 214.048 239.704 208.994V117.034C239.704 111.98 235.607 107.884 230.554 107.884Z" fill="#2F80ED"/>
<path opacity="0.2" d="M230.554 107.884H73.4525C68.3988 107.884 64.3021 111.98 64.3021 117.034V208.994C64.3021 214.048 68.3988 218.144 73.4525 218.144H230.554C235.607 218.144 239.704 214.048 239.704 208.994V117.034C239.704 111.98 235.607 107.884 230.554 107.884Z" fill="black"/>
<path opacity="0.2" d="M211.31 146.279C217.58 146.279 222.662 141.196 222.662 134.927C222.662 128.658 217.58 123.576 211.31 123.576C205.041 123.576 199.959 128.658 199.959 134.927C199.959 141.196 205.041 146.279 211.31 146.279Z" fill="black"/>
<path d="M196.658 146.279C202.927 146.279 208.009 141.196 208.009 134.927C208.009 128.658 202.927 123.576 196.658 123.576C190.388 123.576 185.306 128.658 185.306 134.927C185.306 141.196 190.388 146.279 196.658 146.279Z" fill="#2F80ED"/>
<path d="M112.322 146.279H85.2841C83.1082 146.279 81.3443 148.042 81.3443 150.218V167.893C81.3443 170.069 83.1082 171.833 85.2841 171.833H112.322C114.498 171.833 116.262 170.069 116.262 167.893V150.218C116.262 148.042 114.498 146.279 112.322 146.279Z" fill="#2F80ED"/>
<path opacity="0.3" d="M112.322 146.279H85.2841C83.1082 146.279 81.3443 148.042 81.3443 150.218V167.893C81.3443 170.069 83.1082 171.833 85.2841 171.833H112.322C114.498 171.833 116.262 170.069 116.262 167.893V150.218C116.262 148.042 114.498 146.279 112.322 146.279Z" fill="white"/>
<path d="M131.03 120.791H84.135C82.5937 120.791 81.3443 122.039 81.3443 123.579C81.3443 125.119 82.5937 126.367 84.135 126.367H131.03C132.571 126.367 133.821 125.119 133.821 123.579C133.821 122.039 132.571 120.791 131.03 120.791Z" fill="#2F80ED"/>
<path opacity="0.3" d="M131.03 120.791H84.135C82.5937 120.791 81.3443 122.039 81.3443 123.579C81.3443 125.119 82.5937 126.367 84.135 126.367H131.03C132.571 126.367 133.821 125.119 133.821 123.579C133.821 122.039 132.571 120.791 131.03 120.791Z" fill="white"/>
<path d="M106.528 184.516H85.4361C83.1763 184.516 81.3443 186.348 81.3443 188.607V192.432C81.3443 194.692 83.1763 196.524 85.4361 196.524H106.528C108.788 196.524 110.619 194.692 110.619 192.432V188.607C110.619 186.348 108.788 184.516 106.528 184.516Z" fill="#2F80ED"/>
<path opacity="0.3" d="M106.528 184.516H85.4361C83.1763 184.516 81.3443 186.348 81.3443 188.607V192.432C81.3443 194.692 83.1763 196.524 85.4361 196.524H106.528C108.788 196.524 110.619 194.692 110.619 192.432V188.607C110.619 186.348 108.788 184.516 106.528 184.516Z" fill="white"/>
<path d="M143.871 184.516H122.779C120.52 184.516 118.688 186.348 118.688 188.607V192.432C118.688 194.692 120.52 196.524 122.779 196.524H143.871C146.131 196.524 147.963 194.692 147.963 192.432V188.607C147.963 186.348 146.131 184.516 143.871 184.516Z" fill="#2F80ED"/>
<path opacity="0.3" d="M143.871 184.516H122.779C120.52 184.516 118.688 186.348 118.688 188.607V192.432C118.688 194.692 120.52 196.524 122.779 196.524H143.871C146.131 196.524 147.963 194.692 147.963 192.432V188.607C147.963 186.348 146.131 184.516 143.871 184.516Z" fill="white"/>
<path d="M181.22 184.516H160.129C157.869 184.516 156.037 186.348 156.037 188.607V192.432C156.037 194.692 157.869 196.524 160.129 196.524H181.22C183.48 196.524 185.312 194.692 185.312 192.432V188.607C185.312 186.348 183.48 184.516 181.22 184.516Z" fill="#2F80ED"/>
<path opacity="0.3" d="M181.22 184.516H160.129C157.869 184.516 156.037 186.348 156.037 188.607V192.432C156.037 194.692 157.869 196.524 160.129 196.524H181.22C183.48 196.524 185.312 194.692 185.312 192.432V188.607C185.312 186.348 183.48 184.516 181.22 184.516Z" fill="white"/>
<path d="M218.564 184.516H197.472C195.212 184.516 193.38 186.348 193.38 188.607V192.432C193.38 194.692 195.212 196.524 197.472 196.524H218.564C220.824 196.524 222.656 194.692 222.656 192.432V188.607C222.656 186.348 220.824 184.516 218.564 184.516Z" fill="#2F80ED"/>
<path opacity="0.3" d="M218.564 184.516H197.472C195.212 184.516 193.38 186.348 193.38 188.607V192.432C193.38 194.692 195.212 196.524 197.472 196.524H218.564C220.824 196.524 222.656 194.692 222.656 192.432V188.607C222.656 186.348 220.824 184.516 218.564 184.516Z" fill="white"/>
<path d="M178.144 67.9864C176.703 72.0539 175.104 75.9877 173.408 79.9214C171.691 83.9217 169.721 87.8086 167.51 91.5585C167.212 92.0389 166.902 92.5192 166.58 92.9995L166.343 93.3582L166.02 93.8021C165.802 94.0817 165.595 94.3249 165.412 94.5621C164.646 95.4161 163.834 96.2279 162.98 96.9941C161.357 98.4958 159.703 99.8577 158.031 101.201C154.675 103.864 151.246 106.357 147.695 108.722L145.573 106.09L154.511 97.2798C155.988 95.8145 157.454 94.3371 158.822 92.8597C159.497 92.124 160.153 91.3701 160.694 90.6769C160.828 90.5067 160.944 90.3365 161.047 90.1905L161.175 89.9838L161.351 89.6677C161.588 89.2481 161.837 88.8408 162.068 88.4091C163.929 84.9131 165.571 81.1131 167.151 77.2584C168.732 73.4037 170.252 69.5185 171.711 65.6638L178.144 67.9864Z" fill="#E4897B"/>
<path d="M179.852 65.0558C181.233 69.093 173.122 80.9672 173.122 80.9672L165.376 76.6565C166.696 72.9515 168.256 69.3364 170.045 65.8341C172.757 60.7026 178.339 60.6235 179.852 65.0558Z" fill="#2F80ED"/>
<path opacity="0.7" d="M179.852 65.0558C181.233 69.093 173.122 80.9672 173.122 80.9672L165.376 76.6565C166.696 72.9515 168.256 69.3364 170.045 65.8341C172.757 60.7026 178.339 60.6235 179.852 65.0558Z" fill="white"/>
<path opacity="0.31" d="M179.968 65.5605C178.229 64.7275 176.229 65.4267 174.119 68.7586C172.009 72.0904 170.216 77.6536 170.021 79.2405L173.128 80.9611C173.128 80.9611 180.612 69.9928 179.968 65.5605Z" fill="#2F80ED"/>
<path d="M174.605 61.9671C174.605 61.9671 168.817 75.5802 172.988 100.928H197.095C197.393 97.225 195.691 79.1735 199.868 61.7361C197.214 61.2194 194.529 60.8782 191.83 60.7146C188.418 60.5199 184.997 60.5199 181.585 60.7146C179.23 60.9538 176.897 61.3725 174.605 61.9671Z" fill="#2F80ED"/>
<path opacity="0.7" d="M174.605 61.9671C174.605 61.9671 168.817 75.5802 172.988 100.928H197.095C197.393 97.225 195.691 79.1735 199.868 61.7361C197.214 61.2194 194.529 60.8782 191.83 60.7146C188.418 60.5199 184.997 60.5199 181.585 60.7146C179.23 60.9538 176.897 61.3725 174.605 61.9671Z" fill="white"/>
<path d="M205.632 208.927L202.063 212.125L195.259 205.042L198.834 201.844L205.632 208.927Z" fill="#E4897B"/>
<path d="M193.393 215.578H188.887L188.304 205.145H192.809L193.393 215.578Z" fill="#E4897B"/>
<path d="M195.265 205.042L198.767 208.696L202.342 205.492L198.84 201.844L195.265 205.042Z" fill="#CE6F64"/>
<path d="M192.809 205.145H188.304L188.608 210.526H193.113L192.809 205.145Z" fill="#CE6F64"/>
<path d="M172.988 100.928C172.988 100.928 168.24 133.796 166.622 151.684C165.321 166.039 196.36 208.836 196.36 208.836L202.361 203.187C202.361 203.187 179.694 164.817 181.439 148.838C183.13 133.365 188.857 100.91 188.857 100.91L172.988 100.928Z" fill="#2F80ED"/>
<path opacity="0.7" d="M172.988 100.928C172.988 100.928 168.24 133.796 166.622 151.684C165.321 166.039 196.36 208.836 196.36 208.836L202.361 203.187C202.361 203.187 179.694 164.817 181.439 148.838C183.13 133.365 188.857 100.91 188.857 100.91L172.988 100.928Z" fill="black"/>
<path opacity="0.2" d="M181.439 148.857C182.309 140.886 184.254 128.397 185.926 118.171C185.051 116.456 182.595 112.985 182.595 112.985C180.394 120.591 175.609 149.264 182.436 187.987C189.55 199.454 196.36 208.854 196.36 208.854L197.29 194.067C190.717 181.701 180.229 159.904 181.439 148.857Z" fill="black"/>
<path d="M181.561 100.928C181.561 100.928 181.135 135.371 181.865 148.279C182.661 162.409 186.674 209.231 186.674 209.231H194.931C194.931 209.231 194.682 163.552 195.168 149.568C195.709 134.368 197.107 100.928 197.107 100.928H181.561Z" fill="#2F80ED"/>
<path opacity="0.7" d="M181.561 100.928C181.561 100.928 181.135 135.371 181.865 148.279C182.661 162.409 186.674 209.231 186.674 209.231H194.931C194.931 209.231 194.682 163.552 195.168 149.568C195.709 134.368 197.107 100.928 197.107 100.928H181.561Z" fill="black"/>
<path d="M188.65 215.062H193.715C193.799 215.058 193.882 215.088 193.944 215.145C194.007 215.202 194.045 215.281 194.049 215.366L194.299 219.372C194.299 219.477 194.279 219.581 194.24 219.678C194.201 219.774 194.143 219.863 194.07 219.937C193.996 220.012 193.909 220.071 193.812 220.112C193.716 220.153 193.613 220.174 193.508 220.175C191.745 220.144 190.9 220.041 188.675 220.041C187.307 220.041 181.482 220.187 179.591 220.187C177.7 220.187 177.767 218.314 178.551 218.144C182.145 217.384 186.601 216.32 187.878 215.335C188.098 215.161 188.37 215.065 188.65 215.062Z" fill="#263238"/>
<path d="M201.078 210.842L205.419 207.918C205.49 207.861 205.578 207.831 205.668 207.831C205.759 207.831 205.846 207.861 205.917 207.918L209.237 211.268C209.302 211.341 209.35 211.428 209.377 211.522C209.405 211.617 209.411 211.716 209.396 211.812C209.381 211.909 209.345 212.002 209.29 212.083C209.235 212.164 209.163 212.233 209.079 212.283C206.307 214.417 204.306 216.028 202.725 217.804C200.901 219.877 199.916 220.175 195.66 220.175C193.691 220.175 192.578 218.515 193.38 218.26C200.47 216.016 198.573 215.037 200.299 211.748C200.48 211.386 200.747 211.075 201.078 210.842Z" fill="#263238"/>
<path d="M146.595 105.524L141.895 105.689L142.88 109.373C142.88 109.373 147.793 109.811 148.23 108.327L146.595 105.524Z" fill="#E4897B"/>
<path d="M136.824 107.883L140.12 109.805L142.88 109.373L141.895 105.688L136.824 107.883Z" fill="#E4897B"/>
<path opacity="0.31" d="M194.481 66.0408C193.982 68.9106 194.645 75.7688 197.107 83.7093C197.3 76.9062 198.092 70.1333 199.473 63.469V63.4325C197.892 63.2744 194.961 63.3474 194.481 66.0408Z" fill="#2F80ED"/>
<path d="M191.216 49.1748C190.456 52.4702 189.599 58.5137 191.824 60.7268C191.824 60.7268 190.863 63.4567 184.735 63.4567C177.998 63.4567 181.579 60.7268 181.579 60.7268C185.288 59.8513 185.288 57.1214 184.735 54.5617L191.216 49.1748Z" fill="#E4897B"/>
<path d="M184.564 63.4446L182.74 65.3841L183.634 67.2567L185.087 67.3236L186.328 65.5361L184.564 63.4446Z" fill="#2F80ED"/>
<path d="M188.577 51.3699L184.741 54.5436C184.879 55.143 184.964 55.7534 184.996 56.3676C186.407 56.167 188.389 54.6227 188.589 53.1513C188.697 52.562 188.693 51.9577 188.577 51.3699Z" fill="#CE6F64"/>
<path d="M183.221 37.9999C180.916 38.7843 179.074 44.8947 181.762 46.5119C184.449 48.1292 187.598 36.5103 183.221 37.9999Z" fill="#263238"/>
<path d="M192.657 45.7215C191.283 49.9775 190.699 52.5493 187.927 54.2943C187.032 54.8692 185.998 55.1885 184.935 55.2178C183.872 55.2471 182.822 54.9853 181.897 54.4607C180.972 53.936 180.208 53.1685 179.688 52.2411C179.168 51.3138 178.912 50.2619 178.947 49.1993C179.001 45.1074 181.239 38.8085 185.951 38.0181C186.966 37.8221 188.015 37.8963 188.993 38.2333C189.971 38.5703 190.843 39.1583 191.522 39.9384C192.201 40.7185 192.664 41.6633 192.863 42.6783C193.062 43.6932 192.991 44.7426 192.657 45.7215Z" fill="#E4897B"/>
<path d="M196.062 38.6079C194.688 41.9276 197.886 39.1551 197.059 43.0949C196.524 45.6607 191.891 51.8076 190.103 51.2482C188.316 50.6888 188.334 46.3295 190.614 43.2469C191.927 41.4776 189.088 39.4712 182.71 39.684C176.332 39.8968 172.477 36.3096 180.953 33.677C180.953 33.677 177.828 35.501 179.682 36.109C182.309 37.0879 198.816 31.9564 196.062 38.6079Z" fill="#263238"/>
<path d="M194.846 40.1279C194.779 40.1279 196.275 39.757 197.071 37.0879C197.071 37.1305 196.81 41.0642 194.846 40.1279Z" fill="#263238"/>
<path d="M182.911 34.2668C178.989 35.4828 180.612 36.8508 182.236 37.1913L185.957 35.7321C180.302 36.48 182.911 34.2668 182.911 34.2668Z" fill="#263238"/>
<path d="M193.411 50.9199C192.595 51.7124 191.508 52.1627 190.371 52.1785C188.869 52.1785 188.547 50.7558 189.355 49.5641C190.073 48.494 191.715 47.205 193.04 47.7826C194.365 48.3602 194.408 49.941 193.411 50.9199Z" fill="#E4897B"/>
<path d="M185.732 45.4844C185.641 45.8371 185.379 46.0924 185.124 46.0316C184.868 45.9708 184.777 45.6486 184.868 45.2959C184.96 44.9433 185.221 44.6879 185.476 44.7548C185.732 44.8217 185.823 45.1318 185.732 45.4844Z" fill="#263238"/>
<path d="M181.719 44.6028C181.628 44.9555 181.366 45.2108 181.111 45.15C180.856 45.0892 180.764 44.7731 180.856 44.4204C180.947 44.0678 181.202 43.8124 181.464 43.8732C181.725 43.934 181.792 44.2502 181.719 44.6028Z" fill="#263238"/>
<path d="M182.947 45.0586C182.256 46.043 181.438 46.9322 180.515 47.7034C180.718 47.929 180.968 48.1074 181.248 48.2261C181.527 48.3448 181.829 48.4009 182.132 48.3904L182.947 45.0586Z" fill="#DE5753"/>
<path d="M183.616 49.6734C183.364 49.6732 183.113 49.6446 182.868 49.5883C182.841 49.5811 182.818 49.5639 182.803 49.5402C182.789 49.5165 182.784 49.488 182.789 49.4607C182.796 49.4337 182.813 49.4105 182.837 49.3958C182.861 49.3811 182.889 49.376 182.917 49.3816C183.365 49.4813 183.829 49.4784 184.275 49.3731C184.722 49.2678 185.139 49.0629 185.495 48.7736C185.515 48.7539 185.542 48.7429 185.571 48.7429C185.599 48.7429 185.626 48.7539 185.647 48.7736C185.666 48.794 185.677 48.8213 185.677 48.8496C185.677 48.878 185.666 48.9052 185.647 48.9256C185.082 49.4116 184.361 49.6772 183.616 49.6734Z" fill="#263238"/>
<path d="M187.325 44.4689C187.283 44.4696 187.243 44.4578 187.208 44.435C187.173 44.4123 187.146 44.3796 187.13 44.3412C187.03 44.0973 186.873 43.881 186.672 43.7106C186.471 43.5403 186.232 43.4208 185.975 43.3623C185.947 43.3586 185.92 43.3493 185.895 43.335C185.871 43.3207 185.85 43.3017 185.833 43.2791C185.816 43.2564 185.803 43.2306 185.797 43.2031C185.79 43.1757 185.788 43.1471 185.793 43.1191C185.802 43.0632 185.832 43.0129 185.877 42.9788C185.923 42.9448 185.98 42.9297 186.036 42.9367C186.363 43.0035 186.67 43.1491 186.928 43.361C187.187 43.5729 187.39 43.8447 187.519 44.1527C187.531 44.1782 187.538 44.2058 187.539 44.2339C187.54 44.262 187.535 44.29 187.525 44.3161C187.515 44.3423 187.499 44.3661 187.479 44.3861C187.46 44.4061 187.436 44.4219 187.41 44.4324C187.385 44.4507 187.355 44.4631 187.325 44.4689Z" fill="#263238"/>
<path d="M180.363 42.8578C180.314 42.8574 180.267 42.8402 180.229 42.8091C180.186 42.7724 180.158 42.7201 180.152 42.6633C180.147 42.6065 180.163 42.5497 180.199 42.5051C180.413 42.2386 180.686 42.0249 180.996 41.8804C181.306 41.736 181.645 41.6648 181.987 41.6722C182.015 41.6744 182.042 41.6823 182.067 41.6951C182.092 41.708 182.114 41.7257 182.132 41.7472C182.15 41.7686 182.164 41.7935 182.172 41.8203C182.181 41.847 182.184 41.8752 182.181 41.9032C182.18 41.9315 182.172 41.9592 182.16 41.9845C182.147 42.0099 182.129 42.0324 182.108 42.0506C182.086 42.0689 182.061 42.0825 182.034 42.0906C182.007 42.0987 181.978 42.1011 181.95 42.0978C181.677 42.0949 181.406 42.1548 181.16 42.2728C180.913 42.3909 180.697 42.5639 180.527 42.7787C180.508 42.8036 180.483 42.8236 180.454 42.8373C180.426 42.851 180.395 42.858 180.363 42.8578Z" fill="#263238"/>
<path d="M201.035 64.843C201.509 65.5787 201.905 66.2293 202.306 66.9345C202.707 67.6398 203.09 68.3208 203.467 69.0261C204.209 70.4305 204.908 71.8654 205.547 73.3307C206.886 76.3304 207.891 79.4683 208.544 82.6878L208.605 82.9979L208.635 83.1499L208.678 83.4053C208.729 83.7453 208.756 84.0888 208.757 84.4328C208.751 85.0088 208.69 85.5829 208.574 86.1473C208.368 87.0783 208.071 87.9866 207.687 88.859C207.004 90.3877 206.19 91.8544 205.255 93.2427C203.486 95.8826 201.475 98.3516 199.248 100.618L196.603 98.4958C198.074 95.9301 199.539 93.267 200.768 90.6587C201.371 89.4113 201.887 88.1232 202.312 86.804C202.485 86.2537 202.604 85.6875 202.665 85.1137C202.686 84.9259 202.686 84.7362 202.665 84.5483C202.665 84.4936 202.665 84.4449 202.628 84.4389C202.592 84.4328 202.628 84.4389 202.628 84.4085L202.592 84.2869L202.519 84.0376C202.134 82.6965 201.678 81.3772 201.151 80.0856C200.616 78.7662 200.02 77.4529 199.394 76.1457C198.767 74.8385 198.092 73.5496 197.399 72.2606C197.059 71.6161 196.7 70.9777 196.341 70.3454L195.271 68.5214L201.035 64.843Z" fill="#E4897B"/>
<path d="M187.057 215.84C186.754 215.87 186.45 215.786 186.206 215.603C186.137 215.526 186.089 215.434 186.066 215.334C186.042 215.234 186.045 215.13 186.072 215.031C186.086 214.965 186.116 214.903 186.159 214.851C186.203 214.799 186.259 214.758 186.322 214.733C186.875 214.514 188.146 215.39 188.291 215.487C188.31 215.498 188.323 215.515 188.331 215.535C188.339 215.554 188.34 215.576 188.334 215.597C188.331 215.617 188.322 215.636 188.308 215.651C188.294 215.667 188.275 215.677 188.255 215.682C187.862 215.776 187.461 215.829 187.057 215.84ZM186.528 214.91C186.486 214.903 186.443 214.903 186.401 214.91C186.37 214.921 186.342 214.94 186.322 214.966C186.302 214.992 186.289 215.023 186.285 215.055C186.263 215.119 186.258 215.188 186.271 215.254C186.284 215.32 186.314 215.382 186.358 215.432C186.565 215.639 187.155 215.663 187.963 215.505C187.533 215.207 187.044 215.006 186.528 214.916V214.91Z" fill="white"/>
<path d="M188.231 215.688H188.176C187.726 215.42 187.057 214.472 187.161 213.985C187.178 213.896 187.226 213.816 187.296 213.757C187.365 213.699 187.453 213.666 187.544 213.663C187.624 213.653 187.705 213.661 187.782 213.686C187.859 213.711 187.929 213.753 187.987 213.809C188.443 214.253 188.34 215.548 188.34 215.603C188.338 215.621 188.331 215.638 188.321 215.653C188.31 215.668 188.296 215.68 188.279 215.688H188.231ZM187.623 213.864H187.574C187.422 213.864 187.386 213.955 187.373 214.016C187.307 214.338 187.75 215.049 188.139 215.378C188.196 214.885 188.093 214.386 187.848 213.955C187.817 213.925 187.781 213.902 187.741 213.886C187.702 213.871 187.659 213.863 187.617 213.864H187.623Z" fill="white"/>
<path d="M198.159 213.286C198.047 213.289 197.935 213.269 197.831 213.225C197.751 213.193 197.68 213.142 197.624 213.076C197.567 213.011 197.528 212.933 197.509 212.848C197.493 212.797 197.491 212.743 197.503 212.691C197.515 212.638 197.54 212.59 197.576 212.55C197.983 212.058 200.117 212.204 200.36 212.222C200.383 212.223 200.405 212.231 200.422 212.245C200.44 212.26 200.452 212.279 200.458 212.301C200.462 212.323 200.46 212.346 200.451 212.367C200.443 212.387 200.428 212.405 200.409 212.417C199.73 212.864 198.963 213.161 198.159 213.286ZM199.448 212.398C198.7 212.398 197.916 212.471 197.74 212.684C197.73 212.701 197.724 212.72 197.724 212.739C197.724 212.758 197.73 212.777 197.74 212.794C197.75 212.846 197.773 212.895 197.807 212.937C197.841 212.978 197.885 213.011 197.934 213.031C198.275 213.171 199.041 212.94 200.008 212.423L199.448 212.398Z" fill="white"/>
<path d="M200.354 212.435C199.746 212.435 198.378 211.967 198.275 211.481C198.275 211.359 198.275 211.189 198.567 211.049C199.612 210.557 200.421 212.21 200.458 212.265C200.465 212.282 200.469 212.301 200.469 212.32C200.469 212.339 200.465 212.357 200.458 212.374C200.448 212.393 200.433 212.409 200.414 212.419C200.396 212.43 200.375 212.436 200.354 212.435ZM198.95 211.177C198.847 211.175 198.745 211.198 198.652 211.244C198.524 211.304 198.463 211.371 198.475 211.432C198.536 211.718 199.521 212.119 200.166 212.204C199.971 211.876 199.503 211.177 198.95 211.177Z" fill="white"/>
<path d="M197.807 97.5106L193.344 96.7263L195.648 101.925C195.648 101.925 199.74 101.925 199.558 99.7846L197.807 97.5106Z" fill="#E4897B"/>
<path d="M189.97 99.3407L192.079 103.536L195.624 101.925L193.32 96.7263L189.97 99.3407Z" fill="#E4897B"/>
<path d="M202.725 202.865L195.995 209.2L193.824 206.872L201.528 199.855L202.725 202.865Z" fill="#2F80ED"/>
<path opacity="0.6" d="M202.725 202.865L195.995 209.2L193.824 206.872L201.528 199.855L202.725 202.865Z" fill="white"/>
<path d="M195.259 209.231H186.34L185.847 206.094L195.691 206.586L195.259 209.231Z" fill="#2F80ED"/>
<path opacity="0.6" d="M195.259 209.231H186.34L185.847 206.094L195.691 206.586L195.259 209.231Z" fill="white"/>
<path d="M199.868 61.7362C204.124 62.3442 208.483 77.1308 208.483 77.1308L199.363 82.1893C199.363 82.1893 195.66 75.1609 193.891 69.9442C192.037 64.4783 195.314 61.0674 199.868 61.7362Z" fill="#2F80ED"/>
<path opacity="0.7" d="M199.868 61.7362C204.124 62.3442 208.483 77.1308 208.483 77.1308L199.363 82.1893C199.363 82.1893 195.66 75.1609 193.891 69.9442C192.037 64.4783 195.314 61.0674 199.868 61.7362Z" fill="white"/>
<path opacity="0.2" d="M184.564 63.4446L182.74 65.3841L183.634 67.2567L185.087 67.3236L186.328 65.5361L184.564 63.4446Z" fill="black"/>
<path d="M183.792 66.9224C183.792 66.9224 180.333 81.2529 180.199 84.2321C180.011 88.33 181.725 95.3281 181.725 95.3281C181.725 95.3281 184.157 89.5096 184.656 84.1044C185.154 78.6993 184.783 69.9563 185.008 66.9224H183.792Z" fill="#2F80ED"/>
<path opacity="0.2" d="M183.792 66.9224C183.792 66.9224 180.333 81.2529 180.199 84.2321C180.011 88.33 181.725 95.3281 181.725 95.3281C181.725 95.3281 184.157 89.5096 184.656 84.1044C185.154 78.6993 184.783 69.9563 185.008 66.9224H183.792Z" fill="black"/>
<path d="M184.564 63.4446C185.257 64.5662 185.659 65.8432 185.732 67.1595C185.732 67.1595 193.32 64.4843 192.961 60.5627C192.961 60.5627 191.885 59.9243 191.204 59.4075C191.204 59.4075 190.948 61.876 184.564 63.4446Z" fill="#2F80ED"/>
<path opacity="0.6" d="M184.564 63.4446C185.257 64.5662 185.659 65.8432 185.732 67.1595C185.732 67.1595 193.32 64.4843 192.961 60.5627C192.961 60.5627 191.885 59.9243 191.204 59.4075C191.204 59.4075 190.948 61.876 184.564 63.4446Z" fill="white"/>
<path d="M184.564 63.4444C183.867 64.5062 183.365 65.6839 183.081 66.9222C183.081 66.9222 179.646 64.5996 180.679 60.7267C181.309 60.473 181.957 60.2697 182.619 60.1187C182.619 60.1187 182.169 62.6236 184.564 63.4444Z" fill="#2F80ED"/>
<path opacity="0.6" d="M184.564 63.4444C183.867 64.5062 183.365 65.6839 183.081 66.9222C183.081 66.9222 179.646 64.5996 180.679 60.7267C181.309 60.473 181.957 60.2697 182.619 60.1187C182.619 60.1187 182.169 62.6236 184.564 63.4444Z" fill="white"/>
</svg>
