<svg width="298" height="222" viewBox="0 0 298 222" fill="none" xmlns="http://www.w3.org/2000/svg">
<path d="M103.772 65.0401C121.935 64.6829 139.438 57.0806 154.137 46.6147C219.855 -8.07835 314.489 71.297 236.703 139.254C198.513 174.587 162.388 152.155 119.977 150.19C34.1897 149.791 36.6306 90.806 48.3527 74.7083C60.2712 58.938 86.2692 65.8021 103.772 65.0401Z" fill="#2F80ED"/>
<path opacity="0.9" d="M103.772 65.0401C121.935 64.6829 139.438 57.0806 154.137 46.6147C219.855 -8.07835 314.489 71.297 236.703 139.254C198.513 174.587 162.388 152.155 119.977 150.19C34.1897 149.791 36.6306 90.806 48.3527 74.7083C60.2712 58.938 86.2692 65.8021 103.772 65.0401Z" fill="white"/>
<path d="M148.833 221.796C212.582 221.796 264.261 218.779 264.261 215.057C264.261 211.335 212.582 208.318 148.833 208.318C85.0831 208.318 33.4039 211.335 33.4039 215.057C33.4039 218.779 85.0831 221.796 148.833 221.796Z" fill="#F5F5F5"/>
<path d="M40.3514 181.326H186.142L196.62 90.6274H50.8352L40.3514 181.326Z" fill="#2F80ED"/>
<path opacity="0.4" d="M40.3514 181.326H186.142L196.62 90.6274H50.8352L40.3514 181.326Z" fill="white"/>
<path d="M214.777 184.725H68.9868L50.8351 90.6274H196.62L214.777 184.725Z" fill="#2F80ED"/>
<path opacity="0.6" d="M214.777 184.725H68.9868L50.8351 90.6274H196.62L214.777 184.725Z" fill="white"/>
<path d="M209.193 179.677H72.6183L57.9553 103.647H194.53L209.193 179.677Z" fill="white"/>
<g opacity="0.5">
<path opacity="0.5" d="M83.2509 122.085H68.969L66.2126 107.797H80.4946L83.2509 122.085Z" fill="#2F80ED"/>
<path opacity="0.5" d="M190.631 122.085H176.343L173.592 107.797H187.874L190.631 122.085Z" fill="#2F80ED"/>
<path opacity="0.5" d="M172.729 122.085H158.447L155.691 107.797H169.979L172.729 122.085Z" fill="#2F80ED"/>
<path opacity="0.5" d="M154.833 122.085H140.551L137.795 107.797H152.083L154.833 122.085Z" fill="#2F80ED"/>
<path opacity="0.5" d="M136.938 122.085H122.656L119.899 107.797H134.181L136.938 122.085Z" fill="#2F80ED"/>
<path opacity="0.5" d="M119.042 122.085H104.76L102.004 107.797H116.286L119.042 122.085Z" fill="#2F80ED"/>
<path opacity="0.5" d="M101.147 122.085H86.8646L84.1082 107.797H98.3902L101.147 122.085Z" fill="#2F80ED"/>
<path opacity="0.5" d="M86.686 139.897H72.404L69.6476 125.615H83.9296L86.686 139.897Z" fill="#2F80ED"/>
<path opacity="0.5" d="M194.066 139.897H179.784L177.027 125.615H191.309L194.066 139.897Z" fill="#2F80ED"/>
<path opacity="0.5" d="M176.17 139.897H161.888L159.132 125.615H173.414L176.17 139.897Z" fill="#2F80ED"/>
<path opacity="0.5" d="M158.274 139.897H143.987L141.236 125.615H155.518L158.274 139.897Z" fill="#2F80ED"/>
<path opacity="0.5" d="M140.373 139.897H126.091L123.335 125.615H137.622L140.373 139.897Z" fill="#2F80ED"/>
<path opacity="0.5" d="M122.477 139.897H108.195L105.439 125.615H119.721L122.477 139.897Z" fill="#2F80ED"/>
<path opacity="0.5" d="M104.582 139.897H90.2996L87.5433 125.615H101.825L104.582 139.897Z" fill="#2F80ED"/>
<path opacity="0.5" d="M90.1211 157.709H75.8391L73.0827 143.427H87.3647L90.1211 157.709Z" fill="#2F80ED"/>
<path opacity="0.5" d="M197.501 157.709H183.219L180.462 143.427H194.744L197.501 157.709Z" fill="#2F80ED"/>
<path opacity="0.5" d="M179.605 157.709H165.323L162.567 143.427H176.849L179.605 157.709Z" fill="#2F80ED"/>
<path opacity="0.5" d="M161.71 157.709H147.428L144.671 143.427H158.953L161.71 157.709Z" fill="#2F80ED"/>
<path opacity="0.5" d="M143.814 157.709H129.526L126.776 143.427H141.057L143.814 157.709Z" fill="#2F80ED"/>
<path opacity="0.5" d="M125.912 157.709H111.63L108.874 143.427H123.162L125.912 157.709Z" fill="#2F80ED"/>
<path opacity="0.5" d="M108.017 157.709H93.7347L90.9783 143.427H105.26L108.017 157.709Z" fill="#2F80ED"/>
<path opacity="0.5" d="M93.5561 175.527H79.2741L76.5178 161.24H90.8057L93.5561 175.527Z" fill="#2F80ED"/>
<path opacity="0.5" d="M200.936 175.527H186.654L183.898 161.24H198.18L200.936 175.527Z" fill="#2F80ED"/>
<path opacity="0.5" d="M183.04 175.527H168.758L166.002 161.24H180.284L183.04 175.527Z" fill="#2F80ED"/>
<path opacity="0.5" d="M165.145 175.527H150.863L148.106 161.24H162.388L165.145 175.527Z" fill="#2F80ED"/>
<path opacity="0.5" d="M147.249 175.527H132.967L130.211 161.24H144.493L147.249 175.527Z" fill="#2F80ED"/>
<path opacity="0.5" d="M129.353 175.527H115.065L112.315 161.24H126.597L129.353 175.527Z" fill="#2F80ED"/>
<path opacity="0.5" d="M111.458 175.527H97.1698L94.4194 161.24H108.701L111.458 175.527Z" fill="#2F80ED"/>
</g>
<path d="M68.8142 97.0866L68.6296 96.1401C70.3144 96.1401 71.255 93.6159 70.6775 90.6273C70.1001 87.6387 68.1891 85.1086 66.5102 85.1086C64.8314 85.1086 63.8848 87.6387 64.4563 90.6273H63.5157C62.8132 87.0017 64.0515 84.168 66.3257 84.168C68.5998 84.168 70.9335 87.0017 71.6301 90.6273C72.3266 94.2529 71.0883 97.0866 68.8142 97.0866Z" fill="#263238"/>
<path d="M82.9116 97.0866L82.7271 96.1401C84.4119 96.1401 85.3525 93.6159 84.775 90.6273C84.1975 87.6387 82.2865 85.1086 80.6077 85.1086C78.9289 85.1086 77.9823 87.6387 78.5538 90.6273H77.6132C76.9107 87.0017 78.149 84.168 80.4232 84.168C82.6973 84.168 85.031 87.0017 85.7275 90.6273C86.4241 94.2529 85.1858 97.0866 82.9116 97.0866Z" fill="#263238"/>
<path d="M97.0388 97.0866L96.8542 96.1401C98.539 96.1401 99.4796 93.6159 98.9022 90.6273C98.3247 87.6387 96.4137 85.1086 94.7349 85.1086C93.056 85.1086 92.1035 87.6387 92.681 90.6273H91.6808C90.9783 87.0017 92.2166 84.168 94.4908 84.168C96.7649 84.168 99.0986 87.0017 99.7952 90.6273C100.492 94.2529 99.2832 97.0866 97.0388 97.0866Z" fill="#263238"/>
<path d="M111.101 97.0866L110.922 96.1401C112.607 96.1401 113.547 93.6159 112.97 90.6273C112.392 87.6387 110.481 85.1086 108.803 85.1086C107.124 85.1086 106.177 87.6387 106.755 90.6273H105.808C105.112 87.0017 106.35 84.168 108.624 84.168C110.898 84.168 113.226 87.0017 113.928 90.6273C114.631 94.2529 113.381 97.0866 111.101 97.0866Z" fill="#263238"/>
<path d="M125.198 97.0866L125.019 96.1401C126.704 96.1401 127.645 93.6159 127.067 90.6273C126.49 87.6387 124.579 85.1086 122.9 85.1086C121.221 85.1086 120.275 87.6387 120.852 90.6273H119.905C119.209 87.0017 120.447 84.168 122.721 84.168C124.995 84.168 127.323 87.0017 128.026 90.6273C128.728 94.2529 127.478 97.0866 125.198 97.0866Z" fill="#263238"/>
<path d="M139.307 97.0866L139.129 96.1401C140.813 96.1401 141.754 93.6159 141.177 90.6273C140.599 87.6387 138.688 85.1086 137.009 85.1086C135.33 85.1086 134.384 87.6387 134.961 90.6273H134.015C133.318 87.0017 134.551 84.168 136.831 84.168C139.111 84.168 141.433 87.0017 142.135 90.6273C142.838 94.2529 141.575 97.0866 139.307 97.0866Z" fill="#263238"/>
<path d="M153.393 97.0866L153.214 96.1401C154.899 96.1401 155.84 93.6159 155.262 90.6273C154.685 87.6387 152.774 85.1086 151.095 85.1086C149.416 85.1086 148.469 87.6387 149.047 90.6273H148.1C147.404 87.0017 148.636 84.168 150.916 84.168C153.196 84.168 155.518 87.0017 156.221 90.6273C156.923 94.2529 155.673 97.0866 153.393 97.0866Z" fill="#263238"/>
<path d="M167.49 97.0866L167.312 96.1401C168.996 96.1401 169.937 93.6159 169.36 90.6273C168.782 87.6387 166.871 85.1086 165.192 85.1086C163.513 85.1086 162.567 87.6387 163.144 90.6273H162.198C161.501 87.0017 162.734 84.168 165.014 84.168C167.294 84.168 169.616 87.0017 170.318 90.6273C171.021 94.2529 169.764 97.0866 167.49 97.0866Z" fill="#263238"/>
<path d="M181.576 97.0866L181.397 96.1401C183.082 96.1401 184.022 93.6159 183.445 90.6273C182.868 87.6387 180.957 85.1086 179.278 85.1086C177.599 85.1086 176.652 87.6387 177.23 90.6273H176.283C175.587 87.0017 176.819 84.168 179.099 84.168C181.379 84.168 183.701 87.0017 184.398 90.6273C185.094 94.2529 183.862 97.0866 181.576 97.0866Z" fill="#263238"/>
<path d="M120.667 120.073H70.5882L67.8318 105.791H117.911L120.667 120.073Z" fill="#2F80ED"/>
<path d="M142.01 137.89H127.722L124.972 123.603H139.254L142.01 137.89Z" fill="#2F80ED"/>
<path d="M186.696 156.179L185.922 155.506C184.333 154.115 182.565 152.944 180.665 152.024L181.159 150.565C182.929 151.422 184.595 152.478 186.124 153.715C188.761 149.804 192.214 146.512 196.245 144.064L197.31 145.517C193.207 148.01 189.732 151.414 187.154 155.465L186.696 156.179Z" fill="#2F80ED"/>
<path d="M136.771 125.966H135.479L133.318 129.877L129.657 125.966H128.365L132.842 130.747L130.205 135.521H131.503L133.658 131.616L137.319 135.521H138.617L134.134 130.747L136.771 125.966Z" fill="white"/>
<path d="M163.246 160.18L165.627 172.569H153.244L150.863 160.18H163.251H163.246ZM164.019 159.233H149.732L152.488 173.521H166.776L164.025 159.233H164.019Z" fill="#2F80ED"/>
<path d="M127.538 155.703H95.36L92.6036 141.421H124.781L127.538 155.703Z" fill="#263238"/>
<path d="M105.373 147.118C105.459 147.45 105.466 147.797 105.394 148.132C105.321 148.467 105.171 148.781 104.956 149.047C104.741 149.314 104.466 149.527 104.154 149.668C103.842 149.81 103.501 149.876 103.159 149.863C102.386 149.834 101.644 149.548 101.051 149.052C100.458 148.555 100.048 147.874 99.8844 147.118C99.8 146.787 99.7941 146.44 99.8671 146.105C99.9401 145.771 100.09 145.458 100.305 145.192C100.52 144.925 100.794 144.713 101.105 144.571C101.417 144.429 101.757 144.361 102.099 144.374C102.872 144.404 103.613 144.689 104.205 145.186C104.798 145.683 105.209 146.363 105.373 147.118Z" fill="white"/>
<path d="M106.034 149.714C105.731 150.135 105.33 150.475 104.865 150.704C104.4 150.934 103.885 151.045 103.367 151.03C102.185 151.001 101.057 150.534 100.2 149.72C99.6699 150.006 99.244 150.453 98.9831 150.996C98.7222 151.539 98.6397 152.151 98.7473 152.744H108.654C108.474 152.074 108.146 151.453 107.692 150.928C107.238 150.403 106.671 149.988 106.034 149.714Z" fill="white"/>
<path d="M122.174 147.672H111.22L110.916 146.094H121.87L122.174 147.672Z" fill="white"/>
<path d="M119.155 151.024H111.869L111.565 149.446H118.852L119.155 151.024Z" fill="white"/>
<path d="M176.67 107.124C179.492 107.124 183.487 107.535 186.505 109.505C187.053 109.829 187.531 110.259 187.911 110.77C188.29 111.281 188.563 111.863 188.714 112.482C189.244 114.821 187.999 117.375 186.624 118.763C184.451 120.953 181.07 122.335 177.099 122.608C176.646 122.644 176.182 122.662 175.724 122.662C172.928 122.637 170.161 122.088 167.568 121.043C165.014 120.025 162.305 118.661 161.543 116.006C161.344 115.394 161.283 114.746 161.364 114.108C161.446 113.47 161.667 112.858 162.013 112.315C162.463 111.627 163.058 111.045 163.757 110.612C167.056 108.572 170.815 107.395 174.688 107.189C175.349 107.148 176.015 107.124 176.67 107.124ZM176.492 106.207C175.783 106.207 175.099 106.207 174.456 106.278C170.448 106.489 166.558 107.705 163.144 109.815C162.359 110.303 161.691 110.958 161.186 111.732C160.782 112.375 160.524 113.1 160.431 113.853C160.337 114.607 160.41 115.373 160.644 116.095C161.537 119.179 164.591 120.781 167.365 121.882C170.077 122.978 172.971 123.552 175.896 123.573C176.378 123.573 176.855 123.573 177.331 123.525C181.105 123.251 184.868 121.965 187.344 119.465C189.821 116.965 191.399 111.66 186.904 108.749C183.874 106.79 179.909 106.207 176.486 106.207H176.492Z" fill="#263238"/>
<path d="M230.405 210.842L234.667 209.711L232.59 199.686L228.327 200.823L230.405 210.842Z" fill="#B55B52"/>
<path d="M234.804 208.925L230.095 210.473C230.015 210.496 229.946 210.549 229.905 210.621C229.864 210.694 229.853 210.78 229.875 210.86L230.875 214.664C230.938 214.861 231.076 215.024 231.259 215.119C231.442 215.214 231.655 215.232 231.851 215.171C233.483 214.575 234.233 214.248 236.304 213.569C237.578 213.146 240.662 212.2 242.419 211.622C244.175 211.045 243.562 209.324 242.764 209.408C239.192 209.801 237.102 209.485 235.62 208.949C235.359 208.848 235.071 208.84 234.804 208.925Z" fill="#263238"/>
<path opacity="0.2" d="M228.327 200.823L232.59 199.686L233.661 204.853L229.393 205.99L228.327 200.823Z" fill="black"/>
<path d="M217.397 98.6582C217.397 98.6582 223.35 134.586 225.136 147.118C227.071 160.84 234.316 202.121 234.316 202.121L227.172 204.823C227.172 204.823 215.772 164.24 212.622 150.898C209.199 136.414 201.662 98.6582 201.662 98.6582H217.397Z" fill="#263238"/>
<path opacity="0.3" d="M207.83 113.393C210.878 121.007 211.223 133.95 209.985 139.254C208.116 130.544 205.972 120.126 204.323 112.024C204.913 109.946 205.984 108.761 207.83 113.393Z" fill="black"/>
<path d="M226.851 205.835L235.144 203.347L234.905 199.954L225.035 202.841L226.851 205.835Z" fill="#263238"/>
<path d="M236.531 209.17C236.143 209.283 235.743 209.355 235.34 209.384C235.321 209.385 235.301 209.382 235.283 209.373C235.265 209.365 235.25 209.352 235.239 209.336C235.229 209.319 235.224 209.3 235.224 209.28C235.224 209.26 235.229 209.24 235.239 209.223C235.34 209.086 236.263 207.884 236.84 207.913C236.906 207.918 236.969 207.939 237.024 207.975C237.079 208.01 237.124 208.058 237.156 208.116C237.22 208.2 237.259 208.3 237.269 208.406C237.278 208.511 237.258 208.617 237.209 208.711C237.045 208.939 236.804 209.102 236.531 209.17ZM235.584 209.17C236.388 209.068 236.93 208.866 237.061 208.61C237.087 208.549 237.097 208.483 237.089 208.417C237.082 208.351 237.058 208.288 237.019 208.235C237.004 208.206 236.982 208.182 236.955 208.164C236.928 208.147 236.896 208.136 236.864 208.134C236.555 208.104 235.971 208.687 235.584 209.158V209.17Z" fill="#2F80ED"/>
<path d="M235.388 209.378C235.372 209.384 235.355 209.384 235.34 209.378C235.323 209.375 235.307 209.368 235.294 209.358C235.28 209.348 235.269 209.334 235.263 209.318C235.263 209.265 234.751 208.092 235.036 207.532C235.074 207.462 235.127 207.402 235.191 207.354C235.254 207.307 235.328 207.274 235.406 207.258C235.491 207.234 235.582 207.238 235.664 207.272C235.746 207.305 235.814 207.366 235.858 207.443C236.108 207.866 235.769 208.949 235.435 209.33C235.417 209.366 235.406 209.378 235.388 209.378ZM235.388 207.491C235.311 207.518 235.247 207.573 235.209 207.645C235.109 208.125 235.165 208.623 235.37 209.068C235.66 208.623 235.767 208.084 235.667 207.562C235.638 207.508 235.584 207.449 235.435 207.479L235.388 207.491Z" fill="#2F80ED"/>
<path d="M216.492 61.6704C216.665 61.9502 216.903 62.3431 217.123 62.6824L217.802 63.754C218.272 64.4625 218.736 65.1709 219.23 65.8674C220.201 67.2546 221.225 68.6 222.284 69.88C223.318 71.1314 224.436 72.3109 225.63 73.4103C226.71 74.419 227.909 75.2908 229.202 76.0059L228.262 75.738C229.183 75.9274 230.128 75.9815 231.066 75.8988C231.578 75.8511 232.101 75.7856 232.637 75.6904C233.173 75.5951 233.715 75.4642 234.263 75.3153C235.39 75.0082 236.497 74.6325 237.579 74.1902C238.132 73.9639 238.686 73.7317 239.239 73.4817C239.793 73.2317 240.359 72.9519 240.841 72.7256L241.002 72.6482C241.464 72.4272 241.994 72.3984 242.478 72.568C242.961 72.7376 243.357 73.0919 243.579 73.5532C243.746 73.9087 243.802 74.3062 243.739 74.6938C243.676 75.0815 243.498 75.4412 243.228 75.7261C242.686 76.2857 242.21 76.7322 241.674 77.2025C241.139 77.6728 240.603 78.0896 240.037 78.5063C238.886 79.3472 237.667 80.0919 236.394 80.7328C235.05 81.4081 233.634 81.9293 232.173 82.2867C231.388 82.4669 230.593 82.5962 229.792 82.6736C228.95 82.7449 228.103 82.7449 227.261 82.6736C227.022 82.65 226.788 82.5919 226.565 82.501L226.327 82.3998C224.359 81.5481 222.522 80.4238 220.868 79.06C219.299 77.7951 217.84 76.4011 216.504 74.8926C215.199 73.448 213.979 71.9293 212.848 70.3443C212.289 69.5505 211.749 68.7568 211.229 67.963C210.973 67.5522 210.717 67.1474 210.467 66.7247C210.217 66.302 209.991 65.9091 209.717 65.3971C209.21 64.5058 209.078 63.4497 209.35 62.4611C209.622 61.4724 210.275 60.6323 211.167 60.1255C212.058 59.6186 213.114 59.4866 214.103 59.7585C215.091 60.0304 215.931 60.6838 216.438 61.5751L216.492 61.6704Z" fill="#263238"/>
<path opacity="0.3" d="M220.159 72.5591C217.837 67.7965 213.878 68.0703 212.283 69.5408L212.735 70.2016C213.816 71.7334 214.981 73.2041 216.224 74.607C217.497 76.0492 218.874 77.3963 220.344 78.6374C220.808 79.0184 221.29 79.3935 221.778 79.7507C221.712 77.2709 221.162 74.828 220.159 72.5591Z" fill="black"/>
<path d="M242.163 72.0353L245.139 69.5527L246.925 73.4045C246.925 73.4045 242.49 76.5776 241.472 75.4584L241.353 74.0237C241.319 73.6517 241.375 73.277 241.516 72.9311C241.657 72.5852 241.879 72.278 242.163 72.0353Z" fill="#B55B52"/>
<path d="M249.11 70.0228L250.045 72.9995L246.901 73.3865L245.127 69.5347L249.11 70.0228Z" fill="#B55B52"/>
<path d="M193.113 210.699H197.525L198.096 200.478H193.685L193.113 210.699Z" fill="#B55B52"/>
<path d="M197.757 210.187H192.798C192.756 210.186 192.715 210.192 192.676 210.207C192.637 210.221 192.602 210.243 192.571 210.271C192.541 210.3 192.516 210.334 192.499 210.371C192.482 210.409 192.472 210.45 192.47 210.491L192.226 214.414C192.226 214.621 192.307 214.819 192.452 214.966C192.597 215.113 192.794 215.197 193 215.2C194.727 215.17 195.554 215.069 197.733 215.069C199.073 215.069 202.77 215.206 204.621 215.206C206.472 215.206 206.407 213.373 205.639 213.206C202.115 212.468 199.763 211.42 198.495 210.461C198.287 210.289 198.027 210.192 197.757 210.187Z" fill="#263238"/>
<path opacity="0.2" d="M193.685 200.484H198.096L197.799 205.752H193.387L193.685 200.484Z" fill="black"/>
<path d="M208.776 98.6582C208.776 98.6582 208.395 137.003 207.681 149.642C206.895 163.478 199.692 204.478 199.692 204.478H191.607C191.607 204.478 195.131 164.591 194.643 150.898C194.113 136.015 193.792 98.6582 193.792 98.6582H208.776Z" fill="#263238"/>
<path d="M190.958 204.478H200.817L201.299 201.412L190.541 201.888L190.958 204.478Z" fill="#263238"/>
<path d="M199.317 210.956C198.915 210.946 198.516 210.894 198.126 210.801C198.106 210.797 198.088 210.787 198.073 210.773C198.059 210.759 198.049 210.74 198.046 210.721C198.042 210.701 198.044 210.68 198.052 210.662C198.06 210.643 198.073 210.627 198.09 210.616C198.233 210.515 199.477 209.664 200.019 209.878C200.08 209.901 200.134 209.94 200.175 209.99C200.217 210.04 200.245 210.1 200.257 210.164C200.285 210.26 200.288 210.362 200.267 210.46C200.245 210.557 200.199 210.648 200.132 210.723C199.898 210.898 199.608 210.981 199.317 210.956ZM198.424 210.652C199.215 210.807 199.799 210.783 200.001 210.58C200.046 210.532 200.077 210.471 200.091 210.407C200.104 210.342 200.1 210.274 200.079 210.211C200.074 210.179 200.06 210.148 200.039 210.123C200.018 210.098 199.991 210.079 199.96 210.068C199.674 209.955 198.936 210.324 198.424 210.652Z" fill="#2F80ED"/>
<path d="M198.168 210.801C198.152 210.807 198.135 210.807 198.12 210.801C198.104 210.793 198.091 210.781 198.082 210.767C198.072 210.752 198.067 210.735 198.066 210.717C198.066 210.664 197.959 209.396 198.406 208.967C198.463 208.912 198.532 208.871 198.607 208.846C198.682 208.822 198.762 208.814 198.84 208.824C198.928 208.827 199.013 208.859 199.081 208.915C199.148 208.971 199.196 209.048 199.215 209.134C199.317 209.616 198.656 210.539 198.221 210.801C198.204 210.806 198.185 210.806 198.168 210.801ZM198.763 209.015C198.681 209.015 198.602 209.047 198.543 209.104C198.298 209.527 198.195 210.017 198.251 210.503C198.638 210.182 199.073 209.479 199.007 209.164C199.007 209.104 198.959 209.033 198.811 209.015H198.763Z" fill="#2F80ED"/>
<path d="M215.539 62.8017C215.317 62.0572 214.896 61.3871 214.323 60.8629C213.749 60.3387 213.044 59.98 212.283 59.825C211.194 59.5677 210.091 59.3788 208.979 59.2594C205.638 59.0688 202.289 59.0688 198.948 59.2594C197.197 59.3428 195.411 59.5571 193.988 59.7655H193.935C193.561 59.8181 193.201 59.9455 192.877 60.14C192.553 60.3345 192.272 60.5922 192.05 60.8977C191.828 61.2032 191.669 61.5503 191.584 61.9183C191.499 62.2863 191.488 62.6677 191.554 63.0398C192.675 68.9608 193.408 74.9487 193.75 80.9652C194.096 89.6987 193.625 96.5569 193.792 98.6644H217.397C218.832 77.3456 216.98 67.6596 215.539 62.8017Z" fill="#E6E6E6"/>
<path d="M199.614 58.8665C201.472 66.4033 203.186 85.5015 203.157 100.432H193.179C193 98.2059 193.5 90.9786 193.137 81.7688C192.78 75.4374 192.014 69.1356 190.845 62.9028C190.777 62.5122 190.788 62.1119 190.877 61.7256C190.966 61.3392 191.131 60.9745 191.363 60.6528C191.595 60.3312 191.888 60.0591 192.227 59.8525C192.565 59.6459 192.942 59.509 193.334 59.4499H193.387C194.887 59.2296 196.769 59.0034 198.614 58.9141L199.614 58.8665Z" fill="#263238"/>
<path d="M216.754 62.9086C216.5 62.0858 216.038 61.3426 215.412 60.7511C214.786 60.1597 214.018 59.7401 213.182 59.5331C211.604 59.2851 210.014 59.1221 208.419 59.0449C210.306 65.5936 214.009 85.5431 212.908 100.432H219.207C220.701 78.0895 218.159 66.9926 216.754 62.9086Z" fill="#263238"/>
<path d="M253.545 83.5488L206.58 103.647L200.936 90.5261L247.908 70.4277L253.545 83.5488Z" fill="#2F80ED"/>
<path d="M213.908 91.1749C214.122 91.6737 214.183 92.2246 214.083 92.758C213.984 93.2915 213.729 93.7834 213.35 94.1718C212.971 94.5602 212.485 94.8275 211.954 94.94C211.424 95.0526 210.871 95.0052 210.367 94.804C209.864 94.6027 209.431 94.2567 209.123 93.8095C208.816 93.3623 208.648 92.834 208.641 92.2915C208.634 91.7489 208.788 91.2164 209.083 90.7613C209.378 90.3061 209.802 89.9487 210.3 89.7342C210.632 89.5916 210.988 89.5157 211.349 89.511C211.71 89.5062 212.068 89.5726 212.403 89.7065C212.738 89.8403 213.044 90.0389 213.302 90.2908C213.56 90.5428 213.766 90.8432 213.908 91.1749Z" fill="white"/>
<path d="M215.093 93.4968C214.918 94.0189 214.635 94.4981 214.262 94.903C213.889 95.3079 213.435 95.6294 212.929 95.8464C212.423 96.0634 211.877 96.171 211.326 96.1621C210.776 96.1532 210.234 96.028 209.735 95.7948C209.312 96.2749 209.026 96.8597 208.907 97.488C208.788 98.1163 208.839 98.7652 209.056 99.3668L218.165 95.4733C217.878 94.8979 217.441 94.4106 216.901 94.0627C216.36 93.7148 215.735 93.5193 215.093 93.4968Z" fill="white"/>
<path d="M246.866 77.6789L219.415 89.4248L218.796 87.9722L246.247 76.2263L246.866 77.6789Z" fill="white"/>
<path d="M244.824 82.1975L220.743 92.5026L220.117 91.05L244.199 80.7449L244.824 82.1975Z" fill="white"/>
<path opacity="0.3" d="M196.263 70.5468C196.096 65.5401 192.399 63.6291 191.357 64.9745C191.311 65.0289 191.269 65.0866 191.232 65.1471C191.881 69.0049 192.673 74.3152 193.018 79.5482C194.774 78.5361 196.417 75.3035 196.263 70.5468Z" fill="black"/>
<path d="M208.503 59.2473C205.585 58.5567 205.073 56.7528 205.27 54.7704C205.316 54.2739 205.394 53.7807 205.502 53.294L201.847 50.2578L199.162 48.0312C199.906 51.2639 200.745 57.1517 198.567 59.3068C198.567 59.3068 200.353 62.2835 205.371 62.0215C209.556 61.7893 208.503 59.2473 208.503 59.2473Z" fill="#B55B52"/>
<path d="M203.365 64.6827C203.71 63.6906 204.271 62.7877 205.008 62.0394C202.767 61.3042 200.729 60.0567 199.055 58.396L197.525 58.9913C197.525 58.9913 198.066 62.8788 203.365 64.6827Z" fill="white"/>
<path d="M207.449 64.016C206.786 63.1898 205.954 62.5158 205.008 62.0395C206.478 61.6227 207.05 58.6401 207.05 58.6401L208.485 58.9378C208.485 58.9378 211.134 62.8253 207.449 64.016Z" fill="white"/>
<path opacity="0.2" d="M205.502 53.2942C205.394 53.781 205.316 54.2741 205.27 54.7707C203.907 54.4968 202.085 53.0442 201.894 51.6511C201.827 51.1899 201.811 50.7228 201.847 50.2581L205.502 53.2942Z" fill="black"/>
<path d="M207.205 37.4166C209.044 37.0832 211.188 39.0121 210.181 42.9294C209.175 46.8466 204.395 37.9226 207.205 37.4166Z" fill="#263238"/>
<path d="M198.055 43.3819C198.989 47.6742 199.317 50.2282 201.853 52.1868C202.67 52.8315 203.648 53.2405 204.68 53.3697C205.713 53.4989 206.762 53.3432 207.712 52.9197C208.663 52.4961 209.48 51.8207 210.075 50.9665C210.669 50.1123 211.019 49.1117 211.086 48.0731C211.42 44.0784 209.842 37.7322 205.324 36.5177C204.353 36.2284 203.323 36.1994 202.338 36.4339C201.352 36.6683 200.446 37.1578 199.709 37.8532C198.973 38.5487 198.432 39.4256 198.142 40.396C197.851 41.3664 197.821 42.3962 198.055 43.3819Z" fill="#B55B52"/>
<path d="M199.781 48.0314C200.412 46.5431 200.972 42.3996 200.46 40.6791C202.514 40.6136 206.83 40.2326 208.628 38.2323C211.39 35.1604 207.747 31.5288 203.162 34.4221C200.186 36.2855 193.762 35.9164 194.828 37.9941C191.696 41.4411 195.215 45.3345 199.781 48.0314Z" fill="#263238"/>
<path d="M194.822 38.1491C194.8 38.1489 194.779 38.144 194.759 38.1348C194.74 38.1255 194.723 38.1121 194.709 38.0955C194.328 37.6252 194.209 37.2323 194.34 36.9048C194.655 36.119 196.292 35.9047 198.18 35.6666C199.966 35.4403 201.942 35.1843 202.573 34.3806C202.602 34.3547 202.639 34.3403 202.677 34.3403C202.716 34.3403 202.753 34.3547 202.781 34.3806C202.796 34.394 202.807 34.4101 202.815 34.4281C202.823 34.446 202.827 34.4653 202.827 34.4848C202.827 34.5044 202.823 34.5237 202.815 34.5416C202.807 34.5595 202.796 34.5756 202.781 34.589C202.073 35.488 200.102 35.738 198.197 35.9821C196.548 36.1964 194.846 36.4107 194.625 37.0418C194.536 37.268 194.625 37.5716 194.941 37.9467C194.968 37.9745 194.984 38.0119 194.984 38.0509C194.984 38.0898 194.968 38.1272 194.941 38.155C194.902 38.1667 194.86 38.1646 194.822 38.1491Z" fill="#263238"/>
<path d="M197.394 46.8467C197.906 47.6482 198.68 48.2477 199.585 48.5433C200.733 48.8886 201.126 47.829 200.662 46.7097C200.239 45.6977 199.132 44.2986 198.054 44.4475C196.977 44.5963 196.745 45.8406 197.394 46.8467Z" fill="#B55B52"/>
<path d="M204.198 43.8106C204.252 44.1618 204.484 44.4059 204.716 44.4059C204.948 44.4059 205.085 44.0726 205.032 43.7213C204.978 43.3701 204.746 43.126 204.514 43.126C204.282 43.126 204.145 43.4594 204.198 43.8106Z" fill="#263238"/>
<path d="M208.193 43.3344C208.247 43.6856 208.479 43.9297 208.711 43.9297C208.943 43.9297 209.086 43.5904 209.026 43.2391C208.967 42.8879 208.741 42.6438 208.514 42.6438C208.288 42.6438 208.139 42.9831 208.193 43.3344Z" fill="#263238"/>
<path d="M207.58 43.6616C208.17 44.6897 208.895 45.6346 209.735 46.4716C209.515 46.6724 209.255 46.8224 208.971 46.9109C208.687 46.9994 208.387 47.0242 208.092 46.9836L207.58 43.6616Z" fill="#A02724"/>
<path d="M206.794 48.1089C206.381 48.1144 205.971 48.0361 205.59 47.8785C205.208 47.7209 204.862 47.4873 204.573 47.1921C204.564 47.1819 204.558 47.1701 204.553 47.1572C204.549 47.1444 204.547 47.1308 204.548 47.1173C204.549 47.1037 204.552 47.0905 204.558 47.0783C204.564 47.0661 204.572 47.0552 204.582 47.0462C204.593 47.0372 204.604 47.0303 204.617 47.0259C204.63 47.0215 204.644 47.0196 204.657 47.0205C204.671 47.0213 204.684 47.0248 204.696 47.0307C204.708 47.0367 204.719 47.045 204.728 47.0551C205.049 47.3678 205.436 47.604 205.861 47.7463C206.285 47.8885 206.737 47.9331 207.181 47.8767C207.195 47.8741 207.209 47.8745 207.222 47.8777C207.236 47.8809 207.249 47.8868 207.26 47.8952C207.271 47.9036 207.281 47.9142 207.287 47.9264C207.294 47.9386 207.299 47.9521 207.3 47.966C207.302 47.9793 207.301 47.9928 207.297 48.0057C207.293 48.0186 207.287 48.0307 207.279 48.0412C207.271 48.0517 207.26 48.0605 207.249 48.067C207.237 48.0735 207.224 48.0776 207.211 48.0791C207.073 48.0975 206.933 48.1074 206.794 48.1089Z" fill="#263238"/>
<path d="M202.895 42.6736C202.859 42.6711 202.825 42.661 202.793 42.6438C202.769 42.6302 202.748 42.612 202.732 42.5903C202.715 42.5685 202.702 42.5436 202.695 42.5171C202.688 42.4905 202.686 42.4628 202.69 42.4355C202.693 42.4082 202.702 42.3819 202.716 42.3581C202.87 42.0679 203.092 41.82 203.364 41.6362C203.636 41.4525 203.949 41.3385 204.276 41.3043C204.303 41.3027 204.331 41.3065 204.356 41.3155C204.382 41.3245 204.406 41.3386 204.427 41.3568C204.447 41.3751 204.464 41.3972 204.476 41.4219C204.488 41.4466 204.495 41.4734 204.496 41.5008C204.498 41.5281 204.494 41.5556 204.485 41.5815C204.476 41.6074 204.462 41.6312 204.444 41.6517C204.425 41.6722 204.403 41.6888 204.378 41.7007C204.354 41.7126 204.327 41.7195 204.3 41.721C204.043 41.7515 203.797 41.8445 203.584 41.9919C203.371 42.1392 203.198 42.3365 203.079 42.5664C203.061 42.5993 203.034 42.6266 203.002 42.6454C202.969 42.6643 202.932 42.674 202.895 42.6736Z" fill="#263238"/>
<path d="M209.985 41.7626C209.95 41.7628 209.916 41.7541 209.886 41.7374C209.856 41.7208 209.831 41.6966 209.812 41.6674C209.668 41.4422 209.473 41.2532 209.244 41.1149C209.015 40.9766 208.757 40.8927 208.491 40.8696C208.435 40.8696 208.382 40.8477 208.343 40.8086C208.304 40.7695 208.282 40.7165 208.282 40.6613C208.282 40.606 208.304 40.553 208.343 40.5139C208.382 40.4748 208.435 40.4529 208.491 40.4529C208.826 40.4763 209.151 40.5772 209.44 40.7477C209.729 40.9181 209.975 41.1535 210.158 41.4352C210.187 41.482 210.198 41.5386 210.187 41.5931C210.176 41.6475 210.144 41.6955 210.098 41.7269C210.065 41.7495 210.025 41.7619 209.985 41.7626Z" fill="#263238"/>
<path d="M196.804 65.933C196.834 65.8973 196.804 65.933 196.804 65.933L196.763 65.9985L196.661 66.1652L196.447 66.5402C196.298 66.8081 196.155 67.082 196.013 67.3678C195.739 67.9631 195.471 68.5584 195.233 69.1537C194.757 70.4006 194.379 71.6824 194.102 72.9877C193.549 75.683 193.386 78.4438 193.619 81.1854C193.652 81.7621 193.729 82.3354 193.851 82.8999C193.987 83.4702 194.177 84.0263 194.417 84.5609C194.969 85.782 195.645 86.9431 196.435 88.0257C198.174 90.3768 200.118 92.5683 202.246 94.5744L202.329 94.6577C202.66 94.9795 202.865 95.4093 202.906 95.8692C202.947 96.3291 202.822 96.7885 202.553 97.164C202.284 97.5394 201.89 97.806 201.441 97.9152C200.993 98.0245 200.52 97.9692 200.108 97.7594C198.615 96.9962 197.186 96.1143 195.834 95.1221C194.459 94.1287 193.163 93.03 191.958 91.8358C190.68 90.5647 189.561 89.1434 188.624 87.603C188.111 86.7648 187.682 85.8773 187.345 84.9538C187.016 84.0197 186.775 83.0571 186.624 82.0784C186.316 80.3549 186.156 78.6081 186.148 76.8573C186.121 75.0847 186.254 73.3133 186.547 71.5648C186.842 69.79 187.306 68.0476 187.934 66.3616C188.254 65.5024 188.622 64.6617 189.035 63.8434C189.25 63.4267 189.47 63.0159 189.72 62.6051C189.845 62.3967 189.976 62.1884 190.113 61.9741L190.333 61.6526L190.631 61.2418C191.261 60.4576 192.172 59.9496 193.17 59.8257C194.169 59.7017 195.176 59.9714 195.979 60.5776C196.782 61.1838 197.317 62.0789 197.471 63.0731C197.625 64.0673 197.386 65.0824 196.804 65.9032V65.933Z" fill="#263238"/>
<path d="M203.508 94.6219L205.966 94.491L203.115 99.2536C203.115 99.2536 199.138 98.7476 199.543 96.7175L200.097 96.1222C201.002 95.2074 202.222 94.6711 203.508 94.6219Z" fill="#B55B52"/>
<path d="M208.514 96.1996L206.371 101.26L203.115 99.2715L205.966 94.491L208.514 96.1996Z" fill="#B55B52"/>
</svg>
