<svg width="247" height="249" viewBox="0 0 247 249" fill="none" xmlns="http://www.w3.org/2000/svg">
<path d="M26.3185 152.963L18.4272 153.117L14.4127 153.186C13.0764 153.186 11.7287 153.186 10.3982 153.215H10.1401V152.963V146.235V145.949H10.4326L18.387 145.989C21.0366 145.989 23.6861 146.052 26.3414 146.081H26.4963V146.235C26.4963 147.382 26.4504 148.529 26.4217 149.631L26.3185 152.963ZM26.3185 152.963L26.2382 149.567C26.2382 148.42 26.1694 147.337 26.1636 146.235L26.3185 146.396C23.6632 146.425 21.0136 146.482 18.3641 146.488L10.4097 146.522L10.6964 146.235L10.662 152.963L10.4097 152.705C11.7173 152.705 13.0248 152.705 14.3439 152.739L18.2953 152.802L26.3185 152.963Z" fill="#EBEBEB"/>
<path d="M17.4407 161.439L9.55509 161.6L5.54062 161.663C4.20437 161.691 2.86239 161.663 1.52614 161.692H1.2738V161.433V154.712V154.425H1.56055L9.51495 154.46C12.1702 154.46 14.8198 154.523 17.4693 154.551H17.6299V154.706C17.6299 155.853 17.5783 157 17.5554 158.107L17.4407 161.439ZM17.4407 161.439L17.3604 158.044C17.3604 156.926 17.2973 155.813 17.2858 154.712L17.4407 154.873C14.7911 154.901 12.1416 154.964 9.48627 154.964L1.53188 154.999L1.81863 154.712L1.78995 161.439L1.53188 161.181C2.84518 161.181 4.15276 161.181 5.46606 161.215L9.42319 161.279L17.4407 161.439Z" fill="#EBEBEB"/>
<path d="M145.25 7.0368L137.359 7.19738L133.344 7.2662C132.008 7.2662 130.66 7.2662 129.33 7.2662H129.072V7.00813L129.043 0.286748V0H129.335L137.29 0.0401446C139.939 0.0401446 142.589 0.103229 145.244 0.131904H145.399V0.286748C145.399 1.43374 145.353 2.58074 145.324 3.68185L145.25 7.0368ZM145.25 7.0368L145.17 3.6417C145.141 2.49471 145.101 1.41654 145.095 0.315424L145.25 0.470267C142.595 0.504677 139.945 0.562027 137.296 0.567761L129.341 0.602172L129.628 0.315424L129.593 7.0368L129.341 6.78447C130.649 6.78447 131.956 6.78447 133.275 6.81314L137.227 6.88196L145.25 7.0368Z" fill="#EBEBEB"/>
<path d="M136.372 15.5187L128.487 15.6793L124.472 15.7424C123.136 15.7424 121.794 15.7424 120.458 15.7424H120.206V15.4843V8.75721V8.47046H120.492L128.447 8.5106C131.102 8.5106 133.752 8.57369 136.401 8.60236H136.562V8.75721C136.562 9.9042 136.51 11.0512 136.481 12.1523L136.372 15.5187ZM136.372 15.5187L136.292 12.1466C136.292 10.9996 136.229 9.91567 136.218 8.81456L136.372 8.97514C133.723 8.97514 131.073 9.0669 128.418 9.0669L120.464 9.1013L120.75 8.81456L120.722 15.5417L120.464 15.2836C121.777 15.2836 123.085 15.2836 124.398 15.318L128.355 15.3811L136.372 15.5187Z" fill="#EBEBEB"/>
<path d="M246.684 190.097L238.799 190.257L234.784 190.32C233.448 190.349 232.106 190.32 230.77 190.349H230.518V190.091L230.483 183.37V183.077H230.77L238.724 183.112C241.38 183.112 244.029 183.175 246.679 183.203H246.839V183.358C246.839 184.505 246.788 185.652 246.765 186.753L246.684 190.097ZM246.684 190.097L246.604 186.702C246.604 185.583 246.541 184.476 246.53 183.375L246.684 183.53C244.035 183.559 241.385 183.622 238.73 183.622L230.776 183.656L231.062 183.375L231.034 190.097L230.776 189.839C232.089 189.839 233.397 189.839 234.71 189.873L238.667 189.936L246.684 190.097Z" fill="#EBEBEB"/>
<path d="M237.812 198.573L229.921 198.734L225.907 198.797C224.565 198.825 223.223 198.797 221.892 198.831H221.634V198.573L221.605 191.852V191.565H221.898L229.852 191.599C232.502 191.599 235.151 191.662 237.807 191.691H237.962V191.846C237.962 192.993 237.91 194.14 237.887 195.241L237.812 198.573ZM237.812 198.573L237.732 195.178C237.704 194.06 237.663 192.953 237.652 191.852L237.812 192.007C235.157 192.035 232.508 192.098 229.858 192.098L221.904 192.138L222.185 191.852L222.156 198.573L221.904 198.315C223.211 198.315 224.519 198.315 225.838 198.349L229.789 198.412L237.812 198.573Z" fill="#EBEBEB"/>
<path d="M196.624 143.179L188.738 143.34L184.724 143.403C183.388 143.432 182.046 143.403 180.709 143.432H180.457V143.174L180.423 136.446V136.16H180.709L188.664 136.2C191.319 136.2 193.969 136.263 196.618 136.292H196.779V136.446C196.779 137.593 196.727 138.74 196.704 139.842L196.624 143.179ZM196.624 143.179L196.544 139.784C196.544 138.666 196.481 137.553 196.469 136.452L196.624 136.613C193.974 136.641 191.325 136.704 188.67 136.704L180.715 136.739L181.002 136.452L180.973 143.179L180.715 142.921C182.029 142.921 183.336 142.921 184.649 142.956L188.607 143.019L196.624 143.179Z" fill="#EBEBEB"/>
<path d="M224.565 35.2645L216.673 35.4251L212.659 35.4881C211.323 35.4881 209.981 35.4881 208.644 35.5226H208.392V35.2645L208.363 28.5431V28.2563H208.65L216.61 28.2908C219.26 28.2908 221.909 28.3596 224.565 28.3883H224.719V28.5431C224.719 29.6901 224.668 30.8371 224.645 31.9382L224.565 35.2645ZM224.565 35.2645L224.479 31.8694C224.479 30.7224 224.415 29.6442 224.404 28.5431L224.565 28.6979C221.909 28.6979 219.26 28.7897 216.61 28.7954L208.65 28.8298L208.937 28.5431L208.908 35.2645L208.65 35.0121C209.963 35.0121 211.271 35.0121 212.59 35.0121L216.541 35.0752L224.565 35.2645Z" fill="#EBEBEB"/>
<path d="M233.437 43.7403L225.551 43.9009L221.537 43.9697C220.2 43.9697 218.858 43.9697 217.522 43.9984H217.27V43.7403L217.241 37.0189V36.7322H217.528L225.482 36.7723C228.132 36.7723 230.787 36.8354 233.437 36.8641H233.597V37.0189C233.597 38.1659 233.546 39.3129 233.517 40.414L233.437 43.7403ZM233.437 43.7403L233.356 40.3452C233.356 39.1982 233.293 38.12 233.282 37.0189L233.437 37.1738C230.787 37.2082 228.132 37.2655 225.482 37.2713L217.528 37.3057L217.815 37.0189L217.786 43.7403L217.528 43.488C218.841 43.488 220.149 43.488 221.462 43.488L225.419 43.5568L233.437 43.7403Z" fill="#EBEBEB"/>
<path d="M220.023 116.649L227.914 116.494L231.928 116.425C233.27 116.425 234.612 116.425 235.943 116.397H236.201V116.655L236.23 123.382V123.669H235.937L227.983 123.629C225.333 123.629 222.684 123.565 220.028 123.537H219.874V123.405C219.874 122.258 219.925 121.111 219.948 120.01L220.023 116.649ZM220.023 116.649L220.103 120.044C220.132 121.191 220.172 122.275 220.183 123.376L220.023 123.216C222.678 123.216 225.327 123.13 227.977 123.124L235.931 123.089L235.65 123.376L235.679 116.649L235.931 116.907C234.624 116.907 233.316 116.907 231.997 116.873L228.046 116.81L220.023 116.649Z" fill="#EBEBEB"/>
<path d="M211.174 108.173L219.059 108.012L223.074 107.949C224.41 107.92 225.752 107.949 227.088 107.92H227.341V108.178L227.375 114.9V115.192H227.088L219.134 115.158C216.478 115.158 213.829 115.095 211.179 115.066H211.019V114.911C211.019 113.764 211.07 112.617 211.093 111.516L211.174 108.173ZM211.174 108.173L211.254 111.568C211.254 112.686 211.317 113.793 211.328 114.894L211.174 114.739C213.823 114.739 216.473 114.647 219.128 114.647L227.082 114.613L226.796 114.894L226.824 108.173L227.082 108.431C225.769 108.431 224.462 108.431 223.148 108.396L219.191 108.333L211.174 108.173Z" fill="#EBEBEB"/>
<path d="M42.8925 22.2401L35.0069 22.4006L30.9924 22.4637C29.6562 22.4924 28.3142 22.4637 26.978 22.4981H26.7256V22.2401L26.6912 15.5187V15.2319H26.978L34.9324 15.2663C37.5877 15.2663 40.2372 15.3294 42.8868 15.3581H43.0473V15.5129C43.0473 16.6599 42.9957 17.8069 42.9671 18.908L42.8925 22.2401ZM42.8925 22.2401L42.8122 18.845C42.8122 17.698 42.7491 16.6198 42.7377 15.5187L42.8925 15.6735C40.2429 15.7022 37.5934 15.7653 34.9381 15.7653L26.9837 15.8054L27.2705 15.5187V22.2401L27.0124 21.982C28.3257 21.982 29.6333 21.982 30.9466 22.0164L34.9037 22.0795L42.8925 22.2401Z" fill="#EBEBEB"/>
<path d="M25.527 75.3861L17.6356 75.5466L13.6212 75.6097C12.2849 75.6384 10.9429 75.6097 9.60669 75.6441H9.36008V75.3861L9.30273 68.6647V68.3779H9.58948L17.5439 68.4123C20.1992 68.4123 22.8487 68.4812 25.504 68.5098H25.6589V68.6647C25.6589 69.8117 25.6072 70.9587 25.5843 72.0598L25.527 75.3861ZM25.527 75.3861L25.4409 71.991C25.4409 70.8726 25.3778 69.7658 25.3664 68.6647L25.527 68.8195C22.8717 68.8482 20.2221 68.9113 17.5668 68.917L9.61242 68.9514L9.89917 68.6647V75.3861L9.6411 75.1337C10.9544 75.1337 12.262 75.1337 13.5753 75.1337L17.5324 75.1968L25.527 75.3861Z" fill="#EBEBEB"/>
<path d="M240.548 45.7305H156.221V49.6704H240.548V45.7305Z" fill="#EBEBEB"/>
<path d="M169.56 65.1778H165.988L164.554 49.6704H169.56V65.1778Z" fill="#EBEBEB"/>
<path d="M227.197 65.1778H230.776L232.209 49.6704H227.197V65.1778Z" fill="#EBEBEB"/>
<path d="M164.554 49.6704H169.56V55.0154H165.047L164.554 49.6704Z" fill="#DBDBDB"/>
<path d="M232.209 49.6704L231.716 55.0154H227.203V49.6704H232.209Z" fill="#DBDBDB"/>
<path d="M234.01 22.091C229.938 27.6023 225.694 34.0025 224.656 40.9189C224.656 41.0278 224.817 41.0622 224.84 40.959C225.311 39.0709 225.919 37.2194 226.658 35.419C229.336 34.6792 231.963 34.077 233.368 31.4045C234.773 28.7321 234.618 25.0961 234.349 22.1311C234.308 21.9877 234.113 21.982 234.01 22.091Z" fill="#EBEBEB"/>
<path d="M226.658 35.3672C228.448 31.1617 230.863 27.2504 233.821 23.7654C233.821 23.7654 233.872 23.7654 233.855 23.7654C231.99 26.1719 230.352 28.7465 228.963 31.456C230.311 30.0853 231.791 28.858 233.064 27.4071C233.066 27.4041 233.07 27.4016 233.073 27.3998C233.077 27.3981 233.081 27.397 233.085 27.3967C233.089 27.3965 233.093 27.397 233.096 27.3983C233.1 27.3996 233.104 27.4016 233.107 27.4042C233.11 27.4069 233.112 27.4101 233.114 27.4136C233.116 27.4172 233.117 27.4211 233.117 27.4251C233.117 27.4291 233.117 27.4331 233.115 27.4369C233.114 27.4407 233.112 27.4442 233.11 27.4472C231.836 28.9727 230.454 30.6244 228.803 31.7485C228.355 32.5686 227.914 33.3887 227.461 34.2088C227.57 34.1457 227.683 34.0883 227.799 34.0367C227.799 34.0367 227.833 34.0367 227.799 34.0367C227.673 34.0998 227.547 34.1686 227.415 34.2202C227.203 34.6102 226.99 35.0002 226.772 35.3672C226.765 35.3756 226.757 35.3824 226.747 35.3871C226.737 35.3917 226.726 35.3941 226.715 35.3941C226.704 35.3941 226.693 35.3917 226.683 35.3871C226.673 35.3824 226.665 35.3756 226.658 35.3672Z" fill="#A6A6A6"/>
<path d="M228.04 33.9396C229.136 33.3275 230.181 32.6295 231.166 31.8521C231.194 31.8521 231.234 31.8521 231.206 31.8922C230.249 32.7168 229.203 33.4305 228.086 34.0199C228.034 34.0371 227.988 33.9396 228.04 33.9396Z" fill="#A6A6A6"/>
<path d="M224.215 40.8559C224.215 40.8757 224.223 40.8947 224.237 40.9087C224.251 40.9226 224.27 40.9305 224.29 40.9305C224.309 40.9305 224.328 40.9226 224.342 40.9087C224.356 40.8947 224.364 40.8757 224.364 40.8559C224.364 38.562 224.364 36.268 224.398 33.974C224.972 32.827 226.234 32.1445 227.105 31.204C227.734 30.5056 228.279 29.7357 228.728 28.91C229.778 26.967 230.42 24.8301 230.615 22.6302C230.856 20.1929 229.933 12.1524 228.895 12.4335C228.361 12.5768 226.635 16.5569 226.176 17.8759C225.438 20.046 224.896 22.2783 224.559 24.5457C223.821 29.9514 223.706 35.4239 224.215 40.8559Z" fill="#EBEBEB"/>
<path d="M224.198 31.0314C224.412 28.1298 224.875 25.2518 225.58 22.429C226.234 19.4181 226.996 16.5851 228.545 13.8954C228.551 13.8847 228.561 13.8769 228.573 13.8737C228.585 13.8705 228.597 13.8721 228.608 13.8782C228.619 13.8842 228.626 13.8943 228.63 13.9061C228.633 13.918 228.631 13.9306 228.625 13.9412C227.592 16.0301 226.792 18.2265 226.239 20.4906C226.343 20.33 226.469 20.1752 226.578 20.0203C226.618 19.963 226.721 20.0203 226.675 20.0777C226.539 20.3229 226.377 20.5535 226.194 20.7659C225.66 22.9222 225.282 25.1187 224.949 27.3152C224.975 27.2899 225 27.2631 225.024 27.2349H225.058C225.018 27.3094 224.972 27.3783 224.926 27.4528C224.76 28.5654 224.611 29.678 224.456 30.7848C226.489 29.1496 228.082 27.0324 229.09 24.6255C228.253 27.2159 226.614 29.4733 224.41 31.0716L224.29 31.9605C224.29 32.0236 224.181 32.0064 224.181 31.9605C224.181 31.7024 224.181 31.4386 224.181 31.1748C224.175 31.1003 224.163 31.0716 224.198 31.0314Z" fill="#A6A6A6"/>
<path d="M225.133 26.8566C226.679 24.657 228.032 22.3275 229.176 19.8943C229.176 19.8657 229.239 19.8943 229.227 19.8943C228.321 22.451 226.961 24.8231 225.213 26.8967C225.173 26.9541 225.104 26.9025 225.133 26.8566Z" fill="#A6A6A6"/>
<path d="M227.145 19.3324C227.776 18.2198 228.441 17.1416 229.032 16.0061C229.032 15.9717 229.09 16.0061 229.078 16.0348C228.592 17.2174 227.977 18.3426 227.243 19.3897C227.234 19.4001 227.222 19.4071 227.209 19.4094C227.195 19.4117 227.182 19.4092 227.17 19.4023C227.158 19.3954 227.149 19.3846 227.145 19.3718C227.14 19.359 227.141 19.345 227.145 19.3324Z" fill="#A6A6A6"/>
<path d="M223.097 35.0235C223.068 36.532 222.891 38.0341 222.569 39.5082L222.638 40.0014C223.102 38.372 223.371 36.6933 223.441 35.0005C223.453 34.9767 223.46 34.9501 223.46 34.9231C223.46 34.8961 223.453 34.8696 223.441 34.8457C223.508 32.5747 223.338 30.303 222.936 28.067C222.231 23.8804 220.694 19.866 217.775 16.7289C217.75 16.708 217.722 16.6929 217.691 16.6846C217.66 16.6764 217.627 16.6753 217.596 16.6813C217.564 16.6874 217.535 16.7005 217.509 16.7197C217.483 16.7389 217.462 16.7636 217.448 16.792C216.272 19.7857 216.685 23.3643 217.688 26.3522C218.229 27.9676 219.002 29.4958 219.982 30.8886C221.009 32.2936 222.288 33.4865 223.097 35.0235Z" fill="#EBEBEB"/>
<path d="M218.124 18.1223C220.888 22.6128 222.815 27.9348 223.051 33.2397C223.051 33.3372 222.896 33.3601 222.884 33.2397C222.815 32.7637 222.747 32.2934 222.666 31.8231C221.463 30.761 220.407 29.5442 219.524 28.2044C219.524 28.2044 219.524 28.147 219.564 28.17C220.523 29.3429 221.551 30.4574 222.643 31.5077C222.445 30.3301 222.208 29.1831 221.932 28.0667L221.714 27.8087C221.663 27.7513 221.743 27.671 221.795 27.7284L221.863 27.8029C221.472 26.2458 220.988 24.7137 220.412 23.2149C219.645 22.4372 218.973 21.5708 218.411 20.6342C218.411 20.6342 218.411 20.5941 218.445 20.6342C218.858 21.2077 219.26 21.7812 219.724 22.3547C219.914 22.5669 220.114 22.7676 220.298 22.9741C219.66 21.3473 218.903 19.7697 218.032 18.2542C218.015 18.242 218.003 18.2234 217.999 18.2024C217.995 18.1815 218 18.1599 218.012 18.1424C218.025 18.1249 218.043 18.1129 218.064 18.1092C218.085 18.1054 218.107 18.1101 218.124 18.1223Z" fill="#A6A6A6"/>
<path d="M218.681 23.6625C219.575 24.7406 220.596 25.7672 221.428 26.8798C221.428 26.9142 221.399 26.9429 221.37 26.9199C220.323 25.9644 219.402 24.8794 218.629 23.6911C218.629 23.6567 218.658 23.6166 218.681 23.6625Z" fill="#A6A6A6"/>
<path d="M221.554 27.5334L221.588 27.5735L221.548 27.6135L221.514 27.5792C221.508 27.5739 221.504 27.5664 221.504 27.5583C221.503 27.5503 221.506 27.5423 221.511 27.5363C221.516 27.5302 221.524 27.5265 221.532 27.5259C221.54 27.5254 221.548 27.5281 221.554 27.5334Z" fill="#A6A6A6"/>
<path d="M213.364 25.6183C213.682 28.1381 214.693 30.5204 216.283 32.5002C216.932 33.2609 217.731 33.8797 218.629 34.3182C219.656 34.8229 220.728 35.4078 221.789 35.8265C222.295 37.11 222.67 38.4416 222.907 39.8008L223.01 39.4453C222.334 33.5956 218.549 28.6004 213.703 25.3889C213.666 25.3684 213.624 25.3586 213.581 25.3606C213.539 25.3625 213.498 25.3761 213.463 25.3999C213.428 25.4236 213.4 25.4566 213.383 25.4951C213.365 25.5337 213.359 25.5763 213.364 25.6183Z" fill="#EBEBEB"/>
<path d="M215.033 27.3498C215.028 27.3419 215.026 27.3326 215.026 27.3233C215.026 27.3139 215.03 27.3049 215.035 27.2974C215.041 27.2899 215.049 27.2843 215.058 27.2814C215.066 27.2784 215.076 27.2783 215.085 27.2809C217.743 29.261 219.863 31.8754 221.25 34.8855C221.259 34.9015 221.262 34.9204 221.257 34.9382C221.252 34.9559 221.24 34.971 221.224 34.9801C221.208 34.9893 221.189 34.9917 221.172 34.9868C221.154 34.982 221.139 34.9703 221.13 34.9543C220.906 34.5643 220.677 34.1801 220.447 33.8073C219.324 33.5034 218.299 32.9101 217.477 32.0868C217.477 32.0868 217.477 32.0295 217.477 32.0524C217.9 32.4372 218.37 32.7668 218.876 33.0331C219.329 33.2625 219.811 33.4059 220.281 33.6066C219.874 32.9586 219.444 32.3334 219.002 31.7313C217.808 31.2773 216.689 30.6471 215.681 29.8617C215.647 29.8617 215.681 29.7871 215.71 29.8101C216.708 30.4135 217.738 30.963 218.796 31.456C218.12 30.5669 217.392 29.7186 216.616 28.9154C216.243 28.7204 215.859 28.5197 215.498 28.3075C215.469 28.3075 215.498 28.2387 215.498 28.2502C215.8 28.3589 216.088 28.5013 216.358 28.6745C215.968 28.2043 215.515 27.7742 215.033 27.3498Z" fill="#A6A6A6"/>
<path d="M228.981 45.7305H219.013L219.501 39.1926L219.69 37.0649H228.212L228.401 39.1926L228.981 45.7305Z" fill="#DBDBDB"/>
<path d="M228.402 39.1926H219.501L219.69 37.0649H228.212L228.402 39.1926Z" fill="#C7C7C7"/>
<path d="M228.895 35.3157H219.013V37.5007H228.895V35.3157Z" fill="#DBDBDB"/>
<path d="M190.333 45.7189V24.2644H184.93V45.7189H190.333Z" fill="#C7C7C7"/>
<path d="M190.333 25.4689V23.1118H184.93V25.4689H190.333Z" fill="#DBDBDB"/>
<path d="M190.333 29.3684V28.491H184.93V29.3684H190.333Z" fill="#DBDBDB"/>
<path d="M190.333 42.8973V40.5403H184.93V42.8973H190.333Z" fill="#DBDBDB"/>
<path d="M194.708 45.7074V16.6655H190.327V45.7074H194.708Z" fill="#EBEBEB"/>
<path d="M193.854 30.5728V19.4011H191.221V30.5728H193.854Z" fill="#A6A6A6"/>
<path d="M195.678 45.7131H216.908V41.3316H195.678V45.7131Z" fill="#C7C7C7"/>
<path d="M200.661 44.8245H208.828V42.1921H200.661V44.8245Z" fill="#DBDBDB"/>
<path d="M184.93 45.7188V21.0872H176.62V45.7188H184.93Z" fill="#A6A6A6"/>
<path d="M184.93 43.1038V40.8098H176.62V43.1038H184.93Z" fill="#C7C7C7"/>
<path d="M184.93 39.3015V38.4126H176.62V39.3015H184.93Z" fill="#C7C7C7"/>
<path d="M207.557 39.3234L199.379 20.2722L194.658 22.299L202.835 41.3501L207.557 39.3234Z" fill="#A6A6A6"/>
<path d="M206.706 37.3036L205.944 35.5276L201.222 37.5543L201.984 39.3303L206.706 37.3036Z" fill="#C7C7C7"/>
<path d="M201.834 25.9735L201.071 24.1975L196.349 26.2243L197.112 28.0003L201.834 25.9735Z" fill="#C7C7C7"/>
<path d="M202.654 27.8771L202.358 27.1868L197.636 29.2135L197.933 29.9039L202.654 27.8771Z" fill="#C7C7C7"/>
<path d="M169.776 45.7361L176.627 28.1558L172.267 26.4566L165.416 44.037L169.776 45.7361Z" fill="#C7C7C7"/>
<path d="M170.484 43.8535L171.123 42.2131L166.763 40.5132L166.124 42.1536L170.484 43.8535Z" fill="#A6A6A6"/>
<path d="M174.58 33.4225L175.219 31.782L170.859 30.0828L170.219 31.7233L174.58 33.4225Z" fill="#A6A6A6"/>
<path d="M173.903 35.1764L174.15 34.5405L169.79 32.8414L169.542 33.4773L173.903 35.1764Z" fill="#A6A6A6"/>
<path d="M38.5404 99.9255C45.0181 95.5332 46.7086 86.7212 42.3163 80.2435C37.9239 73.7658 29.112 72.0752 22.6342 76.4676C16.1565 80.8599 14.466 89.6719 18.8583 96.1496C23.2507 102.627 32.0626 104.318 38.5404 99.9255Z" fill="#EBEBEB"/>
<path d="M38.0351 87.9971C37.1117 92.7285 32.8736 96.5422 32.8736 96.5422C32.8736 96.5422 27.282 95.3952 24.0819 91.8166C21.4094 88.8115 21.4725 84.7569 23.9672 83.2141C27.5343 80.9718 30.3846 87.4752 30.3846 87.4752C30.3846 87.4752 29.5301 80.427 33.751 80.5359C36.6873 80.599 38.8036 84.0572 38.0351 87.9971Z" fill="white"/>
<path d="M226.75 75.9771C227.879 71.509 225.172 66.9718 220.704 65.8429C216.236 64.7139 211.699 67.4208 210.57 71.8889C209.441 76.3569 212.148 80.8942 216.616 82.0231C221.084 83.152 225.622 80.4451 226.75 75.9771Z" fill="#EBEBEB"/>
<path d="M222.15 76.5732C219.988 78.4084 216.633 78.6034 216.633 78.6034C216.633 78.6034 214.477 76.0284 214.339 73.1953C214.213 70.8325 215.733 68.9916 217.453 69.1809C219.919 69.4619 218.841 73.4993 218.841 73.4993C218.841 73.4993 221.038 69.9436 222.936 71.5494C224.255 72.6735 223.957 75.042 222.15 76.5732Z" fill="white"/>
<path d="M71.8769 43.0809C70.8703 44.6612 69.3892 45.8823 67.646 46.5691C65.9028 47.2559 63.9869 47.3732 62.1729 46.9041C60.3589 46.435 58.74 45.4037 57.5482 43.958C56.3563 42.5123 55.6528 40.7263 55.5385 38.8562C55.4241 36.986 55.9047 35.1277 56.9115 33.5475C57.9182 31.9673 59.3994 30.7464 61.1427 30.0598C62.886 29.3732 64.8019 29.2561 66.6159 29.7254C68.4298 30.1946 70.0486 31.2261 71.2403 32.672C72.4358 34.1156 73.1417 35.9017 73.2561 37.7726C73.3706 39.6435 72.8876 41.5024 71.8769 43.0809Z" fill="#EBEBEB"/>
<path d="M66.3829 36.2334C66.6155 36.7144 66.7003 37.2535 66.6264 37.7827C66.5526 38.3118 66.3235 38.8072 65.9682 39.2061C65.6128 39.6051 65.1471 39.8896 64.63 40.0239C64.1129 40.1582 63.5676 40.1361 63.063 39.9604C62.5584 39.7847 62.1173 39.4634 61.7954 39.037C61.4735 38.6106 61.2852 38.0983 61.2545 37.5649C61.2237 37.0316 61.3518 36.5011 61.6226 36.0405C61.8933 35.5799 62.2946 35.21 62.7756 34.9775C63.4205 34.6657 64.1629 34.6229 64.8393 34.8585C65.5158 35.094 66.0711 35.5886 66.3829 36.2334Z" fill="white"/>
<path d="M71.3894 42.0774L71.8769 43.081C70.9914 44.4703 69.736 45.5851 68.2519 46.3003C66.7677 47.0156 65.1136 47.3028 63.4752 47.1299L62.9935 46.132C62.455 45.0187 62.3809 43.737 62.7875 42.569C63.194 41.401 64.0479 40.4423 65.1613 39.9039C66.2747 39.3654 67.5563 39.2913 68.7243 39.6979C69.8923 40.1044 70.851 40.9583 71.3894 42.0717V42.0774Z" fill="white"/>
<path d="M203.993 156.306H223.24L234.257 101.394L216.633 93.2964L203.993 156.306Z" fill="#DBDBDB"/>
<path d="M148.909 156.306H203.993L216.633 93.2964H161.549L148.909 156.306Z" fill="#EBEBEB"/>
<path d="M213.875 187.367H243.37V126.846H213.875V187.367Z" fill="#DBDBDB"/>
<path d="M134.749 187.367H142.807L154.816 126.846H134.749V187.367Z" fill="#DBDBDB"/>
<path d="M197.668 187.367H213.875V126.846H197.668V187.367Z" fill="#EBEBEB"/>
<path d="M118.548 187.367H134.755V126.846H118.548V187.367Z" fill="#EBEBEB"/>
<path d="M134.749 187.367H197.668V156.312H134.749V187.367Z" fill="#EBEBEB"/>
<path d="M134.749 156.438H197.668V142.887H134.749V156.438Z" fill="#EBEBEB"/>
<path d="M209.9 126.846L203.787 126.737L197.668 126.656H197.484V126.846L197.41 133.928V141.011C197.41 145.731 197.375 150.451 197.41 155.176C197.444 159.902 197.41 164.616 197.49 169.342C197.57 174.067 197.593 178.782 197.696 183.507C197.796 178.782 197.865 174.06 197.903 169.342C197.96 164.616 197.966 159.896 197.983 155.176C198 150.457 197.983 145.731 197.983 141.011L197.955 133.928L197.851 126.846L197.668 127.029L203.787 126.955L209.9 126.846Z" fill="#DBDBDB"/>
<path d="M134.749 126.846C134.623 131.583 134.566 136.326 134.514 141.063L134.445 155.28L134.514 169.497L134.6 176.608L134.749 183.714L134.899 176.608L134.985 169.497L135.053 155.28L134.985 141.063C134.939 136.326 134.898 131.583 134.749 126.846Z" fill="#DBDBDB"/>
<path d="M134.749 156.306C139.991 156.433 145.239 156.496 150.48 156.542L166.211 156.616L181.937 156.542L189.805 156.456L197.668 156.306L189.805 156.157L181.925 156.094L166.2 156.025L150.469 156.1C145.221 156.123 139.991 156.18 134.749 156.306Z" fill="#DBDBDB"/>
<path d="M134.749 142.904C139.991 143.03 145.239 143.093 150.48 143.139L166.211 143.208L181.937 143.139L189.805 143.053L197.668 142.904L189.805 142.755L181.925 142.646L166.2 142.577L150.469 142.646C145.221 142.698 139.991 142.755 134.749 142.904Z" fill="#DBDBDB"/>
<path d="M232.163 187.367L232.559 192.271L233.494 203.597H237.761L238.696 192.271L239.091 187.367H232.163Z" fill="#C7C7C7"/>
<path d="M239.091 187.367H232.163L232.559 192.271H238.696L239.091 187.367Z" fill="#A6A6A6"/>
<path d="M202.307 187.367L202.703 192.271L203.638 203.597H207.905L208.839 192.271L209.235 187.367H202.307Z" fill="#C7C7C7"/>
<path d="M209.235 187.367H202.307L202.703 192.271H208.839L209.235 187.367Z" fill="#A6A6A6"/>
<path d="M152.786 187.367L153.181 192.271L154.116 203.597H158.383L159.318 192.271L159.714 187.367H152.786Z" fill="#C7C7C7"/>
<path d="M159.714 187.367H152.786L153.181 192.271H159.318L159.714 187.367Z" fill="#A6A6A6"/>
<path d="M122.924 187.367L123.32 192.271L124.254 203.597H128.521L129.456 192.271L129.852 187.367H122.924Z" fill="#C7C7C7"/>
<path d="M122.924 187.367L123.32 192.271H129.456L129.852 187.367H122.924Z" fill="#A6A6A6"/>
<path d="M121.708 248.289C152.33 248.289 177.154 245.686 177.154 242.474C177.154 239.263 152.33 236.659 121.708 236.659C91.0862 236.659 66.2623 239.263 66.2623 242.474C66.2623 245.686 91.0862 248.289 121.708 248.289Z" fill="#EBEBEB"/>
<path d="M22.9692 170.643C22.9692 170.643 27.8611 153.089 31.7666 147.13C35.6721 141.171 42.9555 134.622 42.9555 134.622C42.9555 134.622 42.7835 161.68 22.9692 170.643Z" fill="#1677F1"/>
<path d="M23.319 170.34C24.9689 167.591 26.4586 164.749 27.7808 161.829C28.3405 158.693 29.1518 155.607 30.2067 152.601C30.2078 152.595 30.2103 152.589 30.214 152.583C30.2177 152.578 30.2226 152.573 30.2283 152.57C30.234 152.566 30.2403 152.564 30.2469 152.563C30.2535 152.563 30.2601 152.563 30.2664 152.565C30.2727 152.568 30.2784 152.571 30.2833 152.575C30.2881 152.58 30.2919 152.585 30.2944 152.592C30.2969 152.598 30.298 152.604 30.2977 152.611C30.2974 152.618 30.2957 152.624 30.2927 152.63C29.6446 155.406 28.8934 158.153 28.2052 160.917C30.178 156.644 32.0533 152.315 34.4047 148.3C34.9557 146.348 35.7252 144.465 36.6986 142.686C36.6986 142.634 36.8076 142.686 36.7847 142.714C36.1809 144.082 35.6637 145.486 35.2362 146.918C36.3422 145.106 37.5845 143.38 38.9525 141.756C39.0385 141.653 39.2048 141.756 39.1245 141.877C35.9818 145.891 33.8082 150.451 31.7436 155.067C33.9636 152.656 36.014 150.094 37.8801 147.4C37.8801 147.371 37.9374 147.4 37.9202 147.428C35.9759 150.449 33.7772 153.298 31.3479 155.945C29.8454 159.334 28.3657 162.735 26.5707 165.952C30.1551 162.924 32.9136 159.001 35.6434 155.216C35.6556 155.198 35.6745 155.185 35.696 155.181C35.7175 155.177 35.7399 155.181 35.7581 155.193C35.7764 155.206 35.789 155.225 35.7933 155.246C35.7976 155.268 35.7932 155.29 35.7811 155.308C33.0512 159.46 30.2239 163.372 26.2897 166.445C25.4925 167.862 24.6176 169.232 23.6688 170.552C23.635 170.584 23.5917 170.604 23.5455 170.608C23.4993 170.613 23.4528 170.603 23.4131 170.579C23.3733 170.555 23.3426 170.518 23.3256 170.475C23.3086 170.432 23.3063 170.384 23.319 170.34Z" fill="#263238"/>
<path d="M21.455 172.221C21.455 172.221 30.2467 156.037 27.6889 140.34C25.1311 124.643 22.4013 119.063 22.4013 119.063C22.4013 119.063 8.58575 143.477 21.455 172.221Z" fill="#1677F1"/>
<path d="M18.4787 144.274C18.7699 145.683 18.9615 147.111 19.0522 148.547C19.049 148.556 19.0431 148.563 19.0354 148.569C19.0277 148.574 19.0186 148.577 19.0092 148.577C18.9998 148.577 18.9907 148.574 18.983 148.569C18.9753 148.563 18.9695 148.556 18.9662 148.547C18.6248 147.145 18.3833 145.722 18.2436 144.286C18.2436 144.183 18.4271 144.165 18.4787 144.274Z" fill="#263238"/>
<path d="M23.5886 132.443C23.5886 132.391 23.6689 132.409 23.6746 132.443C23.6596 133.441 23.5111 134.432 23.233 135.391C23.233 135.471 23.0954 135.431 23.1126 135.356C23.3018 134.393 23.4223 133.418 23.5886 132.443Z" fill="#263238"/>
<path d="M18.2492 173.459C18.2492 173.459 18.6048 156.564 13.7587 148.168C8.91268 139.772 0.872253 135.488 0.872253 135.488C0.872253 135.488 4.14118 165.27 18.2492 173.459Z" fill="#1677F1"/>
<path d="M9.41742 159.013C11.3651 161.962 13.5579 164.742 15.9725 167.323C15.009 163.882 13.8907 160.487 12.6175 157.138C9.90489 154.752 7.20945 152.286 5.54058 149.023C5.53449 149.012 5.53289 148.999 5.53611 148.988C5.53934 148.976 5.54714 148.966 5.55778 148.96C5.56843 148.953 5.58106 148.952 5.59289 148.955C5.60472 148.958 5.61478 148.966 5.62087 148.977C7.41018 151.844 9.80739 154.173 12.3308 156.398C10.3887 151.365 8.13623 146.458 5.58646 141.705C5.57828 141.681 5.57852 141.655 5.58715 141.632C5.59578 141.608 5.61227 141.588 5.63383 141.576C5.65539 141.563 5.68071 141.558 5.70551 141.561C5.73031 141.565 5.75308 141.577 5.76998 141.596C7.32037 144.088 8.73328 146.663 10.0024 149.309C9.54358 147.503 9.18228 145.656 8.71775 143.861C8.72073 143.854 8.72587 143.847 8.73252 143.843C8.73916 143.838 8.747 143.836 8.75503 143.836C8.76305 143.836 8.77089 143.838 8.77754 143.843C8.78418 143.847 8.78933 143.854 8.7923 143.861C9.74468 146.161 10.413 148.568 10.7823 151.03C12.4761 154.769 13.8982 158.625 15.0377 162.569C14.9172 160.034 14.7567 157.516 14.4929 154.987C14.4929 154.941 14.5731 154.93 14.5789 154.987C15.1209 157.79 15.3669 160.643 15.313 163.498C16.0126 166.015 16.5976 168.567 17.0736 171.131C17.0736 171.2 16.9818 171.234 16.9646 171.16C16.7008 170.085 16.4217 169.017 16.1273 167.954C16.1086 167.959 16.0887 167.959 16.07 167.954C13.472 165.35 11.0003 162.379 9.37727 159.059L9.41742 159.013Z" fill="#263238"/>
<path d="M32.6495 171.401L32.0359 179.401L30.195 203.597H14.1371L12.2904 179.401L11.6825 171.401H32.6495Z" fill="#455A64"/>
<path d="M32.65 171.401L32.0363 179.401H12.2966L11.6887 171.401H32.65Z" fill="#37474F"/>
<path d="M10.2661 173.608H34.0776V167.472H10.2661V173.608Z" fill="#455A64"/>
<path d="M0.608459 203.597L30.8833 203.453L61.1582 203.408L121.708 203.31L182.258 203.408L212.533 203.453L242.808 203.597L212.533 203.734L182.258 203.786L121.708 203.884L61.1582 203.786L30.8833 203.734L0.608459 203.597Z" fill="#263238"/>
<path d="M159.972 41.4811C159.694 44.0927 158.702 46.5772 157.104 48.6612C156.705 49.1774 156.276 49.6696 155.819 50.1351C155.347 50.5883 154.847 51.0116 154.323 51.4026C152.219 52.987 149.718 53.9594 147.097 54.2127C146.441 54.2719 145.781 54.2853 145.124 54.2528C144.467 54.2355 143.814 54.1664 143.168 54.0464C140.558 53.5718 138.132 52.3803 136.16 50.6054L136.326 50.657L129.261 51.718L128.745 51.7925L129.009 51.3395L132.53 45.2031V45.4439C131.701 43.4142 131.348 41.2214 131.499 39.0342C131.65 36.8469 132.301 34.7234 133.401 32.827C134.506 30.939 136.024 29.3254 137.84 28.1071C139.654 26.8922 141.722 26.1076 143.885 25.8131C146.033 25.5156 148.22 25.7162 150.277 26.3994C152.335 27.0826 154.208 28.2301 155.751 29.7531C157.296 31.2609 158.479 33.1 159.21 35.1316C159.941 37.1631 160.202 39.3342 159.972 41.4811Z" fill="#455A64"/>
<path d="M145.479 35.9239C145.451 36.8358 145.479 37.7648 145.479 38.757H149.052C148.903 39.904 148.771 41.0223 148.599 42.1005C148.599 42.2094 148.312 42.3413 148.163 42.3471C147.303 42.3471 146.443 42.3471 145.502 42.3471V54.2643C144.218 54.2474 142.943 54.0545 141.711 53.6908V42.3815H138.586V38.7857H141.648C141.648 38.5161 141.683 38.2982 141.683 38.0917C141.683 37.1455 141.683 36.1935 141.757 35.2587C141.788 34.3121 142.159 33.4084 142.801 32.7124C143.443 32.0164 144.315 31.5747 145.256 31.4678C146.555 31.3701 147.86 31.3586 149.161 31.4334V34.7024C148.697 34.7024 148.215 34.7024 147.75 34.7024C147.33 34.6876 146.909 34.7164 146.494 34.7884C146.218 34.8275 145.965 34.9629 145.779 35.1707C145.594 35.3785 145.487 35.6453 145.479 35.9239Z" fill="white"/>
<path d="M152.74 79.1025C150.781 79.8384 148.658 80.019 146.603 79.6244C146.093 79.5261 145.589 79.3959 145.095 79.2344C144.603 79.0584 144.123 78.8535 143.656 78.6207C142.72 78.1582 141.855 77.5654 141.086 76.8601C140.308 76.1597 139.631 75.3549 139.073 74.4686C138.797 74.0231 138.556 73.5572 138.351 73.075C138.119 72.6025 137.927 72.1114 137.777 71.6069C137.186 69.5743 137.176 67.4167 137.749 65.3787V65.5163L134.445 60.8596L134.21 60.5212H134.623L140.255 60.8424L140.077 60.9169C141.229 59.6005 142.667 58.5663 144.282 57.8941C145.897 57.2219 147.645 56.9297 149.39 57.0401C151.152 57.1525 152.865 57.6665 154.397 58.5426C155.9 59.4067 157.188 60.6003 158.163 62.0336C159.139 63.467 159.777 65.1028 160.029 66.8182C160.262 68.5275 160.111 70.2673 159.587 71.9108C159.065 73.5498 158.177 75.0486 156.991 76.2944C155.805 77.5402 154.351 78.5004 152.74 79.1025Z" fill="#1677F1"/>
<path d="M142.234 73.6487C143.638 73.7147 145.021 73.2888 146.145 72.4443C144.527 71.9511 143.885 71.4579 143.65 70.5403L144.734 70.4887C144.136 70.3102 143.609 69.9486 143.227 69.4547C142.845 68.9609 142.628 68.3597 142.606 67.7359L143.725 68.0341C142.578 66.5602 142.314 65.419 143.013 64.3523C143.723 65.196 144.598 65.8856 145.585 66.3787C146.571 66.8719 147.648 67.1581 148.748 67.2198C148.748 67.0362 148.748 66.8986 148.72 66.761C148.667 66.2134 148.787 65.663 149.063 65.1869C149.338 64.7108 149.756 64.3328 150.257 64.1057C150.741 63.8476 151.293 63.7449 151.838 63.8116C152.383 63.8782 152.894 64.1111 153.302 64.4784C153.382 64.5578 153.483 64.6121 153.593 64.6346C153.703 64.657 153.817 64.6466 153.921 64.6046L155.275 64.1057C155.073 64.6622 154.699 65.1402 154.208 65.4706C154.22 65.4964 154.23 65.5233 154.237 65.5509L155.579 65.2068L155.636 65.2584C155.286 65.6082 154.954 65.9695 154.587 66.2964C154.494 66.3664 154.419 66.4575 154.368 66.5622C154.317 66.6669 154.292 66.7822 154.294 66.8986C154.306 68.8657 153.579 70.7656 152.257 72.2218C150.934 73.6781 149.113 74.5844 147.154 74.7612C145.541 74.9267 143.916 74.5945 142.497 73.8092C142.411 73.7634 142.354 73.706 142.234 73.6487Z" fill="white"/>
<path d="M110.725 69.4966C114.529 69.4966 117.613 66.4129 117.613 62.6089C117.613 58.8049 114.529 55.7212 110.725 55.7212C106.921 55.7212 103.838 58.8049 103.838 62.6089C103.838 66.4129 106.921 69.4966 110.725 69.4966Z" fill="#37474F"/>
<path d="M114.568 63.4862C113.421 65.7802 110.725 67.1394 110.725 67.1394C110.725 67.1394 108.019 65.7802 106.883 63.4862C105.937 61.5708 106.539 59.5062 108.03 59.0531C110.169 58.4051 110.72 62.1385 110.72 62.1385C110.72 62.1385 111.293 58.4051 113.415 59.0531C114.912 59.5062 115.514 61.5708 114.568 63.4862Z" fill="white"/>
<path d="M169.958 24.303C170.574 20.5911 168.065 17.0822 164.353 16.4657C160.641 15.8492 157.132 18.3585 156.516 22.0704C155.899 25.7824 158.408 29.2913 162.12 29.9078C165.832 30.5243 169.341 28.0149 169.958 24.303Z" fill="#455A64"/>
<path fill-rule="evenodd" clip-rule="evenodd" d="M162.202 26.2147C162.002 26.0828 161.824 25.8992 161.554 25.9279C161.445 25.9279 161.468 25.8534 161.468 25.796C161.468 24.7695 161.468 23.7486 161.468 22.7278C161.468 22.6532 161.468 22.5902 161.554 22.55C162.334 22.1543 162.667 21.403 163.143 20.7148C163.386 20.3896 163.562 20.0192 163.66 19.6254C163.759 19.2316 163.778 18.8221 163.716 18.4208C163.682 18.1914 163.791 18.0882 163.998 18.0423C164.1 18.0093 164.21 18.0087 164.312 18.0405C164.415 18.0723 164.505 18.135 164.571 18.2201C164.796 18.6383 164.948 19.0923 165.018 19.5621C165.018 19.9485 164.972 20.3335 164.881 20.7091C164.846 20.9901 164.783 21.2826 164.732 21.5521C164.8 21.6037 164.875 21.5521 164.95 21.5521H167.542C167.909 21.5521 168.115 21.6554 168.115 21.8962C168.144 22.045 168.122 22.1989 168.055 22.3346C167.988 22.4702 167.878 22.5801 167.742 22.6475C167.674 22.6819 167.559 22.6475 167.553 22.7507C167.547 22.854 167.662 22.8425 167.725 22.8826C168.035 23.1006 167.978 23.5422 167.622 23.8002C167.53 23.8576 167.364 23.8346 167.358 23.9608C167.352 24.087 167.519 24.0583 167.588 24.1329C167.645 24.2037 167.685 24.2872 167.704 24.3766C167.723 24.4659 167.72 24.5585 167.696 24.6465C167.672 24.7346 167.627 24.8156 167.565 24.8829C167.504 24.9502 167.427 25.0017 167.341 25.0333C167.295 25.0333 167.232 25.0333 167.192 25.0963C167.152 25.1594 167.106 25.1537 167.192 25.2168C167.277 25.2583 167.348 25.3228 167.398 25.4029C167.448 25.483 167.474 25.5755 167.474 25.6698C167.474 25.7642 167.448 25.8567 167.398 25.9368C167.348 26.0168 167.277 26.0813 167.192 26.1229L167.077 26.2089C166.941 26.2895 166.782 26.3237 166.624 26.3064H162.564C162.436 26.3231 162.307 26.2902 162.202 26.2147Z" fill="white"/>
<path fill-rule="evenodd" clip-rule="evenodd" d="M158.349 24.4195C158.349 23.7715 158.349 23.1234 158.349 22.4754C158.349 22.3435 158.349 22.2747 158.526 22.2747C159.318 22.2747 160.109 22.2747 160.901 22.2747C161.056 22.2747 161.078 22.3263 161.078 22.4639C161.078 23.7715 161.078 25.0791 161.078 26.3866C161.078 26.5529 161.033 26.5988 160.866 26.5988C160.098 26.5988 159.329 26.5988 158.572 26.5988C158.383 26.5988 158.354 26.5357 158.354 26.3694C158.36 25.7214 158.349 25.0733 158.349 24.4195Z" fill="white"/>
<path d="M114.344 76.3784C114.344 77.0601 114.142 77.7265 113.762 78.293C113.383 78.8595 112.844 79.3005 112.213 79.5601C111.583 79.8196 110.89 79.8861 110.221 79.751C109.553 79.6159 108.94 79.2853 108.46 78.8012C107.98 78.3171 107.654 77.7013 107.525 77.0319C107.395 76.3625 107.468 75.6698 107.732 75.0416C107.997 74.4133 108.443 73.8779 109.012 73.5033C109.582 73.1287 110.25 72.9317 110.932 72.9374C111.84 72.9449 112.707 73.3108 113.346 73.9553C113.986 74.5998 114.344 75.4707 114.344 76.3784Z" fill="#1677F1"/>
<path d="M110.875 74.021C111.186 74.0034 111.495 74.0902 111.752 74.2676C111.966 74.4248 112.125 74.6456 112.205 74.8985C112.229 74.9905 112.245 75.0846 112.251 75.1795C112.251 75.3171 112.251 75.4548 112.251 75.5924C112.251 75.7128 112.251 75.8275 112.251 75.9422C112.251 76.0569 112.251 75.9939 112.297 76.0168C112.362 76.0395 112.433 76.0395 112.498 76.0168L112.601 75.9767C112.644 75.9577 112.692 75.9525 112.738 75.9618C112.784 75.971 112.826 75.9942 112.859 76.0283C112.88 76.0497 112.892 76.0785 112.892 76.1086C112.892 76.1386 112.88 76.1674 112.859 76.1888C112.801 76.2424 112.733 76.2834 112.658 76.3093C112.601 76.3093 112.544 76.3437 112.486 76.3724C112.449 76.3868 112.415 76.4061 112.383 76.4297C112.342 76.4574 112.313 76.498 112.298 76.5448C112.283 76.5916 112.285 76.642 112.303 76.6878C112.34 76.805 112.396 76.9153 112.469 77.0147C112.592 77.2108 112.756 77.3772 112.951 77.5022C113.077 77.582 113.217 77.6366 113.364 77.6627C113.41 77.6627 113.427 77.7029 113.41 77.7488C113.389 77.7902 113.355 77.8228 113.312 77.8405C113.212 77.8946 113.103 77.9314 112.991 77.9495L112.807 77.9896C112.792 77.9908 112.778 77.9963 112.765 78.0054C112.753 78.0146 112.744 78.027 112.739 78.0412C112.739 78.1101 112.739 78.1789 112.687 78.242C112.635 78.305 112.652 78.328 112.578 78.3165C112.503 78.3051 112.406 78.3165 112.314 78.2821C112.208 78.2685 112.1 78.2762 111.996 78.3048C111.893 78.3333 111.796 78.3822 111.712 78.4484C111.622 78.5167 111.528 78.5799 111.431 78.6377C111.267 78.7302 111.079 78.7735 110.891 78.7623C110.703 78.7511 110.522 78.686 110.37 78.5746C110.272 78.5058 110.186 78.437 110.089 78.3796C109.992 78.3241 109.885 78.2908 109.774 78.2821C109.631 78.2753 109.488 78.2888 109.349 78.3223C109.252 78.3223 109.24 78.3223 109.217 78.2362C109.194 78.1502 109.217 78.1215 109.177 78.0642C109.173 78.0433 109.163 78.0241 109.148 78.0096C109.132 77.9951 109.112 77.9861 109.091 77.9839C108.931 77.9656 108.774 77.923 108.627 77.8577C108.597 77.846 108.569 77.8285 108.546 77.8061C108.523 77.7885 108.505 77.7646 108.495 77.7373C108.491 77.7294 108.489 77.7207 108.489 77.712C108.49 77.7032 108.492 77.6947 108.497 77.6873C108.502 77.6798 108.508 77.6737 108.516 77.6694C108.523 77.6651 108.532 77.6628 108.541 77.6627C108.868 77.6013 109.158 77.4139 109.349 77.1409C109.447 77.0204 109.528 76.8873 109.59 76.7451C109.605 76.7124 109.614 76.6776 109.619 76.6419C109.626 76.598 109.619 76.553 109.599 76.513C109.58 76.473 109.549 76.44 109.51 76.4182C109.454 76.3789 109.392 76.3498 109.326 76.3322C109.245 76.3077 109.167 76.271 109.097 76.2233C109.08 76.2094 109.065 76.1941 109.051 76.1774C109.039 76.1671 109.029 76.1544 109.022 76.1401C109.016 76.1257 109.012 76.1101 109.012 76.0942C109.012 76.0784 109.016 76.0628 109.022 76.0484C109.029 76.034 109.039 76.0213 109.051 76.0111C109.082 75.9827 109.122 75.9648 109.164 75.9597C109.206 75.9545 109.249 75.9625 109.286 75.9824C109.353 76.0176 109.428 76.0353 109.504 76.034C109.546 76.0333 109.588 76.0215 109.624 75.9996C109.627 75.9944 109.629 75.9884 109.629 75.9824C109.629 75.9763 109.627 75.9704 109.624 75.9652C109.624 75.8046 109.624 75.6498 109.624 75.4892C109.616 75.3708 109.616 75.252 109.624 75.1336C109.627 75.0416 109.645 74.9506 109.676 74.8641C109.738 74.6879 109.838 74.5278 109.97 74.3958C110.103 74.2637 110.263 74.1631 110.439 74.1013C110.579 74.0524 110.726 74.0253 110.875 74.021Z" fill="white"/>
<path d="M160.121 58.7433C162.005 58.7433 163.533 57.2156 163.533 55.331C163.533 53.4464 162.005 51.9187 160.121 51.9187C158.236 51.9187 156.708 53.4464 156.708 55.331C156.708 57.2156 158.236 58.7433 160.121 58.7433Z" fill="#263238"/>
<path d="M161.279 54.0403C161.279 54.2672 161.212 54.4889 161.086 54.6775C160.96 54.8662 160.781 55.0132 160.571 55.1C160.362 55.1868 160.131 55.2095 159.909 55.1653C159.686 55.121 159.482 55.0118 159.321 54.8513C159.161 54.6909 159.052 54.4866 159.007 54.2641C158.963 54.0416 158.986 53.811 159.073 53.6014C159.159 53.3918 159.306 53.2126 159.495 53.0866C159.684 52.9606 159.905 52.8933 160.132 52.8933C160.436 52.8933 160.728 53.0142 160.943 53.2293C161.158 53.4444 161.279 53.7361 161.279 54.0403Z" fill="white"/>
<path d="M162.088 57.1719V57.5906H158.154V57.1719C158.154 56.6502 158.361 56.1499 158.73 55.781C159.099 55.4121 159.599 55.2048 160.121 55.2048C160.642 55.2048 161.143 55.4121 161.512 55.781C161.881 56.1499 162.088 56.6502 162.088 57.1719Z" fill="white"/>
<path d="M98.1257 43.9358C98.3291 45.8795 99.0686 47.7284 100.262 49.2763C101.455 50.8242 103.054 52.0102 104.882 52.702C106.71 53.3937 108.694 53.564 110.613 53.1938C112.532 52.8236 114.31 51.9276 115.749 50.6056L121.025 51.3798L118.387 46.7918C118.994 45.3055 119.254 43.7002 119.147 42.0983C119.04 40.4963 118.569 38.94 117.769 37.5477C116.97 36.1554 115.863 34.9638 114.534 34.0638C113.204 33.1638 111.687 32.5791 110.097 32.3541C108.507 32.1291 106.887 32.2699 105.36 32.7656C103.833 33.2613 102.439 34.099 101.285 35.2147C100.13 36.3305 99.2457 37.695 98.6983 39.2043C98.1508 40.7136 97.955 42.3279 98.1257 43.9244V43.9358Z" fill="#455A64"/>
<path d="M101.286 35.224C103.041 33.518 105.33 32.4683 107.768 32.2514C110.206 32.0345 112.645 32.6636 114.674 34.033C116.702 35.4024 118.198 37.4286 118.909 39.7708C119.62 42.1131 119.502 44.6287 118.577 46.8947V46.7169L121.197 51.3049L121.392 51.6432L121.008 51.5801L115.738 50.7715L115.864 50.7314C114.397 52.0589 112.59 52.9524 110.645 53.3121C109.679 53.4704 108.696 53.5108 107.72 53.4325C106.737 53.3433 105.772 53.1154 104.853 52.7558C103.942 52.406 103.084 51.9291 102.306 51.3393C101.916 51.0496 101.544 50.7355 101.194 50.3987C100.854 50.0506 100.534 49.6829 100.236 49.2976C98.6563 47.235 97.8887 44.6642 98.079 42.0731C98.2693 39.482 99.4043 37.0509 101.268 35.2412L101.286 35.224Z" fill="#1677F1"/>
<path d="M114.654 39.4967C114.681 39.1373 114.632 38.7763 114.509 38.4376C114.386 38.0989 114.192 37.7904 113.94 37.5326C113.688 37.2748 113.384 37.0737 113.048 36.9426C112.713 36.8116 112.353 36.7536 111.993 36.7726C109.745 36.7726 107.491 36.7726 105.237 36.7726C104.883 36.756 104.53 36.8138 104.2 36.9422C103.87 37.0706 103.57 37.2668 103.321 37.5181C103.071 37.7693 102.877 38.0701 102.751 38.401C102.624 38.7319 102.569 39.0856 102.588 39.4393C102.588 40.5863 102.588 41.6874 102.588 42.8115C102.588 43.9355 102.588 45.0137 102.588 46.1148C102.559 46.4796 102.609 46.8463 102.734 47.1903C102.859 47.5342 103.056 47.8475 103.312 48.1093C103.567 48.371 103.876 48.575 104.217 48.7078C104.558 48.8406 104.924 48.899 105.289 48.8791C107.514 48.8791 109.745 48.8791 111.97 48.8791C112.33 48.8985 112.69 48.8413 113.027 48.7115C113.363 48.5816 113.668 48.382 113.921 48.1257C114.175 47.8694 114.371 47.5623 114.498 47.2246C114.624 46.8869 114.677 46.5262 114.654 46.1664C114.666 43.947 114.666 41.7161 114.654 39.4967ZM113.576 46.1894C113.6 46.4067 113.576 46.6267 113.504 46.8332C113.432 47.0397 113.314 47.2274 113.16 47.3826C113.006 47.5378 112.819 47.6564 112.613 47.7298C112.407 47.8032 112.188 47.8294 111.97 47.8066C109.739 47.8066 107.514 47.8066 105.283 47.8066C105.066 47.8302 104.846 47.8047 104.64 47.7321C104.433 47.6594 104.246 47.5414 104.091 47.3868C103.937 47.2322 103.819 47.0449 103.746 46.8386C103.674 46.6324 103.648 46.4125 103.672 46.1951C103.672 43.947 103.672 41.6989 103.672 39.4508C103.648 39.233 103.672 39.0127 103.744 38.8057C103.816 38.5988 103.933 38.4104 104.087 38.2544C104.241 38.0984 104.428 37.9787 104.633 37.9039C104.839 37.8291 105.059 37.8011 105.277 37.8221C107.508 37.8221 109.733 37.8221 111.964 37.8221C112.182 37.8004 112.402 37.8275 112.609 37.9016C112.815 37.9757 113.002 38.0948 113.156 38.2502C113.311 38.4057 113.428 38.5936 113.501 38.8003C113.574 39.0069 113.599 39.2272 113.576 39.4451C113.576 40.592 113.576 41.6932 113.576 42.8172C113.576 43.9413 113.593 45.0653 113.576 46.1894Z" fill="white"/>
<path d="M108.627 39.6744C108.004 39.671 107.394 39.852 106.874 40.1946C106.354 40.5371 105.948 41.0258 105.705 41.5992C105.462 42.1726 105.395 42.805 105.511 43.4167C105.627 44.0283 105.921 44.592 106.357 45.0366C106.793 45.4812 107.351 45.7869 107.96 45.9151C108.569 46.0434 109.203 45.9884 109.781 45.7573C110.359 45.5261 110.856 45.1289 111.209 44.616C111.561 44.103 111.755 43.497 111.764 42.8745C111.771 42.4574 111.696 42.0431 111.542 41.6555C111.387 41.2679 111.158 40.9149 110.866 40.6171C110.574 40.3192 110.225 40.0825 109.841 39.9206C109.456 39.7588 109.044 39.6751 108.627 39.6744ZM108.592 44.9276C108.047 44.9117 107.529 44.6876 107.144 44.3016C106.759 43.9155 106.536 43.3966 106.522 42.8515C106.55 42.3131 106.784 41.8059 107.175 41.4348C107.566 41.0636 108.084 40.8566 108.624 40.8566C109.163 40.8566 109.682 41.0636 110.073 41.4348C110.464 41.8059 110.697 42.3131 110.726 42.8515C110.708 43.4053 110.475 43.9305 110.077 44.3158C109.679 44.7011 109.146 44.9164 108.592 44.9161V44.9276Z" fill="white"/>
<path d="M112.721 39.5884C112.724 39.685 112.706 39.7812 112.667 39.8698C112.629 39.9584 112.57 40.0372 112.497 40.1004C112.424 40.1636 112.338 40.2097 112.245 40.2352C112.151 40.2608 112.054 40.2651 111.958 40.2479C111.858 40.2542 111.757 40.2373 111.664 40.1986C111.571 40.1598 111.488 40.1001 111.421 40.0243C111.355 39.9484 111.307 39.8582 111.28 39.7608C111.254 39.6634 111.251 39.5612 111.27 39.4622C111.305 39.0207 111.591 38.8199 112.033 38.7913C112.132 38.7937 112.23 38.8169 112.319 38.8593C112.409 38.9017 112.489 38.9624 112.554 39.0375C112.618 39.1125 112.667 39.2003 112.696 39.2952C112.724 39.3901 112.733 39.49 112.721 39.5884Z" fill="white"/>
<path d="M130.547 26.5046C133.208 23.8439 133.208 19.5301 130.547 16.8694C127.887 14.2087 123.573 14.2087 120.912 16.8694C118.251 19.5301 118.251 23.8439 120.912 26.5046C123.573 29.1653 127.887 29.1653 130.547 26.5046Z" fill="#1677F1"/>
<g opacity="0.5">
<path opacity="0.5" d="M128.883 19.803C128.883 20.0764 128.801 20.3436 128.65 20.5709C128.498 20.7982 128.282 20.9753 128.029 21.0799C127.777 21.1846 127.499 21.2119 127.231 21.1586C126.963 21.1053 126.716 20.9736 126.523 20.7803C126.33 20.587 126.198 20.3408 126.145 20.0727C126.092 19.8046 126.119 19.5267 126.223 19.2741C126.328 19.0216 126.505 18.8057 126.733 18.6538C126.96 18.502 127.227 18.4209 127.5 18.4209C127.682 18.4209 127.862 18.4566 128.029 18.5261C128.197 18.5956 128.349 18.6974 128.478 18.8257C128.606 18.9541 128.708 19.1064 128.777 19.2741C128.847 19.4418 128.883 19.6215 128.883 19.803Z" fill="black"/>
<path opacity="0.5" d="M129.886 23.6164V24.1211H125.109V23.6164C125.139 23.0032 125.404 22.425 125.848 22.0016C126.293 21.5782 126.884 21.342 127.498 21.342C128.112 21.342 128.702 21.5782 129.147 22.0016C129.591 22.425 129.856 23.0032 129.886 23.6164Z" fill="black"/>
</g>
<path d="M125.344 20.6346C125.344 20.9079 125.263 21.1751 125.111 21.4024C124.959 21.6297 124.743 21.8069 124.491 21.9115C124.238 22.0161 123.96 22.0435 123.692 21.9901C123.424 21.9368 123.178 21.8052 122.984 21.6119C122.791 21.4186 122.66 21.1723 122.606 20.9042C122.553 20.6361 122.58 20.3582 122.685 20.1057C122.789 19.8531 122.967 19.6372 123.194 19.4854C123.421 19.3335 123.688 19.2524 123.962 19.2524C124.328 19.2524 124.68 19.3981 124.939 19.6573C125.198 19.9165 125.344 20.268 125.344 20.6346Z" fill="white"/>
<path d="M126.348 24.4424V24.9528H121.57V24.4424C121.6 23.8291 121.865 23.2509 122.31 22.8275C122.754 22.4041 123.345 22.168 123.959 22.168C124.573 22.168 125.163 22.4041 125.608 22.8275C126.053 23.2509 126.317 23.8291 126.348 24.4424Z" fill="white"/>
<path d="M102.169 59.3629C102.169 60.0434 101.967 60.7087 101.589 61.2746C101.211 61.8404 100.673 62.2815 100.045 62.5419C99.416 62.8023 98.7241 62.8705 98.0566 62.7377C97.3891 62.6049 96.776 62.2772 96.2948 61.796C95.8135 61.3148 95.4858 60.7016 95.353 60.0342C95.2203 59.3667 95.2884 58.6748 95.5489 58.0461C95.8093 57.4173 96.2503 56.8799 96.8162 56.5018C97.3821 56.1237 98.0473 55.9219 98.7279 55.9219C99.6405 55.9219 100.516 56.2844 101.161 56.9297C101.806 57.575 102.169 58.4502 102.169 59.3629Z" fill="#455A64"/>
<path d="M97.4377 60.5038H97.1567C97.073 60.5038 96.9928 60.4706 96.9336 60.4114C96.8745 60.3523 96.8412 60.2721 96.8412 60.1884C96.8412 60.1047 96.8745 60.0245 96.9336 59.9654C96.9928 59.9062 97.073 59.873 97.1567 59.873H97.5466L97.7244 58.8235H97.3746C97.2919 58.822 97.2132 58.7881 97.1553 58.7291C97.0973 58.6701 97.0649 58.5907 97.0649 58.5081C97.0663 58.4258 97.0992 58.3473 97.1569 58.2886C97.2145 58.2299 97.2924 58.1956 97.3746 58.1926H97.8334L97.9538 57.4758C97.9663 57.4019 98.0051 57.335 98.0631 57.2875C98.1211 57.2401 98.1944 57.2153 98.2693 57.2177C98.3151 57.218 98.3603 57.2282 98.4019 57.2475C98.4435 57.2668 98.4805 57.2947 98.5104 57.3295C98.5403 57.3643 98.5624 57.4051 98.5752 57.4491C98.588 57.4931 98.5912 57.5393 98.5847 57.5847L98.4757 58.1926H99.422L99.5424 57.4758C99.555 57.4008 99.5946 57.3332 99.6539 57.2856C99.7131 57.238 99.7877 57.2138 99.8636 57.2177C99.9092 57.2179 99.9543 57.228 99.9957 57.2474C100.037 57.2667 100.074 57.2948 100.103 57.3297C100.133 57.3646 100.154 57.4055 100.166 57.4495C100.178 57.4935 100.181 57.5397 100.173 57.5847L100.07 58.1926H100.351C100.434 58.1941 100.512 58.228 100.57 58.287C100.628 58.346 100.661 58.4254 100.661 58.5081C100.661 58.5907 100.628 58.6701 100.57 58.7291C100.512 58.7881 100.434 58.822 100.351 58.8235H99.9611L99.7833 59.873H100.127C100.169 59.873 100.209 59.8812 100.247 59.8971C100.285 59.913 100.32 59.9363 100.348 59.9657C100.377 59.9951 100.4 60.0299 100.415 60.0681C100.43 60.1064 100.438 60.1473 100.437 60.1884C100.437 60.2711 100.405 60.3504 100.347 60.4094C100.289 60.4684 100.21 60.5023 100.127 60.5038H99.6743L99.5424 61.2436C99.5313 61.3176 99.4939 61.385 99.437 61.4335C99.38 61.482 99.3075 61.5083 99.2327 61.5074C99.1863 61.5072 99.1405 61.4969 99.0985 61.4773C99.0564 61.4577 99.0191 61.4292 98.9891 61.3937C98.9591 61.3583 98.9372 61.3168 98.9248 61.2721C98.9124 61.2274 98.9098 61.1805 98.9173 61.1347L99.032 60.5038H98.08L97.9538 61.2436C97.9467 61.2847 97.9315 61.3239 97.9092 61.3591C97.8869 61.3943 97.8578 61.4247 97.8238 61.4487C97.7897 61.4726 97.7512 61.4897 97.7105 61.4988C97.6699 61.5079 97.6278 61.5089 97.5868 61.5017C97.5457 61.4946 97.5065 61.4794 97.4713 61.4571C97.4361 61.4347 97.4057 61.4057 97.3817 61.3716C97.3578 61.3375 97.3408 61.2991 97.3317 61.2584C97.3226 61.2178 97.3216 61.1757 97.3287 61.1347L97.4377 60.5038ZM99.1582 59.873L99.3417 58.8235H98.3954L98.2119 59.873H99.1582Z" fill="white"/>
<path d="M129.171 39.8676C130.02 38.185 129.344 36.1329 127.661 35.2841C125.979 34.4353 123.927 35.1112 123.078 36.7938C122.229 38.4763 122.905 40.5284 124.588 41.3773C126.27 42.2261 128.322 41.5502 129.171 39.8676Z" fill="#37474F"/>
<path d="M125.854 36.0786C125.56 36.1136 125.276 36.2062 125.017 36.3511C124.759 36.496 124.532 36.6904 124.349 36.9231C124.165 37.1558 124.03 37.4223 123.95 37.7075C123.87 37.9926 123.846 38.2907 123.881 38.5848C123.916 38.8789 124.009 39.1632 124.154 39.4215C124.299 39.6798 124.493 39.907 124.726 40.0902C124.959 40.2734 125.225 40.409 125.51 40.4892C125.795 40.5694 126.093 40.5926 126.387 40.5576C126.571 40.5402 126.751 40.4958 126.921 40.4257C126.947 40.4189 126.97 40.4066 126.991 40.3896C127.011 40.3726 127.028 40.3514 127.039 40.3274C127.051 40.3034 127.057 40.2772 127.057 40.2506C127.058 40.224 127.052 40.1976 127.041 40.1734C127.036 40.1515 127.026 40.131 127.012 40.1132C126.998 40.0954 126.981 40.0807 126.961 40.0701C126.934 40.0574 126.905 40.0508 126.875 40.0508C126.845 40.0508 126.816 40.0574 126.789 40.0701C126.645 40.1224 126.494 40.1552 126.342 40.1676C126.1 40.1962 125.855 40.177 125.621 40.1109C125.386 40.0448 125.167 39.9332 124.976 39.7825C124.785 39.6318 124.625 39.4449 124.506 39.2325C124.387 39.0201 124.311 38.7864 124.283 38.5446C124.254 38.3029 124.273 38.0579 124.339 37.8236C124.406 37.5892 124.517 37.3703 124.668 37.1791C124.819 36.9879 125.005 36.8283 125.218 36.7093C125.43 36.5904 125.664 36.5144 125.906 36.4858C126.147 36.457 126.391 36.476 126.625 36.5417C126.858 36.6074 127.077 36.7185 127.268 36.8687C127.458 37.0189 127.618 37.2053 127.736 37.4171C127.855 37.6289 127.93 37.862 127.959 38.103C128.002 38.3958 127.966 38.6945 127.856 38.969C127.805 39.1149 127.7 39.2359 127.563 39.3074H127.523C127.497 39.3154 127.469 39.3154 127.443 39.3074C127.42 39.27 127.402 39.2294 127.391 39.1869C127.339 38.969 127.282 38.2808 127.282 38.2751V38.1833C127.246 37.8791 127.091 37.6016 126.851 37.4118C126.611 37.2219 126.305 37.1354 126 37.1711C125.696 37.2069 125.419 37.362 125.229 37.6024C125.039 37.8427 124.952 38.1487 124.988 38.4529C125.019 38.7705 125.173 39.0634 125.418 39.2683C125.662 39.4733 125.978 39.5738 126.296 39.5483C126.581 39.5136 126.842 39.3697 127.024 39.1468V39.25C127.039 39.3654 127.089 39.4734 127.167 39.5597C127.22 39.6157 127.286 39.658 127.359 39.683C127.432 39.708 127.51 39.7149 127.586 39.7031C127.63 39.7079 127.674 39.7079 127.718 39.7031C127.96 39.5853 128.148 39.3805 128.246 39.1296C128.368 38.7941 128.407 38.4341 128.36 38.0801C128.329 37.7834 128.239 37.4959 128.096 37.2342C127.952 36.9725 127.759 36.7419 127.525 36.5557C127.292 36.3695 127.025 36.2315 126.738 36.1496C126.451 36.0677 126.15 36.0435 125.854 36.0786ZM126.215 39.1296C126.002 39.149 125.79 39.0843 125.624 38.9494C125.458 38.8145 125.351 38.6201 125.327 38.4075C125.302 38.195 125.361 37.9812 125.492 37.8118C125.623 37.6425 125.814 37.5309 126.026 37.5009C126.234 37.4896 126.437 37.5592 126.595 37.695C126.752 37.8308 126.85 38.0223 126.869 38.2292C126.901 38.4351 126.85 38.6451 126.727 38.8137C126.605 38.9823 126.421 39.0958 126.215 39.1296Z" fill="white"/>
<path d="M202.485 128.039H40.931V214.798H202.485V128.039Z" fill="#1677F1"/>
<path d="M99.5823 214.797H143.833L121.708 238.706L99.5823 214.797Z" fill="#1677F1"/>
<path d="M144.946 179.034C134.359 193.062 121.708 199.216 121.708 199.216C121.708 199.216 109.091 193.062 98.4815 179.034C90.3035 168.212 90.7107 151.266 102.41 147.601C115.348 143.546 121.708 163.022 121.708 163.022C121.708 163.022 128.16 143.42 141.018 147.601C152.677 151.409 153.124 168.23 144.946 179.034Z" fill="white"/>
<path d="M208.059 130.218C206.809 130.7 170.501 131.365 169.062 130.551C168.907 130.459 168.947 128.83 168.414 124.707C168.414 124.512 167.559 123.743 166.269 122.659C161.411 118.588 149.999 110.008 149.999 110.008L168.161 94.2656L185.722 111.522L190.31 116.013C190.31 116.013 205.146 124.042 206.614 125.08C208.082 126.118 209.31 129.713 208.059 130.218Z" fill="#EB9481"/>
<path d="M208.059 130.218C206.809 130.7 170.495 131.365 169.062 130.551C168.907 130.459 168.953 128.859 168.414 124.707C168.414 124.512 167.559 123.744 166.263 122.654C164.577 121.243 163.774 120.595 161.262 118.639L184.299 110.169L185.682 111.528L190.27 116.013C190.27 116.013 205.106 124.042 206.574 125.08C208.042 126.118 209.31 129.714 208.059 130.218Z" fill="#EBEBEB"/>
<path d="M210.566 130.723C209.304 131.159 170.616 131.583 169.222 130.723C168.895 130.522 168.591 128.28 168.35 125.2C168.322 124.81 164.405 121.679 163.866 121.1L187.574 113.117L190.568 115.933C190.568 115.933 208.013 124.053 209.441 125.154C210.87 126.256 211.822 130.287 210.566 130.723Z" fill="#263238"/>
<path d="M210.026 129.278C203.947 129.198 176.987 129.456 170.971 129.851C170.925 129.851 170.925 129.891 170.971 129.891C176.993 130.098 203.953 129.645 210.026 129.387C210.152 129.37 210.152 129.278 210.026 129.278Z" fill="#1677F1"/>
<path d="M192.501 116.19C190.109 115.772 187.184 116.19 185.378 117.911C185.309 117.98 185.406 118.077 185.481 118.054C187.757 117.29 190.108 116.771 192.495 116.506C192.537 116.507 192.577 116.491 192.607 116.462C192.637 116.433 192.655 116.393 192.655 116.351C192.656 116.309 192.64 116.269 192.611 116.239C192.582 116.209 192.542 116.191 192.501 116.19Z" fill="#1677F1"/>
<path d="M194.238 117.206C191.847 116.787 188.922 117.206 187.115 118.926C187.046 118.995 187.144 119.092 187.219 119.069C189.494 118.302 191.845 117.783 194.232 117.521C194.274 117.522 194.315 117.506 194.345 117.477C194.375 117.448 194.392 117.408 194.393 117.366C194.394 117.324 194.378 117.284 194.349 117.254C194.32 117.224 194.28 117.206 194.238 117.206Z" fill="#1677F1"/>
<path d="M195.982 118.244C193.584 117.825 190.665 118.244 188.853 119.964C188.784 120.033 188.882 120.13 188.956 120.108C191.233 119.34 193.587 118.82 195.976 118.559C196.018 118.56 196.058 118.544 196.088 118.515C196.118 118.486 196.136 118.446 196.136 118.404C196.137 118.362 196.121 118.322 196.092 118.292C196.063 118.262 196.023 118.244 195.982 118.244Z" fill="#1677F1"/>
<path d="M197.719 119.247C195.322 118.829 192.403 119.247 190.591 120.968C190.522 121.037 190.62 121.134 190.694 121.105C192.972 120.342 195.325 119.825 197.714 119.563C197.756 119.564 197.796 119.548 197.826 119.519C197.856 119.49 197.874 119.45 197.874 119.408C197.875 119.366 197.859 119.326 197.83 119.296C197.801 119.265 197.761 119.248 197.719 119.247Z" fill="#1677F1"/>
<path d="M196.836 110.605C195.884 109.326 194.141 109.928 193.154 110.777C191.481 112.266 190.233 114.171 189.536 116.3C189.536 116.346 189.536 116.374 189.593 116.386C189.592 116.432 189.602 116.478 189.622 116.52C189.642 116.562 189.672 116.599 189.709 116.627C189.745 116.655 189.788 116.675 189.834 116.684C189.88 116.693 189.927 116.691 189.971 116.678C191.933 115.921 194.129 115.359 195.804 114.023C196.802 113.243 197.759 111.821 196.836 110.605ZM192.713 114.923C191.755 115.319 190.786 115.663 189.845 116.07C190.518 114.974 191.247 113.914 192.03 112.893C192.412 112.402 192.83 111.94 193.28 111.511C193.98 110.851 196.785 109.441 196.395 112.084C196.194 113.541 193.877 114.453 192.73 114.923H192.713Z" fill="#1677F1"/>
<path d="M183.468 115.743C185.446 116.563 187.712 116.494 189.811 116.672C189.858 116.672 189.904 116.66 189.945 116.639C189.987 116.617 190.023 116.586 190.05 116.548C190.077 116.51 190.095 116.466 190.103 116.42C190.11 116.374 190.106 116.327 190.092 116.282C190.101 116.279 190.109 116.273 190.116 116.266C190.123 116.259 190.128 116.25 190.131 116.241C190.134 116.231 190.134 116.221 190.132 116.211C190.13 116.202 190.126 116.193 190.12 116.185C188.858 114.337 187.131 112.853 185.114 111.884C183.927 111.344 182.086 111.247 181.524 112.749C180.962 114.252 182.309 115.267 183.468 115.743ZM182.367 114.051C181.26 111.637 184.34 112.21 185.2 112.646C185.75 112.939 186.28 113.266 186.788 113.627C187.849 114.367 188.79 115.238 189.771 116.076C188.744 115.921 187.712 115.864 186.685 115.749C185.458 115.617 182.975 115.376 182.367 114.051Z" fill="#1677F1"/>
<path d="M185.94 110.559L163.573 122.166C163.573 122.166 140.238 101.045 138.099 100.89C135.959 100.735 104.566 122.035 88.7779 122.109C72.4046 122.178 71.573 105.03 71.573 105.03L95.4534 99.5478C112.658 91.06 130.592 75.828 142.32 77.2502C155.028 78.7815 185.94 110.559 185.94 110.559Z" fill="#37474F"/>
<path d="M180.474 107.605C176.695 109.475 177.756 108.89 173.994 110.794C172.153 111.729 162.891 116.403 161.319 117.561C161.285 117.561 161.319 117.647 161.36 117.636C163.206 117.016 172.365 112.142 174.189 111.172C177.916 109.2 176.827 109.727 180.532 107.732C180.54 107.728 180.547 107.722 180.553 107.716C180.56 107.709 180.565 107.701 180.568 107.693C180.571 107.684 180.572 107.675 180.572 107.666C180.572 107.657 180.57 107.648 180.566 107.64C180.562 107.631 180.557 107.624 180.55 107.618C180.544 107.612 180.536 107.607 180.527 107.604C180.519 107.6 180.51 107.599 180.501 107.599C180.491 107.599 180.482 107.602 180.474 107.605Z" fill="#263238"/>
<path d="M159.559 116.816C155.183 112.956 140.834 100.385 140.249 99.9206C139.799 99.4814 139.298 99.0964 138.758 98.7736C138.534 98.6857 138.293 98.6503 138.054 98.6702C137.814 98.6901 137.582 98.7647 137.376 98.8883C136.711 99.1979 136.063 99.5363 135.403 99.8575L131.521 101.75C126.502 104.205 121.513 106.716 116.455 109.085C111.592 111.379 108.122 113.507 103.041 115.256C97.9937 117.038 92.7728 118.284 87.4646 118.972C86.8051 119.052 86.1513 119.121 85.4975 119.184C85.4914 119.182 85.4848 119.181 85.4783 119.182C85.4718 119.182 85.4655 119.185 85.4601 119.188C85.4546 119.192 85.4502 119.197 85.4471 119.203C85.4441 119.209 85.4424 119.215 85.4424 119.222C85.4424 119.228 85.4441 119.235 85.4471 119.24C85.4502 119.246 85.4546 119.251 85.4601 119.255C85.4655 119.258 85.4718 119.261 85.4783 119.261C85.4848 119.262 85.4914 119.261 85.4975 119.259C90.7084 118.943 95.8597 117.979 100.833 116.391C105.862 114.849 109.275 112.836 114.058 110.656C119.007 108.362 123.887 105.937 128.774 103.511C131.349 102.232 133.935 100.941 136.504 99.6739C137.078 99.3872 137.927 98.7621 138.598 99.0718C138.877 99.2288 139.136 99.4216 139.366 99.6453L140.226 100.362C141.339 101.285 158.922 116.42 159.501 116.867C159.559 116.913 159.628 116.856 159.559 116.816Z" fill="#263238"/>
<path d="M71.4982 105.019C71.4982 105.019 68.82 120.503 76.5622 126.588C84.3044 132.673 141.035 131.939 149.643 129.14C158.251 126.342 158.521 112.469 149.11 109.251C140.163 106.189 102.083 104.698 101.148 104.325C100.913 104.233 104.52 102.065 104.509 101.934L95.8431 99.3184L71.4982 105.019Z" fill="#37474F"/>
<path d="M83.2494 104.629C83.2494 104.56 83.1404 104.583 83.1404 104.629C83.1392 106.429 82.5036 108.171 81.3454 109.549C80.032 111.069 78.0879 111.924 76.3273 112.813C76.1552 112.899 76.2814 113.163 76.4592 113.111C77.5415 112.779 78.584 112.329 79.5675 111.769C80.4728 111.289 81.2693 110.627 81.9074 109.825C82.4793 109.099 82.894 108.263 83.125 107.368C83.3561 106.473 83.3984 105.541 83.2494 104.629Z" fill="#263238"/>
<path d="M100.523 102.708C100.127 102.209 99.7029 101.727 99.29 101.24C98.3208 100.093 97.3458 98.9456 96.3307 97.7986C96.2332 97.6954 96.044 97.8445 96.1358 97.9592C96.8182 98.8538 97.5408 99.7198 98.2577 100.592C98.619 101.039 98.986 101.486 99.3588 101.928C99.7421 102.328 100.086 102.764 100.385 103.23C100.442 103.329 100.471 103.442 100.47 103.557C100.469 103.671 100.437 103.784 100.379 103.882C100.321 103.981 100.238 104.063 100.139 104.119C100.039 104.176 99.9264 104.205 99.8119 104.205C99.3559 104.219 98.912 104.057 98.5731 103.751C97.8039 103.07 97.1011 102.317 96.4741 101.503C96.0612 101.045 95.654 100.586 95.2411 100.133C94.8282 99.6797 94.3292 99.1922 93.8876 98.7105C93.8876 98.6818 93.8074 98.7105 93.8303 98.7563C94.2145 99.284 94.5701 99.8345 94.9773 100.362C95.3845 100.89 95.7515 101.412 96.153 101.934C96.5544 102.455 96.9157 102.903 97.2999 103.373C97.6327 103.789 98.0318 104.148 98.4814 104.434C99.2154 104.864 100.494 104.962 100.89 104.01C100.947 103.779 100.943 103.538 100.879 103.31C100.815 103.082 100.692 102.874 100.523 102.708Z" fill="#263238"/>
<path d="M148.467 129.209C145.502 129.266 142.543 129.438 139.578 129.502C136.613 129.565 133.694 129.576 130.758 129.553C124.851 129.496 118.95 129.266 113.054 128.865C107.101 128.452 100.678 127.856 94.7652 127.041C91.9379 126.646 89.0646 126.319 86.2717 125.716C83.7541 125.234 81.4276 124.04 79.5675 122.275C75.7366 118.559 74.2512 113.1 73.6376 107.875C73.5573 107.175 73.4885 106.476 73.4311 105.77C73.4311 105.761 73.4275 105.752 73.421 105.746C73.4146 105.739 73.4058 105.736 73.3967 105.736C73.3876 105.736 73.3788 105.739 73.3724 105.746C73.3659 105.752 73.3623 105.761 73.3623 105.77C73.7064 111.121 74.538 116.701 77.9044 121.002C79.3266 122.878 81.2176 124.345 83.387 125.258C86.0366 126.319 88.9729 126.565 91.7715 126.949C97.7072 127.752 104.153 128.372 110.123 128.836C116.094 129.301 122.167 129.593 128.183 129.685C134.199 129.777 140.226 129.685 146.259 129.393C146.994 129.352 147.728 129.312 148.462 129.249C148.508 129.272 148.508 129.209 148.467 129.209Z" fill="#263238"/>
<path d="M129.783 106.447C127.913 106.172 126.055 105.873 124.18 105.707C122.304 105.541 120.389 105.34 118.491 105.179C114.734 104.864 110.972 104.577 107.21 104.399C105.071 104.302 102.937 104.29 100.798 104.319C100.729 104.319 100.735 104.417 100.798 104.422C104.56 104.761 108.328 104.996 112.096 105.248C115.864 105.501 119.609 105.822 123.365 106.189C125.493 106.389 127.621 106.55 129.748 106.722C129.909 106.734 129.938 106.47 129.783 106.447Z" fill="#263238"/>
<path d="M104.95 101.761C103.449 102.404 102.005 103.171 100.632 104.055C99.2295 104.893 97.888 105.828 96.6175 106.854C96.5831 106.883 96.6175 106.929 96.6634 106.912C98.1258 106.235 99.5309 105.386 100.93 104.572C102.348 103.781 103.715 102.903 105.025 101.945C105.128 101.893 105.077 101.71 104.95 101.761Z" fill="#263238"/>
<path d="M121.215 53.0943L115.795 68.3493C115.741 68.4327 115.71 68.5286 115.704 68.6277C115.699 68.7268 115.719 68.8256 115.763 68.9146C115.807 69.0036 115.873 69.0797 115.955 69.1355C116.037 69.1912 116.132 69.2246 116.231 69.2325L124.3 69.9953C124.548 69.9989 124.792 69.9324 125.004 69.8036C125.216 69.6748 125.388 69.4888 125.499 69.2669L130.918 54.0119C131.131 53.5646 130.918 53.1689 130.483 53.1287L122.413 52.366C122.165 52.361 121.921 52.4269 121.708 52.5559C121.496 52.6848 121.325 52.8716 121.215 53.0943Z" fill="#37474F"/>
<path d="M122.172 53.1804L116.753 68.4469C116.7 68.5301 116.67 68.6255 116.665 68.7238C116.66 68.8221 116.681 68.92 116.724 69.0081C116.768 69.0962 116.834 69.1716 116.915 69.227C116.997 69.2824 117.091 69.3159 117.189 69.3244L125.258 70.0699C125.505 70.0747 125.749 70.0094 125.961 69.8816C126.174 69.7537 126.345 69.5685 126.456 69.3473L131.876 54.0808C132.088 53.6335 131.876 53.2435 131.44 53.1976L123.371 52.4349C123.121 52.4322 122.875 52.5009 122.663 52.6329C122.451 52.765 122.281 52.955 122.172 53.1804Z" fill="#455A64"/>
<path d="M124.318 54.1038C124.291 54.2801 124.196 54.4388 124.053 54.546C123.911 54.6532 123.732 54.7003 123.555 54.6773C123.461 54.6715 123.37 54.6467 123.287 54.6044C123.203 54.5621 123.129 54.5033 123.069 54.4315C123.009 54.3597 122.965 54.2764 122.938 54.1867C122.911 54.0971 122.903 54.0029 122.914 53.91C122.925 53.8171 122.955 53.7274 123.002 53.6464C123.048 53.5654 123.111 53.4948 123.186 53.4388C123.261 53.3829 123.347 53.3428 123.438 53.3211C123.529 53.2994 123.623 53.2964 123.715 53.3124C123.808 53.3221 123.898 53.3506 123.979 53.3963C124.06 53.4419 124.131 53.5038 124.188 53.5779C124.244 53.652 124.285 53.737 124.307 53.8274C124.329 53.9178 124.333 54.0119 124.318 54.1038Z" fill="#263238"/>
<path d="M92.299 77.342C97.0476 87.0341 107.554 99.5478 111.798 99.5363C113.828 99.5363 117.453 99.9492 120.073 97.5749C125.808 92.4135 130.867 82.9852 132.117 77.7664C132.581 75.8107 122.018 70.8844 120.647 72.5361C117.355 76.3785 113.61 83.834 113.019 83.834C110.811 83.6734 102.209 76.7169 96.1529 71.7905C88.8236 65.8606 90.4007 73.511 92.299 77.342Z" fill="#EB9481"/>
<path d="M133.115 68.5103C132.513 64.4098 131.727 63.4463 133.063 59.7186C133.935 57.2697 132.748 55.6582 130.769 57.4934C127.518 60.4871 127.179 65.941 127.604 67.868L133.115 68.5103Z" fill="#EB9481"/>
<path d="M131.177 80.3298C131.177 80.3298 133.539 74.9447 133.333 70.5058C133.19 67.4433 132.134 60.8022 124.031 56.5182C122.11 55.5031 118.651 55.4171 121.163 58.2387C122.964 60.2288 124.708 60.9456 125.545 62.2933C125.545 62.2933 121.135 62.7063 120.188 64.6734C119.366 66.3904 118.664 68.163 118.089 69.9782C118.4 70.1595 118.722 70.3204 119.053 70.4599C119.053 70.4599 118.227 72.3295 119.374 75.22L131.177 80.3298Z" fill="#EB9481"/>
<path d="M132.725 67.6039C131.612 66.4569 129.215 64.0195 126.56 62.7177C123.612 61.2782 117.544 59.2767 116.501 61.4789C115.738 63.0847 117.986 64.0424 117.986 64.0424C117.986 64.0424 115.308 63.75 114.935 65.35C114.591 66.8067 116.374 67.449 116.374 67.449C116.374 67.449 114.723 67.5522 114.654 69.0204C114.585 70.781 118.066 70.2763 119.54 72.1287C119.884 72.5417 132.725 67.6039 132.725 67.6039Z" fill="#EB9481"/>
<path d="M125.556 66.09C123.322 64.6463 120.702 63.918 118.043 64.0024C117.975 64.0024 117.946 64.0598 118.003 64.0713C120.589 64.4454 123.119 65.133 125.539 66.1186C125.539 66.1186 125.568 66.0957 125.556 66.09Z" fill="#263238"/>
<path d="M124.002 69.0203C121.654 67.802 119.021 67.2393 116.38 67.3916C116.311 67.3916 116.283 67.4547 116.346 67.4604C118.95 67.6973 121.519 68.2303 124.002 69.049C124.002 69.049 124.002 69.0318 124.002 69.0203Z" fill="#263238"/>
<path d="M95.3731 84.7228L107.417 79.9226C107.417 79.9226 96.5832 70.6091 92.626 68.7681C88.17 66.6978 88.084 69.4277 89.6496 73.8321C91.2153 78.2366 95.3731 84.7228 95.3731 84.7228Z" fill="#1677F1"/>
<path d="M95.3731 84.7228L107.417 79.9226C107.417 79.9226 96.5832 70.6091 92.626 68.7681C88.17 66.6978 88.084 69.4277 89.6496 73.8321C91.2153 78.2366 95.3731 84.7228 95.3731 84.7228Z" fill="#1677F1"/>
<path d="M104.899 78.4543C104.451 78.5576 100.666 79.9913 99.852 80.324C99.0376 80.6566 95.6827 81.9699 94.8683 82.3771C94.8622 82.3797 94.8569 82.3842 94.8533 82.3898C94.8496 82.3954 94.8477 82.4019 94.8477 82.4086C94.8477 82.4153 94.8496 82.4219 94.8533 82.4275C94.8569 82.4331 94.8622 82.4375 94.8683 82.4402C95.74 82.1878 99.1237 80.8745 99.961 80.5533C100.798 80.2322 104.515 78.7296 104.899 78.5117C104.906 78.5117 104.914 78.5087 104.919 78.5033C104.924 78.4979 104.927 78.4906 104.927 78.483C104.927 78.4754 104.924 78.4681 104.919 78.4627C104.914 78.4574 104.906 78.4543 104.899 78.4543Z" fill="#263238"/>
<path d="M100.03 82.8704L95.3729 84.7171C95.3729 84.7171 91.2437 78.2308 89.6781 73.8207C88.5311 70.6033 88.273 68.2749 89.9533 68.0857L100.03 82.8704Z" fill="#263238"/>
<path d="M103.706 101.486L70.7929 107.921C70.7413 107.238 72.9952 86.822 75.7422 79.0683C79.2635 69.1354 81.546 68.1088 82.8994 67.4436C84.6199 66.5891 87.8889 66.5432 88.6975 66.8185C89.6093 67.1281 92.9127 71.6301 94.3006 75.0539C97.0877 81.9244 104.102 101.005 103.706 101.486Z" fill="#1677F1"/>
<path opacity="0.1" d="M89.6551 67.644L80.416 69.439C80.6356 69.1671 80.8691 68.9068 81.1157 68.659L89.1446 67.1106C89.3245 67.2788 89.4949 67.4569 89.6551 67.644ZM90.5612 68.7279L79.3895 70.8899C79.2518 71.1079 79.1084 71.3487 78.9651 71.6068L90.9741 69.2842C90.8307 69.0892 90.6988 68.9228 90.5612 68.7279ZM91.7483 70.3853L78.2253 73.0004L77.8926 73.7058L92.1096 70.953C91.9949 70.758 91.8859 70.5745 91.7483 70.3853ZM92.7978 72.0771L77.2847 75.0822C77.1872 75.3059 77.0897 75.541 76.998 75.7819L93.1247 72.6563C93.0329 72.4671 92.9125 72.2663 92.7978 72.0771ZM93.7326 73.7976L76.4532 77.1411C76.3671 77.3647 76.2868 77.5884 76.1951 77.8235L94.0079 74.3825C93.9219 74.1875 93.8301 73.9868 93.7326 73.7976ZM94.5011 75.5181L75.7076 79.1598C75.6273 79.3777 75.5528 79.6013 75.4782 79.8422L94.7534 76.126C94.6502 75.9252 94.5699 75.7245 94.5011 75.5353V75.5181ZM95.195 77.2787L75.0825 81.1727C75.0252 81.3964 74.9563 81.6201 74.899 81.8495L95.4244 77.8751C95.3269 77.6916 95.2696 77.4909 95.195 77.2959V77.2787ZM95.8775 79.0393L74.5778 83.1685C74.5205 83.3807 74.4689 83.6044 74.4172 83.8338L96.1012 79.63C96.0209 79.4522 95.952 79.2458 95.9004 79.0565L95.8775 79.0393ZM96.5485 80.8057L74.1076 85.1643L73.9699 85.8295L96.7607 81.4193C96.6976 81.2129 96.6288 81.0179 96.5485 80.8229V80.8057ZM97.2195 82.5721L73.7061 87.1199L73.5799 87.7851L97.4259 83.1972C97.3686 82.9907 97.2883 82.7843 97.2195 82.5893V82.5721ZM97.879 84.3384L73.3563 89.087C73.3161 89.2992 73.2817 89.5228 73.2473 89.7465L98.1027 84.9291C98.0224 84.7514 97.9535 84.5506 97.879 84.3556V84.3384ZM98.5328 86.0991L73.0179 91.0483C72.9778 91.2663 72.9434 91.4842 72.9032 91.7021L98.7679 86.7012C98.6819 86.5177 98.6073 86.3227 98.5328 86.1277V86.0991ZM99.1866 87.8712L72.6968 93.0326C72.6623 93.2563 72.6222 93.4742 72.5878 93.6922L99.4045 88.4963C99.3414 88.2784 99.2554 88.0834 99.1866 87.8884V87.8712ZM99.8346 89.6375L72.3871 94.9711C72.3527 95.1833 72.3182 95.4069 72.2896 95.6248L100.035 90.2512C99.978 90.0562 99.9149 89.8497 99.8346 89.6547V89.6375ZM100.465 91.4096L72.1061 96.9037C72.1061 97.1274 72.043 97.3396 72.0143 97.5575L100.689 92.0061C100.609 91.8283 100.54 91.6276 100.488 91.4269L100.465 91.4096ZM101.102 93.1818L71.8537 98.8536C71.8537 99.0716 71.7906 99.2895 71.762 99.5017L101.326 93.7667C101.245 93.5832 101.171 93.3997 101.102 93.199V93.1818ZM101.721 94.9539L71.5784 100.809C71.5478 101.035 71.5192 101.253 71.4924 101.463L101.928 95.5675C101.865 95.3668 101.79 95.1718 101.721 94.9711V94.9539ZM102.335 96.7317L71.3318 102.759C71.3318 102.977 71.2802 103.201 71.2573 103.407L102.542 97.3511C102.473 97.1561 102.41 96.9496 102.335 96.7489V96.7317ZM102.909 98.5095L71.091 104.675C71.091 104.904 71.0336 105.116 71.0164 105.323L103.132 99.106L102.909 98.5095ZM103.482 100.299L70.9017 106.607C70.9017 106.86 70.8616 107.083 70.8444 107.261L103.643 100.907C103.597 100.752 103.545 100.545 103.476 100.316L103.482 100.299Z" fill="#030402"/>
<path d="M80.1981 69.7199C68.9461 81.4364 52.5384 111.103 50.5082 115.376C49.1318 118.243 64.2263 125.871 64.8456 123.772C65.6657 121.082 78.816 87.8825 82.3143 75.3574C84.2585 68.4295 82.5265 67.2997 80.1981 69.7199Z" fill="#EB9481"/>
<path d="M65.5799 121.771C65.0523 123.21 63.2859 129.318 62.007 130.081C60.7281 130.843 54.173 130.654 50.8582 130.654C47.5434 130.654 46.8896 129.731 46.947 128.59C47.0043 127.448 53.9551 127.23 53.9551 127.23C53.9551 127.23 44.6645 129.891 42.3246 130.327C39.9847 130.763 34.6053 132.122 33.8254 130.184C33.4755 129.312 34.9724 128.423 34.9724 128.423C34.9724 128.423 32.7128 129.089 32.3515 127.964C31.9443 126.686 33.7393 125.98 33.7393 125.98C33.7393 125.98 32.3285 126.261 32.2941 125.223C32.2196 122.895 41.0572 121.748 41.0572 121.748C41.0572 121.748 34.2899 125.045 34.072 123.141C33.7508 120.538 47.618 117.67 49.0632 116.523C50.0008 115.72 50.7789 114.747 51.3572 113.656L65.5799 121.771Z" fill="#EB9481"/>
<path d="M46.9928 129.192C46.9695 129.029 46.9861 128.863 47.041 128.708C47.096 128.554 47.1877 128.414 47.3083 128.303C47.5465 128.085 47.8199 127.908 48.1169 127.781C48.7289 127.516 49.3644 127.308 50.0152 127.162C51.3227 126.829 52.6647 126.588 53.9952 126.25C52.6161 126.23 51.24 126.386 49.9005 126.714C49.218 126.868 48.5613 127.119 47.9506 127.46C47.6324 127.635 47.3534 127.873 47.1305 128.16C47.0227 128.306 46.9536 128.478 46.9296 128.658C46.9055 128.838 46.9273 129.022 46.9928 129.192Z" fill="#263238"/>
<path d="M34.9495 128.446C35.9015 128.217 36.8477 127.947 37.8169 127.672C38.7862 127.397 39.6923 127.098 40.6271 126.829L43.4257 125.951C44.3586 125.661 45.2953 125.374 46.2359 125.091C45.258 125.197 44.2884 125.369 43.334 125.607C42.3762 125.825 41.43 126.1 40.4665 126.387C39.503 126.674 38.5969 126.961 37.6793 127.333C36.7617 127.706 35.8384 128.033 34.9495 128.446Z" fill="#263238"/>
<path d="M43.9649 122.769C43.0623 122.827 42.1653 122.952 41.281 123.142C40.3962 123.319 39.5214 123.543 38.6601 123.813C37.7958 124.081 36.9475 124.399 36.1195 124.765C35.2902 125.12 34.4871 125.534 33.7166 126.003C34.5711 125.705 35.4026 125.378 36.2514 125.097C37.1002 124.816 37.9719 124.524 38.7977 124.26C39.6236 123.996 40.5182 123.738 41.367 123.486C42.2158 123.233 43.0932 123.004 43.9649 122.769Z" fill="#263238"/>
<path d="M42.5942 120.538C41.1388 120.65 39.7043 120.953 38.3274 121.438C36.9415 121.897 35.6225 122.537 34.4047 123.342C35.7753 122.855 37.1116 122.333 38.4765 121.88C39.8414 121.427 41.2121 120.996 42.5942 120.538Z" fill="#263238"/>
<path d="M68.9062 81.8611L81.5691 82.3084C82.4766 79.1297 83.2194 75.9062 83.7942 72.6507C84.4308 67.9882 82.848 66.6577 78.4951 70.4428C75.576 72.9776 68.9062 81.8611 68.9062 81.8611Z" fill="#1677F1"/>
<path d="M80.0262 82.2566C80.5362 82.2306 81.0473 82.2306 81.5574 82.2566C81.7409 81.5283 81.9187 80.7999 82.1309 80.0773C82.2265 79.7179 82.3297 79.3566 82.4406 78.9934C82.561 78.6034 82.6757 78.1446 82.7847 77.7948C82.7847 77.7432 82.8707 77.7547 82.8592 77.7948C82.7675 78.2651 82.6815 78.6092 82.6012 79.0163C82.5209 79.4235 82.4463 79.7389 82.3546 80.0945C82.1653 80.8515 81.9933 81.6659 81.7811 82.3885C81.2052 82.3807 80.6304 82.3347 80.0606 82.2509C80.0606 82.2509 80.0032 82.2566 80.0262 82.2566Z" fill="#263238"/>
<path d="M70.2309 80.7028C72.0776 80.6397 73.9242 80.6053 75.7709 80.6512C76.6942 80.6512 77.6175 80.7143 78.5351 80.7659C79.4527 80.8175 80.3703 80.9609 81.2936 80.9953C81.3043 80.9953 81.3145 80.9995 81.322 81.0071C81.3296 81.0146 81.3338 81.0248 81.3338 81.0354C81.3338 81.0461 81.3296 81.0563 81.322 81.0638C81.3145 81.0714 81.3043 81.0756 81.2936 81.0756C80.3818 80.9896 79.447 81.0297 78.5294 80.9953C77.6118 80.9609 76.6827 80.9265 75.7651 80.8978C73.9242 80.8462 72.0776 80.7946 70.2366 80.7831C70.1735 80.7831 70.185 80.7085 70.2309 80.7028Z" fill="#263238"/>
<path d="M89.2194 73.6024C87.2982 74.0841 83.9949 71.2166 82.6644 68.9226C82.6954 67.5976 82.793 66.275 82.9568 64.9598C83.0486 63.6924 83.1289 62.2758 83.106 60.9797C83.106 60.7102 91.2725 62.8092 91.2725 62.8092C90.8373 64.4375 90.6043 66.1133 90.5786 67.7986C90.5841 67.9779 90.6052 68.1563 90.6417 68.3319C90.6452 68.3605 90.6452 68.3894 90.6417 68.418C90.8367 69.3986 91.0546 73.1321 89.2194 73.6024Z" fill="#EB9481"/>
<path d="M83.6049 60.9744C84.0178 63.1594 85.4802 68.4298 89.8216 68.4298C90.0998 68.4325 90.3779 68.4133 90.6531 68.3725C90.6566 68.342 90.6566 68.3112 90.6531 68.2807C90.6175 68.1067 90.5945 67.9304 90.5843 67.7531C90.6136 66.0639 90.8485 64.3846 91.284 62.7522C91.284 62.7522 85.377 61.2668 83.6049 60.9744Z" fill="#263238"/>
<path d="M82.0507 58.0953C82.0507 58.0953 78.6957 54.4593 79.8427 50.7087C80.4965 48.5122 83.7253 47.7724 83.6335 47.5831C83.6335 47.5831 88.9212 42.8747 91.7714 45.2891C94.4669 47.5831 94.8683 54.6486 94.8683 54.6486L82.0507 58.0953Z" fill="#263238"/>
<path d="M84.4307 46.9466C84.4307 46.9466 88.7606 43.3164 90.8538 43.454C92.9471 43.5917 89.942 45.4498 89.942 45.4498L84.4307 46.9466Z" fill="#263238"/>
<path d="M87.4014 46.2987C87.4014 46.2987 91.2381 43.8843 92.884 44.8363C94.5299 45.7883 89.2366 46.3044 87.4014 46.2987Z" fill="#263238"/>
<path d="M83.3696 47.9445C83.3696 47.9445 85.1704 44.8935 86.5181 44.2225C87.8658 43.5515 87.2981 45.857 83.3696 47.9445Z" fill="#263238"/>
<path d="M83.6393 47.7036C81.5345 48.4549 79.2176 49.7223 79.0513 52.2113C78.885 54.4651 80.3818 56.4552 82.108 57.7341C82.1205 57.7402 82.1347 57.7421 82.1483 57.7394C82.1619 57.7367 82.1743 57.7295 82.1834 57.719C82.1926 57.7086 82.198 57.6954 82.1989 57.6815C82.1998 57.6676 82.1961 57.6538 82.1883 57.6423C80.6571 56.2372 79.166 54.6315 79.2405 52.4006C79.3208 49.7911 81.6492 48.7646 83.6909 47.8126C83.731 47.7782 83.7024 47.7036 83.6393 47.7036Z" fill="#263238"/>
<path d="M91.3472 43.1157C89.3973 42.9322 87.5564 44.1021 86.3807 45.5817C86.3768 45.5917 86.3761 45.6027 86.3788 45.6132C86.3814 45.6236 86.3873 45.6329 86.3955 45.6399C86.4037 45.6468 86.4139 45.6511 86.4246 45.6519C86.4353 45.6528 86.4461 45.6503 86.4553 45.6448C87.8776 44.2111 89.2712 43.2992 91.3415 43.1673L91.3472 43.1157Z" fill="#263238"/>
<path d="M90.2977 45.0711C91.1437 44.5717 92.1416 44.3945 93.1078 44.5722C92.6307 44.452 92.1336 44.4344 91.6493 44.5204C91.1649 44.6064 90.7042 44.7941 90.2977 45.0711Z" fill="#263238"/>
<path d="M81.5632 51.7984C80.8004 54.7175 82.6528 62.9816 84.7748 64.7537C87.8545 67.3287 92.7292 67.3918 94.8741 63.7271C96.9558 60.1772 94.3464 49.4471 92.0066 47.8527C88.5369 45.5014 82.7102 47.4914 81.5632 51.7984Z" fill="#EB9481"/>
<path d="M90.1313 61.9436C90.2976 62.0411 90.4697 62.1959 90.6704 62.1672C90.8781 62.1179 91.0734 62.0261 91.2439 61.8977C91.2439 61.8977 91.2783 61.8977 91.2726 61.8977C91.217 62.0251 91.1279 62.1351 91.0148 62.2159C90.9017 62.2967 90.7688 62.3453 90.6303 62.3565C90.5101 62.3504 90.3944 62.3091 90.2975 62.2377C90.2006 62.1663 90.1269 62.068 90.0854 61.9551C90.0854 61.9551 90.1084 61.9264 90.1313 61.9436Z" fill="#263238"/>
<path d="M90.3549 60.1428C90.544 60.3334 90.7706 60.4827 91.0203 60.5814C91.27 60.6802 91.5375 60.7261 91.8058 60.7163C92.0396 60.7074 92.2711 60.6669 92.494 60.5958C92.5373 60.5867 92.5796 60.5733 92.6202 60.5557L92.7406 60.5098C92.7692 60.4976 92.793 60.4765 92.8085 60.4496C92.824 60.4227 92.8304 60.3915 92.8267 60.3607V60.3033V60.2575C92.7464 59.8273 92.5629 59.1793 92.5629 59.1793C92.7349 59.2252 93.6124 59.4144 93.555 59.1793C93.0829 57.2546 92.4161 55.383 91.565 53.5934C91.5596 53.5805 91.5494 53.5702 91.5365 53.5648C91.5236 53.5595 91.5091 53.5594 91.4962 53.5648C91.4832 53.5701 91.4729 53.5803 91.4676 53.5932C91.4622 53.6061 91.4622 53.6207 91.4675 53.6336C91.8919 55.4114 92.6145 57.0746 93.0847 58.8868C92.7708 58.8155 92.4482 58.7904 92.127 58.8123C92.0696 58.8123 92.5055 60.0453 92.5284 60.246C92.1847 60.3598 91.8215 60.4027 91.4607 60.3721C91.1 60.3416 90.7491 60.2382 90.4295 60.0682C90.3492 60.0625 90.3147 60.1084 90.3549 60.1428Z" fill="#263238"/>
<path d="M92.196 60.4352C92.027 60.7932 91.7681 61.1015 91.4447 61.3298C91.2646 61.4483 91.0523 61.5083 90.8368 61.5019C90.3665 61.5019 90.2633 61.0775 90.2633 60.7105C90.2662 60.5167 90.2931 60.3241 90.3436 60.137C90.9137 60.4307 91.5625 60.5352 92.196 60.4352Z" fill="#263238"/>
<path d="M91.4447 61.3298C91.2646 61.4482 91.0523 61.5083 90.8368 61.5018C90.3665 61.5018 90.2633 61.0774 90.2633 60.7104C90.5013 60.664 90.748 60.7 90.9628 60.8126C91.1775 60.9252 91.3475 61.1076 91.4447 61.3298Z" fill="#FF98B9"/>
<path d="M89.6723 56.4666C89.6723 56.4666 89.6322 56.501 89.6379 56.5239C89.7698 57.0974 89.8271 57.734 89.3569 58.0207C89.3569 58.0207 89.3569 58.0609 89.3569 58.0207C89.9648 57.8429 89.8845 56.9712 89.6723 56.4666Z" fill="#263238"/>
<path d="M89.0533 55.9792C88.1414 56.0939 88.4339 57.9119 89.2827 57.8029C90.1314 57.694 89.8217 55.8874 89.0533 55.9792Z" fill="#263238"/>
<path d="M92.9817 55.8127C92.9817 55.8127 93.0276 55.8127 93.0333 55.8529C93.1079 56.4264 93.2857 57.0515 93.8248 57.1605C93.1882 57.2006 92.9588 56.3576 92.9817 55.8127Z" fill="#263238"/>
<path d="M93.3886 55.1592C94.2832 54.947 94.6445 56.7478 93.8187 56.9485C92.9929 57.1492 92.6373 55.3198 93.3886 55.1592Z" fill="#263238"/>
<path d="M88.0838 55.4629C88.3202 55.3734 88.5518 55.272 88.7778 55.159C89.0352 55.0843 89.2608 54.9272 89.4201 54.7116C89.4572 54.6343 89.4678 54.5468 89.4502 54.4628C89.4325 54.3788 89.3877 54.303 89.3226 54.2471C89.175 54.1598 89.0066 54.1138 88.8351 54.1138C88.6636 54.1138 88.4953 54.1598 88.3477 54.2471C88.0173 54.368 87.7435 54.6071 87.5792 54.9181C87.5511 54.9903 87.5439 55.0689 87.5584 55.145C87.5729 55.2211 87.6084 55.2916 87.6611 55.3484C87.7137 55.4052 87.7813 55.4461 87.856 55.4663C87.9308 55.4866 88.0097 55.4854 88.0838 55.4629Z" fill="#263238"/>
<path d="M93.7614 54.2758C93.5341 54.2511 93.3082 54.2147 93.0847 54.1668C92.8411 54.1598 92.6061 54.0755 92.4137 53.9259C92.3658 53.8645 92.3398 53.7888 92.3398 53.7109C92.3398 53.633 92.3658 53.5573 92.4137 53.4958C92.52 53.3823 92.6549 53.2995 92.8043 53.2561C92.9536 53.2127 93.1119 53.2103 93.2625 53.2492C93.5803 53.2764 93.8758 53.4242 94.0883 53.6621C94.1374 53.7191 94.1682 53.7895 94.1766 53.8643C94.1849 53.939 94.1705 54.0146 94.1351 54.0809C94.0997 54.1473 94.0451 54.2015 93.9784 54.2362C93.9117 54.271 93.8361 54.2848 93.7614 54.2758Z" fill="#263238"/>
<path d="M83.0313 58.4165C83.3869 58.4165 84.1324 55.9562 84.3217 54.901C84.5109 53.8457 83.7482 52.5267 84.7805 50.8865C85.5604 49.6535 89.5806 50.227 90.5154 50.1581C91.9951 50.0492 93.0847 49.1603 94.2833 51.6722C94.2833 51.6722 92.9815 43.8841 84.6314 47.434C78.2598 50.1467 81.0642 58.4853 83.0313 58.4165Z" fill="#263238"/>
<path d="M83.6278 58.5141C83.6278 58.5141 81.5862 55.9334 80.4105 56.6789C79.2348 57.4245 80.875 61.2382 82.3432 61.6855C82.527 61.756 82.7231 61.7886 82.9198 61.7811C83.1165 61.7737 83.3097 61.7265 83.4876 61.6424C83.6656 61.5582 83.8246 61.4389 83.9552 61.2915C84.0857 61.1442 84.1851 60.9719 84.2472 60.7851L83.6278 58.5141Z" fill="#EB9481"/>
<path d="M80.9093 57.7627C80.9093 57.7627 80.8806 57.7914 80.9093 57.7971C81.3828 58.001 81.8087 58.301 82.1602 58.6781C82.5116 59.0552 82.7809 59.5012 82.9509 59.9879C82.8865 59.8908 82.8017 59.809 82.7024 59.7481C82.6032 59.6871 82.4919 59.6484 82.3762 59.6348C82.2605 59.6212 82.1433 59.6329 82.0326 59.6691C81.9219 59.7053 81.8204 59.7651 81.7351 59.8445C81.7351 59.8445 81.7351 59.9018 81.7638 59.8961C81.9365 59.8281 82.1261 59.8159 82.3061 59.8612C82.4861 59.9064 82.6474 60.0069 82.7674 60.1484C82.9652 60.3782 83.1382 60.6281 83.2836 60.894C83.3352 60.98 83.4958 60.9227 83.4556 60.8252C83.3925 59.5405 82.2914 57.8086 80.9093 57.7627Z" fill="#263238"/>
</svg>
