<svg width="243" height="234" viewBox="0 0 243 234" fill="none" xmlns="http://www.w3.org/2000/svg">
<path d="M166.94 19.3447C168.245 11.2707 162.757 3.66766 154.683 2.36277C146.609 1.05788 139.006 6.54532 137.701 14.6193C136.397 22.6933 141.884 30.2963 149.958 31.6012C158.032 32.9061 165.635 27.4187 166.94 19.3447Z" fill="#EBEBEB"/>
<path d="M167.007 20.1848C168.264 12.5043 163.056 5.25954 155.375 4.00319C147.695 2.74683 140.45 7.95464 139.194 15.6352C137.937 23.3157 143.145 30.5605 150.826 31.8168C158.506 33.0732 165.751 27.8654 167.007 20.1848Z" fill="#DBDBDB"/>
<path d="M158.909 29.8818C165.689 27.1114 168.939 19.3692 166.169 12.5891C163.398 5.80893 155.656 2.55839 148.876 5.32876C142.096 8.09914 138.845 15.8414 141.616 22.6215C144.386 29.4016 152.128 32.6522 158.909 29.8818Z" fill="white"/>
<path d="M153.277 5.66577H152.939V7.66938H153.277V5.66577Z" fill="#EBEBEB"/>
<path d="M147.138 7.23823L146.846 7.40698L147.847 9.14233L148.139 8.97357L147.138 7.23823Z" fill="#EBEBEB"/>
<path d="M142.753 11.018L142.584 11.3118L144.327 12.3136L144.496 12.0198L142.753 11.018Z" fill="#EBEBEB"/>
<path d="M142.871 17.7427H140.867V18.0803H142.871V17.7427Z" fill="#EBEBEB"/>
<path d="M144.161 22.8929L142.426 23.895L142.595 24.1874L144.33 23.1853L144.161 22.8929Z" fill="#EBEBEB"/>
<path d="M147.843 26.6906L146.842 28.4263L147.134 28.5949L148.135 26.8592L147.843 26.6906Z" fill="#EBEBEB"/>
<path d="M153.277 28.1536H152.939V30.1572H153.277V28.1536Z" fill="#EBEBEB"/>
<path d="M158.381 26.7108L158.088 26.8796L159.09 28.6148L159.382 28.446L158.381 26.7108Z" fill="#EBEBEB"/>
<path d="M162.057 22.8863L161.888 23.1787L163.619 24.1777L163.787 23.8853L162.057 22.8863Z" fill="#EBEBEB"/>
<path d="M165.353 17.7427H163.35V18.0803H165.353V17.7427Z" fill="#EBEBEB"/>
<path d="M163.621 11.6401L161.891 12.6392L162.06 12.9316L163.79 11.9325L163.621 11.6401Z" fill="#EBEBEB"/>
<path d="M159.095 7.23086L158.094 8.96655L158.387 9.13521L159.388 7.39952L159.095 7.23086Z" fill="#EBEBEB"/>
<path d="M155.064 13.675L149.272 25.061L149.573 25.2141L155.365 13.828L155.064 13.675Z" fill="#EBEBEB"/>
<path d="M152.433 13.3724L151.993 13.4604L154.463 25.7964L154.902 25.7084L152.433 13.3724Z" fill="#DBDBDB"/>
<path d="M109.734 113.185H14.7122V3.4519H109.734V113.185ZM16.9206 110.971H107.52V5.66583H16.9261L16.9206 110.971Z" fill="#EBEBEB"/>
<path d="M62.4666 6.24683H60.2527V112.078H62.4666V6.24683Z" fill="#EBEBEB"/>
<path d="M111.749 7.92944H12.7033V11.0123H111.749V7.92944Z" fill="#EBEBEB"/>
<path d="M111.749 11.3999H12.7033V14.4828H111.749V11.3999Z" fill="#EBEBEB"/>
<path d="M111.749 14.8647H12.7033V17.9476H111.749V14.8647Z" fill="#EBEBEB"/>
<path d="M111.749 18.335H12.7033V21.4179H111.749V18.335Z" fill="#EBEBEB"/>
<path d="M111.749 21.8052H12.7033V24.8881H111.749V21.8052Z" fill="#EBEBEB"/>
<path d="M111.749 25.27H12.7033V28.3529H111.749V25.27Z" fill="#EBEBEB"/>
<path d="M111.749 28.7405H12.7033V31.8234H111.749V28.7405Z" fill="#EBEBEB"/>
<path d="M111.749 32.2107H12.7033V35.2936H111.749V32.2107Z" fill="#EBEBEB"/>
<path d="M111.749 35.6755H12.7033V38.7584H111.749V35.6755Z" fill="#EBEBEB"/>
<path d="M105.173 7.30396H104.62V78.3655H105.173V7.30396Z" fill="#263238"/>
<path d="M105.876 80.9448H103.912L104.404 78.1221H105.384L105.876 80.9448Z" fill="#263238"/>
<path d="M107.166 7.30396H106.612V110.102H107.166V7.30396Z" fill="#263238"/>
<path d="M107.869 112.178H105.91L106.397 109.355H107.382L107.869 112.178Z" fill="#263238"/>
<path d="M115.18 3.02026H9.2661V9.46833H115.18V3.02026Z" fill="#DBDBDB"/>
<path d="M238.408 28.4136H178.698V103.604H238.408V28.4136Z" fill="#EBEBEB"/>
<path d="M230.808 43.95H186.092V45.3724H230.808V43.95Z" fill="#DBDBDB"/>
<path d="M223.956 46.928H186.092V48.3504H223.956V46.928Z" fill="#DBDBDB"/>
<path d="M214.968 49.8999H186.092V51.3224H214.968V49.8999Z" fill="#DBDBDB"/>
<path d="M229.247 52.8777H186.092V54.3001H229.247V52.8777Z" fill="#DBDBDB"/>
<path d="M225.578 55.8499H186.092V57.2723H225.578V55.8499Z" fill="#DBDBDB"/>
<path d="M227.067 61.7998H186.092V63.2223H227.067V61.7998Z" fill="#DBDBDB"/>
<path d="M201.789 64.7773H186.092V66.1998H201.789V64.7773Z" fill="#DBDBDB"/>
<path d="M217.746 67.7495H186.092V69.172H217.746V67.7495Z" fill="#DBDBDB"/>
<path d="M229.247 70.7275H186.092V72.15H229.247V70.7275Z" fill="#DBDBDB"/>
<path d="M223.303 73.6997H186.092V75.1222H223.303V73.6997Z" fill="#DBDBDB"/>
<path d="M226.414 79.6497H186.092V81.0721H226.414V79.6497Z" fill="#DBDBDB"/>
<path d="M210.501 82.6274H186.092V84.0499H210.501V82.6274Z" fill="#DBDBDB"/>
<path d="M210.501 91.6326H186.092V93.055H210.501V91.6326Z" fill="#DBDBDB"/>
<path d="M227.039 97.5771C229.537 97.5771 231.561 95.5526 231.561 93.0552C231.561 90.5577 229.537 88.5332 227.039 88.5332C224.542 88.5332 222.517 90.5577 222.517 93.0552C222.517 95.5526 224.542 97.5771 227.039 97.5771Z" fill="#1677F1"/>
<path d="M192.756 34.2087C193.3 34.209 193.827 34.3901 194.256 34.7235C194.274 34.7365 194.289 34.753 194.3 34.772C194.311 34.7909 194.318 34.8119 194.32 34.8337C194.323 34.8555 194.321 34.8776 194.315 34.8986C194.309 34.9196 194.298 34.9391 194.284 34.9559C194.271 34.9732 194.255 34.9878 194.237 34.9988C194.219 35.0099 194.199 35.0171 194.177 35.0202C194.156 35.0233 194.135 35.0222 194.114 35.0168C194.093 35.0115 194.074 35.0021 194.057 34.9892C193.687 34.695 193.229 34.535 192.756 34.5353C192.218 34.5353 191.701 34.7493 191.32 35.1302C190.939 35.5112 190.725 36.0278 190.725 36.5666C190.725 37.1053 190.939 37.622 191.32 38.0029C191.701 38.3838 192.218 38.5979 192.756 38.5979C193.226 38.605 193.682 38.4462 194.046 38.1495C194.063 38.1351 194.083 38.1246 194.105 38.1187C194.126 38.1128 194.149 38.1116 194.171 38.1153C194.193 38.119 194.214 38.1274 194.233 38.14C194.251 38.1526 194.267 38.1691 194.278 38.1883C194.295 38.2028 194.308 38.2207 194.317 38.2407C194.326 38.2608 194.331 38.2825 194.331 38.3045C194.331 38.3265 194.326 38.3482 194.317 38.3683C194.308 38.3883 194.295 38.4062 194.278 38.4207C193.847 38.7487 193.32 38.9256 192.778 38.9244C192.469 38.9244 192.162 38.8634 191.876 38.7449C191.59 38.6264 191.33 38.4528 191.111 38.2338C190.892 38.0149 190.719 37.7549 190.6 37.4689C190.482 37.1828 190.421 36.8762 190.421 36.5666C190.421 36.2569 190.482 35.9503 190.6 35.6643C190.719 35.3782 190.892 35.1183 191.111 34.8993C191.33 34.6804 191.59 34.5067 191.876 34.3882C192.162 34.2697 192.469 34.2087 192.778 34.2087H192.756Z" fill="#A6A6A6"/>
<path d="M197.555 34.2085C198.027 34.1841 198.496 34.3019 198.9 34.5466C199.305 34.7913 199.626 35.1516 199.824 35.5811C200.022 36.0106 200.086 36.4894 200.008 36.9558C199.931 37.4221 199.715 37.8545 199.39 38.1971C199.064 38.5397 198.643 38.7768 198.181 38.8776C197.719 38.9785 197.238 38.9386 196.799 38.763C196.36 38.5874 195.984 38.2842 195.719 37.8926C195.454 37.501 195.313 37.039 195.313 36.5663C195.304 36.2638 195.354 35.9624 195.462 35.6796C195.57 35.3968 195.733 35.1383 195.942 34.9189C196.15 34.6996 196.4 34.5238 196.677 34.4019C196.954 34.2799 197.252 34.2142 197.555 34.2085ZM197.555 38.5976C197.961 38.6208 198.365 38.5218 198.713 38.3132C199.062 38.1046 199.341 37.7961 199.512 37.4276C199.684 37.059 199.741 36.6475 199.677 36.2461C199.612 35.8447 199.428 35.472 199.149 35.1762C198.87 34.8804 198.509 34.6751 198.112 34.5868C197.715 34.4985 197.301 34.5314 196.923 34.6811C196.545 34.8308 196.221 35.0905 195.992 35.4266C195.763 35.7627 195.641 36.1597 195.64 36.5663C195.625 37.0895 195.818 37.5972 196.177 37.978C196.536 38.3588 197.032 38.5817 197.555 38.5976Z" fill="#A6A6A6"/>
<path d="M201.33 34.9616V38.764C201.334 38.7872 201.333 38.8111 201.327 38.8339C201.321 38.8568 201.311 38.878 201.295 38.8962C201.28 38.9143 201.262 38.9289 201.24 38.939C201.219 38.949 201.196 38.9542 201.172 38.9542C201.148 38.9542 201.125 38.949 201.104 38.939C201.082 38.9289 201.063 38.9143 201.048 38.8962C201.033 38.878 201.022 38.8568 201.017 38.8339C201.011 38.8111 201.01 38.7872 201.014 38.764V34.5022C201.003 34.4707 201.002 34.4364 201.012 34.4045C201.022 34.3725 201.042 34.3447 201.07 34.3251C201.105 34.301 201.149 34.2915 201.191 34.2988C201.233 34.306 201.271 34.3293 201.296 34.3638L204.114 38.2382V34.4579C204.114 34.4163 204.13 34.3763 204.159 34.3463C204.188 34.3164 204.227 34.2989 204.269 34.2974C204.29 34.2967 204.312 34.3003 204.332 34.308C204.352 34.3157 204.37 34.3275 204.386 34.3424C204.401 34.3574 204.414 34.3754 204.422 34.3952C204.43 34.415 204.435 34.4364 204.435 34.4579V38.7363C204.435 38.7579 204.43 38.7792 204.422 38.7991C204.414 38.8189 204.401 38.8369 204.386 38.8518C204.37 38.8668 204.352 38.8785 204.332 38.8863C204.312 38.894 204.29 38.8976 204.269 38.8969C204.245 38.8966 204.222 38.8911 204.201 38.8805C204.18 38.87 204.161 38.8547 204.147 38.836C204.14 38.8338 204.135 38.8302 204.13 38.8254C204.125 38.8206 204.121 38.8147 204.119 38.8083L201.33 34.9616Z" fill="#A6A6A6"/>
<path d="M207.246 34.6019H205.846C205.803 34.6005 205.762 34.5824 205.732 34.5514C205.702 34.5204 205.686 34.479 205.686 34.4359C205.687 34.3938 205.704 34.3537 205.734 34.3239C205.764 34.2941 205.804 34.2768 205.846 34.2754H208.968C209.01 34.2768 209.05 34.2941 209.08 34.3239C209.11 34.3537 209.127 34.3938 209.128 34.4359C209.128 34.479 209.112 34.5204 209.082 34.5514C209.052 34.5824 209.011 34.6005 208.968 34.6019H207.568V38.7641C207.568 38.8067 207.551 38.8475 207.52 38.8776C207.49 38.9077 207.45 38.9246 207.407 38.9246C207.364 38.9246 207.324 38.9077 207.294 38.8776C207.263 38.8475 207.246 38.8067 207.246 38.7641V34.6019Z" fill="#A6A6A6"/>
<path d="M212.682 37.8727C212.682 37.7335 212.648 37.5965 212.582 37.4738C212.516 37.3511 212.421 37.2467 212.305 37.1698C212.137 37.0583 211.949 36.9794 211.752 36.9373H211.719H210.612V38.7749C210.605 38.813 210.584 38.8475 210.555 38.8723C210.525 38.8971 210.487 38.9107 210.448 38.9107C210.41 38.9107 210.372 38.8971 210.342 38.8723C210.312 38.8475 210.292 38.813 210.285 38.7749V34.4466C210.287 34.4075 210.303 34.3702 210.329 34.341C210.355 34.3118 210.39 34.2924 210.429 34.2861H211.757C212.058 34.2893 212.349 34.3942 212.582 34.5839C212.815 34.7736 212.977 35.0368 213.041 35.3305C213.105 35.6241 213.068 35.9309 212.936 36.2006C212.803 36.4704 212.583 36.6872 212.311 36.8155C212.331 36.8299 212.354 36.8411 212.377 36.8488C212.565 36.9496 212.721 37.0989 212.831 37.2809C212.941 37.4629 213 37.6711 213.003 37.8838C212.993 38.07 213.012 38.2566 213.058 38.4372C213.07 38.4792 213.093 38.5174 213.124 38.5479C213.162 38.5436 213.2 38.5515 213.233 38.5704C213.266 38.5893 213.292 38.6183 213.307 38.6531C213.317 38.6957 213.313 38.7406 213.293 38.78C213.274 38.8194 213.242 38.8509 213.202 38.869H213.108C213.043 38.8627 212.982 38.8394 212.929 38.8015C212.877 38.7636 212.835 38.7124 212.809 38.6531C212.701 38.4079 212.657 38.1394 212.682 37.8727ZM211.752 34.6016H210.606V36.6052H211.78C212.045 36.6016 212.299 36.4925 212.484 36.302C212.669 36.1115 212.771 35.8553 212.767 35.5896C212.764 35.3239 212.655 35.0705 212.464 34.8853C212.274 34.7 212.018 34.5979 211.752 34.6016Z" fill="#A6A6A6"/>
<path d="M217.043 37.7231H214.923L214.514 38.8301C214.502 38.8607 214.482 38.8872 214.455 38.906C214.429 38.9248 214.397 38.935 214.364 38.9353H214.303C214.263 38.9181 214.231 38.8861 214.213 38.846C214.196 38.8059 214.195 38.7606 214.209 38.7194L215.82 34.4133C215.835 34.3832 215.857 34.3579 215.886 34.3403C215.914 34.3227 215.947 34.3134 215.98 34.3137C216.014 34.312 216.048 34.3206 216.076 34.3384C216.105 34.3562 216.128 34.3824 216.141 34.4133L217.752 38.7194C217.767 38.7593 217.767 38.8035 217.752 38.8434C217.737 38.8834 217.707 38.9161 217.669 38.9353H217.608C217.574 38.9346 217.542 38.9244 217.515 38.9057C217.487 38.887 217.466 38.8608 217.453 38.8301L217.043 37.7231ZM215.045 37.3966H216.927L215.986 34.9004L215.045 37.3966Z" fill="#A6A6A6"/>
<path d="M220.735 34.2087C221.278 34.209 221.806 34.3901 222.235 34.7235C222.252 34.7365 222.267 34.753 222.278 34.772C222.289 34.7909 222.296 34.8119 222.299 34.8337C222.302 34.8555 222.3 34.8776 222.293 34.8986C222.287 34.9196 222.277 34.9391 222.262 34.9559C222.25 34.9732 222.234 34.9878 222.216 34.9988C222.197 35.0099 222.177 35.0171 222.156 35.0202C222.135 35.0233 222.113 35.0222 222.093 35.0168C222.072 35.0115 222.053 35.0021 222.036 34.9892C221.666 34.695 221.207 34.535 220.735 34.5353C220.196 34.5353 219.679 34.7493 219.299 35.1302C218.918 35.5112 218.704 36.0278 218.704 36.5666C218.704 37.1053 218.918 37.622 219.299 38.0029C219.679 38.3838 220.196 38.5979 220.735 38.5979C221.204 38.605 221.661 38.4462 222.024 38.1495C222.042 38.1351 222.062 38.1246 222.083 38.1187C222.105 38.1128 222.128 38.1116 222.15 38.1153C222.172 38.119 222.193 38.1274 222.211 38.14C222.23 38.1526 222.245 38.1691 222.257 38.1883C222.273 38.2028 222.287 38.2207 222.296 38.2407C222.305 38.2608 222.309 38.2825 222.309 38.3045C222.309 38.3265 222.305 38.3482 222.296 38.3683C222.287 38.3883 222.273 38.4062 222.257 38.4207C221.826 38.7487 221.299 38.9256 220.757 38.9244C220.447 38.9244 220.141 38.8634 219.855 38.7449C219.569 38.6264 219.309 38.4528 219.09 38.2338C218.871 38.0149 218.697 37.7549 218.579 37.4689C218.46 37.1828 218.399 36.8762 218.399 36.5666C218.399 36.2569 218.46 35.9503 218.579 35.6643C218.697 35.3782 218.871 35.1183 219.09 34.8993C219.309 34.6804 219.569 34.5067 219.855 34.3882C220.141 34.2697 220.447 34.2087 220.757 34.2087H220.735Z" fill="#A6A6A6"/>
<path d="M224.858 34.6019H223.458C223.415 34.6005 223.374 34.5824 223.344 34.5514C223.314 34.5204 223.297 34.479 223.297 34.4359C223.299 34.3938 223.316 34.3537 223.346 34.3239C223.376 34.2941 223.416 34.2768 223.458 34.2754H226.58C226.622 34.2768 226.662 34.2941 226.692 34.3239C226.721 34.3537 226.739 34.3938 226.74 34.4359C226.741 34.4574 226.737 34.4789 226.73 34.499C226.722 34.5191 226.71 34.5375 226.695 34.553C226.68 34.5685 226.662 34.5808 226.642 34.5892C226.623 34.5976 226.601 34.602 226.58 34.6019H225.179V38.7641C225.179 38.8067 225.162 38.8475 225.132 38.8776C225.102 38.9077 225.061 38.9246 225.019 38.9246C224.976 38.9246 224.935 38.9077 224.905 38.8776C224.875 38.8475 224.858 38.8067 224.858 38.7641V34.6019Z" fill="#A6A6A6"/>
<path d="M126.333 174.799H235.983L238.264 129.812H124.053L126.333 174.799Z" fill="#EBEBEB"/>
<path d="M230.786 150.407H184.941L184.083 134.787H231.788L230.786 150.407ZM185.467 149.853H230.266L231.196 135.341H184.67L185.467 149.853Z" fill="#DBDBDB"/>
<path d="M229.939 168.373H186.74L186.037 154.275H230.819L229.939 168.373ZM187.266 167.819H229.419L230.233 154.829H186.618L187.266 167.819Z" fill="#DBDBDB"/>
<path d="M212.278 144.28H204.573L204.092 140.51H212.765L212.278 144.28ZM205.082 143.726H211.813L212.156 141.064H204.739L205.082 143.726Z" fill="#DBDBDB"/>
<path d="M212.278 163.209H204.573L204.092 159.439H212.765L212.278 163.209ZM205.082 162.655H211.813L212.156 159.993H204.739L205.082 162.655Z" fill="#DBDBDB"/>
<path d="M176.866 150.407H131.021L130.163 134.787H177.868L176.866 150.407ZM131.547 149.853H176.346L177.259 135.341H130.766L131.547 149.853Z" fill="#DBDBDB"/>
<path d="M176.019 168.373H132.82L132.117 154.275H176.899L176.019 168.373ZM133.346 167.819H175.499L176.312 154.829H132.698L133.346 167.819Z" fill="#DBDBDB"/>
<path d="M158.357 144.28H150.653L150.171 140.51H158.845L158.357 144.28ZM151.162 143.726H157.887L158.23 141.064H150.813L151.162 143.726Z" fill="#DBDBDB"/>
<path d="M158.357 163.209H150.653L150.171 159.439H158.845L158.357 163.209ZM151.162 162.655H157.887L158.23 159.993H150.813L151.162 162.655Z" fill="#DBDBDB"/>
<path d="M136.168 174.799L135.477 179.703L134.093 189.549H131.386V174.799H136.168Z" fill="#EBEBEB"/>
<path d="M136.168 174.799L135.477 179.703H131.386V174.799H136.168Z" fill="#DBDBDB"/>
<path d="M226.148 174.799L226.834 179.703L228.224 189.549H230.93V174.799H226.148Z" fill="#EBEBEB"/>
<path d="M226.148 174.799L226.834 179.703H230.93V174.799H226.148Z" fill="#DBDBDB"/>
<path d="M122.464 233.894C177.621 233.894 222.334 228.068 222.334 220.881C222.334 213.695 177.621 207.869 122.464 207.869C67.3069 207.869 22.5935 213.695 22.5935 220.881C22.5935 228.068 67.3069 233.894 122.464 233.894Z" fill="#EBEBEB"/>
<path d="M30.8515 206.641C47.3643 206.641 60.7506 203.434 60.7506 199.478C60.7506 195.523 47.3643 192.316 30.8515 192.316C14.3387 192.316 0.952393 195.523 0.952393 199.478C0.952393 203.434 14.3387 206.641 30.8515 206.641Z" fill="#EBEBEB"/>
<path d="M2.57971 189.549L32.5508 189.416L62.5218 189.366L122.464 189.278L182.406 189.366L212.377 189.416L242.348 189.549L212.377 189.687L182.406 189.737L122.464 189.826L62.5218 189.737L32.5508 189.687L2.57971 189.549Z" fill="#263238"/>
<path d="M31.7317 93.6969C31.7317 93.6969 16.8485 91.6159 20.3244 73.6443C20.3244 73.6443 36.9565 77.3803 31.7317 93.6969Z" fill="#1677F1"/>
<path opacity="0.1" d="M31.7317 93.6969C31.7317 93.6969 16.8485 91.6159 20.3244 73.6443C20.3244 73.6443 36.9565 77.3803 31.7317 93.6969Z" fill="black"/>
<path d="M30.9791 89.9443C30.6883 89.0361 30.3503 88.1438 29.9662 87.2709C29.9662 87.1547 29.9662 87.0385 29.9275 86.9278C29.9275 86.6787 29.8832 86.4352 29.8666 86.1861C29.8223 85.6326 29.7891 85.1124 29.7559 84.5755C29.695 83.5017 29.6286 82.428 29.612 81.3542C29.612 81.2933 29.5179 81.2989 29.5179 81.3542C29.5179 82.4335 29.5179 83.5073 29.5179 84.581C29.5179 85.1345 29.5732 85.6548 29.6065 86.1916C29.6065 86.3134 29.6065 86.4296 29.6065 86.5514C28.7699 84.7617 27.7694 83.0534 26.6176 81.4483C26.1324 80.733 25.6095 80.0438 25.0513 79.3838C24.4591 78.703 23.8336 78.0555 23.2303 77.3857C23.1916 77.3415 23.1307 77.3857 23.1695 77.4522C24.2382 78.6342 25.1978 79.9106 26.0365 81.2657C26.4903 81.9464 26.9165 82.6494 27.3261 83.3634L27.1877 83.3135L26.6343 83.0977L25.4166 82.6383C24.6196 82.3394 23.8226 82.0516 23.0255 81.7472C22.9757 81.7472 22.9425 81.8136 22.9923 81.8302C23.7838 82.1457 24.5642 82.4778 25.3502 82.8154L26.5014 83.3135L27.0826 83.5515C27.2072 83.614 27.3393 83.6605 27.4755 83.6899C27.7744 84.2434 28.0733 84.7692 28.35 85.3227C29.0403 86.715 29.6465 88.1474 30.1655 89.6122C30.2042 89.7118 30.2374 89.8169 30.2762 89.9221C29.883 89.6959 29.4743 89.498 29.053 89.3299L27.5143 88.6325C26.4682 88.151 25.4332 87.6639 24.4314 87.0994C24.4211 87.0935 24.4089 87.0919 24.3975 87.095C24.3861 87.0982 24.3764 87.1057 24.3705 87.116C24.3646 87.1262 24.3631 87.1384 24.3662 87.1498C24.3693 87.1613 24.3768 87.171 24.3871 87.1768C25.4111 87.7303 26.4129 88.3336 27.4368 88.8871C27.9515 89.1638 28.4663 89.4406 28.9921 89.6896C29.4248 89.9468 29.8956 90.1336 30.3869 90.2431C30.8862 91.6051 31.2153 93.0235 31.3665 94.4662C31.5326 96.4975 31.516 98.5454 31.5658 100.582H31.6156C31.765 98.7336 31.8481 96.8683 31.8591 95.0142C31.8374 93.2881 31.5403 91.5766 30.9791 89.9443Z" fill="#263238"/>
<path d="M28.6876 79.3785C28.5439 80.4291 28.4939 81.4905 28.5382 82.5499C28.5382 82.5776 28.5825 82.5776 28.5825 82.5499C28.6433 81.4983 28.6544 80.4467 28.7762 79.4006C28.7817 79.3453 28.6932 79.3231 28.6876 79.3785Z" fill="#263238"/>
<path d="M24.4314 80.2807C23.766 80.0254 23.125 79.7105 22.5164 79.3397C22.4666 79.3065 22.4223 79.3896 22.4721 79.4172C23.0684 79.8197 23.7213 80.1313 24.4093 80.3416C24.4425 80.3526 24.4979 80.2973 24.4314 80.2807Z" fill="#263238"/>
<path d="M32.2077 122.223C32.2077 120.563 32.1635 118.936 32.1469 117.292C32.1136 111.829 32.0694 106.366 31.9697 100.903C31.8923 96.5639 31.7908 92.2283 31.6653 87.8964C31.665 87.8851 31.6617 87.8741 31.6559 87.8644C31.6501 87.8547 31.6419 87.8467 31.6321 87.841C31.6321 86.6566 31.6321 85.4721 31.6321 84.2877C31.6321 84.2545 31.5989 84.2434 31.5602 84.2434C31.5214 84.2434 31.4882 84.2434 31.4937 84.2877C31.4937 85.4758 31.4937 86.6621 31.4937 87.8466C31.4937 87.8466 31.455 87.8743 31.455 87.8964C31.2391 95.6451 31.0454 103.333 30.9956 111.054C30.9956 112.626 30.9956 114.192 30.9956 115.764C30.9403 120.794 30.92 125.827 30.9347 130.863C30.9347 131.66 30.9347 132.463 30.9347 133.265C30.9347 137.87 30.9845 142.475 30.9845 147.102C30.9845 147.346 31.2613 147.473 31.538 147.484C31.8148 147.495 32.2299 147.363 32.2299 147.08C32.2299 142.005 32.2631 136.924 32.2631 131.848C32.2465 128.627 32.2465 125.422 32.2077 122.223Z" fill="#263238"/>
<path d="M25.9921 117.226C25.9921 117.226 18.83 111.923 12.0388 115.499C5.24758 119.074 4.17383 132.9 4.17383 132.9C4.17383 132.9 14.1365 134.328 20.4351 128.345C26.4902 122.589 25.9921 117.226 25.9921 117.226Z" fill="#1677F1"/>
<path d="M27.9404 117.552C26.6255 117.028 25.2012 116.838 23.7948 116.999C23.5059 116.947 23.2136 116.918 22.9203 116.91L21.9074 116.833L19.8208 116.689C18.4094 116.584 16.9925 116.495 15.5811 116.351C15.5714 116.354 15.5629 116.361 15.5569 116.369C15.5509 116.378 15.5477 116.388 15.5477 116.398C15.5477 116.408 15.5509 116.419 15.5569 116.427C15.5629 116.435 15.5714 116.442 15.5811 116.445C16.9759 116.622 18.3486 116.822 19.7599 116.96C20.4795 117.032 21.199 117.109 21.924 117.159L22.4443 117.209C22.234 117.259 22.0181 117.309 21.8078 117.369C20.6845 117.697 19.5977 118.138 18.5644 118.687C18.0109 118.786 17.4574 118.947 16.904 119.074C16.0184 119.285 15.1384 119.511 14.2583 119.744C12.5204 120.198 10.7991 120.713 9.07219 121.216C9.01685 121.216 9.04452 121.316 9.07219 121.299C10.7935 120.879 12.5315 120.491 14.2583 120.082L16.7711 119.478L17.4298 119.323C15.5087 120.518 13.7914 122.013 12.3433 123.751C10.9496 125.467 9.76423 127.341 8.81206 129.336C8.81206 129.386 8.85634 129.435 8.88954 129.386C10.0682 127.347 11.5063 125.47 13.168 123.801C13.1348 123.895 13.1071 123.995 13.0739 124.089L12.6754 125.351C12.4097 126.198 12.1219 127.039 11.8894 127.886C11.8894 127.941 11.9614 127.958 11.978 127.886C12.2824 127.066 12.5702 126.225 12.858 125.423C12.9964 125.019 13.1403 124.62 13.2787 124.216C13.3561 124.006 13.4281 123.795 13.4945 123.585C13.4945 123.524 13.5443 123.458 13.5665 123.391C14.3644 122.617 15.2111 121.894 16.1014 121.227C17.2836 120.362 18.559 119.633 19.9038 119.052C19.9038 119.174 19.8596 119.301 19.8319 119.417C19.7599 119.744 19.688 120.07 19.6216 120.397C19.4832 121.072 19.3504 121.753 19.2175 122.434C18.9463 123.818 18.7803 125.201 18.5201 126.607C18.5201 126.668 18.5976 126.69 18.6087 126.607C18.9297 125.212 19.3448 123.84 19.6548 122.445C19.8097 121.748 19.9647 121.05 20.1142 120.353L20.3134 119.368C20.3466 119.185 20.3909 119.002 20.413 118.814L20.8005 118.654C22.6768 117.956 24.7523 117.453 26.7559 117.84C27.7037 118.015 28.5933 118.423 29.3456 119.025C30.0978 119.628 30.6894 120.407 31.0676 121.294C31.134 121.449 31.3775 121.349 31.3388 121.189C30.9513 119.495 29.5178 118.216 27.9404 117.552Z" fill="#263238"/>
<path d="M16.9815 123.452C16.7822 124.36 16.5774 125.268 16.3782 126.175C16.152 127.045 15.9856 127.929 15.8801 128.821C15.8801 128.86 15.9243 128.86 15.9354 128.821C16.199 127.948 16.4024 127.059 16.5442 126.159C16.7213 125.262 16.8985 124.365 17.07 123.469C17.0811 123.419 16.9925 123.397 16.9815 123.452Z" fill="#263238"/>
<path d="M10.0574 125.76C9.14411 126.22 8.26407 126.746 7.28994 127.127C7.28449 127.13 7.27953 127.133 7.27532 127.137C7.27112 127.141 7.26777 127.146 7.26545 127.151C7.26314 127.157 7.26192 127.163 7.26184 127.168C7.26177 127.174 7.26286 127.18 7.26504 127.186C7.26722 127.191 7.27045 127.196 7.27455 127.2C7.27865 127.204 7.28354 127.208 7.28894 127.21C7.29433 127.212 7.30013 127.214 7.306 127.214C7.31187 127.214 7.3177 127.213 7.32315 127.21C8.27593 126.788 9.20528 126.315 10.1072 125.794C10.1072 125.794 10.1072 125.749 10.0574 125.76Z" fill="#263238"/>
<path d="M27.6028 107.484C27.6028 107.484 18.8522 108.038 14.7786 102.276C10.7049 96.5141 11.6237 88.2617 11.6237 88.2617C11.6237 88.2617 20.8171 89.3687 24.4645 93.5253C28.112 97.682 27.6028 107.484 27.6028 107.484Z" fill="#1677F1"/>
<path d="M31.6931 116.119C31.3887 115.183 31.0124 114.259 30.6581 113.351C30.3039 112.443 29.9552 111.591 29.5512 110.728C28.7719 108.964 27.8979 107.244 26.9332 105.575C26.3133 104.512 25.6491 103.477 24.9683 102.459C24.9683 102.304 24.9241 102.149 24.9019 101.994C24.8632 101.722 24.8244 101.44 24.7802 101.18C24.6916 100.627 24.5975 100.073 24.5034 99.5196C24.3042 98.3075 24.0551 97.1064 23.8614 95.8998C23.8614 95.8445 23.7618 95.8445 23.7728 95.8998C23.9444 97.0953 24.0662 98.2964 24.2322 99.4919C24.3152 100.079 24.3927 100.665 24.4813 101.252L24.5809 101.888C23.2463 99.935 21.8012 98.0594 20.2527 96.2706L19.6494 95.5733C19.6494 95.5068 19.594 95.4404 19.5664 95.374C19.4999 95.208 19.4391 95.0419 19.3782 94.8703C19.2453 94.5272 19.1236 94.1785 18.9963 93.8298C18.7527 93.1435 18.5313 92.4516 18.3432 91.7487C18.3432 91.6933 18.2435 91.721 18.2601 91.7487C18.4373 92.4682 18.6199 93.1822 18.8136 93.8907C18.9188 94.2338 19.0295 94.5715 19.1512 94.9091C19.1512 94.9644 19.19 95.0198 19.2121 95.0751C18.1052 93.8575 16.9262 92.6841 15.7473 91.5218C15.7086 91.483 15.6477 91.5218 15.6864 91.5882C17.9475 93.954 20.0202 96.493 21.8854 99.182C21.6732 99.1148 21.4569 99.0612 21.2379 99.0215C20.5626 98.8886 19.8874 98.7945 19.2066 98.706C17.7786 98.5233 16.3562 98.3462 14.9392 98.1193C14.8784 98.1193 14.8562 98.1968 14.9392 98.2078C16.2953 98.4735 17.6347 98.7613 18.9852 99.0934C19.6217 99.2373 20.2582 99.3591 20.8947 99.4864C21.4168 99.5976 21.9308 99.7437 22.4334 99.9236C22.5718 100.128 22.7212 100.328 22.8596 100.532C23.5016 101.462 24.116 102.42 24.7193 103.377L23.8282 103.206C23.1529 103.073 22.4721 102.951 21.7969 102.84C20.463 102.619 19.1236 102.387 17.8063 102.088C17.7509 102.088 17.7288 102.165 17.8063 102.176C19.1457 102.492 20.4685 102.857 21.7969 103.211C22.4389 103.383 23.0865 103.538 23.7341 103.682L24.7027 103.892C24.8332 103.926 24.9666 103.949 25.1012 103.959C26.3797 106.029 27.5752 108.154 28.6877 110.318C29.1748 111.27 29.6453 112.233 30.0991 113.196C30.553 114.159 30.9681 115.205 31.3998 116.213C31.4607 116.423 31.7762 116.34 31.6931 116.119Z" fill="#263238"/>
<path d="M22.7489 96.0105C22.5828 95.1747 22.4057 94.3501 22.1954 93.5088C22.1954 93.4534 22.0958 93.4811 22.1068 93.5088C22.2729 94.3279 22.4334 95.1692 22.5828 95.9718C22.7049 96.797 22.8693 97.6153 23.0754 98.4237C23.0232 97.6126 22.9141 96.8062 22.7489 96.0105Z" fill="#263238"/>
<path d="M17.6455 95.7667C17.2415 95.5619 16.8098 95.4014 16.3891 95.2132L15.725 94.9531L15.3873 94.8202C15.258 94.7787 15.1336 94.723 15.0165 94.6542C14.9501 94.6099 14.9113 94.7206 14.9777 94.7317C15.1076 94.767 15.2322 94.8191 15.3486 94.8867L15.6807 95.0361L16.3227 95.3184C16.7421 95.5151 17.1727 95.687 17.6123 95.8331C17.6621 95.8719 17.6953 95.7888 17.6455 95.7667Z" fill="#263238"/>
<path d="M36.5581 100.604C36.5581 100.604 41.8549 90.7137 49.9081 89.1806C57.9612 87.6474 62.8983 95.9386 62.8983 95.9386C62.8983 95.9386 57.0203 103.444 49.6147 104.756C42.2091 106.067 36.5581 100.604 36.5581 100.604Z" fill="#1677F1"/>
<path d="M55.3101 93.6141C53.2108 93.3296 51.0811 93.3557 48.9894 93.6916L49.3491 93.4978L51.1369 92.5791C52.3652 91.8999 53.6269 91.2829 54.9171 90.7304C54.978 90.7028 54.9171 90.6197 54.8839 90.6474C53.622 91.2341 52.3158 91.7544 51.0538 92.3079C50.4173 92.5957 49.7974 92.9001 49.1831 93.2266C48.7846 93.437 48.3473 93.6362 47.9543 93.8908C46.1847 94.2458 44.4653 94.8164 42.8346 95.59L43.842 94.483C44.5892 93.6584 45.3308 92.7949 46.1555 92.0477C46.1998 92.009 46.1555 91.9481 46.0891 91.9868C45.2478 92.7506 44.3567 93.4591 43.5376 94.2561C43.1446 94.6435 42.7627 95.0421 42.3918 95.4572C42.2092 95.662 42.021 95.8723 41.8384 96.0937C39.0716 97.575 36.6676 99.6513 34.7994 102.173C32.9312 104.695 31.6454 107.6 31.0344 110.678C31.0344 110.733 31.1063 110.761 31.123 110.706C32.2576 106.935 34.2898 103.495 37.0452 100.682C40.0148 97.6669 43.7499 95.518 47.8492 94.4664C50.2808 93.8468 52.7957 93.6189 55.299 93.7912C55.3225 93.7927 55.3456 93.7847 55.3633 93.7692C55.3809 93.7536 55.3917 93.7317 55.3931 93.7082C55.3946 93.6847 55.3867 93.6616 55.3711 93.6439C55.3556 93.6263 55.3336 93.6155 55.3101 93.6141Z" fill="#263238"/>
<path opacity="0.1" d="M62.8983 95.9384C62.8983 95.9384 57.0203 103.444 49.6147 104.755C43.9747 105.752 39.3365 102.813 37.4381 101.362L37.0285 100.693C37.0285 100.693 40.842 97.4826 48.0594 95.6284C55.2768 93.7743 62.8983 95.9384 62.8983 95.9384Z" fill="black"/>
<path d="M50.6278 90.0884C50.0112 90.449 49.4144 90.8426 48.8401 91.2673C48.2804 91.6942 47.7599 92.1702 47.2848 92.6897C47.2786 92.6996 47.2761 92.7113 47.2776 92.7228C47.2792 92.7343 47.2847 92.7449 47.2932 92.7528C47.3018 92.7607 47.3128 92.7653 47.3244 92.7659C47.336 92.7666 47.3474 92.7631 47.3568 92.7562C47.9102 92.2912 48.425 91.8263 48.984 91.3891C49.5224 90.9463 50.088 90.5377 50.6777 90.1659C50.6827 90.1626 50.6871 90.1583 50.6906 90.1534C50.694 90.1484 50.6965 90.1428 50.6978 90.1369C50.699 90.131 50.6991 90.1249 50.6981 90.1189C50.697 90.113 50.6948 90.1073 50.6915 90.1022C50.6882 90.0971 50.684 90.0927 50.679 90.0893C50.674 90.0858 50.6684 90.0834 50.6625 90.0821C50.6566 90.0808 50.6505 90.0807 50.6446 90.0818C50.6386 90.0829 50.6329 90.0851 50.6278 90.0884Z" fill="#263238"/>
<path d="M55.0498 91.7599C54.7509 91.8872 54.4465 91.9923 54.1476 92.1196L53.251 92.4905C53.1901 92.4905 53.2178 92.6233 53.2842 92.5956L54.1809 92.2303C54.4853 92.1086 54.7786 91.9702 55.0775 91.8484C55.1328 91.8263 55.1052 91.7377 55.0498 91.7599Z" fill="#263238"/>
<path d="M35.501 113.052C35.501 113.052 36.9179 122.865 44.2958 126.297C51.6737 129.728 60.6678 126.297 60.6678 126.297C60.6678 126.297 57.1532 105.071 35.501 113.052Z" fill="#1677F1"/>
<path d="M55.5814 119.926C54.9062 119.849 54.2254 119.733 53.5557 119.611L52.5594 119.423L52.0446 119.318C51.8454 119.135 51.6517 118.947 51.4469 118.764C50.0456 117.537 48.5337 116.442 46.9305 115.493C46.0587 114.976 45.1568 114.512 44.2295 114.104H44.3679L46.7976 114.209C48.4138 114.286 50.0355 114.32 51.6517 114.425C51.7126 114.425 51.707 114.342 51.6517 114.336C50.0244 114.226 48.4083 114.048 46.7866 113.91L44.4287 113.7L43.2111 113.595L42.9011 113.561C42.4805 113.401 42.0598 113.251 41.6281 113.119C39.617 112.428 37.4539 112.309 35.3793 112.775C33.5251 113.251 31.671 114.469 31.1894 116.423C31.1894 116.489 31.278 116.539 31.3057 116.473C31.9975 114.812 33.8129 114.01 35.4513 113.672C36.5467 113.464 37.6693 113.442 38.7721 113.606C38.8466 114.111 38.9708 114.608 39.143 115.089C39.3478 115.781 39.547 116.473 39.7573 117.159C40.178 118.537 40.6374 119.926 41.047 121.282C41.047 121.294 41.0516 121.305 41.0599 121.314C41.0682 121.322 41.0795 121.327 41.0912 121.327C41.103 121.327 41.1142 121.322 41.1225 121.314C41.1308 121.305 41.1355 121.294 41.1355 121.282C40.7924 119.904 40.499 118.515 40.1669 117.131C40.0064 116.456 39.8348 115.781 39.6688 115.106C39.5723 114.634 39.4485 114.168 39.298 113.711C39.9443 113.824 40.5837 113.973 41.213 114.159C42.3449 114.498 43.4541 114.908 44.5339 115.388C44.6391 116.085 44.7996 116.777 44.9601 117.469C45.1593 118.332 45.3863 119.19 45.6575 120.037C45.6606 120.046 45.6663 120.053 45.6737 120.058C45.6811 120.063 45.6899 120.066 45.699 120.066C45.708 120.066 45.7168 120.063 45.7243 120.058C45.7317 120.053 45.7373 120.046 45.7405 120.037L45.7073 119.877C45.5412 119.074 45.3641 118.272 45.1925 117.469C45.0597 116.821 44.9324 116.174 44.794 115.532C45.713 115.94 46.6108 116.395 47.484 116.893C47.484 117.093 47.5504 117.297 47.578 117.48C47.6334 117.812 47.6943 118.15 47.7552 118.487C47.8935 119.24 48.043 119.998 48.2256 120.746C48.5595 122.193 48.9828 123.618 49.4931 125.013C49.4868 125.021 49.4834 125.031 49.4834 125.041C49.4834 125.051 49.4868 125.06 49.4931 125.068L49.5374 125.118C49.5706 125.157 49.6204 125.118 49.6093 125.074C49.2717 123.618 48.8787 122.174 48.5577 120.718C48.4027 119.987 48.2422 119.257 48.0928 118.504C48.0208 118.139 47.9544 117.773 47.8825 117.397L47.8327 117.07C48.8264 117.653 49.7855 118.292 50.7052 118.985C52.2978 120.178 53.7714 121.522 55.1054 122.998C55.1552 123.059 55.2604 122.998 55.2106 122.91C54.6629 122.166 54.0772 121.451 53.456 120.768C53.0852 120.369 52.6978 119.982 52.3048 119.605H52.4265C52.7752 119.666 53.1184 119.716 53.4671 119.76C54.1479 119.854 54.8342 119.921 55.5205 119.998C55.6201 120.009 55.6423 119.926 55.5814 119.926Z" fill="#263238"/>
<path d="M50.4007 123.247C50.4007 123.164 50.4007 123.076 50.3564 122.993C50.3122 122.91 50.2845 122.782 50.2679 122.672C50.1184 122.013 49.9911 121.354 49.8694 120.69C49.8694 120.646 49.7919 120.657 49.7919 120.69C49.8368 121.569 50.0237 122.434 50.3454 123.253C50.3454 123.28 50.4063 123.253 50.4007 123.253V123.247Z" fill="#263238"/>
<path d="M44.2237 123.087C44.2237 123.087 44.2237 123.043 44.1794 123.043C43.9691 122.174 43.7699 121.305 43.5928 120.43C43.4987 119.971 43.4046 119.511 43.316 119.052C43.2662 118.803 43.2219 118.554 43.1776 118.305C43.1583 118.085 43.1042 117.871 43.0171 117.668C43.014 117.66 43.0083 117.653 43.0009 117.647C42.9935 117.642 42.9847 117.639 42.9756 117.639C42.9666 117.639 42.9578 117.642 42.9503 117.647C42.9429 117.653 42.9373 117.66 42.9341 117.668C42.9283 118.114 42.9918 118.559 43.1223 118.986C43.2109 119.462 43.3049 119.943 43.4101 120.419C43.626 121.388 43.864 122.351 44.1407 123.303C44.1441 123.312 44.1505 123.321 44.1589 123.327C44.1673 123.333 44.1774 123.336 44.1877 123.336C44.1981 123.336 44.2082 123.333 44.2166 123.327C44.225 123.321 44.2314 123.312 44.2348 123.303L44.2237 123.087Z" fill="#263238"/>
<path d="M54.9392 117.087C53.5887 116.904 52.2438 116.711 50.8933 116.533C50.8379 116.533 50.8158 116.616 50.8933 116.622C52.2382 116.821 53.5887 116.987 54.9392 117.175C54.9392 117.187 54.9669 117.098 54.9392 117.087Z" fill="#263238"/>
<path d="M31.7207 90.0384C31.7207 90.0384 27.2043 70.2348 48.4856 62.2148C48.4856 62.2148 54.3858 88.2894 31.7207 90.0384Z" fill="#1677F1"/>
<path d="M36.3147 78.8081L36.5417 78.6697L37.7483 77.9944L40.2168 76.6163C41.8385 75.703 43.4436 74.7621 45.0764 73.8489C45.1317 73.8489 45.0764 73.7437 45.0321 73.7714C43.3716 74.6625 41.7112 75.4982 40.0784 76.3672L37.6376 77.6568L36.6413 78.2103C37.3498 76.8653 38.108 75.548 38.9438 74.275C40.0507 72.5758 41.2739 70.9541 42.5414 69.3823C42.5546 69.3683 42.5618 69.3497 42.5612 69.3305C42.5607 69.3113 42.5526 69.2931 42.5387 69.2799C42.5247 69.2666 42.5061 69.2595 42.4869 69.26C42.4677 69.2606 42.4495 69.2687 42.4363 69.2826C40.5675 71.0958 38.9162 73.1204 37.5158 75.3156C37.5158 75.2436 37.5158 75.1717 37.5158 75.1053C37.5158 74.6127 37.5545 74.1201 37.5601 73.6275C37.5601 72.6589 37.5269 71.6903 37.5601 70.7272C37.5601 70.6663 37.4715 70.6719 37.466 70.7272C37.4272 71.6792 37.311 72.6312 37.2557 73.5832C37.2557 74.0536 37.2114 74.5296 37.1948 75.0056C37.1948 75.2602 37.1948 75.5591 37.1948 75.8359C36.7594 76.5332 36.3406 77.2399 35.9384 77.9557C35.2251 79.247 34.5894 80.5795 34.0344 81.9463C34.0344 81.4537 33.9846 80.9611 33.9569 80.4685C33.8905 79.3615 33.7632 78.3044 33.7134 77.2196C33.7134 77.2078 33.7087 77.1966 33.7004 77.1883C33.6921 77.1799 33.6808 77.1753 33.6691 77.1753C33.6574 77.1753 33.6461 77.1799 33.6378 77.1883C33.6295 77.1966 33.6248 77.2078 33.6248 77.2196C33.6248 78.3265 33.6248 79.3892 33.6248 80.474C33.6248 81.0275 33.658 81.581 33.6912 82.1013C33.6912 82.3005 33.6912 82.5053 33.73 82.7046C33.0533 84.4752 32.5166 86.2962 32.1249 88.1508C31.7557 90.1299 31.4915 92.127 31.3334 94.134C31.3334 94.134 31.3334 94.134 31.3334 94.134C31.5479 92.3287 31.9183 90.5454 32.4404 88.8039C32.7005 87.8686 32.9939 86.9387 33.2817 86.0365C34.1672 85.6214 35.0141 85.1011 35.8664 84.6252L38.5397 83.164C40.3164 82.1898 42.0876 81.1991 43.9196 80.3412C43.9694 80.3412 43.9196 80.236 43.8698 80.2637C42.0156 81.0995 40.1448 81.9242 38.335 82.8153C37.4272 83.2747 36.5361 83.7617 35.6506 84.2599C34.9144 84.675 34.1506 85.0901 33.4366 85.5716C33.6414 84.9517 33.8573 84.3373 34.0953 83.734C34.7484 82.0543 35.4892 80.4101 36.3147 78.8081Z" fill="#263238"/>
<path d="M34.5214 74.2751C34.518 74.2654 34.5116 74.2569 34.5032 74.2509C34.4948 74.2449 34.4847 74.2417 34.4744 74.2417C34.464 74.2417 34.4539 74.2449 34.4455 74.2509C34.4371 74.2569 34.4307 74.2654 34.4273 74.2751C34.5048 75.3821 34.5435 76.5333 34.6653 77.6625C34.6653 77.6757 34.6706 77.6883 34.6799 77.6977C34.6892 77.707 34.7019 77.7123 34.7151 77.7123C34.7283 77.7123 34.741 77.707 34.7503 77.6977C34.7597 77.6883 34.7649 77.6757 34.7649 77.6625C34.7262 76.5333 34.6044 75.4098 34.5214 74.2751Z" fill="#263238"/>
<path d="M44.7219 78.0609C43.3936 78.6144 42.0486 79.107 40.7203 79.6605C40.6871 79.6605 40.7203 79.7379 40.7203 79.7213C42.0652 79.2177 43.3881 78.6697 44.7275 78.1495C44.805 78.1273 44.7773 78.0388 44.7219 78.0609Z" fill="#263238"/>
<path d="M46.7478 68.923C45.4449 69.5208 44.1805 70.1992 42.962 70.9543C42.9532 70.964 42.9477 70.9763 42.9465 70.9894C42.9453 71.0025 42.9483 71.0156 42.9552 71.0268C42.962 71.038 42.9723 71.0467 42.9845 71.0516C42.9967 71.0565 43.0102 71.0573 43.0228 71.0539C44.2571 70.3288 45.5135 69.637 46.7921 69.0005C46.8474 69.006 46.7976 68.9008 46.7478 68.923Z" fill="#263238"/>
<path d="M46.4211 132.873H15.7306V165.224H46.4211V132.873Z" fill="#455A64"/>
<path d="M15.1937 144.324H13.6218V199.738H15.1937V144.324Z" fill="#263238"/>
<path d="M48.3749 144.324H46.803V199.738H48.3749V144.324Z" fill="#263238"/>
<path d="M32.6174 144.324H31.0455V199.738H32.6174V144.324Z" fill="#263238"/>
<path d="M47.589 163.154H14.4078V167.631H47.589V163.154Z" fill="#263238"/>
<path d="M169.858 181.64C169.858 181.64 169.858 205.478 169.858 205.495C169.858 210.05 169.82 214.046 169.593 216.111C169.596 216.116 169.597 216.122 169.597 216.127C169.597 216.133 169.596 216.139 169.593 216.144C169.593 216.634 169.479 217.117 169.261 217.555L169.233 217.583C167.882 218.507 131.463 219.758 130.179 219.371C128.895 218.983 129.886 215.297 131.286 214.118C132.687 212.939 146.396 206.231 146.396 206.231L146.623 182.404L169.858 181.64Z" fill="#AD6359"/>
<path d="M169.853 200.597V205.495C169.853 210.05 169.814 214.046 169.587 216.111C169.59 216.116 169.592 216.122 169.592 216.127C169.592 216.133 169.59 216.139 169.587 216.144C169.53 216.625 169.419 217.099 169.255 217.555L169.228 217.583C167.877 218.507 131.458 219.758 130.174 219.371C128.89 218.983 129.881 215.297 131.281 214.118C132.681 212.939 146.391 206.231 146.391 206.231L146.324 201.25L169.853 200.597Z" fill="#C7C7C7"/>
<path d="M130.174 219.371C131.458 219.758 167.877 218.513 169.233 217.583C169.754 217.24 169.881 211.921 169.853 205.495V205.29L146.347 205.844L146.374 206.242C146.374 206.242 132.648 212.956 131.264 214.135C129.881 215.314 128.884 219 130.174 219.371Z" fill="#263238"/>
<path d="M130.534 217.948C136.672 217.583 161.446 216.708 167.534 216.841C167.584 216.841 167.584 216.874 167.534 216.88C161.446 217.367 136.683 218.048 130.539 218.07C130.412 218.048 130.406 217.954 130.534 217.948Z" fill="#455A64"/>
<path d="M144.393 206.369C146.795 205.816 149.762 206.104 151.666 207.764C151.743 207.831 151.666 207.93 151.572 207.908C149.237 207.243 146.838 206.829 144.415 206.674C144.379 206.67 144.345 206.654 144.32 206.628C144.294 206.601 144.279 206.567 144.276 206.531C144.274 206.495 144.284 206.459 144.305 206.429C144.326 206.399 144.358 206.378 144.393 206.369Z" fill="#455A64"/>
<path d="M142.688 207.482C145.085 206.928 148.057 207.216 149.961 208.877C150.033 208.937 149.961 209.043 149.861 209.02C147.527 208.355 145.127 207.941 142.705 207.786C142.669 207.782 142.636 207.765 142.611 207.738C142.586 207.711 142.572 207.677 142.57 207.641C142.568 207.605 142.578 207.569 142.6 207.54C142.622 207.511 142.653 207.49 142.688 207.482Z" fill="#455A64"/>
<path d="M140.978 208.589C143.38 208.036 146.347 208.329 148.251 209.984C148.328 210.05 148.251 210.155 148.157 210.133C145.822 209.467 143.423 209.051 141 208.893C140.964 208.89 140.93 208.873 140.905 208.847C140.879 208.821 140.864 208.787 140.861 208.751C140.859 208.714 140.869 208.678 140.89 208.649C140.912 208.619 140.943 208.598 140.978 208.589Z" fill="#455A64"/>
<path d="M171.945 93.2653L171.923 94.8427L171.032 164.504L171.026 164.77L170.501 206.497L145.007 205.987L149.928 93.3483L149.994 91.8429L150.243 78.7751H171.774L171.945 93.2653Z" fill="#455A64"/>
<path d="M146.076 201.737C150.055 201.698 148.909 201.654 152.889 201.665C154.837 201.665 167.639 201.715 169.455 202.036C169.493 202.036 169.493 202.113 169.455 202.119C167.628 202.395 154.832 202.119 152.883 202.085C148.904 202.002 150.05 201.98 146.07 201.853C146.058 201.849 146.047 201.84 146.04 201.83C146.033 201.819 146.029 201.806 146.03 201.793C146.03 201.78 146.035 201.767 146.043 201.757C146.052 201.747 146.063 201.74 146.076 201.737Z" fill="#263238"/>
<path d="M157.494 100.593C157.494 100.582 157.489 100.57 157.481 100.562C157.473 100.554 157.461 100.549 157.45 100.549C157.438 100.549 157.427 100.554 157.418 100.562C157.41 100.57 157.405 100.582 157.405 100.593C157.405 107.263 157.134 110.999 156.974 117.663C156.813 124.327 156.619 130.991 156.42 137.649C156.06 150.971 155.523 164.283 155.031 177.599C154.754 185.068 154.409 192.532 153.996 199.993C153.996 200.003 154 200.013 154.007 200.021C154.015 200.028 154.024 200.032 154.035 200.032C154.045 200.032 154.055 200.028 154.062 200.021C154.069 200.013 154.073 200.003 154.073 199.993C155.042 186.71 155.966 173.382 156.498 160.059C157.029 146.737 157.405 133.42 157.466 120.098C157.522 112.621 157.477 108.071 157.494 100.593Z" fill="#263238"/>
<path d="M171.94 93.2653L171.032 164.504L153.946 78.7751H171.768L171.94 93.2653Z" fill="#263238"/>
<path d="M198.452 180.35C198.452 180.35 201.662 203.967 201.662 203.984C202.304 208.5 202.769 212.469 202.835 214.544C202.835 214.544 202.835 214.544 202.835 214.577C202.9 215.061 202.854 215.553 202.702 216.016C202.702 216.028 202.702 216.039 202.702 216.05C201.485 217.157 165.564 223.3 164.241 223.09C162.918 222.88 163.405 219.094 164.606 217.738C165.807 216.382 178.515 207.886 178.515 207.886L175.526 184.247L198.452 180.35Z" fill="#AD6359"/>
<path d="M201.003 199.135C201.003 199.135 201.662 203.967 201.662 203.984C202.304 208.5 202.769 212.469 202.835 214.544C202.835 214.544 202.835 214.544 202.835 214.578C202.845 215.061 202.801 215.544 202.702 216.017C202.702 216.028 202.702 216.039 202.702 216.05C201.485 217.157 165.564 223.301 164.241 223.09C162.918 222.88 163.405 219.094 164.606 217.738C165.807 216.382 178.515 207.886 178.515 207.886L177.757 202.949L201.003 199.135Z" fill="#C7C7C7"/>
<path d="M164.219 223.09C165.547 223.301 201.462 217.152 202.68 216.05C203.151 215.635 202.558 210.355 201.662 203.984L201.628 203.785L178.415 207.493L178.493 207.886C178.493 207.886 165.796 216.388 164.584 217.744C163.372 219.1 162.868 222.875 164.219 223.09Z" fill="#263238"/>
<path d="M164.385 221.629C170.418 220.444 194.826 216.232 200.915 215.541C200.964 215.541 200.97 215.568 200.915 215.579C194.965 216.885 170.506 220.898 164.418 221.751C164.274 221.767 164.257 221.657 164.385 221.629Z" fill="#455A64"/>
<path d="M176.556 208.29C178.864 207.438 181.841 207.305 183.95 208.688C184.033 208.744 183.95 208.86 183.873 208.849C181.47 208.502 179.038 208.415 176.617 208.589C176.58 208.59 176.545 208.578 176.516 208.555C176.488 208.532 176.469 208.5 176.461 208.465C176.454 208.429 176.46 208.392 176.477 208.36C176.494 208.328 176.522 208.303 176.556 208.29Z" fill="#455A64"/>
<path d="M175.011 209.618C177.319 208.766 180.297 208.633 182.406 210.022C182.489 210.072 182.406 210.188 182.328 210.177C179.926 209.833 177.493 209.746 175.072 209.917C175.036 209.918 175.001 209.906 174.972 209.883C174.944 209.861 174.924 209.829 174.917 209.793C174.91 209.758 174.915 209.721 174.933 209.689C174.95 209.657 174.978 209.632 175.011 209.618Z" fill="#455A64"/>
<path d="M173.473 210.952C175.781 210.1 178.753 209.967 180.867 211.351C180.95 211.406 180.867 211.522 180.79 211.511C178.388 211.162 175.955 211.074 173.534 211.251C173.497 211.252 173.462 211.24 173.434 211.217C173.405 211.194 173.386 211.163 173.378 211.127C173.371 211.091 173.377 211.054 173.394 211.022C173.411 210.99 173.439 210.966 173.473 210.952Z" fill="#455A64"/>
<path d="M152.435 78.7532C152.529 79.196 154.034 86.1809 155.595 92.1806C156.73 96.5642 157.898 100.416 158.567 100.815C159.326 101.263 163.023 102.902 164.263 103.416L169.925 157.563L177.58 207.698L202.608 203.824L184.797 94.1012L181.897 78.7532H152.435Z" fill="#455A64"/>
<path d="M177.729 202.666C181.659 202.035 180.496 202.157 184.459 201.559C186.386 201.272 199.049 199.395 200.892 199.445C200.931 199.445 200.942 199.511 200.892 199.523C199.132 200.076 186.435 201.736 184.504 201.98C180.557 202.489 181.686 202.301 177.735 202.771C177.725 202.767 177.717 202.759 177.711 202.75C177.705 202.741 177.702 202.731 177.702 202.721C177.701 202.71 177.703 202.699 177.708 202.69C177.713 202.68 177.72 202.672 177.729 202.666Z" fill="#263238"/>
<path d="M192.203 187.695C191.577 184.219 190.957 180.743 190.315 177.267C189.035 170.316 187.743 163.366 186.441 156.418C183.828 142.511 181.245 128.592 178.692 114.663C177.264 106.804 177.297 107.54 176.052 99.6415C176.052 99.5917 175.952 99.5972 175.963 99.6415C177.159 106.66 176.594 105.121 177.723 112.15C178.853 119.179 180.037 126.059 181.282 132.994C183.784 146.937 186.408 160.857 189.059 174.771C189.797 178.675 190.551 182.573 191.323 186.466C192.097 190.44 192.983 194.392 193.802 198.355C193.802 198.444 193.963 198.438 193.946 198.355C193.37 194.807 192.85 191.243 192.203 187.695Z" fill="#263238"/>
<path d="M185.323 100.162C184.659 99.9901 183.945 99.9348 183.269 99.8296C182.716 99.741 182.162 99.6414 181.609 99.5252C180.567 99.3389 179.58 98.923 178.72 98.3075C177.779 97.5769 177.297 96.4644 176.843 95.3962C176.57 94.7652 176.294 94.1343 176.013 93.5033L175.598 92.5901C175.405 92.2316 175.233 91.8619 175.083 91.4831C175.083 91.4277 174.978 91.4831 175 91.4831C175.095 91.7417 175.172 92.0061 175.233 92.2746C175.327 92.579 175.41 92.8834 175.504 93.1878C175.676 93.7413 175.842 94.2948 176.019 94.8483C176.288 95.8468 176.676 96.8094 177.175 97.7153C178.183 99.3093 179.976 99.9569 181.769 100.184C182.284 100.245 182.804 100.283 183.325 100.311C183.976 100.369 184.632 100.369 185.284 100.311C185.299 100.307 185.313 100.299 185.324 100.288C185.335 100.277 185.343 100.263 185.347 100.248C185.351 100.233 185.351 100.217 185.347 100.201C185.342 100.186 185.334 100.173 185.323 100.162Z" fill="#263238"/>
<path d="M156.603 99.8574C159.243 100.816 161.793 102.005 164.224 103.411C164.245 103.42 164.261 103.438 164.269 103.459C164.276 103.48 164.275 103.504 164.266 103.524C164.256 103.545 164.239 103.561 164.218 103.568C164.196 103.576 164.173 103.575 164.152 103.566C161.584 102.459 158.966 101.407 156.465 100.167C156.43 100.145 156.404 100.111 156.392 100.072C156.381 100.033 156.383 99.9903 156.4 99.9527C156.417 99.9151 156.447 99.8849 156.484 99.8674C156.521 99.8499 156.563 99.8463 156.603 99.8574Z" fill="#263238"/>
<path d="M155.828 82.2898C155.828 82.2012 155.994 82.1791 155.994 82.2898C155.992 85.1549 156.136 88.0183 156.426 90.8688C156.542 92.1916 157.604 99.4976 159.901 98.9662C160.283 98.8777 160.455 98.4958 160.538 97.9201C160.53 97.1632 160.427 96.4102 160.233 95.6785C159.979 94.1454 159.774 92.6122 159.647 91.068C159.376 88.1908 159.408 85.2933 159.741 82.4226C159.741 82.4035 159.748 82.3852 159.762 82.3717C159.775 82.3583 159.794 82.3507 159.813 82.3507C159.832 82.3507 159.85 82.3583 159.864 82.3717C159.877 82.3852 159.885 82.4035 159.885 82.4226C159.821 86.414 160.054 90.4045 160.582 94.3612C160.87 96.2597 161.828 99.1212 159.841 99.4145C157.854 99.7079 156.52 94.9203 156.259 93.6085C155.625 89.8703 155.48 86.0655 155.828 82.2898Z" fill="#263238"/>
<path d="M159.841 99.132C160.043 99.6266 160.215 100.133 160.355 100.649C160.503 101.047 160.576 101.469 160.571 101.894C160.568 101.911 160.56 101.927 160.547 101.94C160.535 101.952 160.519 101.961 160.502 101.964C160.485 101.968 160.467 101.966 160.451 101.96C160.434 101.953 160.42 101.942 160.411 101.927C160.164 101.555 159.977 101.146 159.857 100.715C159.68 100.25 159.497 99.7796 159.337 99.3091C159.313 99.2423 159.317 99.1689 159.348 99.1051C159.379 99.0413 159.433 98.9922 159.5 98.9687C159.567 98.9452 159.64 98.9493 159.704 98.9799C159.768 99.0105 159.817 99.0652 159.841 99.132Z" fill="#263238"/>
<path d="M185.057 95.7116C182.024 95.5124 149.994 91.8372 149.994 91.8372L150.243 78.7695H152.457H181.919L184.819 94.1176L185.057 95.7116Z" fill="#263238"/>
<path d="M162.625 48.7599C158.96 60.2281 152.756 72.0671 150.963 74.3972C146.153 80.6626 131.701 86.834 127.29 87.631C125.381 87.9741 120.803 75.6592 121.988 73.9655C123.172 72.2719 141.133 65.4087 142.013 64.4954C142.622 63.8589 150.199 54.0955 155.296 48.2064C161.667 40.8839 163.588 45.7601 162.625 48.7599Z" fill="#AD6359"/>
<path d="M125.824 71.5745L132.919 85.965C132.919 85.965 148.002 79.4284 151.594 74.7626C155.186 70.0967 161.695 54.2837 162.663 49.2471C163.632 44.2104 161.96 40.6127 155.214 47.974C148.467 55.3354 142.876 62.669 141.67 63.8977C140.463 65.1265 125.824 71.5745 125.824 71.5745Z" fill="#EBEBEB"/>
<path d="M126.421 70.8437L134.923 85.7545C134.923 85.7545 148.206 79.4061 151.594 75.2384C154.981 71.0706 160.566 58.2741 162.315 51.3667C164.064 44.4592 163.04 39.5609 155.219 48.0126C147.398 56.4643 142.976 62.6024 141.382 63.9805C140.624 64.5783 126.421 70.8437 126.421 70.8437Z" fill="#37474F"/>
<path d="M130.002 72.2217C130.433 72.2217 130.783 71.8723 130.783 71.4413C130.783 71.0103 130.433 70.6609 130.002 70.6609C129.571 70.6609 129.222 71.0103 129.222 71.4413C129.222 71.8723 129.571 72.2217 130.002 72.2217Z" fill="#263238"/>
<path d="M133.683 70.5281C134.114 70.5281 134.464 70.1787 134.464 69.7477C134.464 69.3167 134.114 68.9673 133.683 68.9673C133.252 68.9673 132.903 69.3167 132.903 69.7477C132.903 70.1787 133.252 70.5281 133.683 70.5281Z" fill="#263238"/>
<path d="M162.315 51.3448C160.566 58.2522 154.986 71.0266 151.594 75.2165C150.143 77.0042 146.9 79.1849 143.651 81.1L160.77 43.6071C163.421 42.8876 163.504 46.6512 162.315 51.3448Z" fill="#263238"/>
<path d="M186.729 90.2266C186.64 90.3262 148.35 90.4424 147.985 90.0495C147.492 89.496 156.143 47.9848 160.073 42.8872C160.909 41.7803 163.682 41.4869 166.04 41.7803C166.655 41.8497 167.262 41.9738 167.855 42.1511H167.922C168.4 42.2922 168.851 42.513 169.255 42.8042C175.809 48.0402 181.332 66.3438 182.622 71.8399C184.781 80.9115 187.044 89.8668 186.729 90.2266Z" fill="#EBEBEB"/>
<path d="M169.145 42.3174C169.145 42.3174 166.028 59.3093 165.486 63.7261C164.944 68.1429 165.741 91.4721 165.741 91.4721L189.784 93.2488C189.784 93.2488 184.587 77.8067 184.526 76.827C184.526 76.827 180.209 58.3296 176.163 50.603C174.396 47.4034 172.01 44.5869 169.145 42.3174Z" fill="#37474F"/>
<path d="M189.784 93.2485L178.88 92.4404L171.098 44.0273V44.0606L175.98 50.3149C176.036 50.4145 176.091 50.5142 176.141 50.6138C180.187 58.3625 184.504 76.8378 184.504 76.8378C184.587 77.8064 189.784 93.2485 189.784 93.2485Z" fill="#263238"/>
<path d="M159.841 42.6882C159.841 42.6882 157.289 59.896 157.012 61.3184C156.736 62.7409 152.872 90.8024 152.872 90.8024L146.856 90.9906L149.994 78.1609C149.994 78.1609 156.973 46.3523 159.841 42.6882Z" fill="#37474F"/>
<path d="M163.355 52.1305L161.65 48.8096L159.448 51.2117L159.99 53.6027L162.16 53.885L163.355 52.1305Z" fill="#263238"/>
<path d="M162.16 53.8851L163.2 78.3158L158.623 86.3966L156.243 77.3029L159.99 53.6028L162.16 53.8851Z" fill="#263238"/>
<path d="M161.2 121.407L161.17 150.1L208.526 150.149L208.556 121.457L161.2 121.407Z" fill="#1677F1"/>
<path opacity="0.1" d="M161.198 121.41L161.184 134.921L208.54 134.97L208.554 121.46L161.198 121.41Z" fill="black"/>
<path d="M160.07 130.572L209.668 130.624L209.682 117.235L160.084 117.183L160.07 130.572Z" fill="#1677F1"/>
<path d="M174.447 109.565L174.436 117.198L178.028 117.203L178.034 112.859L191.732 112.875L191.727 117.22H195.319L195.324 109.582L174.447 109.565Z" fill="#263238"/>
<path d="M199.622 133.806L202.854 133.809L202.861 127.411L199.628 127.408L199.622 133.806Z" fill="#263238"/>
<path d="M166.872 133.779L170.104 133.782L170.111 127.384L166.879 127.381L166.872 133.779Z" fill="#263238"/>
<path d="M174.436 47.4203C185.118 57.1118 191.898 70.9543 192.358 73.7494C193.465 80.5075 194.865 92.352 194.627 97.5492C194.538 99.4753 179.943 97.1396 179.971 95.0806C180.065 88.6381 179.207 74.469 179.168 74.2199C178.908 72.4875 175.731 64.7 172.526 56.2539C169.322 47.8077 169.942 43.3522 174.436 47.4203Z" fill="#AD6359"/>
<path d="M178.432 115.272C178.858 115.466 179.333 115.524 179.793 115.44C180.253 115.356 180.676 115.133 181.006 114.802C181.422 115.478 182.063 115.987 182.816 116.241C184.161 116.628 185.356 114.685 185.356 114.685C185.936 115.297 186.686 115.721 187.509 115.903C188.832 116.141 190.321 114.353 190.321 114.353C191.162 114.618 192.071 114.575 192.883 114.231C194.262 113.584 195.429 109.632 195.717 107.357C196.005 105.082 194.682 98.3576 194.56 97.0514L179.971 95.092C179.971 95.092 175.786 104.933 175.831 107.656C175.869 109.964 176.827 114.475 178.432 115.272Z" fill="#AD6359"/>
<path d="M180.784 114.669C180.159 112.239 180.286 109.754 180.275 107.274C180.275 107.262 180.28 107.251 180.288 107.243C180.296 107.234 180.308 107.23 180.319 107.23C180.331 107.23 180.343 107.234 180.351 107.243C180.359 107.251 180.364 107.262 180.364 107.274C180.364 109.743 180.818 112.183 180.917 114.652C180.919 114.67 180.915 114.687 180.904 114.701C180.893 114.715 180.877 114.724 180.859 114.727C180.842 114.729 180.824 114.724 180.81 114.713C180.796 114.702 180.787 114.686 180.784 114.669Z" fill="#263238"/>
<path d="M185.174 114.613C185.084 114.048 185.069 113.473 185.129 112.903C185.129 112.3 185.196 111.691 185.246 111.088C185.341 109.877 185.465 108.671 185.616 107.468C185.616 107.412 185.705 107.412 185.699 107.468C185.611 108.674 185.539 109.881 185.495 111.088C185.495 111.696 185.461 112.3 185.45 112.903C185.475 113.475 185.437 114.049 185.34 114.613C185.333 114.63 185.322 114.645 185.307 114.655C185.292 114.665 185.275 114.671 185.257 114.671C185.239 114.671 185.221 114.665 185.206 114.655C185.191 114.645 185.18 114.63 185.174 114.613Z" fill="#263238"/>
<path d="M190.321 114.303C190.25 113.79 190.265 113.268 190.365 112.759C190.421 112.205 190.47 111.652 190.52 111.098C190.62 109.992 190.714 108.885 190.769 107.778C190.769 107.722 190.858 107.722 190.858 107.778C190.803 108.885 190.764 110.025 190.703 111.148L190.603 112.809C190.615 113.314 190.538 113.818 190.376 114.298C190.374 114.303 190.37 114.307 190.366 114.31C190.361 114.313 190.356 114.315 190.35 114.315C190.345 114.316 190.339 114.315 190.334 114.313C190.329 114.311 190.324 114.307 190.321 114.303Z" fill="#263238"/>
<path d="M179.257 95.1584L195.435 96.033C195.435 96.033 194.239 78.3215 192.955 73.4011C191.671 68.4806 180.712 52.0809 174.242 46.1365C168.154 40.5408 168.154 45.1956 170.462 51.7544C172.77 58.3131 178.482 74.1649 178.676 75.3216C178.869 76.4784 179.257 95.1584 179.257 95.1584Z" fill="#37474F"/>
<path d="M179.982 91.893C180.602 91.8377 181.227 91.893 181.847 91.893C182.467 91.893 183.087 91.9207 183.707 91.9484C184.902 91.9982 186.098 92.0701 187.293 92.1476L190.874 92.3856C192.109 92.4686 193.371 92.4908 194.594 92.6734C194.602 92.6766 194.61 92.6822 194.615 92.6896C194.62 92.6971 194.623 92.7059 194.623 92.7149C194.623 92.724 194.62 92.7328 194.615 92.7402C194.61 92.7476 194.602 92.7533 194.594 92.7564C193.359 92.8063 192.103 92.6956 190.869 92.6513L187.216 92.5018C185.998 92.4465 184.781 92.3856 183.563 92.3081C182.965 92.2749 182.367 92.2306 181.775 92.1642C181.183 92.0978 180.563 92.0923 179.976 91.976C179.921 91.965 179.938 91.8985 179.982 91.893Z" fill="#263238"/>
<path d="M162.226 48.3666C162.857 48.339 167.047 45.0457 168.314 42.5108C168.403 42.3337 168.076 40.5293 167.789 38.3209C167.617 36.9815 167.457 35.4816 167.412 34.1034C167.412 33.8211 166.46 34.3746 166.46 34.3746L164.689 34.8617L158.844 36.4889C159.395 38.1954 159.733 39.9633 159.852 41.7525C159.858 41.9379 159.845 42.1234 159.813 42.306C159.815 42.3373 159.815 42.3688 159.813 42.4001C159.686 43.4905 161.208 48.4054 162.226 48.3666Z" fill="#AD6359"/>
<path d="M159.835 42.317C159.838 42.3483 159.838 42.3798 159.835 42.4111C160.131 42.4392 160.43 42.4392 160.726 42.4111C166.538 42.0901 167.019 34.6624 167.019 34.6624L164.722 34.8395L158.878 36.4667C159.428 38.1732 159.766 39.9411 159.885 41.7303C159.89 41.9271 159.873 42.1239 159.835 42.317Z" fill="#263238"/>
<path d="M167.196 22.425C168.591 25.3086 168.359 34.3082 166.504 36.5941C163.826 39.915 158.756 40.9721 155.767 37.5904C152.872 34.3193 153.387 22.5965 155.518 20.4324C158.656 17.2886 165.137 18.1631 167.196 22.425Z" fill="#AD6359"/>
<path d="M159.481 28.9895C159.481 28.9895 159.525 28.9895 159.525 29.0449C159.492 29.6481 159.558 30.3511 160.079 30.5614C160.079 30.5614 160.079 30.6001 160.079 30.5946C159.431 30.4894 159.354 29.5596 159.481 28.9895Z" fill="#263238"/>
<path d="M160.034 28.3696C161.008 28.3142 161.047 30.2735 160.139 30.3234C159.232 30.3732 159.215 28.4138 160.034 28.3696Z" fill="#263238"/>
<path d="M155.972 29.1555C155.972 29.1555 155.928 29.1832 155.928 29.2109C155.955 29.8142 155.889 30.5171 155.341 30.7274V30.7606C156.016 30.6499 156.099 29.709 155.972 29.1555Z" fill="#263238"/>
<path d="M155.418 28.5246C154.444 28.4692 154.4 30.4286 155.307 30.4784C156.215 30.5282 156.226 28.6021 155.418 28.5246Z" fill="#263238"/>
<path d="M160.793 27.4621C160.521 27.3957 160.283 27.296 160.029 27.2075C159.746 27.1573 159.489 27.0129 159.298 26.7979C159.251 26.7202 159.231 26.6287 159.242 26.5382C159.253 26.4478 159.294 26.3638 159.359 26.2998C159.504 26.1888 159.676 26.1185 159.857 26.0961C160.038 26.0737 160.221 26.1001 160.389 26.1725C160.751 26.2682 161.064 26.4951 161.269 26.809C161.311 26.8831 161.331 26.968 161.326 27.0533C161.322 27.1385 161.292 27.2207 161.242 27.2897C161.192 27.3587 161.123 27.4117 161.043 27.4423C160.963 27.4729 160.876 27.4798 160.793 27.4621Z" fill="#263238"/>
<path d="M154.643 27.5562C154.905 27.4985 155.164 27.4265 155.418 27.3403C155.701 27.3009 155.963 27.1708 156.166 26.9695C156.217 26.8939 156.242 26.8032 156.236 26.7119C156.23 26.6206 156.193 26.534 156.132 26.4658C155.993 26.3471 155.825 26.268 155.645 26.2368C155.464 26.2057 155.279 26.2236 155.108 26.2887C154.743 26.3661 154.419 26.5773 154.201 26.8809C154.155 26.9528 154.131 27.0365 154.131 27.1218C154.132 27.207 154.157 27.2903 154.204 27.3617C154.251 27.433 154.317 27.4893 154.395 27.5238C154.473 27.5583 154.559 27.5695 154.643 27.5562Z" fill="#263238"/>
<path d="M157.638 33.5503C157.898 33.8798 158.239 34.1355 158.629 34.2919C158.843 34.372 159.077 34.3836 159.298 34.3251C159.785 34.1868 159.785 33.7717 159.691 33.3621C159.637 33.1695 159.561 32.9839 159.464 32.8086C158.95 33.2436 158.31 33.5033 157.638 33.5503Z" fill="#263238"/>
<path d="M158.628 34.2917C158.843 34.3717 159.077 34.3833 159.298 34.3249C159.785 34.1865 159.785 33.7714 159.691 33.3618C159.436 33.3768 159.193 33.4763 159 33.6447C158.808 33.813 158.677 34.0407 158.628 34.2917Z" fill="#FF9ABB"/>
<path d="M154.278 23.4436C154.594 22.6687 154.964 21.8883 155.424 21.7223C155.883 21.5562 156.21 22.6853 157.267 22.7351C158.689 22.8071 159.354 21.4898 161.341 21.3127C164.191 21.0581 165.492 23.4214 165.641 27.4729C165.768 31.0872 167.966 31.386 167.966 31.386C167.966 31.386 169.139 23.3827 166.859 20.7813C164.578 18.18 159.376 17.1117 155.955 19.6744C154.688 20.643 154.278 23.4436 154.278 23.4436Z" fill="#263238"/>
<path d="M166.111 29.9967C166.111 29.9967 167.711 26.8916 169.095 27.423C170.478 27.9543 169.543 32.2715 168.104 33.0408C167.926 33.1515 167.728 33.2251 167.522 33.2572C167.315 33.2893 167.104 33.2791 166.901 33.2274C166.698 33.1757 166.508 33.0835 166.342 32.9563C166.176 32.8291 166.037 32.6696 165.934 32.4873L166.111 29.9967Z" fill="#AD6359"/>
<path d="M168.796 28.6575C168.796 28.6575 168.829 28.6851 168.796 28.6962C167.794 29.2497 167.368 30.3235 167.135 31.3972C167.182 31.2821 167.253 31.1785 167.344 31.0938C167.435 31.0091 167.543 30.9453 167.661 30.9068C167.779 30.8683 167.904 30.8561 168.028 30.871C168.151 30.8859 168.27 30.9276 168.375 30.9932C168.403 30.9932 168.375 31.054 168.375 31.054C168.181 31.0195 167.981 31.0462 167.802 31.1305C167.624 31.2148 167.476 31.3525 167.379 31.5245C167.217 31.8121 167.087 32.1164 166.991 32.4322C166.958 32.5374 166.776 32.5097 166.798 32.3935C166.565 31.0208 167.362 28.9896 168.796 28.6575Z" fill="#263238"/>
<path d="M159.807 42.5277L161.894 47.653L168.226 41.1772L170.03 43.2473C170.03 43.2473 163.842 53.5088 163.803 53.0605L161.689 48.6659L158.661 51.7321L158.888 44.0443L159.807 42.5277Z" fill="#EBEBEB"/>
<path d="M158.556 47.9297C158.639 46.6622 158.684 45.3781 158.822 44.1162C158.822 44.0719 158.9 44.0553 158.911 44.1162C159.165 45.3394 158.833 50.2045 158.839 51.3502C158.966 51.2174 161.645 48.6548 161.672 48.6935C162.132 49.3909 163.682 52.5679 163.787 52.8834C164.766 51.2506 168.514 45.3173 169.676 43.773C169.683 43.7669 169.692 43.7631 169.701 43.7624C169.711 43.7616 169.72 43.7638 169.728 43.7688C169.736 43.7737 169.742 43.7811 169.746 43.7898C169.749 43.7986 169.75 43.8082 169.748 43.8173C168.901 45.511 163.942 53.5088 163.864 53.5088C163.048 51.9976 162.309 50.4458 161.65 48.8595C161.196 49.413 158.49 52.3188 158.479 52.1306C158.432 50.7299 158.458 49.3277 158.556 47.9297Z" fill="#263238"/>
<path d="M88.3141 47.808C95.2769 61.551 102.35 94.6105 103.009 99.0328C103.457 102.038 87.6554 104.756 87.6554 102.675C87.6554 100.007 84.4674 68.8016 84.7718 56.47C84.9378 49.6677 86.875 44.9687 88.3141 47.808Z" fill="#EB9481"/>
<path d="M87.5947 101.357C87.3401 103.167 87.9434 109.438 89.1278 114.087C89.6813 116.357 92.0502 122.694 93.8269 122.389C95.6035 122.085 95.0777 120.176 95.0777 120.176C95.0777 120.176 96.4725 122.699 98.2271 122.229C99.9816 121.758 99.0794 118.803 99.0794 118.803C99.0794 118.803 100.696 121.299 102.4 120.701C104.105 120.104 102.705 117.286 102.705 117.286C102.705 117.286 104.083 119.639 105.289 118.548C106.745 117.237 103.723 113.196 103.214 110.656C103.098 110.102 101.686 98.8 101.686 98.8L87.5947 101.357Z" fill="#EB9481"/>
<path d="M102.727 117.248C100.513 114.27 100.059 112.582 99.7823 108.945C99.7784 108.933 99.7707 108.922 99.7603 108.914C99.7498 108.907 99.7372 108.903 99.7242 108.903C99.7112 108.903 99.6986 108.907 99.6881 108.914C99.6777 108.922 99.6699 108.933 99.6661 108.945C99.6163 112.537 99.8819 114.735 102.588 117.375C102.721 117.491 102.832 117.386 102.727 117.248Z" fill="#263238"/>
<path d="M99.1237 118.963C97.0924 115.67 96.5832 113.844 96.0076 110.052C96.0076 109.997 95.9079 110.003 95.9135 110.052C96.1625 113.822 96.4669 116.008 98.941 119.035C99.0517 119.179 99.2178 119.113 99.1237 118.963Z" fill="#263238"/>
<path d="M94.9171 119.927C93.1847 116.606 92.5426 114.619 92.4596 110.866C92.4553 110.851 92.4462 110.838 92.4338 110.828C92.4213 110.819 92.4061 110.814 92.3904 110.814C92.3748 110.814 92.3596 110.819 92.3471 110.828C92.3346 110.838 92.3255 110.851 92.3212 110.866C92.0334 114.702 92.8194 117.176 94.8119 119.976C94.9503 120.137 95.0278 120.115 94.9171 119.927Z" fill="#263238"/>
<path d="M102.909 98.2466C102.909 98.2466 105.456 102.121 106.197 104.097C106.939 106.073 107.022 114.358 105.229 114.48C102.915 114.635 101.908 109.848 101.742 107.44C101.742 107.44 96.3839 107.8 94.9338 104.518C93.4837 101.235 102.909 98.2466 102.909 98.2466Z" fill="#EB9481"/>
<path d="M104.581 114.309C102.367 112.931 102.334 109.754 101.985 107.429C101.981 107.394 101.97 107.361 101.95 107.332C101.931 107.303 101.905 107.279 101.875 107.262C101.844 107.245 101.81 107.236 101.776 107.235C101.741 107.234 101.706 107.242 101.675 107.257C99.4224 107.257 96.2399 106.604 94.8784 104.656C94.8755 104.648 94.871 104.642 94.8652 104.636C94.8595 104.63 94.8525 104.626 94.845 104.623C94.8374 104.621 94.8293 104.62 94.8213 104.621C94.8133 104.621 94.8055 104.624 94.7986 104.628C94.7917 104.632 94.7857 104.638 94.7811 104.644C94.7765 104.651 94.7735 104.658 94.7721 104.666C94.7707 104.674 94.7711 104.682 94.7732 104.69C94.7753 104.698 94.7791 104.705 94.7843 104.711C95.9576 107.003 99.035 107.899 101.504 107.739C101.825 110.124 101.996 113.312 104.564 114.331C104.581 114.336 104.592 114.32 104.581 114.309Z" fill="#263238"/>
<path d="M104.526 97.3167L86.5761 100.084C86.5761 100.084 83.7146 66.759 83.6094 55.5731C83.5043 44.3872 87.5226 41.6475 91.8342 53.088C96.1458 64.5285 104.526 97.3167 104.526 97.3167Z" fill="#1677F1"/>
<path d="M86.4877 97.2782C93.8324 95.6177 101.797 95.0034 103.181 94.7986C103.247 94.7986 103.253 94.8927 103.181 94.8982C101.819 95.031 92.7863 96.7302 86.4877 97.3889C86.4379 97.3944 86.4324 97.2893 86.4877 97.2782Z" fill="#263238"/>
<path d="M126.272 219.343C125.027 219.747 88.5245 219.199 87.1851 218.319C87.0246 218.219 87.0024 214.92 87.0467 210.398L85.27 183.538L108.367 183.604L110.193 206.851C110.193 206.851 115.374 209.242 119.647 211.334C121.516 212.183 123.333 213.144 125.088 214.212C126.466 215.363 127.517 218.944 126.272 219.343Z" fill="#EB9481"/>
<path d="M126.272 219.343C125.027 219.747 88.5244 219.199 87.185 218.319C87.0245 218.219 87.0023 214.921 87.0466 210.399C96.0628 212.408 120.106 215.662 120.809 213.775C121.091 213.017 120.516 212.159 119.658 211.367C121.527 212.217 123.344 213.178 125.099 214.245C126.466 215.363 127.517 218.944 126.272 219.343Z" fill="#263238"/>
<path d="M75.5175 85.7766C75.5175 85.7766 82.0596 155.194 82.2035 156.036C82.2035 156.146 82.2755 157.43 82.3364 159.517C82.7017 170.969 83.5983 206.679 83.5983 206.679H111.04C111.04 206.679 109.252 164.382 108.223 154.519C106.911 141.927 98.8468 85.7766 98.8468 85.7766H75.5175Z" fill="#37474F"/>
<path d="M85.4747 158.383C84.6298 143.97 83.3586 129.58 81.6612 115.211C80.6982 107.13 79.5359 99.0772 78.3846 91.0185C78.3846 90.9465 78.2629 90.952 78.2739 91.0185C80.3993 105.359 81.8992 119.8 83.1944 134.251C84.4895 148.702 85.4083 163.121 85.9618 177.589C86.2994 185.78 86.554 193.983 86.8142 202.18C86.8209 202.215 86.8398 202.247 86.8676 202.27C86.8954 202.293 86.9303 202.306 86.9664 202.306C87.0024 202.306 87.0373 202.293 87.0651 202.27C87.0929 202.247 87.1118 202.215 87.1186 202.18C86.7533 187.59 86.3326 172.978 85.4747 158.383Z" fill="#263238"/>
<path d="M109.308 202.257C108.588 202.163 107.808 202.191 107.094 202.168C106.274 202.168 105.433 202.13 104.625 202.102C103.037 202.041 101.443 201.997 99.8541 201.975C96.6494 201.919 93.4392 201.942 90.2401 202.041L87.5945 202.135C86.6535 202.168 85.7126 202.257 84.7717 202.251C84.7053 202.251 84.7053 202.334 84.7717 202.334C86.3823 202.334 88.0151 202.473 89.6313 202.534C91.2474 202.595 92.8083 202.617 94.3968 202.639C97.6014 202.683 100.817 202.639 104.016 202.539C104.896 202.506 105.776 202.495 106.656 202.467L108.073 202.395C108.494 202.395 108.909 202.395 109.33 202.357C109.385 202.357 109.38 202.268 109.308 202.257Z" fill="#263238"/>
<path d="M95.3432 85.7766L82.8068 176.193C82.6297 169.452 82.4526 163.22 82.3364 159.517C82.2755 157.43 82.2257 156.146 82.2035 156.036C82.0486 155.194 75.5175 85.7766 75.5175 85.7766H95.3432Z" fill="#263238"/>
<path d="M80.2997 224.158C78.9934 224.053 45.5078 209.508 44.6111 208.179C44.5004 208.03 45.7181 204.975 47.528 200.818L54.9114 174.804L76.2758 183.378L70.2484 206.474C70.2484 206.474 74.1228 210.675 77.2555 214.223C78.6547 215.729 79.9632 217.317 81.1742 218.978C82.0099 220.555 81.6003 224.269 80.2997 224.158Z" fill="#EB9481"/>
<path d="M80.2997 224.158C78.9934 224.053 45.5078 209.508 44.6111 208.179C44.5004 208.03 45.7181 204.975 47.528 200.818C55.083 206.142 76.0212 218.385 77.416 216.913C77.9695 216.326 77.7647 215.308 77.2776 214.245C78.6768 215.751 79.9854 217.339 81.1963 219C82.0099 220.555 81.6003 224.269 80.2997 224.158Z" fill="#263238"/>
<path d="M45.1259 198.139L71.8978 206.441C71.8978 206.441 84.9711 160.585 85.9729 149.815C86.9636 139.138 87.9211 117.325 88.3473 101.501C88.3473 101.501 92.8195 98.8556 93.9541 97.411C95.0887 95.9664 96.1071 90.7692 98.3432 85.7878H65.5881C57.7619 100.992 63.651 107.756 63.651 111.071C63.651 127.078 61.2322 148.326 60.4629 151.475C58.8578 158.039 45.1259 198.139 45.1259 198.139Z" fill="#37474F"/>
<path d="M71.837 200.585C71.1673 200.309 70.409 200.137 69.7116 199.921C68.9202 199.683 68.1231 199.462 67.3372 199.218C65.8207 198.748 64.2931 198.3 62.7654 197.868C59.6844 196.99 56.5812 196.182 53.4559 195.444L50.8767 194.851C49.9634 194.641 49.028 194.481 48.1092 194.237C48.0373 194.237 48.0207 194.298 48.1092 194.32C49.6701 194.73 51.2087 195.289 52.753 195.765C54.2972 196.241 55.8026 196.667 57.3303 197.104C60.4131 197.973 63.5237 198.765 66.6454 199.49C67.5088 199.683 68.3612 199.899 69.219 200.104L70.5972 200.408C71.0068 200.502 71.4053 200.635 71.8204 200.696C71.8351 200.698 71.85 200.695 71.862 200.686C71.8739 200.677 71.8819 200.664 71.8841 200.649C71.8863 200.634 71.8825 200.62 71.8737 200.608C71.8649 200.596 71.8517 200.588 71.837 200.585Z" fill="#263238"/>
<path d="M94.7178 97.0509C93.1547 97.7693 91.6707 98.6485 90.2899 99.6744C88.8232 100.682 87.4727 101.839 86.0613 102.918C86.006 102.962 86.0613 103.051 86.1167 103.012C87.6055 102.06 89.1664 101.224 90.6386 100.245C92.1169 99.3477 93.5101 98.3176 94.8008 97.1672C94.8395 97.1229 94.7897 97.0232 94.7178 97.0509Z" fill="#263238"/>
<path d="M94.9227 87.8246C94.7346 88.843 94.4855 89.8558 94.2641 90.8687C94.0427 91.8816 93.9043 92.7893 93.6553 93.7302C93.4494 94.6404 92.9864 95.4722 92.3214 96.1268C91.9505 96.4755 91.5354 96.7799 91.1369 97.1009C90.9266 97.2725 90.6941 97.433 90.4727 97.6101C90.5004 97.4718 90.5226 97.3389 90.5447 97.195C90.6166 96.8131 90.6831 96.4257 90.7439 96.0382C90.8879 95.1803 91.0262 94.3169 91.1591 93.459C91.4192 91.7654 91.6572 90.0551 92.0114 88.378C92.0151 88.3634 92.0128 88.3478 92.005 88.3349C91.9972 88.3219 91.9846 88.3125 91.9699 88.3089C91.9552 88.3052 91.9397 88.3075 91.9267 88.3153C91.9137 88.3231 91.9044 88.3357 91.9007 88.3504C91.4801 90.0108 91.0152 91.6713 90.6499 93.3317C90.4672 94.1509 89.8252 98.2024 89.7975 98.4902C89.7698 98.778 89.7421 99.0824 89.7311 99.3813C89.6951 99.6846 89.6951 99.9912 89.7311 100.295C89.7311 100.366 89.8418 100.355 89.8694 100.295C89.9934 100.013 90.0809 99.7177 90.1296 99.4145C90.2015 99.1267 90.2679 98.8333 90.3178 98.54C90.3178 98.4348 90.351 98.3241 90.3676 98.2134C90.7661 97.9699 91.1369 97.6599 91.5133 97.3832C91.8897 97.1065 92.3214 96.8297 92.7033 96.4866C93.407 95.8926 93.9145 95.0996 94.1589 94.2117C94.4049 93.2555 94.566 92.2794 94.6405 91.2949C94.7678 90.1437 94.8619 88.9869 95.0224 87.8412C95.039 87.8246 94.9338 87.7692 94.9227 87.8246Z" fill="#263238"/>
<path d="M94.2364 43.69C93.7106 50.1934 93.0575 56.8795 91.541 63.2335C90.3565 68.1816 87.6666 72.0283 82.2978 72.543C77.3165 73.019 70.4256 71.9895 66.7726 68.2203C65.0679 66.4658 64.6971 64.2629 65.1454 61.9162C65.7708 58.6562 70.8463 41.0111 72.3905 35.4985C73.3314 32.1444 74.2613 28.7404 75.7889 25.5856C78.988 18.9438 82.4307 19.4973 82.9066 19.4143C83.355 19.2039 86.1445 18.3959 89.7311 20.1006C90.6748 20.5411 91.5147 21.1761 92.1957 21.964C92.8768 22.7519 93.3836 23.6749 93.6829 24.6724C95.5869 30.6057 94.7456 37.6017 94.2364 43.69Z" fill="#263238"/>
<path d="M81.722 20.2279C77.3328 21.5895 75.7277 25.962 74.178 29.8585C72.0194 35.2881 69.9494 40.7565 68.145 46.319C67.2816 48.9924 66.4846 51.6878 65.7485 54.3999C65.0566 57.0013 64.1544 59.7521 63.9662 62.4475C63.6563 66.8754 67.42 69.4657 71.2501 70.6335C71.2882 70.646 71.3298 70.6428 71.3656 70.6246C71.4014 70.6065 71.4285 70.5748 71.441 70.5367C71.4535 70.4985 71.4503 70.4569 71.4321 70.4211C71.414 70.3853 71.3823 70.3582 71.3442 70.3457C69.1745 69.5985 66.9883 68.6853 65.5547 66.7868C63.7116 64.3736 64.3426 61.6394 64.968 58.9163C66.0418 54.2781 67.3757 49.7119 68.8424 45.1955C70.3092 40.6791 72.0028 36.2069 73.7297 31.7735C75.3901 27.5505 76.9233 21.905 81.7109 20.2999C81.7828 20.2999 81.7662 20.2113 81.722 20.2279Z" fill="#263238"/>
<path d="M94.9061 29.6478C94.5851 26.1664 93.2789 22.6352 89.8639 21.1685C94.2585 23.2606 94.6902 28.4357 94.7234 32.7086C94.7603 37.2139 94.633 41.7119 94.3415 46.2025C94.0648 50.5251 93.6884 54.87 93.0187 59.1484C92.2937 63.7644 90.8601 68.0041 87.6057 71.4302C87.5984 71.4367 87.5925 71.4446 87.5883 71.4534C87.5841 71.4623 87.5816 71.4718 87.5811 71.4816C87.5806 71.4914 87.582 71.5011 87.5853 71.5104C87.5885 71.5196 87.5936 71.5281 87.6001 71.5353C87.6067 71.5426 87.6146 71.5485 87.6234 71.5527C87.6322 71.5569 87.6418 71.5594 87.6516 71.5599C87.6613 71.5604 87.6711 71.559 87.6803 71.5557C87.6895 71.5524 87.698 71.5474 87.7053 71.5409C90.8214 68.8233 92.2992 64.6943 93.0575 60.7424C93.9724 55.4961 94.54 50.1952 94.7567 44.8741C95.0445 39.8651 95.371 34.69 94.9061 29.6478Z" fill="#263238"/>
<path d="M81.4619 44.5754C81.6722 45.1289 84.8991 48.5051 87.5115 48.0457C88.3583 47.8908 87.7329 43.2138 87.7329 43.2138L87.7661 42.8596L88.2199 37.8783L82.0597 34.9669L81.1796 34.5906C81.1796 34.5906 81.1409 35.9632 81.1188 37.6679C81.1188 37.751 81.1188 37.8284 81.1188 37.9115C81.1133 38.0055 81.1133 38.0997 81.1188 38.1937C81.1188 38.4483 81.1188 38.7085 81.1188 38.9686C81.1188 39.2288 81.1188 39.3561 81.1188 39.5608C81.1188 39.7656 81.1188 39.976 81.1188 40.1807C81.1333 41.6517 81.248 43.12 81.4619 44.5754Z" fill="#EB9481"/>
<path d="M81.1189 37.6679C81.7831 38.9633 82.7212 40.0986 83.8681 40.9951C85.015 41.8916 86.3433 42.5278 87.7607 42.8596L88.2145 37.8783L82.0598 34.9669L81.1797 34.5906C81.1797 34.5906 81.141 35.9632 81.1189 37.6679Z" fill="#263238"/>
<path d="M94.5519 30.5448C95.2492 39.2899 90.0908 40.6957 88.2034 40.8452C86.4876 40.978 80.6373 41.2215 79.0433 32.5872C77.4492 23.9529 81.2959 20.8534 85.198 20.3552C89.1 19.8571 93.86 21.7943 94.5519 30.5448Z" fill="#EB9481"/>
<path d="M93.0797 28.6851C92.8801 28.6557 92.6824 28.615 92.4874 28.5633C92.2711 28.5503 92.065 28.4667 91.9007 28.3253C91.859 28.2704 91.8364 28.2033 91.8364 28.1343C91.8364 28.0654 91.859 27.9983 91.9007 27.9434C91.9994 27.8482 92.1215 27.7806 92.2546 27.7476C92.3878 27.7145 92.5272 27.7172 92.659 27.7552C92.9411 27.7907 93.1988 27.9334 93.3785 28.1537C93.4178 28.2053 93.4411 28.2672 93.4455 28.3319C93.45 28.3966 93.4354 28.4611 93.4037 28.5176C93.3719 28.5741 93.3243 28.62 93.2667 28.6498C93.2091 28.6795 93.1441 28.6918 93.0797 28.6851Z" fill="#263238"/>
<path d="M87.257 28.8068C87.4618 28.7791 87.6445 28.7238 87.8493 28.6795C88.0553 28.6564 88.2488 28.5693 88.4027 28.4304C88.4454 28.3759 88.4685 28.3087 88.4685 28.2395C88.4685 28.1702 88.4454 28.103 88.4027 28.0485C88.3027 27.9537 88.1791 27.8873 88.0449 27.8562C87.9106 27.8251 87.7705 27.8303 87.6389 27.8714C87.3604 27.916 87.1081 28.0619 86.9305 28.281C86.8903 28.3345 86.8672 28.3989 86.8643 28.4657C86.8613 28.5325 86.8787 28.5987 86.9139 28.6555C86.9492 28.7124 87.0009 28.7572 87.0621 28.7842C87.1233 28.8112 87.1913 28.8191 87.257 28.8068Z" fill="#263238"/>
<path d="M88.6242 31.0151C88.6242 31.0151 88.5799 31.0151 88.5799 31.0649C88.6186 31.6627 88.5799 32.3546 88.0264 32.5704C88.0264 32.5704 88.0264 32.6092 88.0264 32.6036C88.7016 32.4763 88.757 31.5742 88.6242 31.0151Z" fill="#263238"/>
<path d="M88.0705 30.4066C87.1074 30.3678 87.0964 32.294 87.9875 32.3327C88.8786 32.3714 88.8786 30.4398 88.0705 30.4066Z" fill="#263238"/>
<path d="M87.6941 30.5058C87.5225 30.6165 87.3564 30.8047 87.1406 30.8268C86.9247 30.8489 86.731 30.6442 86.5871 30.4504H86.5539C86.5539 30.8157 86.6812 31.1976 87.1074 31.253C87.5336 31.3083 87.7328 30.9818 87.8269 30.6109C87.8214 30.5667 87.7605 30.4615 87.6941 30.5058Z" fill="#263238"/>
<path d="M91.9449 30.8821C91.9449 30.8821 91.9892 30.8821 91.9892 30.9319C91.9615 31.5297 92.0279 32.2215 92.5704 32.4263C92.5704 32.4263 92.5704 32.465 92.5704 32.4595C91.9062 32.3599 91.8232 31.4411 91.9449 30.8821Z" fill="#263238"/>
<path d="M92.4873 30.2629C93.4448 30.2075 93.4946 32.1337 92.6035 32.189C91.7124 32.2444 91.6792 30.3127 92.4873 30.2629Z" fill="#263238"/>
<path d="M92.8913 30.384C93.0463 30.4781 93.2013 30.6607 93.3839 30.6718C93.5666 30.6829 93.7437 30.467 93.8765 30.2622H93.9042C93.9042 30.6275 93.8101 31.0149 93.4614 31.0924C93.1127 31.1699 92.9079 30.8544 92.7972 30.4947C92.7806 30.4449 92.8305 30.3397 92.8913 30.384Z" fill="#263238"/>
<path d="M91.0706 33.5836C91.0706 33.5836 91.1979 34.4747 91.1979 34.8954C91.1979 34.9396 91.0983 34.9562 90.9543 34.9673C90.5933 35.0356 90.2204 35.003 89.8767 34.8732C89.533 34.7433 89.2317 34.5212 89.0061 34.2312C88.998 34.2224 88.9938 34.2107 88.9943 34.1988C88.9948 34.1869 89 34.1756 89.0088 34.1675C89.0177 34.1595 89.0293 34.1552 89.0413 34.1557C89.0532 34.1563 89.0644 34.1615 89.0725 34.1703C89.6093 34.5357 90.2504 34.7164 90.899 34.685C90.9267 34.5688 90.6278 33.163 90.6942 33.1574C91.0215 33.1837 91.3436 33.2544 91.6517 33.3678C91.4414 31.5025 90.9322 29.6871 90.744 27.8329C90.744 27.8183 90.7498 27.8042 90.7602 27.7938C90.7706 27.7834 90.7847 27.7776 90.7994 27.7776C90.814 27.7776 90.8281 27.7834 90.8385 27.7938C90.8489 27.8042 90.8547 27.8183 90.8547 27.8329C91.4616 29.7631 91.8751 31.7488 92.089 33.7607C92.1056 33.9489 91.2366 33.639 91.0706 33.5836Z" fill="#263238"/>
<path d="M91.7456 31.4638C91.6128 30.0358 92.2714 28.8071 93.2123 28.6964C94.1533 28.5857 95.0333 29.6926 95.1661 31.1206C95.299 32.5486 94.6126 33.7773 93.6994 33.888C92.7862 33.9987 91.8784 32.8917 91.7456 31.4638ZM92.0943 31.4306C92.2105 32.6648 92.9135 33.6113 93.6662 33.5449C94.4189 33.4784 94.9392 32.4102 94.823 31.176C94.7067 29.9417 93.9983 28.9952 93.2456 29.0617C92.4928 29.1281 91.9781 30.1963 92.0943 31.4306Z" fill="#263238"/>
<path d="M85.2422 32.0777C85.2304 31.6046 85.357 31.1384 85.6064 30.7363C85.8558 30.3341 86.2172 30.0136 86.6463 29.8139C87.0753 29.6143 87.5533 29.5443 88.0216 29.6125C88.4898 29.6808 88.928 29.8842 89.2822 30.198C89.6365 30.5117 89.8914 30.9221 90.0157 31.3787C90.14 31.8353 90.1283 32.3182 89.982 32.7682C89.8357 33.2183 89.5611 33.6158 89.1921 33.9119C88.823 34.2081 88.3755 34.3901 87.9045 34.4355C87.2394 34.4734 86.5863 34.2468 86.0876 33.8051C85.5888 33.3634 85.285 32.7425 85.2422 32.0777ZM85.5909 32.0445C85.6614 32.4424 85.8462 32.8113 86.1228 33.1059C86.3995 33.4006 86.7559 33.6083 87.1486 33.7038C87.5413 33.7993 87.9533 33.7783 88.3343 33.6435C88.7153 33.5087 89.0488 33.2658 89.2941 32.9446C89.5394 32.6234 89.6859 32.2377 89.7156 31.8347C89.7453 31.4316 89.6571 31.0286 89.4616 30.6749C89.2661 30.3212 88.9718 30.032 88.6147 29.8428C88.2576 29.6535 87.8531 29.5723 87.4506 29.6091C86.8814 29.6862 86.366 29.9859 86.0174 30.4424C85.6688 30.8989 85.5154 31.475 85.5909 32.0445Z" fill="#263238"/>
<path d="M89.9357 31.3972C91.1865 30.8437 91.812 31.1924 91.8175 31.198L92.0057 30.9046C91.978 30.9046 91.2364 30.4176 89.7918 31.0817L89.9357 31.3972Z" fill="#263238"/>
<path d="M85.3807 31.8342L85.4139 31.4855C85.1815 31.4855 79.8127 30.9874 79.2371 31.0095C78.6614 31.0316 77.2943 31.956 77.1449 32.0611L77.3442 32.3489C77.9128 31.9189 78.5486 31.586 79.226 31.3637H79.2924C79.7131 31.3693 83.4712 31.6626 85.3807 31.8342Z" fill="#263238"/>
<path d="M79.2923 31.9618C80.2388 31.9064 82.7073 29.2884 82.7848 24.7056C82.7848 24.7056 82.4306 28.818 82.1262 29.4213C81.8217 30.0246 83.5043 27.949 83.615 24.2573C84.781 25.0891 86.0595 25.7507 87.4119 26.2222C89.1554 26.7092 90.2236 26.6926 90.3509 26.5653C90.4782 26.438 87.9045 25.6299 87.2071 24.8329C87.2071 24.8329 91.8564 26.986 93.9928 27.152C94.2419 27.152 94.5463 22.0766 91.2254 19.918C87.9045 17.7594 82.6741 20.0951 81.2627 21.4567C81.2627 21.4567 79.6023 21.6891 77.8145 24.1411C76.0268 26.593 78.2739 32.0226 79.2923 31.9618Z" fill="#263238"/>
<path d="M80.4879 33.1514C80.4879 33.1514 78.5894 30.384 77.3441 31.0703C76.0987 31.7567 77.5046 35.7251 78.9603 36.2786C79.1421 36.3624 79.339 36.4087 79.5392 36.4147C79.7394 36.4207 79.9387 36.3862 80.1253 36.3133C80.3118 36.2405 80.4817 36.1307 80.6249 35.9907C80.768 35.8506 80.8814 35.6831 80.9583 35.4982L80.4879 33.1514Z" fill="#EB9481"/>
<path d="M77.7757 32.1997V32.2385C78.7941 32.6646 79.3254 33.6166 79.6963 34.6018C79.6382 34.4984 79.5582 34.4089 79.4619 34.3397C79.3656 34.2704 79.2553 34.2231 79.1388 34.2009C79.0222 34.1788 78.9023 34.1824 78.7873 34.2115C78.6723 34.2406 78.565 34.2944 78.4731 34.3694C78.4731 34.3694 78.4731 34.4302 78.5007 34.4247C78.681 34.3681 78.8743 34.3692 79.0539 34.4277C79.2334 34.4863 79.3903 34.5994 79.5026 34.7513C79.6897 35.0048 79.8493 35.2775 79.9785 35.5649C80.0228 35.659 80.1889 35.6092 80.1557 35.504C80.1778 34.1756 79.176 32.3436 77.7757 32.1997Z" fill="#263238"/>
<path d="M80.1834 36.0796C80.1845 36.2068 80.1477 36.3315 80.0779 36.4378C80.008 36.5441 79.9081 36.6273 79.7909 36.6767C79.6737 36.7262 79.5444 36.7397 79.4195 36.7155C79.2946 36.6914 79.1797 36.6307 79.0893 36.5411C78.999 36.4515 78.9373 36.3372 78.9121 36.2125C78.8868 36.0878 78.8992 35.9584 78.9476 35.8408C78.9961 35.7231 79.0784 35.6225 79.1841 35.5517C79.2897 35.4809 79.4141 35.4431 79.5413 35.4431C79.7106 35.4431 79.8731 35.51 79.9934 35.6292C80.1136 35.7484 80.1819 35.9103 80.1834 36.0796Z" fill="white"/>
<path d="M99.7712 88.7378C99.7712 88.7378 70.2927 89.1751 62.9757 88.6603C62.9757 88.6603 68.9422 54.8426 76.8127 46.2968C77.1059 45.9758 77.4163 45.6709 77.7426 45.3836C78.2241 44.9795 78.1577 41.7527 78.3846 41.5092C78.6115 41.2657 88.1757 42.5221 88.2975 42.7545C88.4192 42.987 88.9118 46.0311 88.9118 46.0311C91.0815 48.7986 98.0609 58.3627 98.8745 62.309C99.6881 66.2554 97.1255 70.6113 97.1255 70.6113L99.7712 88.7378Z" fill="#1677F1"/>
<path d="M74.56 52.3297C72.8166 60.7316 73.8516 78.8969 77.8809 82.2178C84.5227 87.653 100.485 89.2415 104.941 89.7673C106.861 89.9942 110.686 77.4246 109.369 75.8029C108.051 74.1812 88.4303 71.6573 87.4949 70.8216C86.8473 70.2238 83.7977 59.2483 81.1686 53.0603C77.6319 44.6862 75.1965 49.2302 74.56 52.3297Z" fill="#EB9481"/>
<path d="M106.048 74.7899C106.048 74.7899 111.937 74.729 115.789 74.8729C117.942 74.9504 121.612 75.4264 123.167 76.2013C125.486 77.3691 134.452 83.7342 132.952 85.9426C131.596 87.9406 128.929 85.3116 128.929 85.3116C128.929 85.3116 132.117 87.9074 130.163 89.4793C128.209 91.0512 125.049 87.2986 125.049 87.2986C125.049 87.2986 128.624 89.8225 126.377 91.2947C124.429 92.5788 120.339 88.638 120.339 88.638C120.339 88.638 124.385 90.8519 122.514 92.3851C120.449 94.0455 113.575 88.9092 113.575 88.9092C108.649 90.0162 105.544 90.0162 101.924 89.424C101.26 89.3133 106.048 74.7899 106.048 74.7899Z" fill="#EB9481"/>
<path d="M126.034 88.1734L125.231 87.3265C124.735 86.7653 124.206 86.2331 123.649 85.7325C123.095 85.2565 122.542 84.8026 121.933 84.3709C121.324 83.9392 120.638 83.5075 120.029 83.037C119.979 82.9983 119.924 83.0702 119.979 83.1035C120.583 83.5695 121.164 84.0665 121.717 84.5923C122.27 85.0905 122.824 85.5997 123.377 86.1033C123.931 86.607 124.484 87.0553 125.038 87.5368C125.309 87.7748 125.591 88.0239 125.84 88.273C126.076 88.5287 126.334 88.7639 126.61 88.9759C126.637 88.9759 126.671 88.9759 126.654 88.9316C126.475 88.6575 126.267 88.4033 126.034 88.1734Z" fill="#263238"/>
<path d="M129.582 85.8656C128.694 84.7927 127.732 83.7829 126.704 82.8436C125.662 81.9106 124.529 81.0854 123.322 80.3806C123.278 80.3806 123.233 80.4138 123.267 80.447C124.307 81.3824 125.364 82.3012 126.421 83.2144C126.936 83.6628 129.216 85.7771 129.482 85.9819C129.543 86.0151 129.621 85.9265 129.582 85.8656Z" fill="#263238"/>
<path d="M122.752 90.4318C121.891 89.4415 120.966 88.5078 119.984 87.6367C118.904 86.8411 117.767 86.127 116.581 85.5002C116.536 85.5002 116.492 85.5445 116.531 85.5722C117.604 86.3692 118.689 87.1385 119.724 87.9854C120.233 88.4005 122.149 90.1606 122.669 90.5093C122.724 90.5425 122.785 90.4761 122.752 90.4318Z" fill="#263238"/>
<path d="M100.524 90.2875L107.548 73.9099C107.548 73.9099 88.3086 70.7274 87.7164 70.34C87.1242 69.9525 83.6151 57.1782 81.3624 52.1636C79.1097 47.1491 75.2409 44.2045 73.7465 54.9698C72.2521 65.735 74.4162 78.8802 76.5803 81.6144C79.2038 84.9242 89.5927 89.1141 100.524 90.2875Z" fill="#1677F1"/>
<path d="M90.6387 88.2177C87.7606 87.4373 84.9544 86.0757 82.2036 84.8968C79.8402 83.906 77.427 82.6829 76.1153 80.3638C75.5037 79.183 75.0763 77.9156 74.8478 76.6056C74.5434 75.1444 74.2943 73.6666 74.084 72.1778C73.8294 70.4804 73.6006 68.7794 73.3977 67.0747C73.2981 66.2001 73.1984 65.3257 73.1099 64.4512C73.0213 63.5766 72.8608 62.7021 72.8276 61.8221C72.8276 61.8104 72.8229 61.7991 72.8146 61.7908C72.8063 61.7825 72.7951 61.7778 72.7833 61.7778C72.7716 61.7778 72.7603 61.7825 72.752 61.7908C72.7437 61.7991 72.7391 61.8104 72.7391 61.8221C72.7999 62.6302 72.739 63.4438 72.8055 64.2574C72.8055 64.8109 72.8719 65.3201 72.9106 65.8515L72.7557 65.5138C72.5852 65.1261 72.4554 64.7217 72.3682 64.3072C72.3682 64.2574 72.2741 64.2796 72.2852 64.3072C72.3848 64.7224 72.4844 65.143 72.6007 65.5526C72.656 65.7518 72.7224 65.9511 72.7999 66.1503C72.8463 66.2841 72.8999 66.4153 72.9604 66.5433C73.0933 68.1337 73.2649 69.7166 73.4752 71.2922C73.68 72.8198 73.918 74.3363 74.1892 75.8529C74.3899 77.1942 74.7466 78.5074 75.2519 79.766C75.7544 80.9524 76.5233 82.0073 77.499 82.8489C78.5101 83.679 79.6268 84.3714 80.8199 84.9078C83.5176 86.1541 86.3059 87.194 89.1609 88.0184C92.5758 89.0922 93.6164 89.0202 90.6387 88.2177Z" fill="#263238"/>
<path d="M97.8616 72.2054C97.1532 72.1113 88.779 70.3512 88.4524 70.2571C88.2889 70.2073 88.1412 70.1157 88.0238 69.9915C87.9064 69.8673 87.8233 69.7147 87.7827 69.5487C87.5226 68.8734 87.2956 68.1816 87.0521 67.5008C86.6315 66.3274 86.2034 65.1595 85.768 63.9972C85.768 63.7371 85.7182 63.4438 85.6905 63.2168C85.6629 62.9899 85.6075 62.5969 85.5577 62.287C85.447 61.6173 85.2478 60.9586 85.1647 60.2889C85.1647 60.2225 85.0596 60.2446 85.0762 60.2889C85.2448 60.9484 85.345 61.6235 85.3751 62.3036C85.4027 62.5693 85.4193 62.8571 85.4359 63.1061C85.1813 62.4253 84.9212 61.7446 84.65 61.0693C84.3345 60.2834 83.9747 59.4919 83.7201 58.6838C83.7201 58.6285 83.6205 58.6561 83.6371 58.6838C83.9249 59.4089 84.1297 60.1782 84.3566 60.8977C84.5836 61.6173 84.8271 62.3921 85.0706 63.1393C85.5466 64.6061 86.0503 66.0617 86.5595 67.5229C86.803 68.2258 87.041 68.9398 87.3012 69.6372C87.3726 69.8984 87.5131 70.1354 87.7079 70.3234C87.9027 70.5114 88.1446 70.6434 88.4081 70.7054C89.8638 71.0984 96.9816 72.2773 97.845 72.3105C97.9336 72.3659 97.9557 72.2164 97.8616 72.2054Z" fill="#263238"/>
<path d="M103.989 74.1648C102.882 76.5171 101.775 78.8528 100.773 81.2549C99.7597 83.618 98.871 86.0327 98.1108 88.4889C98.1064 88.5 98.1065 88.5123 98.1112 88.5232C98.1159 88.5341 98.1247 88.5427 98.1357 88.5471C98.1467 88.5515 98.159 88.5513 98.1699 88.5466C98.1808 88.542 98.1894 88.5332 98.1938 88.5222C99.3008 86.2141 100.269 83.8176 101.249 81.4431C102.229 79.0687 103.12 76.6278 104.111 74.2479C104.16 74.1482 104.033 74.0707 103.989 74.1648Z" fill="#263238"/>
<path d="M124.678 72.2939C123.831 72.7699 118.983 71.4305 117.018 72.9027C115.717 73.8769 114.444 76.2236 114.167 79.2844C113.885 82.4448 116.381 82.2843 117.306 80.9448C118.432 79.1815 119.415 77.3307 120.245 75.41C121.133 75.5871 122.01 75.8219 122.868 76.1129L124.678 72.2939Z" fill="#AD6359"/>
<path d="M118.733 83.3247C117.234 81.7528 109.739 87.5146 112.092 90.1325C114.444 92.7505 120.427 85.1069 118.733 83.3247Z" fill="#AD6359"/>
<path d="M121.235 85.5774C119.735 84.0055 112.241 89.7673 114.593 92.3852C116.946 95.0032 122.929 87.3596 121.235 85.5774Z" fill="#AD6359"/>
<path d="M123.206 86.3743C121.628 85.1511 115.617 91.4332 118.136 93.481C120.654 95.5289 124.993 87.758 123.206 86.3743Z" fill="#AD6359"/>
<path d="M125.348 86.7177C123.538 86.0258 119.724 93.5532 122.641 94.7432C125.558 95.9332 127.401 87.476 125.348 86.7177Z" fill="#AD6359"/>
<path d="M118.512 85.9151C118.096 86.1939 117.703 86.5068 117.339 86.8505C116.935 87.2047 116.536 87.5645 116.171 87.9574C115.815 88.3289 115.48 88.7207 115.169 89.1308C114.843 89.5736 114.571 90.0551 114.239 90.4868C114.233 90.4907 114.228 90.496 114.225 90.5022C114.221 90.5084 114.219 90.5153 114.219 90.5225C114.219 90.5296 114.22 90.5367 114.223 90.5432C114.226 90.5496 114.231 90.5552 114.237 90.5595C114.242 90.5638 114.249 90.5666 114.256 90.5678C114.263 90.5689 114.27 90.5683 114.277 90.5661C114.284 90.5639 114.29 90.56 114.295 90.5549C114.3 90.5497 114.304 90.5435 114.306 90.5366C114.634 90.1192 114.991 89.7252 115.374 89.3577C115.734 88.9814 116.071 88.5884 116.431 88.2065C116.791 87.8246 117.112 87.4538 117.466 87.0995C117.82 86.7453 118.219 86.38 118.573 85.9926C118.59 85.9427 118.551 85.8929 118.512 85.9151Z" fill="#263238"/>
<path d="M121.49 86.6181C121.169 87.1107 120.045 89.0202 119.702 89.5018C119.359 89.9833 118.999 90.4648 118.634 90.9353C118.269 91.4057 117.914 91.9205 117.499 92.3633C117.466 92.402 117.527 92.4629 117.566 92.4242C117.981 91.9814 118.435 91.5773 118.828 91.1124C119.221 90.6475 119.58 90.177 119.935 89.6844C120.549 88.7082 121.104 87.6953 121.595 86.6513C121.595 86.6015 121.518 86.5739 121.49 86.6181Z" fill="#263238"/>
<path d="M123.571 87.6917C123.239 88.4223 122.951 89.1806 122.613 89.9056C122.447 90.2654 122.276 90.6252 122.11 91.0126L121.877 91.5384C121.804 91.7478 121.712 91.9498 121.601 92.1417C121.567 92.186 121.656 92.2358 121.678 92.1749C121.789 91.9558 121.919 91.7466 122.065 91.5495C122.16 91.3834 122.259 91.2174 122.348 91.0513C122.536 90.6824 122.708 90.3226 122.863 89.9721C123.186 89.2549 123.456 88.5149 123.671 87.7581C123.679 87.7449 123.683 87.7287 123.679 87.7132C123.676 87.6976 123.667 87.6839 123.654 87.6751C123.641 87.6663 123.625 87.6631 123.609 87.6662C123.593 87.6693 123.58 87.6785 123.571 87.6917Z" fill="#263238"/>
<path d="M128.458 24.7829C128.193 27.3112 127.231 29.7163 125.68 31.7298C124.128 33.7433 122.047 35.2862 119.67 36.1862C117.292 37.0862 114.711 37.308 112.215 36.8269C109.719 36.3458 107.406 35.1807 105.533 33.4615L98.6642 34.4689L102.101 28.5355C101.208 26.3406 100.899 23.9517 101.203 21.6017C101.508 19.2516 102.415 17.0204 103.838 15.1255C105.261 13.2305 107.151 11.7363 109.323 10.7886C111.494 9.84077 113.875 9.47165 116.232 9.71714C119.85 10.0954 123.17 11.8946 125.463 14.7196C127.756 17.5445 128.833 21.1641 128.458 24.7829Z" fill="white"/>
<path d="M128.458 24.7832C128.191 27.3106 127.234 29.7158 125.691 31.7349C125.309 32.2391 124.895 32.718 124.451 33.1684C123.993 33.6058 123.509 34.0143 123.001 34.3916C121.988 35.1619 120.869 35.7826 119.68 36.2347C118.497 36.7009 117.254 36.9972 115.988 37.1147C115.355 37.1746 114.719 37.1876 114.084 37.1535C113.447 37.1373 112.812 37.0707 112.186 36.9542C109.658 36.4991 107.306 35.3492 105.394 33.6333L105.56 33.6832L98.7084 34.6905L98.2102 34.768L98.4593 34.3307L101.874 28.3863V28.6188C101.074 26.6577 100.732 24.5394 100.876 22.426C101.02 20.3125 101.645 18.2601 102.705 16.4256C103.772 14.5953 105.241 13.0304 107 11.8483C109.185 10.3849 111.743 9.57481 114.373 9.51309C117.003 9.45137 119.596 10.1405 121.848 11.4998C124.1 12.8591 125.918 14.8321 127.088 17.1877C128.259 19.5433 128.734 22.1838 128.458 24.7998V24.7832ZM128.458 24.7832C128.677 22.717 128.418 20.6282 127.703 18.6776C126.987 16.727 125.834 14.9666 124.331 13.5321C122.828 12.0976 121.016 11.0271 119.034 10.4032C117.052 9.77923 114.953 9.61846 112.9 9.93324C110.867 10.2318 108.929 10.9889 107.232 12.1472C105.556 13.3244 104.157 14.8523 103.131 16.6248C102.117 18.403 101.521 20.3884 101.387 22.4309C101.261 24.4683 101.59 26.5083 102.35 28.4029L102.4 28.5247L102.334 28.6409L98.8799 34.5632L98.6364 34.1979L105.505 33.2348H105.599L105.671 33.2957C107.503 35.0112 109.776 36.184 112.235 36.683C112.851 36.8056 113.474 36.8814 114.101 36.91C114.725 36.9542 115.352 36.9542 115.977 36.91C117.23 36.8131 118.463 36.5411 119.641 36.1019C120.831 35.6766 121.95 35.0759 122.962 34.3197C123.991 33.5907 124.901 32.7056 125.657 31.6962C127.206 29.6916 128.175 27.3004 128.458 24.7832Z" fill="#263238"/>
<path d="M113.204 31.1811L107.348 25.2478L109.313 23.3051L112.739 26.7699L119.852 15.6172L122.182 17.1061L113.204 31.1811Z" fill="#1677F1"/>
</svg>
